<svg version="1.1" xmlns="http://www.w3.org/2000/svg" xmlns:xlink="http://www.w3.org/1999/xlink" width="879.44140625" height="333"><defs/><g><text fill="#eeeeee" stroke="none" font-family="Arial" font-size="24px" font-style="normal" font-weight="normal" text-decoration="none" x="0" y="0">UNREGISTERED</text><text fill="#eeeeee" stroke="none" font-family="Arial" font-size="24px" font-style="normal" font-weight="normal" text-decoration="none" x="0" y="30">UNREGISTERED</text><text fill="#eeeeee" stroke="none" font-family="Arial" font-size="24px" font-style="normal" font-weight="normal" text-decoration="none" x="0" y="60">UNREGISTERED</text><text fill="#eeeeee" stroke="none" font-family="Arial" font-size="24px" font-style="normal" font-weight="normal" text-decoration="none" x="0" y="90">UNREGISTERED</text><text fill="#eeeeee" stroke="none" font-family="Arial" font-size="24px" font-style="normal" font-weight="normal" text-decoration="none" x="0" y="120">UNREGISTERED</text><text fill="#eeeeee" stroke="none" font-family="Arial" font-size="24px" font-style="normal" font-weight="normal" text-decoration="none" x="0" y="150">UNREGISTERED</text><text fill="#eeeeee" stroke="none" font-family="Arial" font-size="24px" font-style="normal" font-weight="normal" text-decoration="none" x="0" y="180">UNREGISTERED</text><text fill="#eeeeee" stroke="none" font-family="Arial" font-size="24px" font-style="normal" font-weight="normal" text-decoration="none" x="0" y="210">UNREGISTERED</text><text fill="#eeeeee" stroke="none" font-family="Arial" font-size="24px" font-style="normal" font-weight="normal" text-decoration="none" x="0" y="240">UNREGISTERED</text><text fill="#eeeeee" stroke="none" font-family="Arial" font-size="24px" font-style="normal" font-weight="normal" text-decoration="none" x="0" y="270">UNREGISTERED</text><text fill="#eeeeee" stroke="none" font-family="Arial" font-size="24px" font-style="normal" font-weight="normal" text-decoration="none" x="0" y="300">UNREGISTERED</text><text fill="#eeeeee" stroke="none" font-family="Arial" font-size="24px" font-style="normal" font-weight="normal" text-decoration="none" x="0" y="330">UNREGISTERED</text><text fill="#eeeeee" stroke="none" font-family="Arial" font-size="24px" font-style="normal" font-weight="normal" text-decoration="none" x="200" y="0">UNREGISTERED</text><text fill="#eeeeee" stroke="none" font-family="Arial" font-size="24px" font-style="normal" font-weight="normal" text-decoration="none" x="200" y="30">UNREGISTERED</text><text fill="#eeeeee" stroke="none" font-family="Arial" font-size="24px" font-style="normal" font-weight="normal" text-decoration="none" x="200" y="60">UNREGISTERED</text><text fill="#eeeeee" stroke="none" font-family="Arial" font-size="24px" font-style="normal" font-weight="normal" text-decoration="none" x="200" y="90">UNREGISTERED</text><text fill="#eeeeee" stroke="none" font-family="Arial" font-size="24px" font-style="normal" font-weight="normal" text-decoration="none" x="200" y="120">UNREGISTERED</text><text fill="#eeeeee" stroke="none" font-family="Arial" font-size="24px" font-style="normal" font-weight="normal" text-decoration="none" x="200" y="150">UNREGISTERED</text><text fill="#eeeeee" stroke="none" font-family="Arial" font-size="24px" font-style="normal" font-weight="normal" text-decoration="none" x="200" y="180">UNREGISTERED</text><text fill="#eeeeee" stroke="none" font-family="Arial" font-size="24px" font-style="normal" font-weight="normal" text-decoration="none" x="200" y="210">UNREGISTERED</text><text fill="#eeeeee" stroke="none" font-family="Arial" font-size="24px" font-style="normal" font-weight="normal" text-decoration="none" x="200" y="240">UNREGISTERED</text><text fill="#eeeeee" stroke="none" font-family="Arial" font-size="24px" font-style="normal" font-weight="normal" text-decoration="none" x="200" y="270">UNREGISTERED</text><text fill="#eeeeee" stroke="none" font-family="Arial" font-size="24px" font-style="normal" font-weight="normal" text-decoration="none" x="200" y="300">UNREGISTERED</text><text fill="#eeeeee" stroke="none" font-family="Arial" font-size="24px" font-style="normal" font-weight="normal" text-decoration="none" x="200" y="330">UNREGISTERED</text><text fill="#eeeeee" stroke="none" font-family="Arial" font-size="24px" font-style="normal" font-weight="normal" text-decoration="none" x="400" y="0">UNREGISTERED</text><text fill="#eeeeee" stroke="none" font-family="Arial" font-size="24px" font-style="normal" font-weight="normal" text-decoration="none" x="400" y="30">UNREGISTERED</text><text fill="#eeeeee" stroke="none" font-family="Arial" font-size="24px" font-style="normal" font-weight="normal" text-decoration="none" x="400" y="60">UNREGISTERED</text><text fill="#eeeeee" stroke="none" font-family="Arial" font-size="24px" font-style="normal" font-weight="normal" text-decoration="none" x="400" y="90">UNREGISTERED</text><text fill="#eeeeee" stroke="none" font-family="Arial" font-size="24px" font-style="normal" font-weight="normal" text-decoration="none" x="400" y="120">UNREGISTERED</text><text fill="#eeeeee" stroke="none" font-family="Arial" font-size="24px" font-style="normal" font-weight="normal" text-decoration="none" x="400" y="150">UNREGISTERED</text><text fill="#eeeeee" stroke="none" font-family="Arial" font-size="24px" font-style="normal" font-weight="normal" text-decoration="none" x="400" y="180">UNREGISTERED</text><text fill="#eeeeee" stroke="none" font-family="Arial" font-size="24px" font-style="normal" font-weight="normal" text-decoration="none" x="400" y="210">UNREGISTERED</text><text fill="#eeeeee" stroke="none" font-family="Arial" font-size="24px" font-style="normal" font-weight="normal" text-decoration="none" x="400" y="240">UNREGISTERED</text><text fill="#eeeeee" stroke="none" font-family="Arial" font-size="24px" font-style="normal" font-weight="normal" text-decoration="none" x="400" y="270">UNREGISTERED</text><text fill="#eeeeee" stroke="none" font-family="Arial" font-size="24px" font-style="normal" font-weight="normal" text-decoration="none" x="400" y="300">UNREGISTERED</text><text fill="#eeeeee" stroke="none" font-family="Arial" font-size="24px" font-style="normal" font-weight="normal" text-decoration="none" x="400" y="330">UNREGISTERED</text><text fill="#eeeeee" stroke="none" font-family="Arial" font-size="24px" font-style="normal" font-weight="normal" text-decoration="none" x="600" y="0">UNREGISTERED</text><text fill="#eeeeee" stroke="none" font-family="Arial" font-size="24px" font-style="normal" font-weight="normal" text-decoration="none" x="600" y="30">UNREGISTERED</text><text fill="#eeeeee" stroke="none" font-family="Arial" font-size="24px" font-style="normal" font-weight="normal" text-decoration="none" x="600" y="60">UNREGISTERED</text><text fill="#eeeeee" stroke="none" font-family="Arial" font-size="24px" font-style="normal" font-weight="normal" text-decoration="none" x="600" y="90">UNREGISTERED</text><text fill="#eeeeee" stroke="none" font-family="Arial" font-size="24px" font-style="normal" font-weight="normal" text-decoration="none" x="600" y="120">UNREGISTERED</text><text fill="#eeeeee" stroke="none" font-family="Arial" font-size="24px" font-style="normal" font-weight="normal" text-decoration="none" x="600" y="150">UNREGISTERED</text><text fill="#eeeeee" stroke="none" font-family="Arial" font-size="24px" font-style="normal" font-weight="normal" text-decoration="none" x="600" y="180">UNREGISTERED</text><text fill="#eeeeee" stroke="none" font-family="Arial" font-size="24px" font-style="normal" font-weight="normal" text-decoration="none" x="600" y="210">UNREGISTERED</text><text fill="#eeeeee" stroke="none" font-family="Arial" font-size="24px" font-style="normal" font-weight="normal" text-decoration="none" x="600" y="240">UNREGISTERED</text><text fill="#eeeeee" stroke="none" font-family="Arial" font-size="24px" font-style="normal" font-weight="normal" text-decoration="none" x="600" y="270">UNREGISTERED</text><text fill="#eeeeee" stroke="none" font-family="Arial" font-size="24px" font-style="normal" font-weight="normal" text-decoration="none" x="600" y="300">UNREGISTERED</text><text fill="#eeeeee" stroke="none" font-family="Arial" font-size="24px" font-style="normal" font-weight="normal" text-decoration="none" x="600" y="330">UNREGISTERED</text><text fill="#eeeeee" stroke="none" font-family="Arial" font-size="24px" font-style="normal" font-weight="normal" text-decoration="none" x="800" y="0">UNREGISTERED</text><text fill="#eeeeee" stroke="none" font-family="Arial" font-size="24px" font-style="normal" font-weight="normal" text-decoration="none" x="800" y="30">UNREGISTERED</text><text fill="#eeeeee" stroke="none" font-family="Arial" font-size="24px" font-style="normal" font-weight="normal" text-decoration="none" x="800" y="60">UNREGISTERED</text><text fill="#eeeeee" stroke="none" font-family="Arial" font-size="24px" font-style="normal" font-weight="normal" text-decoration="none" x="800" y="90">UNREGISTERED</text><text fill="#eeeeee" stroke="none" font-family="Arial" font-size="24px" font-style="normal" font-weight="normal" text-decoration="none" x="800" y="120">UNREGISTERED</text><text fill="#eeeeee" stroke="none" font-family="Arial" font-size="24px" font-style="normal" font-weight="normal" text-decoration="none" x="800" y="150">UNREGISTERED</text><text fill="#eeeeee" stroke="none" font-family="Arial" font-size="24px" font-style="normal" font-weight="normal" text-decoration="none" x="800" y="180">UNREGISTERED</text><text fill="#eeeeee" stroke="none" font-family="Arial" font-size="24px" font-style="normal" font-weight="normal" text-decoration="none" x="800" y="210">UNREGISTERED</text><text fill="#eeeeee" stroke="none" font-family="Arial" font-size="24px" font-style="normal" font-weight="normal" text-decoration="none" x="800" y="240">UNREGISTERED</text><text fill="#eeeeee" stroke="none" font-family="Arial" font-size="24px" font-style="normal" font-weight="normal" text-decoration="none" x="800" y="270">UNREGISTERED</text><text fill="#eeeeee" stroke="none" font-family="Arial" font-size="24px" font-style="normal" font-weight="normal" text-decoration="none" x="800" y="300">UNREGISTERED</text><text fill="#eeeeee" stroke="none" font-family="Arial" font-size="24px" font-style="normal" font-weight="normal" text-decoration="none" x="800" y="330">UNREGISTERED</text><g transform="translate(-110,-190) scale(1,1)"><path fill="#C0C0C0" stroke="none" d="M 127 232.5 C 127 227.2532944 131.2532944 223 136.5 223 C 141.7467056 223 146 227.2532944 146 232.5 C 146 237.7467056 141.7467056 242 136.5 242 C 131.2532944 242 127 237.7467056 127 232.5 Z" opacity="0.2"/></g><g transform="translate(-110,-190) scale(1,1)"><path fill="#000000" stroke="none" d="M 120 225.5 C 120 220.2532944 124.2532944 216 129.5 216 C 134.7467056 216 139 220.2532944 139 225.5 C 139 230.7467056 134.7467056 235 129.5 235 C 124.2532944 235 120 230.7467056 120 225.5 Z"/></g><g transform="translate(-110,-190) scale(1,1)"><path fill="#C0C0C0" stroke="none" d="M 847 507.5 C 847 500.59644 852.59644 495 859.5 495 C 866.40356 495 872 500.59644 872 507.5 C 872 514.40356 866.40356 520 859.5 520 C 852.59644 520 847 514.40356 847 507.5 Z" opacity="0.2"/></g><g transform="translate(-110,-190) scale(1,1)"><path fill="none" stroke="#000000" d="M 840 500.5 C 840 493.59644 845.59644 488 852.5 488 C 859.40356 488 865 493.59644 865 500.5 C 865 507.40356 859.40356 513 852.5 513 C 845.59644 513 840 507.40356 840 500.5 Z" stroke-miterlimit="10"/></g><g transform="translate(-110,-190) scale(1,1)"><path fill="#000000" stroke="none" d="M 845 500.5 C 845 496.357864 848.357864 493 852.5 493 C 856.642136 493 860 496.357864 860 500.5 C 860 504.642136 856.642136 508 852.5 508 C 848.357864 508 845 504.642136 845 500.5 Z"/></g><g transform="translate(-110,-190) scale(1,1)"><path fill="#C0C0C0" stroke="none" d="M 401 207 L 564.8779296875 207 Q 574.8779296875 207 574.8779296875 217 L 574.8779296875 244 Q 574.8779296875 254 564.8779296875 254 L 401 254 Q 391 254 391 244 L 391 217 Q 391 207 401 207 Z" opacity="0.2"/></g><g transform="translate(-110,-190) scale(1,1)"><path fill="#ffffff" stroke="none" d="M 394 200 L 557.8779296875 200 Q 567.8779296875 200 567.8779296875 210 L 567.8779296875 237 Q 567.8779296875 247 557.8779296875 247 L 394 247 Q 384 247 384 237 L 384 210 Q 384 200 394 200 Z"/></g><g transform="translate(-110,-190) scale(1,1)"><path fill="none" stroke="#000000" d="M 394 200 L 557.8779296875 200 Q 567.8779296875 200 567.8779296875 210 L 567.8779296875 237 Q 567.8779296875 247 557.8779296875 247 L 394 247 Q 384 247 384 237 L 384 210 Q 384 200 394 200 Z" stroke-miterlimit="10"/></g><g transform="translate(-110,-190) scale(1,1)"><path fill="none" stroke="#000000" d="M 384 225 L 567.8779296875 225" stroke-miterlimit="10"/></g><g transform="translate(-110,-190) scale(1,1)"><g><path fill="none" stroke="none"/><text fill="#000000" stroke="none" font-family="Arial" font-size="13px" font-style="normal" font-weight="bold" text-decoration="none" x="410.91357421875" y="218">Confere preferências</text></g></g><g transform="translate(-110,-190) scale(1,1)"><g><path fill="none" stroke="none"/><text fill="#000000" stroke="none" font-family="Arial" font-size="13px" font-style="normal" font-weight="normal" text-decoration="none" x="389" y="241">do/ConfereDadosPreferencias</text></g></g><g transform="translate(-110,-190) scale(1,1)"><path fill="#C0C0C0" stroke="none" d="M 793 207 L 920.74072265625 207 Q 930.74072265625 207 930.74072265625 217 L 930.74072265625 244 Q 930.74072265625 254 920.74072265625 254 L 793 254 Q 783 254 783 244 L 783 217 Q 783 207 793 207 Z" opacity="0.2"/></g><g transform="translate(-110,-190) scale(1,1)"><path fill="#ffffff" stroke="none" d="M 786 200 L 913.74072265625 200 Q 923.74072265625 200 923.74072265625 210 L 923.74072265625 237 Q 923.74072265625 247 913.74072265625 247 L 786 247 Q 776 247 776 237 L 776 210 Q 776 200 786 200 Z"/></g><g transform="translate(-110,-190) scale(1,1)"><path fill="none" stroke="#000000" d="M 786 200 L 913.74072265625 200 Q 923.74072265625 200 923.74072265625 210 L 923.74072265625 237 Q 923.74072265625 247 913.74072265625 247 L 786 247 Q 776 247 776 237 L 776 210 Q 776 200 786 200 Z" stroke-miterlimit="10"/></g><g transform="translate(-110,-190) scale(1,1)"><path fill="none" stroke="#000000" d="M 776 225 L 923.74072265625 225" stroke-miterlimit="10"/></g><g transform="translate(-110,-190) scale(1,1)"><g><path fill="none" stroke="none"/><text fill="#000000" stroke="none" font-family="Arial" font-size="13px" font-style="normal" font-weight="bold" text-decoration="none" x="797.8544921875" y="218">Armazena dados</text></g></g><g transform="translate(-110,-190) scale(1,1)"><g><path fill="none" stroke="none"/><text fill="#000000" stroke="none" font-family="Arial" font-size="13px" font-style="normal" font-weight="normal" text-decoration="none" x="781" y="241">do/ArmazenaDadosPref</text></g></g><g transform="translate(-110,-190) scale(1,1)"><path fill="none" stroke="#000000" d="M 569 223 L 775 223" stroke-miterlimit="10"/></g><g transform="translate(-110,-190) scale(1,1)"><path fill="none" stroke="#000000" d="M 764.8373251423759 227.209517756016 L 775 223 L 764.8373251423758 218.790482243984" stroke-miterlimit="10"/></g><g transform="translate(-110,-190) scale(1,1)"><g><path fill="none" stroke="none"/><text fill="#000000" stroke="none" font-family="Arial" font-size="13px" font-style="normal" font-weight="normal" text-decoration="none" x="572.5" y="213">armazena preferências do jogador</text></g></g><g transform="translate(-110,-190) scale(1,1)"><path fill="#C0C0C0" stroke="none" d="M 801 375 L 913.56982421875 375 Q 923.56982421875 375 923.56982421875 385 L 923.56982421875 412 Q 923.56982421875 422 913.56982421875 422 L 801 422 Q 791 422 791 412 L 791 385 Q 791 375 801 375 Z" opacity="0.2"/></g><g transform="translate(-110,-190) scale(1,1)"><path fill="#ffffff" stroke="none" d="M 794 368 L 906.56982421875 368 Q 916.56982421875 368 916.56982421875 378 L 916.56982421875 405 Q 916.56982421875 415 906.56982421875 415 L 794 415 Q 784 415 784 405 L 784 378 Q 784 368 794 368 Z"/></g><g transform="translate(-110,-190) scale(1,1)"><path fill="none" stroke="#000000" d="M 794 368 L 906.56982421875 368 Q 916.56982421875 368 916.56982421875 378 L 916.56982421875 405 Q 916.56982421875 415 906.56982421875 415 L 794 415 Q 784 415 784 405 L 784 378 Q 784 368 794 368 Z" stroke-miterlimit="10"/></g><g transform="translate(-110,-190) scale(1,1)"><path fill="none" stroke="#000000" d="M 784 393 L 916.56982421875 393" stroke-miterlimit="10"/></g><g transform="translate(-110,-190) scale(1,1)"><g><path fill="none" stroke="none"/><text fill="#000000" stroke="none" font-family="Arial" font-size="13px" font-style="normal" font-weight="bold" text-decoration="none" x="792.476806640625" y="386">Exibe prefêrencias</text></g></g><g transform="translate(-110,-190) scale(1,1)"><g><path fill="none" stroke="none"/><text fill="#000000" stroke="none" font-family="Arial" font-size="13px" font-style="normal" font-weight="normal" text-decoration="none" x="789" y="409">do/ExibePreferencias</text></g></g><g transform="translate(-110,-190) scale(1,1)"><path fill="none" stroke="#000000" d="M 849 248 L 850 367" stroke-miterlimit="10"/></g><g transform="translate(-110,-190) scale(1,1)"><path fill="none" stroke="#000000" d="M 845.7052332529105 356.8730567994042 L 850 367 L 854.1239715193508 356.80231109968616" stroke-miterlimit="10"/></g><g transform="translate(-110,-190) scale(1,1)"><g><path fill="none" stroke="none"/><text fill="#000000" stroke="none" font-family="Arial" font-size="13px" font-style="normal" font-weight="normal" text-decoration="none" x="746.5" y="311">exibe preferências na página de seleção</text></g></g><g transform="translate(-110,-190) scale(1,1)"><path fill="none" stroke="#000000" d="M 140 225 L 383 224" stroke-miterlimit="10"/></g><g transform="translate(-110,-190) scale(1,1)"><path fill="none" stroke="#000000" d="M 372.8547341658335 228.25130346530267 L 383 224 L 372.8200882225233 219.8323392409181" stroke-miterlimit="10"/></g><g transform="translate(-110,-190) scale(1,1)"><g><path fill="none" stroke="none"/><text fill="#000000" stroke="none" font-family="Arial" font-size="13px" font-style="normal" font-weight="normal" text-decoration="none" x="189.5" y="214">confere dados recebidos</text></g></g><g transform="translate(-110,-190) scale(1,1)"><path fill="none" stroke="#000000" d="M 850 416 L 852 487" stroke-miterlimit="10"/></g><g transform="translate(-110,-190) scale(1,1)"><path fill="none" stroke="#000000" d="M 847.5059923418332 476.95988569943853 L 852 487 L 855.9216896160211 476.722823804391" stroke-miterlimit="10"/></g><g transform="translate(-110,-190) scale(1,1)"><g><path fill="none" stroke="none"/><text fill="#000000" stroke="none" font-family="Arial" font-size="13px" font-style="normal" font-weight="normal" text-decoration="none" x="791.5" y="455">preferências publicadas</text></g></g></g></svg>