<svg version="1.1" xmlns="http://www.w3.org/2000/svg" xmlns:xlink="http://www.w3.org/1999/xlink" width="878" height="412"><defs/><g><text fill="#eeeeee" stroke="none" font-family="Arial" font-size="24px" font-style="normal" font-weight="normal" text-decoration="none" x="0" y="0">UNREGISTERED</text><text fill="#eeeeee" stroke="none" font-family="Arial" font-size="24px" font-style="normal" font-weight="normal" text-decoration="none" x="0" y="30">UNREGISTERED</text><text fill="#eeeeee" stroke="none" font-family="Arial" font-size="24px" font-style="normal" font-weight="normal" text-decoration="none" x="0" y="60">UNREGISTERED</text><text fill="#eeeeee" stroke="none" font-family="Arial" font-size="24px" font-style="normal" font-weight="normal" text-decoration="none" x="0" y="90">UNREGISTERED</text><text fill="#eeeeee" stroke="none" font-family="Arial" font-size="24px" font-style="normal" font-weight="normal" text-decoration="none" x="0" y="120">UNREGISTERED</text><text fill="#eeeeee" stroke="none" font-family="Arial" font-size="24px" font-style="normal" font-weight="normal" text-decoration="none" x="0" y="150">UNREGISTERED</text><text fill="#eeeeee" stroke="none" font-family="Arial" font-size="24px" font-style="normal" font-weight="normal" text-decoration="none" x="0" y="180">UNREGISTERED</text><text fill="#eeeeee" stroke="none" font-family="Arial" font-size="24px" font-style="normal" font-weight="normal" text-decoration="none" x="0" y="210">UNREGISTERED</text><text fill="#eeeeee" stroke="none" font-family="Arial" font-size="24px" font-style="normal" font-weight="normal" text-decoration="none" x="0" y="240">UNREGISTERED</text><text fill="#eeeeee" stroke="none" font-family="Arial" font-size="24px" font-style="normal" font-weight="normal" text-decoration="none" x="0" y="270">UNREGISTERED</text><text fill="#eeeeee" stroke="none" font-family="Arial" font-size="24px" font-style="normal" font-weight="normal" text-decoration="none" x="0" y="300">UNREGISTERED</text><text fill="#eeeeee" stroke="none" font-family="Arial" font-size="24px" font-style="normal" font-weight="normal" text-decoration="none" x="0" y="330">UNREGISTERED</text><text fill="#eeeeee" stroke="none" font-family="Arial" font-size="24px" font-style="normal" font-weight="normal" text-decoration="none" x="0" y="360">UNREGISTERED</text><text fill="#eeeeee" stroke="none" font-family="Arial" font-size="24px" font-style="normal" font-weight="normal" text-decoration="none" x="0" y="390">UNREGISTERED</text><text fill="#eeeeee" stroke="none" font-family="Arial" font-size="24px" font-style="normal" font-weight="normal" text-decoration="none" x="200" y="0">UNREGISTERED</text><text fill="#eeeeee" stroke="none" font-family="Arial" font-size="24px" font-style="normal" font-weight="normal" text-decoration="none" x="200" y="30">UNREGISTERED</text><text fill="#eeeeee" stroke="none" font-family="Arial" font-size="24px" font-style="normal" font-weight="normal" text-decoration="none" x="200" y="60">UNREGISTERED</text><text fill="#eeeeee" stroke="none" font-family="Arial" font-size="24px" font-style="normal" font-weight="normal" text-decoration="none" x="200" y="90">UNREGISTERED</text><text fill="#eeeeee" stroke="none" font-family="Arial" font-size="24px" font-style="normal" font-weight="normal" text-decoration="none" x="200" y="120">UNREGISTERED</text><text fill="#eeeeee" stroke="none" font-family="Arial" font-size="24px" font-style="normal" font-weight="normal" text-decoration="none" x="200" y="150">UNREGISTERED</text><text fill="#eeeeee" stroke="none" font-family="Arial" font-size="24px" font-style="normal" font-weight="normal" text-decoration="none" x="200" y="180">UNREGISTERED</text><text fill="#eeeeee" stroke="none" font-family="Arial" font-size="24px" font-style="normal" font-weight="normal" text-decoration="none" x="200" y="210">UNREGISTERED</text><text fill="#eeeeee" stroke="none" font-family="Arial" font-size="24px" font-style="normal" font-weight="normal" text-decoration="none" x="200" y="240">UNREGISTERED</text><text fill="#eeeeee" stroke="none" font-family="Arial" font-size="24px" font-style="normal" font-weight="normal" text-decoration="none" x="200" y="270">UNREGISTERED</text><text fill="#eeeeee" stroke="none" font-family="Arial" font-size="24px" font-style="normal" font-weight="normal" text-decoration="none" x="200" y="300">UNREGISTERED</text><text fill="#eeeeee" stroke="none" font-family="Arial" font-size="24px" font-style="normal" font-weight="normal" text-decoration="none" x="200" y="330">UNREGISTERED</text><text fill="#eeeeee" stroke="none" font-family="Arial" font-size="24px" font-style="normal" font-weight="normal" text-decoration="none" x="200" y="360">UNREGISTERED</text><text fill="#eeeeee" stroke="none" font-family="Arial" font-size="24px" font-style="normal" font-weight="normal" text-decoration="none" x="200" y="390">UNREGISTERED</text><text fill="#eeeeee" stroke="none" font-family="Arial" font-size="24px" font-style="normal" font-weight="normal" text-decoration="none" x="400" y="0">UNREGISTERED</text><text fill="#eeeeee" stroke="none" font-family="Arial" font-size="24px" font-style="normal" font-weight="normal" text-decoration="none" x="400" y="30">UNREGISTERED</text><text fill="#eeeeee" stroke="none" font-family="Arial" font-size="24px" font-style="normal" font-weight="normal" text-decoration="none" x="400" y="60">UNREGISTERED</text><text fill="#eeeeee" stroke="none" font-family="Arial" font-size="24px" font-style="normal" font-weight="normal" text-decoration="none" x="400" y="90">UNREGISTERED</text><text fill="#eeeeee" stroke="none" font-family="Arial" font-size="24px" font-style="normal" font-weight="normal" text-decoration="none" x="400" y="120">UNREGISTERED</text><text fill="#eeeeee" stroke="none" font-family="Arial" font-size="24px" font-style="normal" font-weight="normal" text-decoration="none" x="400" y="150">UNREGISTERED</text><text fill="#eeeeee" stroke="none" font-family="Arial" font-size="24px" font-style="normal" font-weight="normal" text-decoration="none" x="400" y="180">UNREGISTERED</text><text fill="#eeeeee" stroke="none" font-family="Arial" font-size="24px" font-style="normal" font-weight="normal" text-decoration="none" x="400" y="210">UNREGISTERED</text><text fill="#eeeeee" stroke="none" font-family="Arial" font-size="24px" font-style="normal" font-weight="normal" text-decoration="none" x="400" y="240">UNREGISTERED</text><text fill="#eeeeee" stroke="none" font-family="Arial" font-size="24px" font-style="normal" font-weight="normal" text-decoration="none" x="400" y="270">UNREGISTERED</text><text fill="#eeeeee" stroke="none" font-family="Arial" font-size="24px" font-style="normal" font-weight="normal" text-decoration="none" x="400" y="300">UNREGISTERED</text><text fill="#eeeeee" stroke="none" font-family="Arial" font-size="24px" font-style="normal" font-weight="normal" text-decoration="none" x="400" y="330">UNREGISTERED</text><text fill="#eeeeee" stroke="none" font-family="Arial" font-size="24px" font-style="normal" font-weight="normal" text-decoration="none" x="400" y="360">UNREGISTERED</text><text fill="#eeeeee" stroke="none" font-family="Arial" font-size="24px" font-style="normal" font-weight="normal" text-decoration="none" x="400" y="390">UNREGISTERED</text><text fill="#eeeeee" stroke="none" font-family="Arial" font-size="24px" font-style="normal" font-weight="normal" text-decoration="none" x="600" y="0">UNREGISTERED</text><text fill="#eeeeee" stroke="none" font-family="Arial" font-size="24px" font-style="normal" font-weight="normal" text-decoration="none" x="600" y="30">UNREGISTERED</text><text fill="#eeeeee" stroke="none" font-family="Arial" font-size="24px" font-style="normal" font-weight="normal" text-decoration="none" x="600" y="60">UNREGISTERED</text><text fill="#eeeeee" stroke="none" font-family="Arial" font-size="24px" font-style="normal" font-weight="normal" text-decoration="none" x="600" y="90">UNREGISTERED</text><text fill="#eeeeee" stroke="none" font-family="Arial" font-size="24px" font-style="normal" font-weight="normal" text-decoration="none" x="600" y="120">UNREGISTERED</text><text fill="#eeeeee" stroke="none" font-family="Arial" font-size="24px" font-style="normal" font-weight="normal" text-decoration="none" x="600" y="150">UNREGISTERED</text><text fill="#eeeeee" stroke="none" font-family="Arial" font-size="24px" font-style="normal" font-weight="normal" text-decoration="none" x="600" y="180">UNREGISTERED</text><text fill="#eeeeee" stroke="none" font-family="Arial" font-size="24px" font-style="normal" font-weight="normal" text-decoration="none" x="600" y="210">UNREGISTERED</text><text fill="#eeeeee" stroke="none" font-family="Arial" font-size="24px" font-style="normal" font-weight="normal" text-decoration="none" x="600" y="240">UNREGISTERED</text><text fill="#eeeeee" stroke="none" font-family="Arial" font-size="24px" font-style="normal" font-weight="normal" text-decoration="none" x="600" y="270">UNREGISTERED</text><text fill="#eeeeee" stroke="none" font-family="Arial" font-size="24px" font-style="normal" font-weight="normal" text-decoration="none" x="600" y="300">UNREGISTERED</text><text fill="#eeeeee" stroke="none" font-family="Arial" font-size="24px" font-style="normal" font-weight="normal" text-decoration="none" x="600" y="330">UNREGISTERED</text><text fill="#eeeeee" stroke="none" font-family="Arial" font-size="24px" font-style="normal" font-weight="normal" text-decoration="none" x="600" y="360">UNREGISTERED</text><text fill="#eeeeee" stroke="none" font-family="Arial" font-size="24px" font-style="normal" font-weight="normal" text-decoration="none" x="600" y="390">UNREGISTERED</text><text fill="#eeeeee" stroke="none" font-family="Arial" font-size="24px" font-style="normal" font-weight="normal" text-decoration="none" x="800" y="0">UNREGISTERED</text><text fill="#eeeeee" stroke="none" font-family="Arial" font-size="24px" font-style="normal" font-weight="normal" text-decoration="none" x="800" y="30">UNREGISTERED</text><text fill="#eeeeee" stroke="none" font-family="Arial" font-size="24px" font-style="normal" font-weight="normal" text-decoration="none" x="800" y="60">UNREGISTERED</text><text fill="#eeeeee" stroke="none" font-family="Arial" font-size="24px" font-style="normal" font-weight="normal" text-decoration="none" x="800" y="90">UNREGISTERED</text><text fill="#eeeeee" stroke="none" font-family="Arial" font-size="24px" font-style="normal" font-weight="normal" text-decoration="none" x="800" y="120">UNREGISTERED</text><text fill="#eeeeee" stroke="none" font-family="Arial" font-size="24px" font-style="normal" font-weight="normal" text-decoration="none" x="800" y="150">UNREGISTERED</text><text fill="#eeeeee" stroke="none" font-family="Arial" font-size="24px" font-style="normal" font-weight="normal" text-decoration="none" x="800" y="180">UNREGISTERED</text><text fill="#eeeeee" stroke="none" font-family="Arial" font-size="24px" font-style="normal" font-weight="normal" text-decoration="none" x="800" y="210">UNREGISTERED</text><text fill="#eeeeee" stroke="none" font-family="Arial" font-size="24px" font-style="normal" font-weight="normal" text-decoration="none" x="800" y="240">UNREGISTERED</text><text fill="#eeeeee" stroke="none" font-family="Arial" font-size="24px" font-style="normal" font-weight="normal" text-decoration="none" x="800" y="270">UNREGISTERED</text><text fill="#eeeeee" stroke="none" font-family="Arial" font-size="24px" font-style="normal" font-weight="normal" text-decoration="none" x="800" y="300">UNREGISTERED</text><text fill="#eeeeee" stroke="none" font-family="Arial" font-size="24px" font-style="normal" font-weight="normal" text-decoration="none" x="800" y="330">UNREGISTERED</text><text fill="#eeeeee" stroke="none" font-family="Arial" font-size="24px" font-style="normal" font-weight="normal" text-decoration="none" x="800" y="360">UNREGISTERED</text><text fill="#eeeeee" stroke="none" font-family="Arial" font-size="24px" font-style="normal" font-weight="normal" text-decoration="none" x="800" y="390">UNREGISTERED</text><g transform="translate(-62,-174) scale(1,1)"><path fill="#ffffff" stroke="none" d="M 100.89163636363637 344.48 C 100.89163636363637 335.930631296 107.65588041076364 329 116 329 C 124.34411958923636 329 131.10836363636363 335.930631296 131.10836363636363 344.48 C 131.10836363636363 353.02936870400003 124.34411958923636 359.96 116 359.96 C 107.65588041076364 359.96 100.89163636363637 353.02936870400003 100.89163636363637 344.48 Z"/></g><g transform="translate(-62,-174) scale(1,1)"><path fill="none" stroke="#000000" d="M 100.89163636363637 344.48 C 100.89163636363637 335.930631296 107.65588041076364 329 116 329 C 124.34411958923636 329 131.10836363636363 335.930631296 131.10836363636363 344.48 C 131.10836363636363 353.02936870400003 124.34411958923636 359.96 116 359.96 C 107.65588041076364 359.96 100.89163636363637 353.02936870400003 100.89163636363637 344.48 Z" stroke-miterlimit="10"/></g><g transform="translate(-62,-174) scale(1,1)"><path fill="none" stroke="#000000" d="M 116 359.96 L 116 390.04" stroke-miterlimit="10"/></g><g transform="translate(-62,-174) scale(1,1)"><path fill="none" stroke="#000000" d="M 100.00290909090909 371.24 L 131.9970909090909 371.24" stroke-miterlimit="10"/></g><g transform="translate(-62,-174) scale(1,1)"><path fill="none" stroke="#000000" d="M 116 390.04 L 93.78181818181818 421" stroke-miterlimit="10"/></g><g transform="translate(-62,-174) scale(1,1)"><path fill="none" stroke="#000000" d="M 116 390.04 L 138.21818181818182 421" stroke-miterlimit="10"/></g><g transform="translate(-62,-174) scale(1,1)"><g><path fill="none" stroke="none"/><text fill="#000000" stroke="none" font-family="Arial" font-size="13px" font-style="normal" font-weight="bold" text-decoration="none" x="95.04638671875" y="440">Mestre</text></g></g><g transform="translate(-62,-174) scale(1,1)"><path fill="#ffffff" stroke="none" d="M 811.4632727272727 285.76 C 811.4632727272727 278.712845952 817.0761560855273 273 824 273 C 830.9238439144727 273 836.5367272727273 278.712845952 836.5367272727273 285.76 C 836.5367272727273 292.807154048 830.9238439144727 298.52 824 298.52 C 817.0761560855273 298.52 811.4632727272727 292.807154048 811.4632727272727 285.76 Z"/></g><g transform="translate(-62,-174) scale(1,1)"><path fill="none" stroke="#000000" d="M 811.4632727272727 285.76 C 811.4632727272727 278.712845952 817.0761560855273 273 824 273 C 830.9238439144727 273 836.5367272727273 278.712845952 836.5367272727273 285.76 C 836.5367272727273 292.807154048 830.9238439144727 298.52 824 298.52 C 817.0761560855273 298.52 811.4632727272727 292.807154048 811.4632727272727 285.76 Z" stroke-miterlimit="10"/></g><g transform="translate(-62,-174) scale(1,1)"><path fill="none" stroke="#000000" d="M 824 298.52 L 824 323.48" stroke-miterlimit="10"/></g><g transform="translate(-62,-174) scale(1,1)"><path fill="none" stroke="#000000" d="M 810.7258181818181 307.88 L 837.2741818181819 307.88" stroke-miterlimit="10"/></g><g transform="translate(-62,-174) scale(1,1)"><path fill="none" stroke="#000000" d="M 824 323.48 L 805.5636363636363 349" stroke-miterlimit="10"/></g><g transform="translate(-62,-174) scale(1,1)"><path fill="none" stroke="#000000" d="M 824 323.48 L 842.4363636363637 349" stroke-miterlimit="10"/></g><g transform="translate(-62,-174) scale(1,1)"><g><path fill="none" stroke="none"/><text fill="#000000" stroke="none" font-family="Arial" font-size="13px" font-style="normal" font-weight="bold" text-decoration="none" x="798.358642578125" y="368">Jogador</text></g></g><g transform="translate(-62,-174) scale(1,1)"><path fill="#C0C0C0" stroke="none" d="M 359 228 C 359 207.5654624 411.1588208 191 475.5 191 C 539.8411791999999 191 592 207.5654624 592 228 C 592 248.4345376 539.8411791999999 265 475.5 265 C 411.1588208 265 359 248.4345376 359 228 Z" opacity="0.2"/></g><g transform="translate(-62,-174) scale(1,1)"><path fill="#ffffff" stroke="none" d="M 352 221 C 352 200.5654624 404.1588208 184 468.5 184 C 532.8411791999999 184 585 200.5654624 585 221 C 585 241.4345376 532.8411791999999 258 468.5 258 C 404.1588208 258 352 241.4345376 352 221 Z"/></g><g transform="translate(-62,-174) scale(1,1)"><path fill="none" stroke="#000000" d="M 352 221 C 352 200.5654624 404.1588208 184 468.5 184 C 532.8411791999999 184 585 200.5654624 585 221 C 585 241.4345376 532.8411791999999 258 468.5 258 C 404.1588208 258 352 241.4345376 352 221 Z" stroke-miterlimit="10"/></g><g transform="translate(-62,-174) scale(1,1)"><g><path fill="none" stroke="none"/><text fill="#000000" stroke="none" font-family="Arial" font-size="13px" font-style="normal" font-weight="bold" text-decoration="none" x="390.471435546875" y="226.5">CSU01 - Criação de Perfil</text></g></g><g transform="translate(-62,-174) scale(1,1)"><path fill="#C0C0C0" stroke="none" d="M 327 332 C 327 311.5654624 391.0232736 295 470 295 C 548.9767264 295 613 311.5654624 613 332 C 613 352.4345376 548.9767264 369 470 369 C 391.0232736 369 327 352.4345376 327 332 Z" opacity="0.2"/></g><g transform="translate(-62,-174) scale(1,1)"><path fill="#ffffff" stroke="none" d="M 320 325 C 320 304.5654624 384.0232736 288 463 288 C 541.9767264 288 606 304.5654624 606 325 C 606 345.4345376 541.9767264 362 463 362 C 384.0232736 362 320 345.4345376 320 325 Z"/></g><g transform="translate(-62,-174) scale(1,1)"><path fill="none" stroke="#000000" d="M 320 325 C 320 304.5654624 384.0232736 288 463 288 C 541.9767264 288 606 304.5654624 606 325 C 606 345.4345376 541.9767264 362 463 362 C 384.0232736 362 320 345.4345376 320 325 Z" stroke-miterlimit="10"/></g><g transform="translate(-62,-174) scale(1,1)"><g><path fill="none" stroke="none"/><text fill="#000000" stroke="none" font-family="Arial" font-size="13px" font-style="normal" font-weight="bold" text-decoration="none" x="366.19189453125" y="330.5">CSU02  - Criação de Campanha</text></g></g><g transform="translate(-62,-174) scale(1,1)"><path fill="#C0C0C0" stroke="none" d="M 367 419 C 367 399.1177472 410.652232 383 464.5 383 C 518.347768 383 562 399.1177472 562 419 C 562 438.8822528 518.347768 455 464.5 455 C 410.652232 455 367 438.8822528 367 419 Z" opacity="0.2"/></g><g transform="translate(-62,-174) scale(1,1)"><path fill="#ffffff" stroke="none" d="M 360 412 C 360 392.1177472 403.652232 376 457.5 376 C 511.347768 376 555 392.1177472 555 412 C 555 431.8822528 511.347768 448 457.5 448 C 403.652232 448 360 431.8822528 360 412 Z"/></g><g transform="translate(-62,-174) scale(1,1)"><path fill="none" stroke="#000000" d="M 360 412 C 360 392.1177472 403.652232 376 457.5 376 C 511.347768 376 555 392.1177472 555 412 C 555 431.8822528 511.347768 448 457.5 448 C 403.652232 448 360 431.8822528 360 412 Z" stroke-miterlimit="10"/></g><g transform="translate(-62,-174) scale(1,1)"><g><path fill="none" stroke="none"/><text fill="#000000" stroke="none" font-family="Arial" font-size="13px" font-style="normal" font-weight="bold" text-decoration="none" x="393.201416015625" y="417.5">CSU03  - Alugar Sala</text></g></g><g transform="translate(-62,-174) scale(1,1)"><path fill="#C0C0C0" stroke="none" d="M 303 515 C 303 490.6994688 371.276568 471 455.5 471 C 539.723432 471 608 490.6994688 608 515 C 608 539.3005312 539.723432 559 455.5 559 C 371.276568 559 303 539.3005312 303 515 Z" opacity="0.2"/></g><g transform="translate(-62,-174) scale(1,1)"><path fill="#ffffff" stroke="none" d="M 296 508 C 296 483.6994688 364.276568 464 448.5 464 C 532.723432 464 601 483.6994688 601 508 C 601 532.3005312 532.723432 552 448.5 552 C 364.276568 552 296 532.3005312 296 508 Z"/></g><g transform="translate(-62,-174) scale(1,1)"><path fill="none" stroke="#000000" d="M 296 508 C 296 483.6994688 364.276568 464 448.5 464 C 532.723432 464 601 483.6994688 601 508 C 601 532.3005312 532.723432 552 448.5 552 C 364.276568 552 296 532.3005312 296 508 Z" stroke-miterlimit="10"/></g><g transform="translate(-62,-174) scale(1,1)"><g><path fill="none" stroke="none"/><text fill="#000000" stroke="none" font-family="Arial" font-size="13px" font-style="normal" font-weight="bold" text-decoration="none" x="345.182373046875" y="513.5">CSU04 - Seleção Jogador_Mestre</text></g></g><g transform="translate(-62,-174) scale(1,1)"><path fill="none" stroke="#000000" d="M 161 366 L 387 259" stroke-miterlimit="10"/></g><g transform="translate(-62,-174) scale(1,1)"><path fill="none" stroke="#000000" d="M 783 311 L 586 255" stroke-miterlimit="10"/></g><g transform="translate(-62,-174) scale(1,1)"><path fill="none" stroke="#000000" d="M 161 379 L 319 351" stroke-miterlimit="10"/></g><g transform="translate(-62,-174) scale(1,1)"><path fill="none" stroke="#000000" d="M 161 390 L 359 405" stroke-miterlimit="10"/></g><g transform="translate(-62,-174) scale(1,1)"><path fill="none" stroke="#000000" d="M 783 333 L 556 388" stroke-miterlimit="10"/></g><g transform="translate(-62,-174) scale(1,1)"><path fill="none" stroke="#000000" d="M 161 403 L 325 463" stroke-miterlimit="10"/></g><g transform="translate(-62,-174) scale(1,1)"><path fill="none" stroke="#000000" d="M 783 343 L 539 463" stroke-miterlimit="10"/></g><g transform="translate(-62,-174) scale(1,1)"><path fill="#C0C0C0" stroke="none" d="M 671 435 C 671 419.5360256 730.5461216 407 804 407 C 877.4538784 407 937 419.5360256 937 435 C 937 450.4639744 877.4538784 463 804 463 C 730.5461216 463 671 450.4639744 671 435 Z" opacity="0.2"/></g><g transform="translate(-62,-174) scale(1,1)"><path fill="#ffffff" stroke="none" d="M 664 428 C 664 412.5360256 723.5461216 400 797 400 C 870.4538784 400 930 412.5360256 930 428 C 930 443.4639744 870.4538784 456 797 456 C 723.5461216 456 664 443.4639744 664 428 Z"/></g><g transform="translate(-62,-174) scale(1,1)"><path fill="none" stroke="#000000" d="M 664 428 C 664 412.5360256 723.5461216 400 797 400 C 870.4538784 400 930 412.5360256 930 428 C 930 443.4639744 870.4538784 456 797 456 C 723.5461216 456 664 443.4639744 664 428 Z" stroke-miterlimit="10"/></g><g transform="translate(-62,-174) scale(1,1)"><g><path fill="none" stroke="none"/><text fill="#000000" stroke="none" font-family="Arial" font-size="13px" font-style="normal" font-weight="bold" text-decoration="none" x="707.418701171875" y="433.5">CSU02 - Sem data disponível</text></g></g><g transform="translate(-62,-174) scale(1,1)"><path fill="none" stroke="#000000" d="M 663 422 L 556 417" stroke-miterlimit="10" stroke-dasharray="3"/></g><g transform="translate(-62,-174) scale(1,1)"><path fill="none" stroke="#000000" d="M 566.3480894280932 413.26944438612884 L 556 417 L 565.9551053790914 421.67930303476766" stroke-miterlimit="10"/></g><g transform="translate(-62,-174) scale(1,1)"><g><path fill="none" stroke="none"/><text fill="#000000" stroke="none" font-family="Arial" font-size="13px" font-style="normal" font-weight="normal" text-decoration="none" x="579.5" y="453">«include»</text></g></g><g transform="translate(-62,-174) scale(1,1)"><path fill="#ffffff" stroke="none" d="M 812.5883636363636 492.57 C 812.5883636363636 486.180064864 817.6975266932363 481 824 481 C 830.3024733067637 481 835.4116363636364 486.180064864 835.4116363636364 492.57 C 835.4116363636364 498.959935136 830.3024733067637 504.14 824 504.14 C 817.6975266932363 504.14 812.5883636363636 498.959935136 812.5883636363636 492.57 Z"/></g><g transform="translate(-62,-174) scale(1,1)"><path fill="none" stroke="#000000" d="M 812.5883636363636 492.57 C 812.5883636363636 486.180064864 817.6975266932363 481 824 481 C 830.3024733067637 481 835.4116363636364 486.180064864 835.4116363636364 492.57 C 835.4116363636364 498.959935136 830.3024733067637 504.14 824 504.14 C 817.6975266932363 504.14 812.5883636363636 498.959935136 812.5883636363636 492.57 Z" stroke-miterlimit="10"/></g><g transform="translate(-62,-174) scale(1,1)"><path fill="none" stroke="#000000" d="M 824 504.14 L 824 526.86" stroke-miterlimit="10"/></g><g transform="translate(-62,-174) scale(1,1)"><path fill="none" stroke="#000000" d="M 811.9170909090909 512.66 L 836.0829090909091 512.66" stroke-miterlimit="10"/></g><g transform="translate(-62,-174) scale(1,1)"><path fill="none" stroke="#000000" d="M 824 526.86 L 807.2181818181818 550" stroke-miterlimit="10"/></g><g transform="translate(-62,-174) scale(1,1)"><path fill="none" stroke="#000000" d="M 824 526.86 L 840.7818181818182 550" stroke-miterlimit="10"/></g><g transform="translate(-62,-174) scale(1,1)"><g><path fill="none" stroke="none"/><text fill="#000000" stroke="none" font-family="Arial" font-size="13px" font-style="normal" font-weight="bold" text-decoration="none" x="804.135009765625" y="569">Banco</text></g></g><g transform="translate(-62,-174) scale(1,1)"><path fill="none" stroke="#000000" d="M 556 443 L 791 518" stroke-miterlimit="10"/></g></g></svg>