<svg version="1.1" xmlns="http://www.w3.org/2000/svg" xmlns:xlink="http://www.w3.org/1999/xlink" width="870" height="246"><defs/><g><text fill="#eeeeee" stroke="none" font-family="Arial" font-size="24px" font-style="normal" font-weight="normal" text-decoration="none" x="0" y="0">UNREGISTERED</text><text fill="#eeeeee" stroke="none" font-family="Arial" font-size="24px" font-style="normal" font-weight="normal" text-decoration="none" x="0" y="30">UNREGISTERED</text><text fill="#eeeeee" stroke="none" font-family="Arial" font-size="24px" font-style="normal" font-weight="normal" text-decoration="none" x="0" y="60">UNREGISTERED</text><text fill="#eeeeee" stroke="none" font-family="Arial" font-size="24px" font-style="normal" font-weight="normal" text-decoration="none" x="0" y="90">UNREGISTERED</text><text fill="#eeeeee" stroke="none" font-family="Arial" font-size="24px" font-style="normal" font-weight="normal" text-decoration="none" x="0" y="120">UNREGISTERED</text><text fill="#eeeeee" stroke="none" font-family="Arial" font-size="24px" font-style="normal" font-weight="normal" text-decoration="none" x="0" y="150">UNREGISTERED</text><text fill="#eeeeee" stroke="none" font-family="Arial" font-size="24px" font-style="normal" font-weight="normal" text-decoration="none" x="0" y="180">UNREGISTERED</text><text fill="#eeeeee" stroke="none" font-family="Arial" font-size="24px" font-style="normal" font-weight="normal" text-decoration="none" x="0" y="210">UNREGISTERED</text><text fill="#eeeeee" stroke="none" font-family="Arial" font-size="24px" font-style="normal" font-weight="normal" text-decoration="none" x="0" y="240">UNREGISTERED</text><text fill="#eeeeee" stroke="none" font-family="Arial" font-size="24px" font-style="normal" font-weight="normal" text-decoration="none" x="200" y="0">UNREGISTERED</text><text fill="#eeeeee" stroke="none" font-family="Arial" font-size="24px" font-style="normal" font-weight="normal" text-decoration="none" x="200" y="30">UNREGISTERED</text><text fill="#eeeeee" stroke="none" font-family="Arial" font-size="24px" font-style="normal" font-weight="normal" text-decoration="none" x="200" y="60">UNREGISTERED</text><text fill="#eeeeee" stroke="none" font-family="Arial" font-size="24px" font-style="normal" font-weight="normal" text-decoration="none" x="200" y="90">UNREGISTERED</text><text fill="#eeeeee" stroke="none" font-family="Arial" font-size="24px" font-style="normal" font-weight="normal" text-decoration="none" x="200" y="120">UNREGISTERED</text><text fill="#eeeeee" stroke="none" font-family="Arial" font-size="24px" font-style="normal" font-weight="normal" text-decoration="none" x="200" y="150">UNREGISTERED</text><text fill="#eeeeee" stroke="none" font-family="Arial" font-size="24px" font-style="normal" font-weight="normal" text-decoration="none" x="200" y="180">UNREGISTERED</text><text fill="#eeeeee" stroke="none" font-family="Arial" font-size="24px" font-style="normal" font-weight="normal" text-decoration="none" x="200" y="210">UNREGISTERED</text><text fill="#eeeeee" stroke="none" font-family="Arial" font-size="24px" font-style="normal" font-weight="normal" text-decoration="none" x="200" y="240">UNREGISTERED</text><text fill="#eeeeee" stroke="none" font-family="Arial" font-size="24px" font-style="normal" font-weight="normal" text-decoration="none" x="400" y="0">UNREGISTERED</text><text fill="#eeeeee" stroke="none" font-family="Arial" font-size="24px" font-style="normal" font-weight="normal" text-decoration="none" x="400" y="30">UNREGISTERED</text><text fill="#eeeeee" stroke="none" font-family="Arial" font-size="24px" font-style="normal" font-weight="normal" text-decoration="none" x="400" y="60">UNREGISTERED</text><text fill="#eeeeee" stroke="none" font-family="Arial" font-size="24px" font-style="normal" font-weight="normal" text-decoration="none" x="400" y="90">UNREGISTERED</text><text fill="#eeeeee" stroke="none" font-family="Arial" font-size="24px" font-style="normal" font-weight="normal" text-decoration="none" x="400" y="120">UNREGISTERED</text><text fill="#eeeeee" stroke="none" font-family="Arial" font-size="24px" font-style="normal" font-weight="normal" text-decoration="none" x="400" y="150">UNREGISTERED</text><text fill="#eeeeee" stroke="none" font-family="Arial" font-size="24px" font-style="normal" font-weight="normal" text-decoration="none" x="400" y="180">UNREGISTERED</text><text fill="#eeeeee" stroke="none" font-family="Arial" font-size="24px" font-style="normal" font-weight="normal" text-decoration="none" x="400" y="210">UNREGISTERED</text><text fill="#eeeeee" stroke="none" font-family="Arial" font-size="24px" font-style="normal" font-weight="normal" text-decoration="none" x="400" y="240">UNREGISTERED</text><text fill="#eeeeee" stroke="none" font-family="Arial" font-size="24px" font-style="normal" font-weight="normal" text-decoration="none" x="600" y="0">UNREGISTERED</text><text fill="#eeeeee" stroke="none" font-family="Arial" font-size="24px" font-style="normal" font-weight="normal" text-decoration="none" x="600" y="30">UNREGISTERED</text><text fill="#eeeeee" stroke="none" font-family="Arial" font-size="24px" font-style="normal" font-weight="normal" text-decoration="none" x="600" y="60">UNREGISTERED</text><text fill="#eeeeee" stroke="none" font-family="Arial" font-size="24px" font-style="normal" font-weight="normal" text-decoration="none" x="600" y="90">UNREGISTERED</text><text fill="#eeeeee" stroke="none" font-family="Arial" font-size="24px" font-style="normal" font-weight="normal" text-decoration="none" x="600" y="120">UNREGISTERED</text><text fill="#eeeeee" stroke="none" font-family="Arial" font-size="24px" font-style="normal" font-weight="normal" text-decoration="none" x="600" y="150">UNREGISTERED</text><text fill="#eeeeee" stroke="none" font-family="Arial" font-size="24px" font-style="normal" font-weight="normal" text-decoration="none" x="600" y="180">UNREGISTERED</text><text fill="#eeeeee" stroke="none" font-family="Arial" font-size="24px" font-style="normal" font-weight="normal" text-decoration="none" x="600" y="210">UNREGISTERED</text><text fill="#eeeeee" stroke="none" font-family="Arial" font-size="24px" font-style="normal" font-weight="normal" text-decoration="none" x="600" y="240">UNREGISTERED</text><text fill="#eeeeee" stroke="none" font-family="Arial" font-size="24px" font-style="normal" font-weight="normal" text-decoration="none" x="800" y="0">UNREGISTERED</text><text fill="#eeeeee" stroke="none" font-family="Arial" font-size="24px" font-style="normal" font-weight="normal" text-decoration="none" x="800" y="30">UNREGISTERED</text><text fill="#eeeeee" stroke="none" font-family="Arial" font-size="24px" font-style="normal" font-weight="normal" text-decoration="none" x="800" y="60">UNREGISTERED</text><text fill="#eeeeee" stroke="none" font-family="Arial" font-size="24px" font-style="normal" font-weight="normal" text-decoration="none" x="800" y="90">UNREGISTERED</text><text fill="#eeeeee" stroke="none" font-family="Arial" font-size="24px" font-style="normal" font-weight="normal" text-decoration="none" x="800" y="120">UNREGISTERED</text><text fill="#eeeeee" stroke="none" font-family="Arial" font-size="24px" font-style="normal" font-weight="normal" text-decoration="none" x="800" y="150">UNREGISTERED</text><text fill="#eeeeee" stroke="none" font-family="Arial" font-size="24px" font-style="normal" font-weight="normal" text-decoration="none" x="800" y="180">UNREGISTERED</text><text fill="#eeeeee" stroke="none" font-family="Arial" font-size="24px" font-style="normal" font-weight="normal" text-decoration="none" x="800" y="210">UNREGISTERED</text><text fill="#eeeeee" stroke="none" font-family="Arial" font-size="24px" font-style="normal" font-weight="normal" text-decoration="none" x="800" y="240">UNREGISTERED</text><g transform="translate(-78,-238) scale(1,1)"><path fill="#ffffff" stroke="none" d="M 104.77434055397727 369.68 C 104.77434055397727 364.886167936 108.66018287892273 361 113.45361328125 361 C 118.24704368357727 361 122.13288600852273 364.886167936 122.13288600852273 369.68 C 122.13288600852273 374.473832064 118.24704368357727 378.36 113.45361328125 378.36 C 108.66018287892273 378.36 104.77434055397727 374.473832064 104.77434055397727 369.68 Z"/></g><g transform="translate(-78,-238) scale(1,1)"><path fill="none" stroke="#000000" d="M 104.77434055397727 369.68 C 104.77434055397727 364.886167936 108.66018287892273 361 113.45361328125 361 C 118.24704368357727 361 122.13288600852273 364.886167936 122.13288600852273 369.68 C 122.13288600852273 374.473832064 118.24704368357727 378.36 113.45361328125 378.36 C 108.66018287892273 378.36 104.77434055397727 374.473832064 104.77434055397727 369.68 Z" stroke-miterlimit="10"/></g><g transform="translate(-78,-238) scale(1,1)"><path fill="none" stroke="#000000" d="M 113.45361328125 378.36 L 113.45361328125 395.64" stroke-miterlimit="10"/></g><g transform="translate(-78,-238) scale(1,1)"><path fill="none" stroke="#000000" d="M 104.26379509943182 384.84 L 122.64343146306818 384.84" stroke-miterlimit="10"/></g><g transform="translate(-78,-238) scale(1,1)"><path fill="none" stroke="#000000" d="M 113.45361328125 395.64 L 100.68997691761363 413" stroke-miterlimit="10"/></g><g transform="translate(-78,-238) scale(1,1)"><path fill="none" stroke="#000000" d="M 113.45361328125 395.64 L 126.21724964488637 413" stroke-miterlimit="10"/></g><g transform="translate(-78,-238) scale(1,1)"><g><path fill="none" stroke="none"/><text fill="#000000" stroke="none" font-family="Arial" font-size="13px" font-style="normal" font-weight="bold" text-decoration="none" x="92.5" y="432">Mestre</text></g></g><g transform="translate(-78,-238) scale(1,1)"><path fill="#ffffff" stroke="none" d="M 653.4620846946023 329.68 C 653.4620846946023 324.886167936 657.3479270195477 321 662.141357421875 321 C 666.9347878242023 321 670.8206301491477 324.886167936 670.8206301491477 329.68 C 670.8206301491477 334.473832064 666.9347878242023 338.36 662.141357421875 338.36 C 657.3479270195477 338.36 653.4620846946023 334.473832064 653.4620846946023 329.68 Z"/></g><g transform="translate(-78,-238) scale(1,1)"><path fill="none" stroke="#000000" d="M 653.4620846946023 329.68 C 653.4620846946023 324.886167936 657.3479270195477 321 662.141357421875 321 C 666.9347878242023 321 670.8206301491477 324.886167936 670.8206301491477 329.68 C 670.8206301491477 334.473832064 666.9347878242023 338.36 662.141357421875 338.36 C 657.3479270195477 338.36 653.4620846946023 334.473832064 653.4620846946023 329.68 Z" stroke-miterlimit="10"/></g><g transform="translate(-78,-238) scale(1,1)"><path fill="none" stroke="#000000" d="M 662.141357421875 338.36 L 662.141357421875 355.64" stroke-miterlimit="10"/></g><g transform="translate(-78,-238) scale(1,1)"><path fill="none" stroke="#000000" d="M 652.9515392400568 344.84 L 671.3311756036932 344.84" stroke-miterlimit="10"/></g><g transform="translate(-78,-238) scale(1,1)"><path fill="none" stroke="#000000" d="M 662.141357421875 355.64 L 649.3777210582386 373" stroke-miterlimit="10"/></g><g transform="translate(-78,-238) scale(1,1)"><path fill="none" stroke="#000000" d="M 662.141357421875 355.64 L 674.9049937855114 373" stroke-miterlimit="10"/></g><g transform="translate(-78,-238) scale(1,1)"><g><path fill="none" stroke="none"/><text fill="#000000" stroke="none" font-family="Arial" font-size="13px" font-style="normal" font-weight="bold" text-decoration="none" x="636.5" y="392">Jogador</text></g></g><g transform="translate(-78,-238) scale(1,1)"><path fill="#C0C0C0" stroke="none" d="M 367 272 C 367 262.6111584 419.1588208 255 483.5 255 C 547.8411791999999 255 600 262.6111584 600 272 C 600 281.3888416 547.8411791999999 289 483.5 289 C 419.1588208 289 367 281.3888416 367 272 Z" opacity="0.2"/></g><g transform="translate(-78,-238) scale(1,1)"><path fill="#ffffff" stroke="none" d="M 360 265 C 360 255.6111584 412.1588208 248 476.5 248 C 540.8411791999999 248 593 255.6111584 593 265 C 593 274.3888416 540.8411791999999 282 476.5 282 C 412.1588208 282 360 274.3888416 360 265 Z"/></g><g transform="translate(-78,-238) scale(1,1)"><path fill="none" stroke="#000000" d="M 360 265 C 360 255.6111584 412.1588208 248 476.5 248 C 540.8411791999999 248 593 255.6111584 593 265 C 593 274.3888416 540.8411791999999 282 476.5 282 C 412.1588208 282 360 274.3888416 360 265 Z" stroke-miterlimit="10"/></g><g transform="translate(-78,-238) scale(1,1)"><g><path fill="none" stroke="none"/><text fill="#000000" stroke="none" font-family="Arial" font-size="13px" font-style="normal" font-weight="bold" text-decoration="none" x="398.471435546875" y="270.5">CSU01 - Criação de Perfil</text></g></g><g transform="translate(-78,-238) scale(1,1)"><path fill="#C0C0C0" stroke="none" d="M 335 336 C 335 326.6111584 399.0232736 319 478 319 C 556.9767264 319 621 326.6111584 621 336 C 621 345.3888416 556.9767264 353 478 353 C 399.0232736 353 335 345.3888416 335 336 Z" opacity="0.2"/></g><g transform="translate(-78,-238) scale(1,1)"><path fill="#ffffff" stroke="none" d="M 328 329 C 328 319.6111584 392.0232736 312 471 312 C 549.9767264 312 614 319.6111584 614 329 C 614 338.3888416 549.9767264 346 471 346 C 392.0232736 346 328 338.3888416 328 329 Z"/></g><g transform="translate(-78,-238) scale(1,1)"><path fill="none" stroke="#000000" d="M 328 329 C 328 319.6111584 392.0232736 312 471 312 C 549.9767264 312 614 319.6111584 614 329 C 614 338.3888416 549.9767264 346 471 346 C 392.0232736 346 328 338.3888416 328 329 Z" stroke-miterlimit="10"/></g><g transform="translate(-78,-238) scale(1,1)"><g><path fill="none" stroke="none"/><text fill="#000000" stroke="none" font-family="Arial" font-size="13px" font-style="normal" font-weight="bold" text-decoration="none" x="374.19189453125" y="334.5">CSU02  - Criação de Campanha</text></g></g><g transform="translate(-78,-238) scale(1,1)"><path fill="#C0C0C0" stroke="none" d="M 383 400 C 383 390.6111584 426.652232 383 480.5 383 C 534.347768 383 578 390.6111584 578 400 C 578 409.3888416 534.347768 417 480.5 417 C 426.652232 417 383 409.3888416 383 400 Z" opacity="0.2"/></g><g transform="translate(-78,-238) scale(1,1)"><path fill="#ffffff" stroke="none" d="M 376 393 C 376 383.6111584 419.652232 376 473.5 376 C 527.347768 376 571 383.6111584 571 393 C 571 402.3888416 527.347768 410 473.5 410 C 419.652232 410 376 402.3888416 376 393 Z"/></g><g transform="translate(-78,-238) scale(1,1)"><path fill="none" stroke="#000000" d="M 376 393 C 376 383.6111584 419.652232 376 473.5 376 C 527.347768 376 571 383.6111584 571 393 C 571 402.3888416 527.347768 410 473.5 410 C 419.652232 410 376 402.3888416 376 393 Z" stroke-miterlimit="10"/></g><g transform="translate(-78,-238) scale(1,1)"><g><path fill="none" stroke="none"/><text fill="#000000" stroke="none" font-family="Arial" font-size="13px" font-style="normal" font-weight="bold" text-decoration="none" x="409.201416015625" y="398.5">CSU03  - Alugar Sala</text></g></g><g transform="translate(-78,-238) scale(1,1)"><path fill="#C0C0C0" stroke="none" d="M 319 464 C 319 454.6111584 387.276568 447 471.5 447 C 555.723432 447 624 454.6111584 624 464 C 624 473.3888416 555.723432 481 471.5 481 C 387.276568 481 319 473.3888416 319 464 Z" opacity="0.2"/></g><g transform="translate(-78,-238) scale(1,1)"><path fill="#ffffff" stroke="none" d="M 312 457 C 312 447.6111584 380.276568 440 464.5 440 C 548.723432 440 617 447.6111584 617 457 C 617 466.3888416 548.723432 474 464.5 474 C 380.276568 474 312 466.3888416 312 457 Z"/></g><g transform="translate(-78,-238) scale(1,1)"><path fill="none" stroke="#000000" d="M 312 457 C 312 447.6111584 380.276568 440 464.5 440 C 548.723432 440 617 447.6111584 617 457 C 617 466.3888416 548.723432 474 464.5 474 C 380.276568 474 312 466.3888416 312 457 Z" stroke-miterlimit="10"/></g><g transform="translate(-78,-238) scale(1,1)"><g><path fill="none" stroke="none"/><text fill="#000000" stroke="none" font-family="Arial" font-size="13px" font-style="normal" font-weight="bold" text-decoration="none" x="361.182373046875" y="462.5">CSU04 - Seleção Jogador_Mestre</text></g></g><g transform="translate(-78,-238) scale(1,1)"><path fill="none" stroke="#000000" d="M 140 389 L 427 283" stroke-miterlimit="10"/></g><g transform="translate(-78,-238) scale(1,1)"><path fill="none" stroke="#000000" d="M 631 343 L 512 283" stroke-miterlimit="10"/></g><g transform="translate(-78,-238) scale(1,1)"><path fill="none" stroke="#000000" d="M 140 394 L 379 347" stroke-miterlimit="10"/></g><g transform="translate(-78,-238) scale(1,1)"><path fill="none" stroke="#000000" d="M 631 354 L 586 347" stroke-miterlimit="10"/></g><g transform="translate(-78,-238) scale(1,1)"><path fill="none" stroke="#000000" d="M 140 399 L 375 395" stroke-miterlimit="10"/></g><g transform="translate(-78,-238) scale(1,1)"><path fill="none" stroke="#000000" d="M 631 365 L 572 375" stroke-miterlimit="10"/></g><g transform="translate(-78,-238) scale(1,1)"><path fill="none" stroke="#000000" d="M 140 403 L 355 439" stroke-miterlimit="10"/></g><g transform="translate(-78,-238) scale(1,1)"><path fill="none" stroke="#000000" d="M 631 374 L 500 439" stroke-miterlimit="10"/></g><g transform="translate(-78,-238) scale(1,1)"><path fill="#C0C0C0" stroke="none" d="M 679 448 C 679 438.6111584 738.5461216 431 812 431 C 885.4538784 431 945 438.6111584 945 448 C 945 457.3888416 885.4538784 465 812 465 C 738.5461216 465 679 457.3888416 679 448 Z" opacity="0.2"/></g><g transform="translate(-78,-238) scale(1,1)"><path fill="#ffffff" stroke="none" d="M 672 441 C 672 431.6111584 731.5461216 424 805 424 C 878.4538784 424 938 431.6111584 938 441 C 938 450.3888416 878.4538784 458 805 458 C 731.5461216 458 672 450.3888416 672 441 Z"/></g><g transform="translate(-78,-238) scale(1,1)"><path fill="none" stroke="#000000" d="M 672 441 C 672 431.6111584 731.5461216 424 805 424 C 878.4538784 424 938 431.6111584 938 441 C 938 450.3888416 878.4538784 458 805 458 C 731.5461216 458 672 450.3888416 672 441 Z" stroke-miterlimit="10"/></g><g transform="translate(-78,-238) scale(1,1)"><g><path fill="none" stroke="none"/><text fill="#000000" stroke="none" font-family="Arial" font-size="13px" font-style="normal" font-weight="bold" text-decoration="none" x="715.418701171875" y="446.5">CSU02 - Sem data disponível</text></g></g><g transform="translate(-78,-238) scale(1,1)"><path fill="none" stroke="#000000" d="M 681 423 L 572 407" stroke-miterlimit="10" stroke-dasharray="3"/></g><g transform="translate(-78,-238) scale(1,1)"><path fill="none" stroke="#000000" d="M 582.6662848877254 404.31106588145406 L 572 407 L 581.443565923566 412.64083882479053" stroke-miterlimit="10"/></g><g transform="translate(-78,-238) scale(1,1)"><g><path fill="none" stroke="none"/><text fill="#000000" stroke="none" font-family="Arial" font-size="13px" font-style="normal" font-weight="normal" text-decoration="none" x="593.5" y="449">«include»</text></g></g></g></svg>