<svg version="1.1" xmlns="http://www.w3.org/2000/svg" xmlns:xlink="http://www.w3.org/1999/xlink" width="997" height="430"><defs/><g><text fill="#eeeeee" stroke="none" font-family="Arial" font-size="24px" font-style="normal" font-weight="normal" text-decoration="none" x="0" y="0">UNREGISTERED</text><text fill="#eeeeee" stroke="none" font-family="Arial" font-size="24px" font-style="normal" font-weight="normal" text-decoration="none" x="0" y="30">UNREGISTERED</text><text fill="#eeeeee" stroke="none" font-family="Arial" font-size="24px" font-style="normal" font-weight="normal" text-decoration="none" x="0" y="60">UNREGISTERED</text><text fill="#eeeeee" stroke="none" font-family="Arial" font-size="24px" font-style="normal" font-weight="normal" text-decoration="none" x="0" y="90">UNREGISTERED</text><text fill="#eeeeee" stroke="none" font-family="Arial" font-size="24px" font-style="normal" font-weight="normal" text-decoration="none" x="0" y="120">UNREGISTERED</text><text fill="#eeeeee" stroke="none" font-family="Arial" font-size="24px" font-style="normal" font-weight="normal" text-decoration="none" x="0" y="150">UNREGISTERED</text><text fill="#eeeeee" stroke="none" font-family="Arial" font-size="24px" font-style="normal" font-weight="normal" text-decoration="none" x="0" y="180">UNREGISTERED</text><text fill="#eeeeee" stroke="none" font-family="Arial" font-size="24px" font-style="normal" font-weight="normal" text-decoration="none" x="0" y="210">UNREGISTERED</text><text fill="#eeeeee" stroke="none" font-family="Arial" font-size="24px" font-style="normal" font-weight="normal" text-decoration="none" x="0" y="240">UNREGISTERED</text><text fill="#eeeeee" stroke="none" font-family="Arial" font-size="24px" font-style="normal" font-weight="normal" text-decoration="none" x="0" y="270">UNREGISTERED</text><text fill="#eeeeee" stroke="none" font-family="Arial" font-size="24px" font-style="normal" font-weight="normal" text-decoration="none" x="0" y="300">UNREGISTERED</text><text fill="#eeeeee" stroke="none" font-family="Arial" font-size="24px" font-style="normal" font-weight="normal" text-decoration="none" x="0" y="330">UNREGISTERED</text><text fill="#eeeeee" stroke="none" font-family="Arial" font-size="24px" font-style="normal" font-weight="normal" text-decoration="none" x="0" y="360">UNREGISTERED</text><text fill="#eeeeee" stroke="none" font-family="Arial" font-size="24px" font-style="normal" font-weight="normal" text-decoration="none" x="0" y="390">UNREGISTERED</text><text fill="#eeeeee" stroke="none" font-family="Arial" font-size="24px" font-style="normal" font-weight="normal" text-decoration="none" x="0" y="420">UNREGISTERED</text><text fill="#eeeeee" stroke="none" font-family="Arial" font-size="24px" font-style="normal" font-weight="normal" text-decoration="none" x="200" y="0">UNREGISTERED</text><text fill="#eeeeee" stroke="none" font-family="Arial" font-size="24px" font-style="normal" font-weight="normal" text-decoration="none" x="200" y="30">UNREGISTERED</text><text fill="#eeeeee" stroke="none" font-family="Arial" font-size="24px" font-style="normal" font-weight="normal" text-decoration="none" x="200" y="60">UNREGISTERED</text><text fill="#eeeeee" stroke="none" font-family="Arial" font-size="24px" font-style="normal" font-weight="normal" text-decoration="none" x="200" y="90">UNREGISTERED</text><text fill="#eeeeee" stroke="none" font-family="Arial" font-size="24px" font-style="normal" font-weight="normal" text-decoration="none" x="200" y="120">UNREGISTERED</text><text fill="#eeeeee" stroke="none" font-family="Arial" font-size="24px" font-style="normal" font-weight="normal" text-decoration="none" x="200" y="150">UNREGISTERED</text><text fill="#eeeeee" stroke="none" font-family="Arial" font-size="24px" font-style="normal" font-weight="normal" text-decoration="none" x="200" y="180">UNREGISTERED</text><text fill="#eeeeee" stroke="none" font-family="Arial" font-size="24px" font-style="normal" font-weight="normal" text-decoration="none" x="200" y="210">UNREGISTERED</text><text fill="#eeeeee" stroke="none" font-family="Arial" font-size="24px" font-style="normal" font-weight="normal" text-decoration="none" x="200" y="240">UNREGISTERED</text><text fill="#eeeeee" stroke="none" font-family="Arial" font-size="24px" font-style="normal" font-weight="normal" text-decoration="none" x="200" y="270">UNREGISTERED</text><text fill="#eeeeee" stroke="none" font-family="Arial" font-size="24px" font-style="normal" font-weight="normal" text-decoration="none" x="200" y="300">UNREGISTERED</text><text fill="#eeeeee" stroke="none" font-family="Arial" font-size="24px" font-style="normal" font-weight="normal" text-decoration="none" x="200" y="330">UNREGISTERED</text><text fill="#eeeeee" stroke="none" font-family="Arial" font-size="24px" font-style="normal" font-weight="normal" text-decoration="none" x="200" y="360">UNREGISTERED</text><text fill="#eeeeee" stroke="none" font-family="Arial" font-size="24px" font-style="normal" font-weight="normal" text-decoration="none" x="200" y="390">UNREGISTERED</text><text fill="#eeeeee" stroke="none" font-family="Arial" font-size="24px" font-style="normal" font-weight="normal" text-decoration="none" x="200" y="420">UNREGISTERED</text><text fill="#eeeeee" stroke="none" font-family="Arial" font-size="24px" font-style="normal" font-weight="normal" text-decoration="none" x="400" y="0">UNREGISTERED</text><text fill="#eeeeee" stroke="none" font-family="Arial" font-size="24px" font-style="normal" font-weight="normal" text-decoration="none" x="400" y="30">UNREGISTERED</text><text fill="#eeeeee" stroke="none" font-family="Arial" font-size="24px" font-style="normal" font-weight="normal" text-decoration="none" x="400" y="60">UNREGISTERED</text><text fill="#eeeeee" stroke="none" font-family="Arial" font-size="24px" font-style="normal" font-weight="normal" text-decoration="none" x="400" y="90">UNREGISTERED</text><text fill="#eeeeee" stroke="none" font-family="Arial" font-size="24px" font-style="normal" font-weight="normal" text-decoration="none" x="400" y="120">UNREGISTERED</text><text fill="#eeeeee" stroke="none" font-family="Arial" font-size="24px" font-style="normal" font-weight="normal" text-decoration="none" x="400" y="150">UNREGISTERED</text><text fill="#eeeeee" stroke="none" font-family="Arial" font-size="24px" font-style="normal" font-weight="normal" text-decoration="none" x="400" y="180">UNREGISTERED</text><text fill="#eeeeee" stroke="none" font-family="Arial" font-size="24px" font-style="normal" font-weight="normal" text-decoration="none" x="400" y="210">UNREGISTERED</text><text fill="#eeeeee" stroke="none" font-family="Arial" font-size="24px" font-style="normal" font-weight="normal" text-decoration="none" x="400" y="240">UNREGISTERED</text><text fill="#eeeeee" stroke="none" font-family="Arial" font-size="24px" font-style="normal" font-weight="normal" text-decoration="none" x="400" y="270">UNREGISTERED</text><text fill="#eeeeee" stroke="none" font-family="Arial" font-size="24px" font-style="normal" font-weight="normal" text-decoration="none" x="400" y="300">UNREGISTERED</text><text fill="#eeeeee" stroke="none" font-family="Arial" font-size="24px" font-style="normal" font-weight="normal" text-decoration="none" x="400" y="330">UNREGISTERED</text><text fill="#eeeeee" stroke="none" font-family="Arial" font-size="24px" font-style="normal" font-weight="normal" text-decoration="none" x="400" y="360">UNREGISTERED</text><text fill="#eeeeee" stroke="none" font-family="Arial" font-size="24px" font-style="normal" font-weight="normal" text-decoration="none" x="400" y="390">UNREGISTERED</text><text fill="#eeeeee" stroke="none" font-family="Arial" font-size="24px" font-style="normal" font-weight="normal" text-decoration="none" x="400" y="420">UNREGISTERED</text><text fill="#eeeeee" stroke="none" font-family="Arial" font-size="24px" font-style="normal" font-weight="normal" text-decoration="none" x="600" y="0">UNREGISTERED</text><text fill="#eeeeee" stroke="none" font-family="Arial" font-size="24px" font-style="normal" font-weight="normal" text-decoration="none" x="600" y="30">UNREGISTERED</text><text fill="#eeeeee" stroke="none" font-family="Arial" font-size="24px" font-style="normal" font-weight="normal" text-decoration="none" x="600" y="60">UNREGISTERED</text><text fill="#eeeeee" stroke="none" font-family="Arial" font-size="24px" font-style="normal" font-weight="normal" text-decoration="none" x="600" y="90">UNREGISTERED</text><text fill="#eeeeee" stroke="none" font-family="Arial" font-size="24px" font-style="normal" font-weight="normal" text-decoration="none" x="600" y="120">UNREGISTERED</text><text fill="#eeeeee" stroke="none" font-family="Arial" font-size="24px" font-style="normal" font-weight="normal" text-decoration="none" x="600" y="150">UNREGISTERED</text><text fill="#eeeeee" stroke="none" font-family="Arial" font-size="24px" font-style="normal" font-weight="normal" text-decoration="none" x="600" y="180">UNREGISTERED</text><text fill="#eeeeee" stroke="none" font-family="Arial" font-size="24px" font-style="normal" font-weight="normal" text-decoration="none" x="600" y="210">UNREGISTERED</text><text fill="#eeeeee" stroke="none" font-family="Arial" font-size="24px" font-style="normal" font-weight="normal" text-decoration="none" x="600" y="240">UNREGISTERED</text><text fill="#eeeeee" stroke="none" font-family="Arial" font-size="24px" font-style="normal" font-weight="normal" text-decoration="none" x="600" y="270">UNREGISTERED</text><text fill="#eeeeee" stroke="none" font-family="Arial" font-size="24px" font-style="normal" font-weight="normal" text-decoration="none" x="600" y="300">UNREGISTERED</text><text fill="#eeeeee" stroke="none" font-family="Arial" font-size="24px" font-style="normal" font-weight="normal" text-decoration="none" x="600" y="330">UNREGISTERED</text><text fill="#eeeeee" stroke="none" font-family="Arial" font-size="24px" font-style="normal" font-weight="normal" text-decoration="none" x="600" y="360">UNREGISTERED</text><text fill="#eeeeee" stroke="none" font-family="Arial" font-size="24px" font-style="normal" font-weight="normal" text-decoration="none" x="600" y="390">UNREGISTERED</text><text fill="#eeeeee" stroke="none" font-family="Arial" font-size="24px" font-style="normal" font-weight="normal" text-decoration="none" x="600" y="420">UNREGISTERED</text><text fill="#eeeeee" stroke="none" font-family="Arial" font-size="24px" font-style="normal" font-weight="normal" text-decoration="none" x="800" y="0">UNREGISTERED</text><text fill="#eeeeee" stroke="none" font-family="Arial" font-size="24px" font-style="normal" font-weight="normal" text-decoration="none" x="800" y="30">UNREGISTERED</text><text fill="#eeeeee" stroke="none" font-family="Arial" font-size="24px" font-style="normal" font-weight="normal" text-decoration="none" x="800" y="60">UNREGISTERED</text><text fill="#eeeeee" stroke="none" font-family="Arial" font-size="24px" font-style="normal" font-weight="normal" text-decoration="none" x="800" y="90">UNREGISTERED</text><text fill="#eeeeee" stroke="none" font-family="Arial" font-size="24px" font-style="normal" font-weight="normal" text-decoration="none" x="800" y="120">UNREGISTERED</text><text fill="#eeeeee" stroke="none" font-family="Arial" font-size="24px" font-style="normal" font-weight="normal" text-decoration="none" x="800" y="150">UNREGISTERED</text><text fill="#eeeeee" stroke="none" font-family="Arial" font-size="24px" font-style="normal" font-weight="normal" text-decoration="none" x="800" y="180">UNREGISTERED</text><text fill="#eeeeee" stroke="none" font-family="Arial" font-size="24px" font-style="normal" font-weight="normal" text-decoration="none" x="800" y="210">UNREGISTERED</text><text fill="#eeeeee" stroke="none" font-family="Arial" font-size="24px" font-style="normal" font-weight="normal" text-decoration="none" x="800" y="240">UNREGISTERED</text><text fill="#eeeeee" stroke="none" font-family="Arial" font-size="24px" font-style="normal" font-weight="normal" text-decoration="none" x="800" y="270">UNREGISTERED</text><text fill="#eeeeee" stroke="none" font-family="Arial" font-size="24px" font-style="normal" font-weight="normal" text-decoration="none" x="800" y="300">UNREGISTERED</text><text fill="#eeeeee" stroke="none" font-family="Arial" font-size="24px" font-style="normal" font-weight="normal" text-decoration="none" x="800" y="330">UNREGISTERED</text><text fill="#eeeeee" stroke="none" font-family="Arial" font-size="24px" font-style="normal" font-weight="normal" text-decoration="none" x="800" y="360">UNREGISTERED</text><text fill="#eeeeee" stroke="none" font-family="Arial" font-size="24px" font-style="normal" font-weight="normal" text-decoration="none" x="800" y="390">UNREGISTERED</text><text fill="#eeeeee" stroke="none" font-family="Arial" font-size="24px" font-style="normal" font-weight="normal" text-decoration="none" x="800" y="420">UNREGISTERED</text><g transform="translate(-118,-254) scale(1,1)"><path fill="#C0C0C0" stroke="none" d="M 215 504.5 C 215 499.2532944 219.2532944 495 224.5 495 C 229.7467056 495 234 499.2532944 234 504.5 C 234 509.7467056 229.7467056 514 224.5 514 C 219.2532944 514 215 509.7467056 215 504.5 Z" opacity="0.2"/></g><g transform="translate(-118,-254) scale(1,1)"><path fill="#000000" stroke="none" d="M 208 497.5 C 208 492.2532944 212.2532944 488 217.5 488 C 222.7467056 488 227 492.2532944 227 497.5 C 227 502.7467056 222.7467056 507 217.5 507 C 212.2532944 507 208 502.7467056 208 497.5 Z"/></g><g transform="translate(-118,-254) scale(1,1)"><path fill="#C0C0C0" stroke="none" d="M 873 271 L 1043.3525390625 271 Q 1053.3525390625 271 1053.3525390625 281 L 1053.3525390625 335 Q 1053.3525390625 345 1043.3525390625 345 L 873 345 Q 863 345 863 335 L 863 281 Q 863 271 873 271 Z" opacity="0.2"/></g><g transform="translate(-118,-254) scale(1,1)"><path fill="#ffffff" stroke="none" d="M 866 264 L 1036.3525390625 264 Q 1046.3525390625 264 1046.3525390625 274 L 1046.3525390625 328 Q 1046.3525390625 338 1036.3525390625 338 L 866 338 Q 856 338 856 328 L 856 274 Q 856 264 866 264 Z"/></g><g transform="translate(-118,-254) scale(1,1)"><path fill="none" stroke="#000000" d="M 866 264 L 1036.3525390625 264 Q 1046.3525390625 264 1046.3525390625 274 L 1046.3525390625 328 Q 1046.3525390625 338 1036.3525390625 338 L 866 338 Q 856 338 856 328 L 856 274 Q 856 264 866 264 Z" stroke-miterlimit="10"/></g><g transform="translate(-118,-254) scale(1,1)"><path fill="none" stroke="#000000" d="M 856 289 L 1046.3525390625 289" stroke-miterlimit="10"/></g><g transform="translate(-118,-254) scale(1,1)"><g><path fill="none" stroke="none"/><text fill="#000000" stroke="none" font-family="Arial" font-size="13px" font-style="normal" font-weight="bold" text-decoration="none" x="869.516845703125" y="282">Preferências selecionadas</text></g></g><g transform="translate(-118,-254) scale(1,1)"><path fill="#C0C0C0" stroke="none" d="M 521 279 L 660.2998046875 279 Q 670.2998046875 279 670.2998046875 289 L 670.2998046875 316 Q 670.2998046875 326 660.2998046875 326 L 521 326 Q 511 326 511 316 L 511 289 Q 511 279 521 279 Z" opacity="0.2"/></g><g transform="translate(-118,-254) scale(1,1)"><path fill="#ffffff" stroke="none" d="M 514 272 L 653.2998046875 272 Q 663.2998046875 272 663.2998046875 282 L 663.2998046875 309 Q 663.2998046875 319 653.2998046875 319 L 514 319 Q 504 319 504 309 L 504 282 Q 504 272 514 272 Z"/></g><g transform="translate(-118,-254) scale(1,1)"><path fill="none" stroke="#000000" d="M 514 272 L 653.2998046875 272 Q 663.2998046875 272 663.2998046875 282 L 663.2998046875 309 Q 663.2998046875 319 653.2998046875 319 L 514 319 Q 504 319 504 309 L 504 282 Q 504 272 514 272 Z" stroke-miterlimit="10"/></g><g transform="translate(-118,-254) scale(1,1)"><path fill="none" stroke="#000000" d="M 504 297 L 663.2998046875 297" stroke-miterlimit="10"/></g><g transform="translate(-118,-254) scale(1,1)"><g><path fill="none" stroke="none"/><text fill="#000000" stroke="none" font-family="Arial" font-size="13px" font-style="normal" font-weight="bold" text-decoration="none" x="512.114990234375" y="290">Armazena preferências</text></g></g><g transform="translate(-118,-254) scale(1,1)"><g><path fill="none" stroke="none"/><text fill="#000000" stroke="none" font-family="Arial" font-size="13px" font-style="normal" font-weight="normal" text-decoration="none" x="509" y="313">do/ArmazenaPreferências</text></g></g><g transform="translate(-118,-254) scale(1,1)"><path fill="#C0C0C0" stroke="none" d="M 145 279 L 311.00439453125 279 Q 321.00439453125 279 321.00439453125 289 L 321.00439453125 316 Q 321.00439453125 326 311.00439453125 326 L 145 326 Q 135 326 135 316 L 135 289 Q 135 279 145 279 Z" opacity="0.2"/></g><g transform="translate(-118,-254) scale(1,1)"><path fill="#ffffff" stroke="none" d="M 138 272 L 304.00439453125 272 Q 314.00439453125 272 314.00439453125 282 L 314.00439453125 309 Q 314.00439453125 319 304.00439453125 319 L 138 319 Q 128 319 128 309 L 128 282 Q 128 272 138 272 Z"/></g><g transform="translate(-118,-254) scale(1,1)"><path fill="none" stroke="#000000" d="M 138 272 L 304.00439453125 272 Q 314.00439453125 272 314.00439453125 282 L 314.00439453125 309 Q 314.00439453125 319 304.00439453125 319 L 138 319 Q 128 319 128 309 L 128 282 Q 128 272 138 272 Z" stroke-miterlimit="10"/></g><g transform="translate(-118,-254) scale(1,1)"><path fill="none" stroke="#000000" d="M 128 297 L 314.00439453125 297" stroke-miterlimit="10"/></g><g transform="translate(-118,-254) scale(1,1)"><g><path fill="none" stroke="none"/><text fill="#000000" stroke="none" font-family="Arial" font-size="13px" font-style="normal" font-weight="bold" text-decoration="none" x="132.5" y="290">Preenche prefências de jogo</text></g></g><g transform="translate(-118,-254) scale(1,1)"><g><path fill="none" stroke="none"/><text fill="#000000" stroke="none" font-family="Arial" font-size="13px" font-style="normal" font-weight="normal" text-decoration="none" x="133" y="313">do/PreferenciasJogador</text></g></g><g transform="translate(-118,-254) scale(1,1)"><path fill="none" stroke="#000000" d="M 315 295 L 503 295" stroke-miterlimit="10"/></g><g transform="translate(-118,-254) scale(1,1)"><path fill="none" stroke="#000000" d="M 492.83732514237585 299.209517756016 L 503 295 L 492.83732514237585 290.790482243984" stroke-miterlimit="10"/></g><g transform="translate(-118,-254) scale(1,1)"><g><path fill="none" stroke="none"/><text fill="#000000" stroke="none" font-family="Arial" font-size="13px" font-style="normal" font-weight="normal" text-decoration="none" x="360.5" y="285">armazena dados</text></g></g><g transform="translate(-118,-254) scale(1,1)"><path fill="none" stroke="#000000" d="M 664 296 L 855 299" stroke-miterlimit="10"/></g><g transform="translate(-118,-254) scale(1,1)"><path fill="none" stroke="#000000" d="M 844.7724685698867 303.04939512100805 L 855 299 L 844.9046884211998 294.6313979207368" stroke-miterlimit="10"/></g><g transform="translate(-118,-254) scale(1,1)"><g><path fill="none" stroke="none"/><text fill="#000000" stroke="none" font-family="Arial" font-size="13px" font-style="normal" font-weight="normal" text-decoration="none" x="696.5" y="287">confirma preferências</text></g></g><g transform="translate(-118,-254) scale(1,1)"><path fill="none" stroke="#000000" d="M 217 487 L 221 320" stroke-miterlimit="10"/></g><g transform="translate(-118,-254) scale(1,1)"><path fill="none" stroke="#000000" d="M 224.964963201805 330.2605587961052 L 221 320 L 216.54834166366217 330.05896307064074" stroke-miterlimit="10"/></g><g transform="translate(-118,-254) scale(1,1)"><path fill="#C0C0C0" stroke="none" d="M 329 479 L 535.4833984375 479 Q 545.4833984375 479 545.4833984375 489 L 545.4833984375 516 Q 545.4833984375 526 535.4833984375 526 L 329 526 Q 319 526 319 516 L 319 489 Q 319 479 329 479 Z" opacity="0.2"/></g><g transform="translate(-118,-254) scale(1,1)"><path fill="#ffffff" stroke="none" d="M 322 472 L 528.4833984375 472 Q 538.4833984375 472 538.4833984375 482 L 538.4833984375 509 Q 538.4833984375 519 528.4833984375 519 L 322 519 Q 312 519 312 509 L 312 482 Q 312 472 322 472 Z"/></g><g transform="translate(-118,-254) scale(1,1)"><path fill="none" stroke="#000000" d="M 322 472 L 528.4833984375 472 Q 538.4833984375 472 538.4833984375 482 L 538.4833984375 509 Q 538.4833984375 519 528.4833984375 519 L 322 519 Q 312 519 312 509 L 312 482 Q 312 472 322 472 Z" stroke-miterlimit="10"/></g><g transform="translate(-118,-254) scale(1,1)"><path fill="none" stroke="#000000" d="M 312 497 L 538.4833984375 497" stroke-miterlimit="10"/></g><g transform="translate(-118,-254) scale(1,1)"><g><path fill="none" stroke="none"/><text fill="#000000" stroke="none" font-family="Arial" font-size="13px" font-style="normal" font-weight="bold" text-decoration="none" x="320.114990234375" y="490">Seleciona Campanha de Interesse</text></g></g><g transform="translate(-118,-254) scale(1,1)"><g><path fill="none" stroke="none"/><text fill="#000000" stroke="none" font-family="Arial" font-size="13px" font-style="normal" font-weight="normal" text-decoration="none" x="317" y="513">do/SelecionaCampanha</text></g></g><g transform="translate(-118,-254) scale(1,1)"><path fill="#C0C0C0" stroke="none" d="M 745 479 L 929.7998046875 479 Q 939.7998046875 479 939.7998046875 489 L 939.7998046875 516 Q 939.7998046875 526 929.7998046875 526 L 745 526 Q 735 526 735 516 L 735 489 Q 735 479 745 479 Z" opacity="0.2"/></g><g transform="translate(-118,-254) scale(1,1)"><path fill="#ffffff" stroke="none" d="M 738 472 L 922.7998046875 472 Q 932.7998046875 472 932.7998046875 482 L 932.7998046875 509 Q 932.7998046875 519 922.7998046875 519 L 738 519 Q 728 519 728 509 L 728 482 Q 728 472 738 472 Z"/></g><g transform="translate(-118,-254) scale(1,1)"><path fill="none" stroke="#000000" d="M 738 472 L 922.7998046875 472 Q 932.7998046875 472 932.7998046875 482 L 932.7998046875 509 Q 932.7998046875 519 922.7998046875 519 L 738 519 Q 728 519 728 509 L 728 482 Q 728 472 738 472 Z" stroke-miterlimit="10"/></g><g transform="translate(-118,-254) scale(1,1)"><path fill="none" stroke="#000000" d="M 728 497 L 932.7998046875 497" stroke-miterlimit="10"/></g><g transform="translate(-118,-254) scale(1,1)"><g><path fill="none" stroke="none"/><text fill="#000000" stroke="none" font-family="Arial" font-size="13px" font-style="normal" font-weight="bold" text-decoration="none" x="734.30908203125" y="490">Compara escolhas de usuários</text></g></g><g transform="translate(-118,-254) scale(1,1)"><g><path fill="none" stroke="none"/><text fill="#000000" stroke="none" font-family="Arial" font-size="13px" font-style="normal" font-weight="normal" text-decoration="none" x="733" y="513">do/CompEscolhas</text></g></g><g transform="translate(-118,-254) scale(1,1)"><path fill="none" stroke="#000000" d="M 539 495 L 727 495" stroke-miterlimit="10"/></g><g transform="translate(-118,-254) scale(1,1)"><path fill="none" stroke="#000000" d="M 716.8373251423759 499.209517756016 L 727 495 L 716.8373251423758 490.790482243984" stroke-miterlimit="10"/></g><g transform="translate(-118,-254) scale(1,1)"><g><path fill="none" stroke="none"/><text fill="#000000" stroke="none" font-family="Arial" font-size="13px" font-style="normal" font-weight="normal" text-decoration="none" x="502.5" y="539">compara escolha do jogador e do mestre</text></g></g><g transform="translate(-118,-254) scale(1,1)"><path fill="#C0C0C0" stroke="none" d="M 801 607 L 886.814453125 607 Q 896.814453125 607 896.814453125 617 L 896.814453125 671 Q 896.814453125 681 886.814453125 681 L 801 681 Q 791 681 791 671 L 791 617 Q 791 607 801 607 Z" opacity="0.2"/></g><g transform="translate(-118,-254) scale(1,1)"><path fill="#ffffff" stroke="none" d="M 794 600 L 879.814453125 600 Q 889.814453125 600 889.814453125 610 L 889.814453125 664 Q 889.814453125 674 879.814453125 674 L 794 674 Q 784 674 784 664 L 784 610 Q 784 600 794 600 Z"/></g><g transform="translate(-118,-254) scale(1,1)"><path fill="none" stroke="#000000" d="M 794 600 L 879.814453125 600 Q 889.814453125 600 889.814453125 610 L 889.814453125 664 Q 889.814453125 674 879.814453125 674 L 794 674 Q 784 674 784 664 L 784 610 Q 784 600 794 600 Z" stroke-miterlimit="10"/></g><g transform="translate(-118,-254) scale(1,1)"><path fill="none" stroke="#000000" d="M 784 625 L 889.814453125 625" stroke-miterlimit="10"/></g><g transform="translate(-118,-254) scale(1,1)"><g><path fill="none" stroke="none"/><text fill="#000000" stroke="none" font-family="Arial" font-size="13px" font-style="normal" font-weight="bold" text-decoration="none" x="788.5" y="618">Criação de chat</text></g></g><g transform="translate(-118,-254) scale(1,1)"><path fill="none" stroke="#000000" d="M 831 520 L 834 599" stroke-miterlimit="10"/></g><g transform="translate(-118,-254) scale(1,1)"><path fill="none" stroke="#000000" d="M 829.4078677926238 589.0043848718561 L 834 599 L 837.8208394153005 588.6849049368178" stroke-miterlimit="10"/></g><g transform="translate(-118,-254) scale(1,1)"><g><path fill="none" stroke="none"/><text fill="#000000" stroke="none" font-family="Arial" font-size="13px" font-style="normal" font-weight="normal" text-decoration="none" x="727.5" y="562">se compatível / seleção concluída</text></g></g><g transform="translate(-118,-254) scale(1,1)"><path fill="none" stroke="#000000" d="M 228 497 L 311 496" stroke-miterlimit="10"/></g><g transform="translate(-118,-254) scale(1,1)"><path fill="none" stroke="#000000" d="M 300.88877606446374 500.3316452446431 L 311 496 L 300.787349262905 491.91322071526815" stroke-miterlimit="10"/></g><g transform="translate(-118,-254) scale(1,1)"><path fill="#C0C0C0" stroke="none" d="M 1087 475.5 C 1087 468.59644 1092.59644 463 1099.5 463 C 1106.40356 463 1112 468.59644 1112 475.5 C 1112 482.40356 1106.40356 488 1099.5 488 C 1092.59644 488 1087 482.40356 1087 475.5 Z" opacity="0.2"/></g><g transform="translate(-118,-254) scale(1,1)"><path fill="none" stroke="#000000" d="M 1080 468.5 C 1080 461.59644 1085.59644 456 1092.5 456 C 1099.40356 456 1105 461.59644 1105 468.5 C 1105 475.40356 1099.40356 481 1092.5 481 C 1085.59644 481 1080 475.40356 1080 468.5 Z" stroke-miterlimit="10"/></g><g transform="translate(-118,-254) scale(1,1)"><path fill="#000000" stroke="none" d="M 1085 468.5 C 1085 464.357864 1088.357864 461 1092.5 461 C 1096.642136 461 1100 464.357864 1100 468.5 C 1100 472.642136 1096.642136 476 1092.5 476 C 1088.357864 476 1085 472.642136 1085 468.5 Z"/></g><g transform="translate(-118,-254) scale(1,1)"><path fill="none" stroke="#000000" d="M 891 601 L 1079 477" stroke-miterlimit="10"/></g><g transform="translate(-118,-254) scale(1,1)"><path fill="none" stroke="#000000" d="M 1072.834215040625 486.1095057953076 L 1079 477 L 1068.1987383227677 479.081524965008" stroke-miterlimit="10"/></g><g transform="translate(-118,-254) scale(1,1)"><path fill="none" stroke="#000000" d="M 983 339 L 1081 455" stroke-miterlimit="10"/></g><g transform="translate(-118,-254) scale(1,1)"><path fill="none" stroke="#000000" d="M 1071.2259109163706 449.9534979852105 L 1081 455 L 1077.6570911249735 444.52025953311494" stroke-miterlimit="10"/></g><g transform="translate(-118,-254) scale(1,1)"><path fill="none" stroke="#000000" d="M 831 471 L 832 400 L 424 400 L 425 471" stroke-miterlimit="10"/></g><g transform="translate(-118,-254) scale(1,1)"><path fill="none" stroke="#000000" d="M 420.64777763941726 460.8976160969777 L 425 471 L 429.0659782195771 460.77904989162334" stroke-miterlimit="10"/></g><g transform="translate(-118,-254) scale(1,1)"><g><path fill="none" stroke="none"/><text fill="#000000" stroke="none" font-family="Arial" font-size="13px" font-style="normal" font-weight="normal" text-decoration="none" x="498.5" y="394">se incompatível / seleciona nova campanha</text></g></g></g></svg>