<svg version="1.1" xmlns="http://www.w3.org/2000/svg" xmlns:xlink="http://www.w3.org/1999/xlink" width="916.65869140625" height="738"><defs/><g><text fill="#eeeeee" stroke="none" font-family="Arial" font-size="24px" font-style="normal" font-weight="normal" text-decoration="none" x="0" y="0">UNREGISTERED</text><text fill="#eeeeee" stroke="none" font-family="Arial" font-size="24px" font-style="normal" font-weight="normal" text-decoration="none" x="0" y="30">UNREGISTERED</text><text fill="#eeeeee" stroke="none" font-family="Arial" font-size="24px" font-style="normal" font-weight="normal" text-decoration="none" x="0" y="60">UNREGISTERED</text><text fill="#eeeeee" stroke="none" font-family="Arial" font-size="24px" font-style="normal" font-weight="normal" text-decoration="none" x="0" y="90">UNREGISTERED</text><text fill="#eeeeee" stroke="none" font-family="Arial" font-size="24px" font-style="normal" font-weight="normal" text-decoration="none" x="0" y="120">UNREGISTERED</text><text fill="#eeeeee" stroke="none" font-family="Arial" font-size="24px" font-style="normal" font-weight="normal" text-decoration="none" x="0" y="150">UNREGISTERED</text><text fill="#eeeeee" stroke="none" font-family="Arial" font-size="24px" font-style="normal" font-weight="normal" text-decoration="none" x="0" y="180">UNREGISTERED</text><text fill="#eeeeee" stroke="none" font-family="Arial" font-size="24px" font-style="normal" font-weight="normal" text-decoration="none" x="0" y="210">UNREGISTERED</text><text fill="#eeeeee" stroke="none" font-family="Arial" font-size="24px" font-style="normal" font-weight="normal" text-decoration="none" x="0" y="240">UNREGISTERED</text><text fill="#eeeeee" stroke="none" font-family="Arial" font-size="24px" font-style="normal" font-weight="normal" text-decoration="none" x="0" y="270">UNREGISTERED</text><text fill="#eeeeee" stroke="none" font-family="Arial" font-size="24px" font-style="normal" font-weight="normal" text-decoration="none" x="0" y="300">UNREGISTERED</text><text fill="#eeeeee" stroke="none" font-family="Arial" font-size="24px" font-style="normal" font-weight="normal" text-decoration="none" x="0" y="330">UNREGISTERED</text><text fill="#eeeeee" stroke="none" font-family="Arial" font-size="24px" font-style="normal" font-weight="normal" text-decoration="none" x="0" y="360">UNREGISTERED</text><text fill="#eeeeee" stroke="none" font-family="Arial" font-size="24px" font-style="normal" font-weight="normal" text-decoration="none" x="0" y="390">UNREGISTERED</text><text fill="#eeeeee" stroke="none" font-family="Arial" font-size="24px" font-style="normal" font-weight="normal" text-decoration="none" x="0" y="420">UNREGISTERED</text><text fill="#eeeeee" stroke="none" font-family="Arial" font-size="24px" font-style="normal" font-weight="normal" text-decoration="none" x="0" y="450">UNREGISTERED</text><text fill="#eeeeee" stroke="none" font-family="Arial" font-size="24px" font-style="normal" font-weight="normal" text-decoration="none" x="0" y="480">UNREGISTERED</text><text fill="#eeeeee" stroke="none" font-family="Arial" font-size="24px" font-style="normal" font-weight="normal" text-decoration="none" x="0" y="510">UNREGISTERED</text><text fill="#eeeeee" stroke="none" font-family="Arial" font-size="24px" font-style="normal" font-weight="normal" text-decoration="none" x="0" y="540">UNREGISTERED</text><text fill="#eeeeee" stroke="none" font-family="Arial" font-size="24px" font-style="normal" font-weight="normal" text-decoration="none" x="0" y="570">UNREGISTERED</text><text fill="#eeeeee" stroke="none" font-family="Arial" font-size="24px" font-style="normal" font-weight="normal" text-decoration="none" x="0" y="600">UNREGISTERED</text><text fill="#eeeeee" stroke="none" font-family="Arial" font-size="24px" font-style="normal" font-weight="normal" text-decoration="none" x="0" y="630">UNREGISTERED</text><text fill="#eeeeee" stroke="none" font-family="Arial" font-size="24px" font-style="normal" font-weight="normal" text-decoration="none" x="0" y="660">UNREGISTERED</text><text fill="#eeeeee" stroke="none" font-family="Arial" font-size="24px" font-style="normal" font-weight="normal" text-decoration="none" x="0" y="690">UNREGISTERED</text><text fill="#eeeeee" stroke="none" font-family="Arial" font-size="24px" font-style="normal" font-weight="normal" text-decoration="none" x="0" y="720">UNREGISTERED</text><text fill="#eeeeee" stroke="none" font-family="Arial" font-size="24px" font-style="normal" font-weight="normal" text-decoration="none" x="200" y="0">UNREGISTERED</text><text fill="#eeeeee" stroke="none" font-family="Arial" font-size="24px" font-style="normal" font-weight="normal" text-decoration="none" x="200" y="30">UNREGISTERED</text><text fill="#eeeeee" stroke="none" font-family="Arial" font-size="24px" font-style="normal" font-weight="normal" text-decoration="none" x="200" y="60">UNREGISTERED</text><text fill="#eeeeee" stroke="none" font-family="Arial" font-size="24px" font-style="normal" font-weight="normal" text-decoration="none" x="200" y="90">UNREGISTERED</text><text fill="#eeeeee" stroke="none" font-family="Arial" font-size="24px" font-style="normal" font-weight="normal" text-decoration="none" x="200" y="120">UNREGISTERED</text><text fill="#eeeeee" stroke="none" font-family="Arial" font-size="24px" font-style="normal" font-weight="normal" text-decoration="none" x="200" y="150">UNREGISTERED</text><text fill="#eeeeee" stroke="none" font-family="Arial" font-size="24px" font-style="normal" font-weight="normal" text-decoration="none" x="200" y="180">UNREGISTERED</text><text fill="#eeeeee" stroke="none" font-family="Arial" font-size="24px" font-style="normal" font-weight="normal" text-decoration="none" x="200" y="210">UNREGISTERED</text><text fill="#eeeeee" stroke="none" font-family="Arial" font-size="24px" font-style="normal" font-weight="normal" text-decoration="none" x="200" y="240">UNREGISTERED</text><text fill="#eeeeee" stroke="none" font-family="Arial" font-size="24px" font-style="normal" font-weight="normal" text-decoration="none" x="200" y="270">UNREGISTERED</text><text fill="#eeeeee" stroke="none" font-family="Arial" font-size="24px" font-style="normal" font-weight="normal" text-decoration="none" x="200" y="300">UNREGISTERED</text><text fill="#eeeeee" stroke="none" font-family="Arial" font-size="24px" font-style="normal" font-weight="normal" text-decoration="none" x="200" y="330">UNREGISTERED</text><text fill="#eeeeee" stroke="none" font-family="Arial" font-size="24px" font-style="normal" font-weight="normal" text-decoration="none" x="200" y="360">UNREGISTERED</text><text fill="#eeeeee" stroke="none" font-family="Arial" font-size="24px" font-style="normal" font-weight="normal" text-decoration="none" x="200" y="390">UNREGISTERED</text><text fill="#eeeeee" stroke="none" font-family="Arial" font-size="24px" font-style="normal" font-weight="normal" text-decoration="none" x="200" y="420">UNREGISTERED</text><text fill="#eeeeee" stroke="none" font-family="Arial" font-size="24px" font-style="normal" font-weight="normal" text-decoration="none" x="200" y="450">UNREGISTERED</text><text fill="#eeeeee" stroke="none" font-family="Arial" font-size="24px" font-style="normal" font-weight="normal" text-decoration="none" x="200" y="480">UNREGISTERED</text><text fill="#eeeeee" stroke="none" font-family="Arial" font-size="24px" font-style="normal" font-weight="normal" text-decoration="none" x="200" y="510">UNREGISTERED</text><text fill="#eeeeee" stroke="none" font-family="Arial" font-size="24px" font-style="normal" font-weight="normal" text-decoration="none" x="200" y="540">UNREGISTERED</text><text fill="#eeeeee" stroke="none" font-family="Arial" font-size="24px" font-style="normal" font-weight="normal" text-decoration="none" x="200" y="570">UNREGISTERED</text><text fill="#eeeeee" stroke="none" font-family="Arial" font-size="24px" font-style="normal" font-weight="normal" text-decoration="none" x="200" y="600">UNREGISTERED</text><text fill="#eeeeee" stroke="none" font-family="Arial" font-size="24px" font-style="normal" font-weight="normal" text-decoration="none" x="200" y="630">UNREGISTERED</text><text fill="#eeeeee" stroke="none" font-family="Arial" font-size="24px" font-style="normal" font-weight="normal" text-decoration="none" x="200" y="660">UNREGISTERED</text><text fill="#eeeeee" stroke="none" font-family="Arial" font-size="24px" font-style="normal" font-weight="normal" text-decoration="none" x="200" y="690">UNREGISTERED</text><text fill="#eeeeee" stroke="none" font-family="Arial" font-size="24px" font-style="normal" font-weight="normal" text-decoration="none" x="200" y="720">UNREGISTERED</text><text fill="#eeeeee" stroke="none" font-family="Arial" font-size="24px" font-style="normal" font-weight="normal" text-decoration="none" x="400" y="0">UNREGISTERED</text><text fill="#eeeeee" stroke="none" font-family="Arial" font-size="24px" font-style="normal" font-weight="normal" text-decoration="none" x="400" y="30">UNREGISTERED</text><text fill="#eeeeee" stroke="none" font-family="Arial" font-size="24px" font-style="normal" font-weight="normal" text-decoration="none" x="400" y="60">UNREGISTERED</text><text fill="#eeeeee" stroke="none" font-family="Arial" font-size="24px" font-style="normal" font-weight="normal" text-decoration="none" x="400" y="90">UNREGISTERED</text><text fill="#eeeeee" stroke="none" font-family="Arial" font-size="24px" font-style="normal" font-weight="normal" text-decoration="none" x="400" y="120">UNREGISTERED</text><text fill="#eeeeee" stroke="none" font-family="Arial" font-size="24px" font-style="normal" font-weight="normal" text-decoration="none" x="400" y="150">UNREGISTERED</text><text fill="#eeeeee" stroke="none" font-family="Arial" font-size="24px" font-style="normal" font-weight="normal" text-decoration="none" x="400" y="180">UNREGISTERED</text><text fill="#eeeeee" stroke="none" font-family="Arial" font-size="24px" font-style="normal" font-weight="normal" text-decoration="none" x="400" y="210">UNREGISTERED</text><text fill="#eeeeee" stroke="none" font-family="Arial" font-size="24px" font-style="normal" font-weight="normal" text-decoration="none" x="400" y="240">UNREGISTERED</text><text fill="#eeeeee" stroke="none" font-family="Arial" font-size="24px" font-style="normal" font-weight="normal" text-decoration="none" x="400" y="270">UNREGISTERED</text><text fill="#eeeeee" stroke="none" font-family="Arial" font-size="24px" font-style="normal" font-weight="normal" text-decoration="none" x="400" y="300">UNREGISTERED</text><text fill="#eeeeee" stroke="none" font-family="Arial" font-size="24px" font-style="normal" font-weight="normal" text-decoration="none" x="400" y="330">UNREGISTERED</text><text fill="#eeeeee" stroke="none" font-family="Arial" font-size="24px" font-style="normal" font-weight="normal" text-decoration="none" x="400" y="360">UNREGISTERED</text><text fill="#eeeeee" stroke="none" font-family="Arial" font-size="24px" font-style="normal" font-weight="normal" text-decoration="none" x="400" y="390">UNREGISTERED</text><text fill="#eeeeee" stroke="none" font-family="Arial" font-size="24px" font-style="normal" font-weight="normal" text-decoration="none" x="400" y="420">UNREGISTERED</text><text fill="#eeeeee" stroke="none" font-family="Arial" font-size="24px" font-style="normal" font-weight="normal" text-decoration="none" x="400" y="450">UNREGISTERED</text><text fill="#eeeeee" stroke="none" font-family="Arial" font-size="24px" font-style="normal" font-weight="normal" text-decoration="none" x="400" y="480">UNREGISTERED</text><text fill="#eeeeee" stroke="none" font-family="Arial" font-size="24px" font-style="normal" font-weight="normal" text-decoration="none" x="400" y="510">UNREGISTERED</text><text fill="#eeeeee" stroke="none" font-family="Arial" font-size="24px" font-style="normal" font-weight="normal" text-decoration="none" x="400" y="540">UNREGISTERED</text><text fill="#eeeeee" stroke="none" font-family="Arial" font-size="24px" font-style="normal" font-weight="normal" text-decoration="none" x="400" y="570">UNREGISTERED</text><text fill="#eeeeee" stroke="none" font-family="Arial" font-size="24px" font-style="normal" font-weight="normal" text-decoration="none" x="400" y="600">UNREGISTERED</text><text fill="#eeeeee" stroke="none" font-family="Arial" font-size="24px" font-style="normal" font-weight="normal" text-decoration="none" x="400" y="630">UNREGISTERED</text><text fill="#eeeeee" stroke="none" font-family="Arial" font-size="24px" font-style="normal" font-weight="normal" text-decoration="none" x="400" y="660">UNREGISTERED</text><text fill="#eeeeee" stroke="none" font-family="Arial" font-size="24px" font-style="normal" font-weight="normal" text-decoration="none" x="400" y="690">UNREGISTERED</text><text fill="#eeeeee" stroke="none" font-family="Arial" font-size="24px" font-style="normal" font-weight="normal" text-decoration="none" x="400" y="720">UNREGISTERED</text><text fill="#eeeeee" stroke="none" font-family="Arial" font-size="24px" font-style="normal" font-weight="normal" text-decoration="none" x="600" y="0">UNREGISTERED</text><text fill="#eeeeee" stroke="none" font-family="Arial" font-size="24px" font-style="normal" font-weight="normal" text-decoration="none" x="600" y="30">UNREGISTERED</text><text fill="#eeeeee" stroke="none" font-family="Arial" font-size="24px" font-style="normal" font-weight="normal" text-decoration="none" x="600" y="60">UNREGISTERED</text><text fill="#eeeeee" stroke="none" font-family="Arial" font-size="24px" font-style="normal" font-weight="normal" text-decoration="none" x="600" y="90">UNREGISTERED</text><text fill="#eeeeee" stroke="none" font-family="Arial" font-size="24px" font-style="normal" font-weight="normal" text-decoration="none" x="600" y="120">UNREGISTERED</text><text fill="#eeeeee" stroke="none" font-family="Arial" font-size="24px" font-style="normal" font-weight="normal" text-decoration="none" x="600" y="150">UNREGISTERED</text><text fill="#eeeeee" stroke="none" font-family="Arial" font-size="24px" font-style="normal" font-weight="normal" text-decoration="none" x="600" y="180">UNREGISTERED</text><text fill="#eeeeee" stroke="none" font-family="Arial" font-size="24px" font-style="normal" font-weight="normal" text-decoration="none" x="600" y="210">UNREGISTERED</text><text fill="#eeeeee" stroke="none" font-family="Arial" font-size="24px" font-style="normal" font-weight="normal" text-decoration="none" x="600" y="240">UNREGISTERED</text><text fill="#eeeeee" stroke="none" font-family="Arial" font-size="24px" font-style="normal" font-weight="normal" text-decoration="none" x="600" y="270">UNREGISTERED</text><text fill="#eeeeee" stroke="none" font-family="Arial" font-size="24px" font-style="normal" font-weight="normal" text-decoration="none" x="600" y="300">UNREGISTERED</text><text fill="#eeeeee" stroke="none" font-family="Arial" font-size="24px" font-style="normal" font-weight="normal" text-decoration="none" x="600" y="330">UNREGISTERED</text><text fill="#eeeeee" stroke="none" font-family="Arial" font-size="24px" font-style="normal" font-weight="normal" text-decoration="none" x="600" y="360">UNREGISTERED</text><text fill="#eeeeee" stroke="none" font-family="Arial" font-size="24px" font-style="normal" font-weight="normal" text-decoration="none" x="600" y="390">UNREGISTERED</text><text fill="#eeeeee" stroke="none" font-family="Arial" font-size="24px" font-style="normal" font-weight="normal" text-decoration="none" x="600" y="420">UNREGISTERED</text><text fill="#eeeeee" stroke="none" font-family="Arial" font-size="24px" font-style="normal" font-weight="normal" text-decoration="none" x="600" y="450">UNREGISTERED</text><text fill="#eeeeee" stroke="none" font-family="Arial" font-size="24px" font-style="normal" font-weight="normal" text-decoration="none" x="600" y="480">UNREGISTERED</text><text fill="#eeeeee" stroke="none" font-family="Arial" font-size="24px" font-style="normal" font-weight="normal" text-decoration="none" x="600" y="510">UNREGISTERED</text><text fill="#eeeeee" stroke="none" font-family="Arial" font-size="24px" font-style="normal" font-weight="normal" text-decoration="none" x="600" y="540">UNREGISTERED</text><text fill="#eeeeee" stroke="none" font-family="Arial" font-size="24px" font-style="normal" font-weight="normal" text-decoration="none" x="600" y="570">UNREGISTERED</text><text fill="#eeeeee" stroke="none" font-family="Arial" font-size="24px" font-style="normal" font-weight="normal" text-decoration="none" x="600" y="600">UNREGISTERED</text><text fill="#eeeeee" stroke="none" font-family="Arial" font-size="24px" font-style="normal" font-weight="normal" text-decoration="none" x="600" y="630">UNREGISTERED</text><text fill="#eeeeee" stroke="none" font-family="Arial" font-size="24px" font-style="normal" font-weight="normal" text-decoration="none" x="600" y="660">UNREGISTERED</text><text fill="#eeeeee" stroke="none" font-family="Arial" font-size="24px" font-style="normal" font-weight="normal" text-decoration="none" x="600" y="690">UNREGISTERED</text><text fill="#eeeeee" stroke="none" font-family="Arial" font-size="24px" font-style="normal" font-weight="normal" text-decoration="none" x="600" y="720">UNREGISTERED</text><text fill="#eeeeee" stroke="none" font-family="Arial" font-size="24px" font-style="normal" font-weight="normal" text-decoration="none" x="800" y="0">UNREGISTERED</text><text fill="#eeeeee" stroke="none" font-family="Arial" font-size="24px" font-style="normal" font-weight="normal" text-decoration="none" x="800" y="30">UNREGISTERED</text><text fill="#eeeeee" stroke="none" font-family="Arial" font-size="24px" font-style="normal" font-weight="normal" text-decoration="none" x="800" y="60">UNREGISTERED</text><text fill="#eeeeee" stroke="none" font-family="Arial" font-size="24px" font-style="normal" font-weight="normal" text-decoration="none" x="800" y="90">UNREGISTERED</text><text fill="#eeeeee" stroke="none" font-family="Arial" font-size="24px" font-style="normal" font-weight="normal" text-decoration="none" x="800" y="120">UNREGISTERED</text><text fill="#eeeeee" stroke="none" font-family="Arial" font-size="24px" font-style="normal" font-weight="normal" text-decoration="none" x="800" y="150">UNREGISTERED</text><text fill="#eeeeee" stroke="none" font-family="Arial" font-size="24px" font-style="normal" font-weight="normal" text-decoration="none" x="800" y="180">UNREGISTERED</text><text fill="#eeeeee" stroke="none" font-family="Arial" font-size="24px" font-style="normal" font-weight="normal" text-decoration="none" x="800" y="210">UNREGISTERED</text><text fill="#eeeeee" stroke="none" font-family="Arial" font-size="24px" font-style="normal" font-weight="normal" text-decoration="none" x="800" y="240">UNREGISTERED</text><text fill="#eeeeee" stroke="none" font-family="Arial" font-size="24px" font-style="normal" font-weight="normal" text-decoration="none" x="800" y="270">UNREGISTERED</text><text fill="#eeeeee" stroke="none" font-family="Arial" font-size="24px" font-style="normal" font-weight="normal" text-decoration="none" x="800" y="300">UNREGISTERED</text><text fill="#eeeeee" stroke="none" font-family="Arial" font-size="24px" font-style="normal" font-weight="normal" text-decoration="none" x="800" y="330">UNREGISTERED</text><text fill="#eeeeee" stroke="none" font-family="Arial" font-size="24px" font-style="normal" font-weight="normal" text-decoration="none" x="800" y="360">UNREGISTERED</text><text fill="#eeeeee" stroke="none" font-family="Arial" font-size="24px" font-style="normal" font-weight="normal" text-decoration="none" x="800" y="390">UNREGISTERED</text><text fill="#eeeeee" stroke="none" font-family="Arial" font-size="24px" font-style="normal" font-weight="normal" text-decoration="none" x="800" y="420">UNREGISTERED</text><text fill="#eeeeee" stroke="none" font-family="Arial" font-size="24px" font-style="normal" font-weight="normal" text-decoration="none" x="800" y="450">UNREGISTERED</text><text fill="#eeeeee" stroke="none" font-family="Arial" font-size="24px" font-style="normal" font-weight="normal" text-decoration="none" x="800" y="480">UNREGISTERED</text><text fill="#eeeeee" stroke="none" font-family="Arial" font-size="24px" font-style="normal" font-weight="normal" text-decoration="none" x="800" y="510">UNREGISTERED</text><text fill="#eeeeee" stroke="none" font-family="Arial" font-size="24px" font-style="normal" font-weight="normal" text-decoration="none" x="800" y="540">UNREGISTERED</text><text fill="#eeeeee" stroke="none" font-family="Arial" font-size="24px" font-style="normal" font-weight="normal" text-decoration="none" x="800" y="570">UNREGISTERED</text><text fill="#eeeeee" stroke="none" font-family="Arial" font-size="24px" font-style="normal" font-weight="normal" text-decoration="none" x="800" y="600">UNREGISTERED</text><text fill="#eeeeee" stroke="none" font-family="Arial" font-size="24px" font-style="normal" font-weight="normal" text-decoration="none" x="800" y="630">UNREGISTERED</text><text fill="#eeeeee" stroke="none" font-family="Arial" font-size="24px" font-style="normal" font-weight="normal" text-decoration="none" x="800" y="660">UNREGISTERED</text><text fill="#eeeeee" stroke="none" font-family="Arial" font-size="24px" font-style="normal" font-weight="normal" text-decoration="none" x="800" y="690">UNREGISTERED</text><text fill="#eeeeee" stroke="none" font-family="Arial" font-size="24px" font-style="normal" font-weight="normal" text-decoration="none" x="800" y="720">UNREGISTERED</text><g transform="translate(-190,-38) scale(1,1)"><path fill="#C0C0C0" stroke="none" d="M 207 80.5 C 207 75.2532944 211.2532944 71 216.5 71 C 221.7467056 71 226 75.2532944 226 80.5 C 226 85.7467056 221.7467056 90 216.5 90 C 211.2532944 90 207 85.7467056 207 80.5 Z" opacity="0.2"/></g><g transform="translate(-190,-38) scale(1,1)"><path fill="#000000" stroke="none" d="M 200 73.5 C 200 68.2532944 204.2532944 64 209.5 64 C 214.7467056 64 219 68.2532944 219 73.5 C 219 78.7467056 214.7467056 83 209.5 83 C 204.2532944 83 200 78.7467056 200 73.5 Z"/></g><g transform="translate(-190,-38) scale(1,1)"><path fill="#C0C0C0" stroke="none" d="M 465 183 L 642.63330078125 183 Q 652.63330078125 183 652.63330078125 193 L 652.63330078125 220 Q 652.63330078125 230 642.63330078125 230 L 465 230 Q 455 230 455 220 L 455 193 Q 455 183 465 183 Z" opacity="0.2"/></g><g transform="translate(-190,-38) scale(1,1)"><path fill="#ffffff" stroke="none" d="M 458 176 L 635.63330078125 176 Q 645.63330078125 176 645.63330078125 186 L 645.63330078125 213 Q 645.63330078125 223 635.63330078125 223 L 458 223 Q 448 223 448 213 L 448 186 Q 448 176 458 176 Z"/></g><g transform="translate(-190,-38) scale(1,1)"><path fill="none" stroke="#000000" d="M 458 176 L 635.63330078125 176 Q 645.63330078125 176 645.63330078125 186 L 645.63330078125 213 Q 645.63330078125 223 635.63330078125 223 L 458 223 Q 448 223 448 213 L 448 186 Q 448 176 458 176 Z" stroke-miterlimit="10"/></g><g transform="translate(-190,-38) scale(1,1)"><path fill="none" stroke="#000000" d="M 448 201 L 645.63330078125 201" stroke-miterlimit="10"/></g><g transform="translate(-190,-38) scale(1,1)"><g><path fill="none" stroke="none"/><text fill="#000000" stroke="none" font-family="Arial" font-size="13px" font-style="normal" font-weight="bold" text-decoration="none" x="501.310302734375" y="194">Confere dados</text></g></g><g transform="translate(-190,-38) scale(1,1)"><g><path fill="none" stroke="none"/><text fill="#000000" stroke="none" font-family="Arial" font-size="13px" font-style="normal" font-weight="normal" text-decoration="none" x="453" y="217">do/ConfereDadosPagamento</text></g></g><g transform="translate(-190,-38) scale(1,1)"><path fill="none" stroke="#000000" d="M 220 73 L 455 72" stroke-miterlimit="10"/></g><g transform="translate(-190,-38) scale(1,1)"><path fill="none" stroke="#000000" d="M 444.8553298320053 76.25272467749772 L 455 72 L 444.8195044733321 67.83376538928808" stroke-miterlimit="10"/></g><g transform="translate(-190,-38) scale(1,1)"><path fill="#C0C0C0" stroke="none" d="M 473 311 L 638.25537109375 311 Q 648.25537109375 311 648.25537109375 321 L 648.25537109375 348 Q 648.25537109375 358 638.25537109375 358 L 473 358 Q 463 358 463 348 L 463 321 Q 463 311 473 311 Z" opacity="0.2"/></g><g transform="translate(-190,-38) scale(1,1)"><path fill="#ffffff" stroke="none" d="M 466 304 L 631.25537109375 304 Q 641.25537109375 304 641.25537109375 314 L 641.25537109375 341 Q 641.25537109375 351 631.25537109375 351 L 466 351 Q 456 351 456 341 L 456 314 Q 456 304 466 304 Z"/></g><g transform="translate(-190,-38) scale(1,1)"><path fill="none" stroke="#000000" d="M 466 304 L 631.25537109375 304 Q 641.25537109375 304 641.25537109375 314 L 641.25537109375 341 Q 641.25537109375 351 631.25537109375 351 L 466 351 Q 456 351 456 341 L 456 314 Q 456 304 466 304 Z" stroke-miterlimit="10"/></g><g transform="translate(-190,-38) scale(1,1)"><path fill="none" stroke="#000000" d="M 456 329 L 641.25537109375 329" stroke-miterlimit="10"/></g><g transform="translate(-190,-38) scale(1,1)"><g><path fill="none" stroke="none"/><text fill="#000000" stroke="none" font-family="Arial" font-size="13px" font-style="normal" font-weight="bold" text-decoration="none" x="460.5" y="322">Aprova forma de pagamento</text></g></g><g transform="translate(-190,-38) scale(1,1)"><g><path fill="none" stroke="none"/><text fill="#000000" stroke="none" font-family="Arial" font-size="13px" font-style="normal" font-weight="normal" text-decoration="none" x="461" y="345">do/AprovaFPagamento</text></g></g><g transform="translate(-190,-38) scale(1,1)"><path fill="#C0C0C0" stroke="none" d="M 489 431 L 611.62451171875 431 Q 621.62451171875 431 621.62451171875 441 L 621.62451171875 495 Q 621.62451171875 505 611.62451171875 505 L 489 505 Q 479 505 479 495 L 479 441 Q 479 431 489 431 Z" opacity="0.2"/></g><g transform="translate(-190,-38) scale(1,1)"><path fill="#ffffff" stroke="none" d="M 482 424 L 604.62451171875 424 Q 614.62451171875 424 614.62451171875 434 L 614.62451171875 488 Q 614.62451171875 498 604.62451171875 498 L 482 498 Q 472 498 472 488 L 472 434 Q 472 424 482 424 Z"/></g><g transform="translate(-190,-38) scale(1,1)"><path fill="none" stroke="#000000" d="M 482 424 L 604.62451171875 424 Q 614.62451171875 424 614.62451171875 434 L 614.62451171875 488 Q 614.62451171875 498 604.62451171875 498 L 482 498 Q 472 498 472 488 L 472 434 Q 472 424 482 424 Z" stroke-miterlimit="10"/></g><g transform="translate(-190,-38) scale(1,1)"><path fill="none" stroke="#000000" d="M 472 449 L 614.62451171875 449" stroke-miterlimit="10"/></g><g transform="translate(-190,-38) scale(1,1)"><g><path fill="none" stroke="none"/><text fill="#000000" stroke="none" font-family="Arial" font-size="13px" font-style="normal" font-weight="bold" text-decoration="none" x="476.5" y="442">Confere o pagamento</text></g></g><g transform="translate(-190,-38) scale(1,1)"><g><path fill="none" stroke="none"/><text fill="#000000" stroke="none" font-family="Arial" font-size="13px" font-style="normal" font-weight="normal" text-decoration="none" x="477" y="465">do/Confere pagamento</text></g></g><g transform="translate(-190,-38) scale(1,1)"><path fill="#C0C0C0" stroke="none" d="M 473 55 L 634.6435546875 55 Q 644.6435546875 55 644.6435546875 65 L 644.6435546875 92 Q 644.6435546875 102 634.6435546875 102 L 473 102 Q 463 102 463 92 L 463 65 Q 463 55 473 55 Z" opacity="0.2"/></g><g transform="translate(-190,-38) scale(1,1)"><path fill="#ffffff" stroke="none" d="M 466 48 L 627.6435546875 48 Q 637.6435546875 48 637.6435546875 58 L 637.6435546875 85 Q 637.6435546875 95 627.6435546875 95 L 466 95 Q 456 95 456 85 L 456 58 Q 456 48 466 48 Z"/></g><g transform="translate(-190,-38) scale(1,1)"><path fill="none" stroke="#000000" d="M 466 48 L 627.6435546875 48 Q 637.6435546875 48 637.6435546875 58 L 637.6435546875 85 Q 637.6435546875 95 627.6435546875 95 L 466 95 Q 456 95 456 85 L 456 58 Q 456 48 466 48 Z" stroke-miterlimit="10"/></g><g transform="translate(-190,-38) scale(1,1)"><path fill="none" stroke="#000000" d="M 456 73 L 637.6435546875 73" stroke-miterlimit="10"/></g><g transform="translate(-190,-38) scale(1,1)"><g><path fill="none" stroke="none"/><text fill="#000000" stroke="none" font-family="Arial" font-size="13px" font-style="normal" font-weight="bold" text-decoration="none" x="464.114990234375" y="66">Inclui forma de pagamento</text></g></g><g transform="translate(-190,-38) scale(1,1)"><g><path fill="none" stroke="none"/><text fill="#000000" stroke="none" font-family="Arial" font-size="13px" font-style="normal" font-weight="normal" text-decoration="none" x="461" y="89">do/NocaFormaPagamento</text></g></g><g transform="translate(-190,-38) scale(1,1)"><path fill="none" stroke="#000000" d="M 546 96 L 546 175" stroke-miterlimit="10"/></g><g transform="translate(-190,-38) scale(1,1)"><path fill="none" stroke="#000000" d="M 541.790482243984 164.83732514237585 L 546 175 L 550.209517756016 164.83732514237585" stroke-miterlimit="10"/></g><g transform="translate(-190,-38) scale(1,1)"><g><path fill="none" stroke="none"/><text fill="#000000" stroke="none" font-family="Arial" font-size="13px" font-style="normal" font-weight="normal" text-decoration="none" x="438.5" y="139">confere dados da forma de pagamento</text></g></g><g transform="translate(-190,-38) scale(1,1)"><path fill="none" stroke="#000000" d="M 546 224 L 548 303" stroke-miterlimit="10"/></g><g transform="translate(-190,-38) scale(1,1)"><path fill="none" stroke="#000000" d="M 543.5346300859649 292.9471162579671 L 548 303 L 551.9509689177509 292.7340443888079" stroke-miterlimit="10"/></g><g transform="translate(-190,-38) scale(1,1)"><g><path fill="none" stroke="none"/><text fill="#000000" stroke="none" font-family="Arial" font-size="13px" font-style="normal" font-weight="normal" text-decoration="none" x="470.5" y="267">confirma veracidade dos dados</text></g></g><g transform="translate(-190,-38) scale(1,1)"><path fill="none" stroke="#000000" d="M 547 352 L 544 423" stroke-miterlimit="10"/></g><g transform="translate(-190,-38) scale(1,1)"><path fill="none" stroke="#000000" d="M 540.2232609568264 412.6686766481845 L 544 423 L 548.6347910124996 413.0240934111003" stroke-miterlimit="10"/></g><g transform="translate(-190,-38) scale(1,1)"><g><path fill="none" stroke="none"/><text fill="#000000" stroke="none" font-family="Arial" font-size="13px" font-style="normal" font-weight="normal" text-decoration="none" x="498.5" y="392">pagamento realizado</text></g></g><g transform="translate(-190,-38) scale(1,1)"><path fill="#C0C0C0" stroke="none" d="M 489 575 L 613.07177734375 575 Q 623.07177734375 575 623.07177734375 585 L 623.07177734375 639 Q 623.07177734375 649 613.07177734375 649 L 489 649 Q 479 649 479 639 L 479 585 Q 479 575 489 575 Z" opacity="0.2"/></g><g transform="translate(-190,-38) scale(1,1)"><path fill="#ffffff" stroke="none" d="M 482 568 L 606.07177734375 568 Q 616.07177734375 568 616.07177734375 578 L 616.07177734375 632 Q 616.07177734375 642 606.07177734375 642 L 482 642 Q 472 642 472 632 L 472 578 Q 472 568 482 568 Z"/></g><g transform="translate(-190,-38) scale(1,1)"><path fill="none" stroke="#000000" d="M 482 568 L 606.07177734375 568 Q 616.07177734375 568 616.07177734375 578 L 616.07177734375 632 Q 616.07177734375 642 606.07177734375 642 L 482 642 Q 472 642 472 632 L 472 578 Q 472 568 482 568 Z" stroke-miterlimit="10"/></g><g transform="translate(-190,-38) scale(1,1)"><path fill="none" stroke="#000000" d="M 472 593 L 616.07177734375 593" stroke-miterlimit="10"/></g><g transform="translate(-190,-38) scale(1,1)"><g><path fill="none" stroke="none"/><text fill="#000000" stroke="none" font-family="Arial" font-size="13px" font-style="normal" font-weight="bold" text-decoration="none" x="476.5" y="586">Pagamento concluído</text></g></g><g transform="translate(-190,-38) scale(1,1)"><path fill="none" stroke="#000000" d="M 543 499 L 544 567" stroke-miterlimit="10"/></g><g transform="translate(-190,-38) scale(1,1)"><path fill="none" stroke="#000000" d="M 539.6415024084882 556.9003218494456 L 544 567 L 548.0596277053154 556.7765258891982" stroke-miterlimit="10"/></g><g transform="translate(-190,-38) scale(1,1)"><g><path fill="none" stroke="none"/><text fill="#000000" stroke="none" font-family="Arial" font-size="13px" font-style="normal" font-weight="normal" text-decoration="none" x="456.5" y="537">se aprovado / confirma pagamento</text></g></g><g transform="translate(-190,-38) scale(1,1)"><path fill="none" stroke="#000000" d="M 616 462 L 816 464 L 816 72 L 639 71" stroke-miterlimit="10"/></g><g transform="translate(-190,-38) scale(1,1)"><path fill="none" stroke="#000000" d="M 649.1862948753719 66.84796475063466 L 639 71 L 649.138730462093 75.26686590098943" stroke-miterlimit="10"/></g><g transform="translate(-190,-38) scale(1,1)"><g><path fill="none" stroke="none"/><text fill="#000000" stroke="none" font-family="Arial" font-size="13px" font-style="normal" font-weight="normal" text-decoration="none" x="830.5" y="281">se recusado / inclui nova forma de pagamento</text></g></g><g transform="translate(-190,-38) scale(1,1)"><path fill="#C0C0C0" stroke="none" d="M 543 760.5 C 543 753.59644 548.59644 748 555.5 748 C 562.40356 748 568 753.59644 568 760.5 C 568 767.40356 562.40356 773 555.5 773 C 548.59644 773 543 767.40356 543 760.5 Z" opacity="0.2"/></g><g transform="translate(-190,-38) scale(1,1)"><path fill="none" stroke="#000000" d="M 536 753.5 C 536 746.59644 541.59644 741 548.5 741 C 555.40356 741 561 746.59644 561 753.5 C 561 760.40356 555.40356 766 548.5 766 C 541.59644 766 536 760.40356 536 753.5 Z" stroke-miterlimit="10"/></g><g transform="translate(-190,-38) scale(1,1)"><path fill="#000000" stroke="none" d="M 541 753.5 C 541 749.357864 544.357864 746 548.5 746 C 552.642136 746 556 749.357864 556 753.5 C 556 757.642136 552.642136 761 548.5 761 C 544.357864 761 541 757.642136 541 753.5 Z"/></g><g transform="translate(-190,-38) scale(1,1)"><path fill="none" stroke="#000000" d="M 545 643 L 548 740" stroke-miterlimit="10"/></g><g transform="translate(-190,-38) scale(1,1)"><path fill="none" stroke="#000000" d="M 543.4783347518618 729.972311164392 L 548 740 L 551.893346616073 729.7120530654988" stroke-miterlimit="10"/></g></g></svg>