<svg version="1.1" xmlns="http://www.w3.org/2000/svg" xmlns:xlink="http://www.w3.org/1999/xlink" width="883.85693359375" height="709"><defs/><g><text fill="#eeeeee" stroke="none" font-family="Arial" font-size="24px" font-style="normal" font-weight="normal" text-decoration="none" x="0" y="0">UNREGISTERED</text><text fill="#eeeeee" stroke="none" font-family="Arial" font-size="24px" font-style="normal" font-weight="normal" text-decoration="none" x="0" y="30">UNREGISTERED</text><text fill="#eeeeee" stroke="none" font-family="Arial" font-size="24px" font-style="normal" font-weight="normal" text-decoration="none" x="0" y="60">UNREGISTERED</text><text fill="#eeeeee" stroke="none" font-family="Arial" font-size="24px" font-style="normal" font-weight="normal" text-decoration="none" x="0" y="90">UNREGISTERED</text><text fill="#eeeeee" stroke="none" font-family="Arial" font-size="24px" font-style="normal" font-weight="normal" text-decoration="none" x="0" y="120">UNREGISTERED</text><text fill="#eeeeee" stroke="none" font-family="Arial" font-size="24px" font-style="normal" font-weight="normal" text-decoration="none" x="0" y="150">UNREGISTERED</text><text fill="#eeeeee" stroke="none" font-family="Arial" font-size="24px" font-style="normal" font-weight="normal" text-decoration="none" x="0" y="180">UNREGISTERED</text><text fill="#eeeeee" stroke="none" font-family="Arial" font-size="24px" font-style="normal" font-weight="normal" text-decoration="none" x="0" y="210">UNREGISTERED</text><text fill="#eeeeee" stroke="none" font-family="Arial" font-size="24px" font-style="normal" font-weight="normal" text-decoration="none" x="0" y="240">UNREGISTERED</text><text fill="#eeeeee" stroke="none" font-family="Arial" font-size="24px" font-style="normal" font-weight="normal" text-decoration="none" x="0" y="270">UNREGISTERED</text><text fill="#eeeeee" stroke="none" font-family="Arial" font-size="24px" font-style="normal" font-weight="normal" text-decoration="none" x="0" y="300">UNREGISTERED</text><text fill="#eeeeee" stroke="none" font-family="Arial" font-size="24px" font-style="normal" font-weight="normal" text-decoration="none" x="0" y="330">UNREGISTERED</text><text fill="#eeeeee" stroke="none" font-family="Arial" font-size="24px" font-style="normal" font-weight="normal" text-decoration="none" x="0" y="360">UNREGISTERED</text><text fill="#eeeeee" stroke="none" font-family="Arial" font-size="24px" font-style="normal" font-weight="normal" text-decoration="none" x="0" y="390">UNREGISTERED</text><text fill="#eeeeee" stroke="none" font-family="Arial" font-size="24px" font-style="normal" font-weight="normal" text-decoration="none" x="0" y="420">UNREGISTERED</text><text fill="#eeeeee" stroke="none" font-family="Arial" font-size="24px" font-style="normal" font-weight="normal" text-decoration="none" x="0" y="450">UNREGISTERED</text><text fill="#eeeeee" stroke="none" font-family="Arial" font-size="24px" font-style="normal" font-weight="normal" text-decoration="none" x="0" y="480">UNREGISTERED</text><text fill="#eeeeee" stroke="none" font-family="Arial" font-size="24px" font-style="normal" font-weight="normal" text-decoration="none" x="0" y="510">UNREGISTERED</text><text fill="#eeeeee" stroke="none" font-family="Arial" font-size="24px" font-style="normal" font-weight="normal" text-decoration="none" x="0" y="540">UNREGISTERED</text><text fill="#eeeeee" stroke="none" font-family="Arial" font-size="24px" font-style="normal" font-weight="normal" text-decoration="none" x="0" y="570">UNREGISTERED</text><text fill="#eeeeee" stroke="none" font-family="Arial" font-size="24px" font-style="normal" font-weight="normal" text-decoration="none" x="0" y="600">UNREGISTERED</text><text fill="#eeeeee" stroke="none" font-family="Arial" font-size="24px" font-style="normal" font-weight="normal" text-decoration="none" x="0" y="630">UNREGISTERED</text><text fill="#eeeeee" stroke="none" font-family="Arial" font-size="24px" font-style="normal" font-weight="normal" text-decoration="none" x="0" y="660">UNREGISTERED</text><text fill="#eeeeee" stroke="none" font-family="Arial" font-size="24px" font-style="normal" font-weight="normal" text-decoration="none" x="0" y="690">UNREGISTERED</text><text fill="#eeeeee" stroke="none" font-family="Arial" font-size="24px" font-style="normal" font-weight="normal" text-decoration="none" x="200" y="0">UNREGISTERED</text><text fill="#eeeeee" stroke="none" font-family="Arial" font-size="24px" font-style="normal" font-weight="normal" text-decoration="none" x="200" y="30">UNREGISTERED</text><text fill="#eeeeee" stroke="none" font-family="Arial" font-size="24px" font-style="normal" font-weight="normal" text-decoration="none" x="200" y="60">UNREGISTERED</text><text fill="#eeeeee" stroke="none" font-family="Arial" font-size="24px" font-style="normal" font-weight="normal" text-decoration="none" x="200" y="90">UNREGISTERED</text><text fill="#eeeeee" stroke="none" font-family="Arial" font-size="24px" font-style="normal" font-weight="normal" text-decoration="none" x="200" y="120">UNREGISTERED</text><text fill="#eeeeee" stroke="none" font-family="Arial" font-size="24px" font-style="normal" font-weight="normal" text-decoration="none" x="200" y="150">UNREGISTERED</text><text fill="#eeeeee" stroke="none" font-family="Arial" font-size="24px" font-style="normal" font-weight="normal" text-decoration="none" x="200" y="180">UNREGISTERED</text><text fill="#eeeeee" stroke="none" font-family="Arial" font-size="24px" font-style="normal" font-weight="normal" text-decoration="none" x="200" y="210">UNREGISTERED</text><text fill="#eeeeee" stroke="none" font-family="Arial" font-size="24px" font-style="normal" font-weight="normal" text-decoration="none" x="200" y="240">UNREGISTERED</text><text fill="#eeeeee" stroke="none" font-family="Arial" font-size="24px" font-style="normal" font-weight="normal" text-decoration="none" x="200" y="270">UNREGISTERED</text><text fill="#eeeeee" stroke="none" font-family="Arial" font-size="24px" font-style="normal" font-weight="normal" text-decoration="none" x="200" y="300">UNREGISTERED</text><text fill="#eeeeee" stroke="none" font-family="Arial" font-size="24px" font-style="normal" font-weight="normal" text-decoration="none" x="200" y="330">UNREGISTERED</text><text fill="#eeeeee" stroke="none" font-family="Arial" font-size="24px" font-style="normal" font-weight="normal" text-decoration="none" x="200" y="360">UNREGISTERED</text><text fill="#eeeeee" stroke="none" font-family="Arial" font-size="24px" font-style="normal" font-weight="normal" text-decoration="none" x="200" y="390">UNREGISTERED</text><text fill="#eeeeee" stroke="none" font-family="Arial" font-size="24px" font-style="normal" font-weight="normal" text-decoration="none" x="200" y="420">UNREGISTERED</text><text fill="#eeeeee" stroke="none" font-family="Arial" font-size="24px" font-style="normal" font-weight="normal" text-decoration="none" x="200" y="450">UNREGISTERED</text><text fill="#eeeeee" stroke="none" font-family="Arial" font-size="24px" font-style="normal" font-weight="normal" text-decoration="none" x="200" y="480">UNREGISTERED</text><text fill="#eeeeee" stroke="none" font-family="Arial" font-size="24px" font-style="normal" font-weight="normal" text-decoration="none" x="200" y="510">UNREGISTERED</text><text fill="#eeeeee" stroke="none" font-family="Arial" font-size="24px" font-style="normal" font-weight="normal" text-decoration="none" x="200" y="540">UNREGISTERED</text><text fill="#eeeeee" stroke="none" font-family="Arial" font-size="24px" font-style="normal" font-weight="normal" text-decoration="none" x="200" y="570">UNREGISTERED</text><text fill="#eeeeee" stroke="none" font-family="Arial" font-size="24px" font-style="normal" font-weight="normal" text-decoration="none" x="200" y="600">UNREGISTERED</text><text fill="#eeeeee" stroke="none" font-family="Arial" font-size="24px" font-style="normal" font-weight="normal" text-decoration="none" x="200" y="630">UNREGISTERED</text><text fill="#eeeeee" stroke="none" font-family="Arial" font-size="24px" font-style="normal" font-weight="normal" text-decoration="none" x="200" y="660">UNREGISTERED</text><text fill="#eeeeee" stroke="none" font-family="Arial" font-size="24px" font-style="normal" font-weight="normal" text-decoration="none" x="200" y="690">UNREGISTERED</text><text fill="#eeeeee" stroke="none" font-family="Arial" font-size="24px" font-style="normal" font-weight="normal" text-decoration="none" x="400" y="0">UNREGISTERED</text><text fill="#eeeeee" stroke="none" font-family="Arial" font-size="24px" font-style="normal" font-weight="normal" text-decoration="none" x="400" y="30">UNREGISTERED</text><text fill="#eeeeee" stroke="none" font-family="Arial" font-size="24px" font-style="normal" font-weight="normal" text-decoration="none" x="400" y="60">UNREGISTERED</text><text fill="#eeeeee" stroke="none" font-family="Arial" font-size="24px" font-style="normal" font-weight="normal" text-decoration="none" x="400" y="90">UNREGISTERED</text><text fill="#eeeeee" stroke="none" font-family="Arial" font-size="24px" font-style="normal" font-weight="normal" text-decoration="none" x="400" y="120">UNREGISTERED</text><text fill="#eeeeee" stroke="none" font-family="Arial" font-size="24px" font-style="normal" font-weight="normal" text-decoration="none" x="400" y="150">UNREGISTERED</text><text fill="#eeeeee" stroke="none" font-family="Arial" font-size="24px" font-style="normal" font-weight="normal" text-decoration="none" x="400" y="180">UNREGISTERED</text><text fill="#eeeeee" stroke="none" font-family="Arial" font-size="24px" font-style="normal" font-weight="normal" text-decoration="none" x="400" y="210">UNREGISTERED</text><text fill="#eeeeee" stroke="none" font-family="Arial" font-size="24px" font-style="normal" font-weight="normal" text-decoration="none" x="400" y="240">UNREGISTERED</text><text fill="#eeeeee" stroke="none" font-family="Arial" font-size="24px" font-style="normal" font-weight="normal" text-decoration="none" x="400" y="270">UNREGISTERED</text><text fill="#eeeeee" stroke="none" font-family="Arial" font-size="24px" font-style="normal" font-weight="normal" text-decoration="none" x="400" y="300">UNREGISTERED</text><text fill="#eeeeee" stroke="none" font-family="Arial" font-size="24px" font-style="normal" font-weight="normal" text-decoration="none" x="400" y="330">UNREGISTERED</text><text fill="#eeeeee" stroke="none" font-family="Arial" font-size="24px" font-style="normal" font-weight="normal" text-decoration="none" x="400" y="360">UNREGISTERED</text><text fill="#eeeeee" stroke="none" font-family="Arial" font-size="24px" font-style="normal" font-weight="normal" text-decoration="none" x="400" y="390">UNREGISTERED</text><text fill="#eeeeee" stroke="none" font-family="Arial" font-size="24px" font-style="normal" font-weight="normal" text-decoration="none" x="400" y="420">UNREGISTERED</text><text fill="#eeeeee" stroke="none" font-family="Arial" font-size="24px" font-style="normal" font-weight="normal" text-decoration="none" x="400" y="450">UNREGISTERED</text><text fill="#eeeeee" stroke="none" font-family="Arial" font-size="24px" font-style="normal" font-weight="normal" text-decoration="none" x="400" y="480">UNREGISTERED</text><text fill="#eeeeee" stroke="none" font-family="Arial" font-size="24px" font-style="normal" font-weight="normal" text-decoration="none" x="400" y="510">UNREGISTERED</text><text fill="#eeeeee" stroke="none" font-family="Arial" font-size="24px" font-style="normal" font-weight="normal" text-decoration="none" x="400" y="540">UNREGISTERED</text><text fill="#eeeeee" stroke="none" font-family="Arial" font-size="24px" font-style="normal" font-weight="normal" text-decoration="none" x="400" y="570">UNREGISTERED</text><text fill="#eeeeee" stroke="none" font-family="Arial" font-size="24px" font-style="normal" font-weight="normal" text-decoration="none" x="400" y="600">UNREGISTERED</text><text fill="#eeeeee" stroke="none" font-family="Arial" font-size="24px" font-style="normal" font-weight="normal" text-decoration="none" x="400" y="630">UNREGISTERED</text><text fill="#eeeeee" stroke="none" font-family="Arial" font-size="24px" font-style="normal" font-weight="normal" text-decoration="none" x="400" y="660">UNREGISTERED</text><text fill="#eeeeee" stroke="none" font-family="Arial" font-size="24px" font-style="normal" font-weight="normal" text-decoration="none" x="400" y="690">UNREGISTERED</text><text fill="#eeeeee" stroke="none" font-family="Arial" font-size="24px" font-style="normal" font-weight="normal" text-decoration="none" x="600" y="0">UNREGISTERED</text><text fill="#eeeeee" stroke="none" font-family="Arial" font-size="24px" font-style="normal" font-weight="normal" text-decoration="none" x="600" y="30">UNREGISTERED</text><text fill="#eeeeee" stroke="none" font-family="Arial" font-size="24px" font-style="normal" font-weight="normal" text-decoration="none" x="600" y="60">UNREGISTERED</text><text fill="#eeeeee" stroke="none" font-family="Arial" font-size="24px" font-style="normal" font-weight="normal" text-decoration="none" x="600" y="90">UNREGISTERED</text><text fill="#eeeeee" stroke="none" font-family="Arial" font-size="24px" font-style="normal" font-weight="normal" text-decoration="none" x="600" y="120">UNREGISTERED</text><text fill="#eeeeee" stroke="none" font-family="Arial" font-size="24px" font-style="normal" font-weight="normal" text-decoration="none" x="600" y="150">UNREGISTERED</text><text fill="#eeeeee" stroke="none" font-family="Arial" font-size="24px" font-style="normal" font-weight="normal" text-decoration="none" x="600" y="180">UNREGISTERED</text><text fill="#eeeeee" stroke="none" font-family="Arial" font-size="24px" font-style="normal" font-weight="normal" text-decoration="none" x="600" y="210">UNREGISTERED</text><text fill="#eeeeee" stroke="none" font-family="Arial" font-size="24px" font-style="normal" font-weight="normal" text-decoration="none" x="600" y="240">UNREGISTERED</text><text fill="#eeeeee" stroke="none" font-family="Arial" font-size="24px" font-style="normal" font-weight="normal" text-decoration="none" x="600" y="270">UNREGISTERED</text><text fill="#eeeeee" stroke="none" font-family="Arial" font-size="24px" font-style="normal" font-weight="normal" text-decoration="none" x="600" y="300">UNREGISTERED</text><text fill="#eeeeee" stroke="none" font-family="Arial" font-size="24px" font-style="normal" font-weight="normal" text-decoration="none" x="600" y="330">UNREGISTERED</text><text fill="#eeeeee" stroke="none" font-family="Arial" font-size="24px" font-style="normal" font-weight="normal" text-decoration="none" x="600" y="360">UNREGISTERED</text><text fill="#eeeeee" stroke="none" font-family="Arial" font-size="24px" font-style="normal" font-weight="normal" text-decoration="none" x="600" y="390">UNREGISTERED</text><text fill="#eeeeee" stroke="none" font-family="Arial" font-size="24px" font-style="normal" font-weight="normal" text-decoration="none" x="600" y="420">UNREGISTERED</text><text fill="#eeeeee" stroke="none" font-family="Arial" font-size="24px" font-style="normal" font-weight="normal" text-decoration="none" x="600" y="450">UNREGISTERED</text><text fill="#eeeeee" stroke="none" font-family="Arial" font-size="24px" font-style="normal" font-weight="normal" text-decoration="none" x="600" y="480">UNREGISTERED</text><text fill="#eeeeee" stroke="none" font-family="Arial" font-size="24px" font-style="normal" font-weight="normal" text-decoration="none" x="600" y="510">UNREGISTERED</text><text fill="#eeeeee" stroke="none" font-family="Arial" font-size="24px" font-style="normal" font-weight="normal" text-decoration="none" x="600" y="540">UNREGISTERED</text><text fill="#eeeeee" stroke="none" font-family="Arial" font-size="24px" font-style="normal" font-weight="normal" text-decoration="none" x="600" y="570">UNREGISTERED</text><text fill="#eeeeee" stroke="none" font-family="Arial" font-size="24px" font-style="normal" font-weight="normal" text-decoration="none" x="600" y="600">UNREGISTERED</text><text fill="#eeeeee" stroke="none" font-family="Arial" font-size="24px" font-style="normal" font-weight="normal" text-decoration="none" x="600" y="630">UNREGISTERED</text><text fill="#eeeeee" stroke="none" font-family="Arial" font-size="24px" font-style="normal" font-weight="normal" text-decoration="none" x="600" y="660">UNREGISTERED</text><text fill="#eeeeee" stroke="none" font-family="Arial" font-size="24px" font-style="normal" font-weight="normal" text-decoration="none" x="600" y="690">UNREGISTERED</text><text fill="#eeeeee" stroke="none" font-family="Arial" font-size="24px" font-style="normal" font-weight="normal" text-decoration="none" x="800" y="0">UNREGISTERED</text><text fill="#eeeeee" stroke="none" font-family="Arial" font-size="24px" font-style="normal" font-weight="normal" text-decoration="none" x="800" y="30">UNREGISTERED</text><text fill="#eeeeee" stroke="none" font-family="Arial" font-size="24px" font-style="normal" font-weight="normal" text-decoration="none" x="800" y="60">UNREGISTERED</text><text fill="#eeeeee" stroke="none" font-family="Arial" font-size="24px" font-style="normal" font-weight="normal" text-decoration="none" x="800" y="90">UNREGISTERED</text><text fill="#eeeeee" stroke="none" font-family="Arial" font-size="24px" font-style="normal" font-weight="normal" text-decoration="none" x="800" y="120">UNREGISTERED</text><text fill="#eeeeee" stroke="none" font-family="Arial" font-size="24px" font-style="normal" font-weight="normal" text-decoration="none" x="800" y="150">UNREGISTERED</text><text fill="#eeeeee" stroke="none" font-family="Arial" font-size="24px" font-style="normal" font-weight="normal" text-decoration="none" x="800" y="180">UNREGISTERED</text><text fill="#eeeeee" stroke="none" font-family="Arial" font-size="24px" font-style="normal" font-weight="normal" text-decoration="none" x="800" y="210">UNREGISTERED</text><text fill="#eeeeee" stroke="none" font-family="Arial" font-size="24px" font-style="normal" font-weight="normal" text-decoration="none" x="800" y="240">UNREGISTERED</text><text fill="#eeeeee" stroke="none" font-family="Arial" font-size="24px" font-style="normal" font-weight="normal" text-decoration="none" x="800" y="270">UNREGISTERED</text><text fill="#eeeeee" stroke="none" font-family="Arial" font-size="24px" font-style="normal" font-weight="normal" text-decoration="none" x="800" y="300">UNREGISTERED</text><text fill="#eeeeee" stroke="none" font-family="Arial" font-size="24px" font-style="normal" font-weight="normal" text-decoration="none" x="800" y="330">UNREGISTERED</text><text fill="#eeeeee" stroke="none" font-family="Arial" font-size="24px" font-style="normal" font-weight="normal" text-decoration="none" x="800" y="360">UNREGISTERED</text><text fill="#eeeeee" stroke="none" font-family="Arial" font-size="24px" font-style="normal" font-weight="normal" text-decoration="none" x="800" y="390">UNREGISTERED</text><text fill="#eeeeee" stroke="none" font-family="Arial" font-size="24px" font-style="normal" font-weight="normal" text-decoration="none" x="800" y="420">UNREGISTERED</text><text fill="#eeeeee" stroke="none" font-family="Arial" font-size="24px" font-style="normal" font-weight="normal" text-decoration="none" x="800" y="450">UNREGISTERED</text><text fill="#eeeeee" stroke="none" font-family="Arial" font-size="24px" font-style="normal" font-weight="normal" text-decoration="none" x="800" y="480">UNREGISTERED</text><text fill="#eeeeee" stroke="none" font-family="Arial" font-size="24px" font-style="normal" font-weight="normal" text-decoration="none" x="800" y="510">UNREGISTERED</text><text fill="#eeeeee" stroke="none" font-family="Arial" font-size="24px" font-style="normal" font-weight="normal" text-decoration="none" x="800" y="540">UNREGISTERED</text><text fill="#eeeeee" stroke="none" font-family="Arial" font-size="24px" font-style="normal" font-weight="normal" text-decoration="none" x="800" y="570">UNREGISTERED</text><text fill="#eeeeee" stroke="none" font-family="Arial" font-size="24px" font-style="normal" font-weight="normal" text-decoration="none" x="800" y="600">UNREGISTERED</text><text fill="#eeeeee" stroke="none" font-family="Arial" font-size="24px" font-style="normal" font-weight="normal" text-decoration="none" x="800" y="630">UNREGISTERED</text><text fill="#eeeeee" stroke="none" font-family="Arial" font-size="24px" font-style="normal" font-weight="normal" text-decoration="none" x="800" y="660">UNREGISTERED</text><text fill="#eeeeee" stroke="none" font-family="Arial" font-size="24px" font-style="normal" font-weight="normal" text-decoration="none" x="800" y="690">UNREGISTERED</text><g transform="translate(-166,-94) scale(1,1)"><path fill="#C0C0C0" stroke="none" d="M 183 144.5 C 183 139.2532944 187.2532944 135 192.5 135 C 197.7467056 135 202 139.2532944 202 144.5 C 202 149.7467056 197.7467056 154 192.5 154 C 187.2532944 154 183 149.7467056 183 144.5 Z" opacity="0.2"/></g><g transform="translate(-166,-94) scale(1,1)"><path fill="#000000" stroke="none" d="M 176 137.5 C 176 132.2532944 180.2532944 128 185.5 128 C 190.7467056 128 195 132.2532944 195 137.5 C 195 142.7467056 190.7467056 147 185.5 147 C 180.2532944 147 176 142.7467056 176 137.5 Z"/></g><g transform="translate(-166,-94) scale(1,1)"><path fill="#C0C0C0" stroke="none" d="M 433 119 L 533.21728515625 119 Q 543.21728515625 119 543.21728515625 129 L 543.21728515625 156 Q 543.21728515625 166 533.21728515625 166 L 433 166 Q 423 166 423 156 L 423 129 Q 423 119 433 119 Z" opacity="0.2"/></g><g transform="translate(-166,-94) scale(1,1)"><path fill="#ffffff" stroke="none" d="M 426 112 L 526.21728515625 112 Q 536.21728515625 112 536.21728515625 122 L 536.21728515625 149 Q 536.21728515625 159 526.21728515625 159 L 426 159 Q 416 159 416 149 L 416 122 Q 416 112 426 112 Z"/></g><g transform="translate(-166,-94) scale(1,1)"><path fill="none" stroke="#000000" d="M 426 112 L 526.21728515625 112 Q 536.21728515625 112 536.21728515625 122 L 536.21728515625 149 Q 536.21728515625 159 526.21728515625 159 L 426 159 Q 416 159 416 149 L 416 122 Q 416 112 426 112 Z" stroke-miterlimit="10"/></g><g transform="translate(-166,-94) scale(1,1)"><path fill="none" stroke="#000000" d="M 416 137 L 536.21728515625 137" stroke-miterlimit="10"/></g><g transform="translate(-166,-94) scale(1,1)"><g><path fill="none" stroke="none"/><text fill="#000000" stroke="none" font-family="Arial" font-size="13px" font-style="normal" font-weight="bold" text-decoration="none" x="420.5" y="130">Conferindo dados</text></g></g><g transform="translate(-166,-94) scale(1,1)"><g><path fill="none" stroke="none"/><text fill="#000000" stroke="none" font-family="Arial" font-size="13px" font-style="normal" font-weight="normal" text-decoration="none" x="421" y="153">do/Conferir</text></g></g><g transform="translate(-166,-94) scale(1,1)"><path fill="none" stroke="#000000" d="M 196 137 L 415 135" stroke-miterlimit="10"/></g><g transform="translate(-166,-94) scale(1,1)"><path fill="none" stroke="#000000" d="M 404.8761903865161 139.3021481738698 L 415 135 L 404.79930742345135 130.88346371827663" stroke-miterlimit="10"/></g><g transform="translate(-166,-94) scale(1,1)"><g><path fill="none" stroke="none"/><text fill="#000000" stroke="none" font-family="Arial" font-size="13px" font-style="normal" font-weight="normal" text-decoration="none" x="224.5" y="126">Confere dados preenchidos</text></g></g><g transform="translate(-166,-94) scale(1,1)"><path fill="#C0C0C0" stroke="none" d="M 705 111 L 825.52978515625 111 Q 835.52978515625 111 835.52978515625 121 L 835.52978515625 165 Q 835.52978515625 175 825.52978515625 175 L 705 175 Q 695 175 695 165 L 695 121 Q 695 111 705 111 Z" opacity="0.2"/></g><g transform="translate(-166,-94) scale(1,1)"><path fill="#ffffff" stroke="none" d="M 698 104 L 818.52978515625 104 Q 828.52978515625 104 828.52978515625 114 L 828.52978515625 158 Q 828.52978515625 168 818.52978515625 168 L 698 168 Q 688 168 688 158 L 688 114 Q 688 104 698 104 Z"/></g><g transform="translate(-166,-94) scale(1,1)"><path fill="none" stroke="#000000" d="M 698 104 L 818.52978515625 104 Q 828.52978515625 104 828.52978515625 114 L 828.52978515625 158 Q 828.52978515625 168 818.52978515625 168 L 698 168 Q 688 168 688 158 L 688 114 Q 688 104 698 104 Z" stroke-miterlimit="10"/></g><g transform="translate(-166,-94) scale(1,1)"><path fill="none" stroke="#000000" d="M 688 129 L 828.52978515625 129" stroke-miterlimit="10"/></g><g transform="translate(-166,-94) scale(1,1)"><g><path fill="none" stroke="none"/><text fill="#000000" stroke="none" font-family="Arial" font-size="13px" font-style="normal" font-weight="bold" text-decoration="none" x="694.337646484375" y="122">Armazenando dados</text></g></g><g transform="translate(-166,-94) scale(1,1)"><g><path fill="none" stroke="none"/><text fill="#000000" stroke="none" font-family="Arial" font-size="13px" font-style="normal" font-weight="normal" text-decoration="none" x="693" y="145">do/ArmazenaDados</text></g></g><g transform="translate(-166,-94) scale(1,1)"><path fill="none" stroke="#000000" d="M 537 135 L 687 136" stroke-miterlimit="10"/></g><g transform="translate(-166,-94) scale(1,1)"><path fill="none" stroke="#000000" d="M 676.809488143972 140.1416745541088 L 687 136 L 676.8656138001626 131.72282612551876" stroke-miterlimit="10"/></g><g transform="translate(-166,-94) scale(1,1)"><g><path fill="none" stroke="none"/><text fill="#000000" stroke="none" font-family="Arial" font-size="13px" font-style="normal" font-weight="normal" text-decoration="none" x="550.305908203125" y="125">Dados estão corretos</text></g></g><g transform="translate(-166,-94) scale(1,1)"><path fill="#C0C0C0" stroke="none" d="M 713 287 L 829.130859375 287 Q 839.130859375 287 839.130859375 297 L 839.130859375 324 Q 839.130859375 334 829.130859375 334 L 713 334 Q 703 334 703 324 L 703 297 Q 703 287 713 287 Z" opacity="0.2"/></g><g transform="translate(-166,-94) scale(1,1)"><path fill="#ffffff" stroke="none" d="M 706 280 L 822.130859375 280 Q 832.130859375 280 832.130859375 290 L 832.130859375 317 Q 832.130859375 327 822.130859375 327 L 706 327 Q 696 327 696 317 L 696 290 Q 696 280 706 280 Z"/></g><g transform="translate(-166,-94) scale(1,1)"><path fill="none" stroke="#000000" d="M 706 280 L 822.130859375 280 Q 832.130859375 280 832.130859375 290 L 832.130859375 317 Q 832.130859375 327 822.130859375 327 L 706 327 Q 696 327 696 317 L 696 290 Q 696 280 706 280 Z" stroke-miterlimit="10"/></g><g transform="translate(-166,-94) scale(1,1)"><path fill="none" stroke="#000000" d="M 696 305 L 832.130859375 305" stroke-miterlimit="10"/></g><g transform="translate(-166,-94) scale(1,1)"><g><path fill="none" stroke="none"/><text fill="#000000" stroke="none" font-family="Arial" font-size="13px" font-style="normal" font-weight="bold" text-decoration="none" x="705.924072265625" y="298">Filtrando os dados</text></g></g><g transform="translate(-166,-94) scale(1,1)"><g><path fill="none" stroke="none"/><text fill="#000000" stroke="none" font-family="Arial" font-size="13px" font-style="normal" font-weight="normal" text-decoration="none" x="701" y="321">do/Filtro</text></g></g><g transform="translate(-166,-94) scale(1,1)"><path fill="none" stroke="#000000" d="M 759 169 L 763 279" stroke-miterlimit="10"/></g><g transform="translate(-166,-94) scale(1,1)"><path fill="none" stroke="#000000" d="M 758.4239549158333 268.9970098776579 L 763 279 L 766.8374296376205 268.6910653423202" stroke-miterlimit="10"/></g><g transform="translate(-166,-94) scale(1,1)"><g><path fill="none" stroke="none"/><text fill="#000000" stroke="none" font-family="Arial" font-size="13px" font-style="normal" font-weight="normal" text-decoration="none" x="759.5" y="227">dados armazenados</text></g></g><g transform="translate(-166,-94) scale(1,1)"><path fill="#C0C0C0" stroke="none" d="M 681 439 L 853 439 Q 863 439 863 449 L 863 503 Q 863 513 853 513 L 681 513 Q 671 513 671 503 L 671 449 Q 671 439 681 439 Z" opacity="0.2"/></g><g transform="translate(-166,-94) scale(1,1)"><path fill="#ffffff" stroke="none" d="M 674 432 L 846 432 Q 856 432 856 442 L 856 496 Q 856 506 846 506 L 674 506 Q 664 506 664 496 L 664 442 Q 664 432 674 432 Z"/></g><g transform="translate(-166,-94) scale(1,1)"><path fill="none" stroke="#000000" d="M 674 432 L 846 432 Q 856 432 856 442 L 856 496 Q 856 506 846 506 L 674 506 Q 664 506 664 496 L 664 442 Q 664 432 674 432 Z" stroke-miterlimit="10"/></g><g transform="translate(-166,-94) scale(1,1)"><path fill="none" stroke="#000000" d="M 664 457 L 856 457" stroke-miterlimit="10"/></g><g transform="translate(-166,-94) scale(1,1)"><g><path fill="none" stroke="none"/><text fill="#000000" stroke="none" font-family="Arial" font-size="13px" font-style="normal" font-weight="bold" text-decoration="none" x="673.681396484375" y="450">Analisando compatibilidade</text></g></g><g transform="translate(-166,-94) scale(1,1)"><g><path fill="none" stroke="none"/><text fill="#000000" stroke="none" font-family="Arial" font-size="13px" font-style="normal" font-weight="normal" text-decoration="none" x="669" y="473">do/Compatibilidade</text></g></g><g transform="translate(-166,-94) scale(1,1)"><path fill="none" stroke="#000000" d="M 763 328 L 761 431" stroke-miterlimit="10"/></g><g transform="translate(-166,-94) scale(1,1)"><path fill="none" stroke="#000000" d="M 756.9885718962405 420.7575176559406 L 761 431 L 765.4060207072573 420.9209632639215" stroke-miterlimit="10"/></g><g transform="translate(-166,-94) scale(1,1)"><g><path fill="none" stroke="none"/><text fill="#000000" stroke="none" font-family="Arial" font-size="13px" font-style="normal" font-weight="normal" text-decoration="none" x="767.692138671875" y="371">dados filtrados</text></g></g><g transform="translate(-166,-94) scale(1,1)"><path fill="#C0C0C0" stroke="none" d="M 681 607 L 856 607 Q 866 607 866 617 L 866 684 Q 866 694 856 694 L 681 694 Q 671 694 671 684 L 671 617 Q 671 607 681 607 Z" opacity="0.2"/></g><g transform="translate(-166,-94) scale(1,1)"><path fill="#ffffff" stroke="none" d="M 674 600 L 849 600 Q 859 600 859 610 L 859 677 Q 859 687 849 687 L 674 687 Q 664 687 664 677 L 664 610 Q 664 600 674 600 Z"/></g><g transform="translate(-166,-94) scale(1,1)"><path fill="none" stroke="#000000" d="M 674 600 L 849 600 Q 859 600 859 610 L 859 677 Q 859 687 849 687 L 674 687 Q 664 687 664 677 L 664 610 Q 664 600 674 600 Z" stroke-miterlimit="10"/></g><g transform="translate(-166,-94) scale(1,1)"><path fill="none" stroke="#000000" d="M 664 625 L 859 625" stroke-miterlimit="10"/></g><g transform="translate(-166,-94) scale(1,1)"><g><path fill="none" stroke="none"/><text fill="#000000" stroke="none" font-family="Arial" font-size="13px" font-style="normal" font-weight="bold" text-decoration="none" x="680.23095703125" y="618">Exibindo lista de Usuários</text></g></g><g transform="translate(-166,-94) scale(1,1)"><path fill="none" stroke="#000000" d="M 760 507 L 761 599" stroke-miterlimit="10"/></g><g transform="translate(-166,-94) scale(1,1)"><path fill="none" stroke="#000000" d="M 756.6802735616264 588.8836783613007 L 761 599 L 765.0988117739438 588.7921725111668" stroke-miterlimit="10"/></g><g transform="translate(-166,-94) scale(1,1)"><g><path fill="none" stroke="none"/><text fill="#000000" stroke="none" font-family="Arial" font-size="13px" font-style="normal" font-weight="normal" text-decoration="none" x="766.5" y="559">se compatível / apresenta usuários compativeis</text></g></g><g transform="translate(-166,-94) scale(1,1)"><path fill="#C0C0C0" stroke="none" d="M 751 787.5 C 751 780.59644 756.59644 775 763.5 775 C 770.40356 775 776 780.59644 776 787.5 C 776 794.40356 770.40356 800 763.5 800 C 756.59644 800 751 794.40356 751 787.5 Z" opacity="0.2"/></g><g transform="translate(-166,-94) scale(1,1)"><path fill="none" stroke="#000000" d="M 744 780.5 C 744 773.59644 749.59644 768 756.5 768 C 763.40356 768 769 773.59644 769 780.5 C 769 787.40356 763.40356 793 756.5 793 C 749.59644 793 744 787.40356 744 780.5 Z" stroke-miterlimit="10"/></g><g transform="translate(-166,-94) scale(1,1)"><path fill="#000000" stroke="none" d="M 749 780.5 C 749 776.357864 752.357864 773 756.5 773 C 760.642136 773 764 776.357864 764 780.5 C 764 784.642136 760.642136 788 756.5 788 C 752.357864 788 749 784.642136 749 780.5 Z"/></g><g transform="translate(-166,-94) scale(1,1)"><path fill="none" stroke="#000000" d="M 759 688 L 756 767" stroke-miterlimit="10"/></g><g transform="translate(-166,-94) scale(1,1)"><path fill="none" stroke="#000000" d="M 752.1791605846995 756.6849049368178 L 756 767 L 760.5921322073762 757.0043848718561" stroke-miterlimit="10"/></g><g transform="translate(-166,-94) scale(1,1)"><g><path fill="none" stroke="none"/><text fill="#000000" stroke="none" font-family="Arial" font-size="13px" font-style="normal" font-weight="normal" text-decoration="none" x="768.5" y="732">perfil criado com sucesso</text></g></g></g></svg>