<svg version="1.1" xmlns="http://www.w3.org/2000/svg" xmlns:xlink="http://www.w3.org/1999/xlink" width="1119.7490234375" height="363"><defs/><g><text fill="#eeeeee" stroke="none" font-family="Arial" font-size="24px" font-style="normal" font-weight="normal" text-decoration="none" x="0" y="0">UNREGISTERED</text><text fill="#eeeeee" stroke="none" font-family="Arial" font-size="24px" font-style="normal" font-weight="normal" text-decoration="none" x="0" y="30">UNREGISTERED</text><text fill="#eeeeee" stroke="none" font-family="Arial" font-size="24px" font-style="normal" font-weight="normal" text-decoration="none" x="0" y="60">UNREGISTERED</text><text fill="#eeeeee" stroke="none" font-family="Arial" font-size="24px" font-style="normal" font-weight="normal" text-decoration="none" x="0" y="90">UNREGISTERED</text><text fill="#eeeeee" stroke="none" font-family="Arial" font-size="24px" font-style="normal" font-weight="normal" text-decoration="none" x="0" y="120">UNREGISTERED</text><text fill="#eeeeee" stroke="none" font-family="Arial" font-size="24px" font-style="normal" font-weight="normal" text-decoration="none" x="0" y="150">UNREGISTERED</text><text fill="#eeeeee" stroke="none" font-family="Arial" font-size="24px" font-style="normal" font-weight="normal" text-decoration="none" x="0" y="180">UNREGISTERED</text><text fill="#eeeeee" stroke="none" font-family="Arial" font-size="24px" font-style="normal" font-weight="normal" text-decoration="none" x="0" y="210">UNREGISTERED</text><text fill="#eeeeee" stroke="none" font-family="Arial" font-size="24px" font-style="normal" font-weight="normal" text-decoration="none" x="0" y="240">UNREGISTERED</text><text fill="#eeeeee" stroke="none" font-family="Arial" font-size="24px" font-style="normal" font-weight="normal" text-decoration="none" x="0" y="270">UNREGISTERED</text><text fill="#eeeeee" stroke="none" font-family="Arial" font-size="24px" font-style="normal" font-weight="normal" text-decoration="none" x="0" y="300">UNREGISTERED</text><text fill="#eeeeee" stroke="none" font-family="Arial" font-size="24px" font-style="normal" font-weight="normal" text-decoration="none" x="0" y="330">UNREGISTERED</text><text fill="#eeeeee" stroke="none" font-family="Arial" font-size="24px" font-style="normal" font-weight="normal" text-decoration="none" x="0" y="360">UNREGISTERED</text><text fill="#eeeeee" stroke="none" font-family="Arial" font-size="24px" font-style="normal" font-weight="normal" text-decoration="none" x="200" y="0">UNREGISTERED</text><text fill="#eeeeee" stroke="none" font-family="Arial" font-size="24px" font-style="normal" font-weight="normal" text-decoration="none" x="200" y="30">UNREGISTERED</text><text fill="#eeeeee" stroke="none" font-family="Arial" font-size="24px" font-style="normal" font-weight="normal" text-decoration="none" x="200" y="60">UNREGISTERED</text><text fill="#eeeeee" stroke="none" font-family="Arial" font-size="24px" font-style="normal" font-weight="normal" text-decoration="none" x="200" y="90">UNREGISTERED</text><text fill="#eeeeee" stroke="none" font-family="Arial" font-size="24px" font-style="normal" font-weight="normal" text-decoration="none" x="200" y="120">UNREGISTERED</text><text fill="#eeeeee" stroke="none" font-family="Arial" font-size="24px" font-style="normal" font-weight="normal" text-decoration="none" x="200" y="150">UNREGISTERED</text><text fill="#eeeeee" stroke="none" font-family="Arial" font-size="24px" font-style="normal" font-weight="normal" text-decoration="none" x="200" y="180">UNREGISTERED</text><text fill="#eeeeee" stroke="none" font-family="Arial" font-size="24px" font-style="normal" font-weight="normal" text-decoration="none" x="200" y="210">UNREGISTERED</text><text fill="#eeeeee" stroke="none" font-family="Arial" font-size="24px" font-style="normal" font-weight="normal" text-decoration="none" x="200" y="240">UNREGISTERED</text><text fill="#eeeeee" stroke="none" font-family="Arial" font-size="24px" font-style="normal" font-weight="normal" text-decoration="none" x="200" y="270">UNREGISTERED</text><text fill="#eeeeee" stroke="none" font-family="Arial" font-size="24px" font-style="normal" font-weight="normal" text-decoration="none" x="200" y="300">UNREGISTERED</text><text fill="#eeeeee" stroke="none" font-family="Arial" font-size="24px" font-style="normal" font-weight="normal" text-decoration="none" x="200" y="330">UNREGISTERED</text><text fill="#eeeeee" stroke="none" font-family="Arial" font-size="24px" font-style="normal" font-weight="normal" text-decoration="none" x="200" y="360">UNREGISTERED</text><text fill="#eeeeee" stroke="none" font-family="Arial" font-size="24px" font-style="normal" font-weight="normal" text-decoration="none" x="400" y="0">UNREGISTERED</text><text fill="#eeeeee" stroke="none" font-family="Arial" font-size="24px" font-style="normal" font-weight="normal" text-decoration="none" x="400" y="30">UNREGISTERED</text><text fill="#eeeeee" stroke="none" font-family="Arial" font-size="24px" font-style="normal" font-weight="normal" text-decoration="none" x="400" y="60">UNREGISTERED</text><text fill="#eeeeee" stroke="none" font-family="Arial" font-size="24px" font-style="normal" font-weight="normal" text-decoration="none" x="400" y="90">UNREGISTERED</text><text fill="#eeeeee" stroke="none" font-family="Arial" font-size="24px" font-style="normal" font-weight="normal" text-decoration="none" x="400" y="120">UNREGISTERED</text><text fill="#eeeeee" stroke="none" font-family="Arial" font-size="24px" font-style="normal" font-weight="normal" text-decoration="none" x="400" y="150">UNREGISTERED</text><text fill="#eeeeee" stroke="none" font-family="Arial" font-size="24px" font-style="normal" font-weight="normal" text-decoration="none" x="400" y="180">UNREGISTERED</text><text fill="#eeeeee" stroke="none" font-family="Arial" font-size="24px" font-style="normal" font-weight="normal" text-decoration="none" x="400" y="210">UNREGISTERED</text><text fill="#eeeeee" stroke="none" font-family="Arial" font-size="24px" font-style="normal" font-weight="normal" text-decoration="none" x="400" y="240">UNREGISTERED</text><text fill="#eeeeee" stroke="none" font-family="Arial" font-size="24px" font-style="normal" font-weight="normal" text-decoration="none" x="400" y="270">UNREGISTERED</text><text fill="#eeeeee" stroke="none" font-family="Arial" font-size="24px" font-style="normal" font-weight="normal" text-decoration="none" x="400" y="300">UNREGISTERED</text><text fill="#eeeeee" stroke="none" font-family="Arial" font-size="24px" font-style="normal" font-weight="normal" text-decoration="none" x="400" y="330">UNREGISTERED</text><text fill="#eeeeee" stroke="none" font-family="Arial" font-size="24px" font-style="normal" font-weight="normal" text-decoration="none" x="400" y="360">UNREGISTERED</text><text fill="#eeeeee" stroke="none" font-family="Arial" font-size="24px" font-style="normal" font-weight="normal" text-decoration="none" x="600" y="0">UNREGISTERED</text><text fill="#eeeeee" stroke="none" font-family="Arial" font-size="24px" font-style="normal" font-weight="normal" text-decoration="none" x="600" y="30">UNREGISTERED</text><text fill="#eeeeee" stroke="none" font-family="Arial" font-size="24px" font-style="normal" font-weight="normal" text-decoration="none" x="600" y="60">UNREGISTERED</text><text fill="#eeeeee" stroke="none" font-family="Arial" font-size="24px" font-style="normal" font-weight="normal" text-decoration="none" x="600" y="90">UNREGISTERED</text><text fill="#eeeeee" stroke="none" font-family="Arial" font-size="24px" font-style="normal" font-weight="normal" text-decoration="none" x="600" y="120">UNREGISTERED</text><text fill="#eeeeee" stroke="none" font-family="Arial" font-size="24px" font-style="normal" font-weight="normal" text-decoration="none" x="600" y="150">UNREGISTERED</text><text fill="#eeeeee" stroke="none" font-family="Arial" font-size="24px" font-style="normal" font-weight="normal" text-decoration="none" x="600" y="180">UNREGISTERED</text><text fill="#eeeeee" stroke="none" font-family="Arial" font-size="24px" font-style="normal" font-weight="normal" text-decoration="none" x="600" y="210">UNREGISTERED</text><text fill="#eeeeee" stroke="none" font-family="Arial" font-size="24px" font-style="normal" font-weight="normal" text-decoration="none" x="600" y="240">UNREGISTERED</text><text fill="#eeeeee" stroke="none" font-family="Arial" font-size="24px" font-style="normal" font-weight="normal" text-decoration="none" x="600" y="270">UNREGISTERED</text><text fill="#eeeeee" stroke="none" font-family="Arial" font-size="24px" font-style="normal" font-weight="normal" text-decoration="none" x="600" y="300">UNREGISTERED</text><text fill="#eeeeee" stroke="none" font-family="Arial" font-size="24px" font-style="normal" font-weight="normal" text-decoration="none" x="600" y="330">UNREGISTERED</text><text fill="#eeeeee" stroke="none" font-family="Arial" font-size="24px" font-style="normal" font-weight="normal" text-decoration="none" x="600" y="360">UNREGISTERED</text><text fill="#eeeeee" stroke="none" font-family="Arial" font-size="24px" font-style="normal" font-weight="normal" text-decoration="none" x="800" y="0">UNREGISTERED</text><text fill="#eeeeee" stroke="none" font-family="Arial" font-size="24px" font-style="normal" font-weight="normal" text-decoration="none" x="800" y="30">UNREGISTERED</text><text fill="#eeeeee" stroke="none" font-family="Arial" font-size="24px" font-style="normal" font-weight="normal" text-decoration="none" x="800" y="60">UNREGISTERED</text><text fill="#eeeeee" stroke="none" font-family="Arial" font-size="24px" font-style="normal" font-weight="normal" text-decoration="none" x="800" y="90">UNREGISTERED</text><text fill="#eeeeee" stroke="none" font-family="Arial" font-size="24px" font-style="normal" font-weight="normal" text-decoration="none" x="800" y="120">UNREGISTERED</text><text fill="#eeeeee" stroke="none" font-family="Arial" font-size="24px" font-style="normal" font-weight="normal" text-decoration="none" x="800" y="150">UNREGISTERED</text><text fill="#eeeeee" stroke="none" font-family="Arial" font-size="24px" font-style="normal" font-weight="normal" text-decoration="none" x="800" y="180">UNREGISTERED</text><text fill="#eeeeee" stroke="none" font-family="Arial" font-size="24px" font-style="normal" font-weight="normal" text-decoration="none" x="800" y="210">UNREGISTERED</text><text fill="#eeeeee" stroke="none" font-family="Arial" font-size="24px" font-style="normal" font-weight="normal" text-decoration="none" x="800" y="240">UNREGISTERED</text><text fill="#eeeeee" stroke="none" font-family="Arial" font-size="24px" font-style="normal" font-weight="normal" text-decoration="none" x="800" y="270">UNREGISTERED</text><text fill="#eeeeee" stroke="none" font-family="Arial" font-size="24px" font-style="normal" font-weight="normal" text-decoration="none" x="800" y="300">UNREGISTERED</text><text fill="#eeeeee" stroke="none" font-family="Arial" font-size="24px" font-style="normal" font-weight="normal" text-decoration="none" x="800" y="330">UNREGISTERED</text><text fill="#eeeeee" stroke="none" font-family="Arial" font-size="24px" font-style="normal" font-weight="normal" text-decoration="none" x="800" y="360">UNREGISTERED</text><text fill="#eeeeee" stroke="none" font-family="Arial" font-size="24px" font-style="normal" font-weight="normal" text-decoration="none" x="1000" y="0">UNREGISTERED</text><text fill="#eeeeee" stroke="none" font-family="Arial" font-size="24px" font-style="normal" font-weight="normal" text-decoration="none" x="1000" y="30">UNREGISTERED</text><text fill="#eeeeee" stroke="none" font-family="Arial" font-size="24px" font-style="normal" font-weight="normal" text-decoration="none" x="1000" y="60">UNREGISTERED</text><text fill="#eeeeee" stroke="none" font-family="Arial" font-size="24px" font-style="normal" font-weight="normal" text-decoration="none" x="1000" y="90">UNREGISTERED</text><text fill="#eeeeee" stroke="none" font-family="Arial" font-size="24px" font-style="normal" font-weight="normal" text-decoration="none" x="1000" y="120">UNREGISTERED</text><text fill="#eeeeee" stroke="none" font-family="Arial" font-size="24px" font-style="normal" font-weight="normal" text-decoration="none" x="1000" y="150">UNREGISTERED</text><text fill="#eeeeee" stroke="none" font-family="Arial" font-size="24px" font-style="normal" font-weight="normal" text-decoration="none" x="1000" y="180">UNREGISTERED</text><text fill="#eeeeee" stroke="none" font-family="Arial" font-size="24px" font-style="normal" font-weight="normal" text-decoration="none" x="1000" y="210">UNREGISTERED</text><text fill="#eeeeee" stroke="none" font-family="Arial" font-size="24px" font-style="normal" font-weight="normal" text-decoration="none" x="1000" y="240">UNREGISTERED</text><text fill="#eeeeee" stroke="none" font-family="Arial" font-size="24px" font-style="normal" font-weight="normal" text-decoration="none" x="1000" y="270">UNREGISTERED</text><text fill="#eeeeee" stroke="none" font-family="Arial" font-size="24px" font-style="normal" font-weight="normal" text-decoration="none" x="1000" y="300">UNREGISTERED</text><text fill="#eeeeee" stroke="none" font-family="Arial" font-size="24px" font-style="normal" font-weight="normal" text-decoration="none" x="1000" y="330">UNREGISTERED</text><text fill="#eeeeee" stroke="none" font-family="Arial" font-size="24px" font-style="normal" font-weight="normal" text-decoration="none" x="1000" y="360">UNREGISTERED</text><g transform="translate(-70,-206) scale(1,1)"><path fill="#C0C0C0" stroke="none" d="M 183 368.5 C 183 363.2532944 187.2532944 359 192.5 359 C 197.7467056 359 202 363.2532944 202 368.5 C 202 373.7467056 197.7467056 378 192.5 378 C 187.2532944 378 183 373.7467056 183 368.5 Z" opacity="0.2"/></g><g transform="translate(-70,-206) scale(1,1)"><path fill="#000000" stroke="none" d="M 176 361.5 C 176 356.2532944 180.2532944 352 185.5 352 C 190.7467056 352 195 356.2532944 195 361.5 C 195 366.7467056 190.7467056 371 185.5 371 C 180.2532944 371 176 366.7467056 176 361.5 Z"/></g><g transform="translate(-70,-206) scale(1,1)"><path fill="#C0C0C0" stroke="none" d="M 393 343 L 587.91796875 343 Q 597.91796875 343 597.91796875 353 L 597.91796875 380 Q 597.91796875 390 587.91796875 390 L 393 390 Q 383 390 383 380 L 383 353 Q 383 343 393 343 Z" opacity="0.2"/></g><g transform="translate(-70,-206) scale(1,1)"><path fill="#ffffff" stroke="none" d="M 386 336 L 580.91796875 336 Q 590.91796875 336 590.91796875 346 L 590.91796875 373 Q 590.91796875 383 580.91796875 383 L 386 383 Q 376 383 376 373 L 376 346 Q 376 336 386 336 Z"/></g><g transform="translate(-70,-206) scale(1,1)"><path fill="none" stroke="#000000" d="M 386 336 L 580.91796875 336 Q 590.91796875 336 590.91796875 346 L 590.91796875 373 Q 590.91796875 383 580.91796875 383 L 386 383 Q 376 383 376 373 L 376 346 Q 376 336 386 336 Z" stroke-miterlimit="10"/></g><g transform="translate(-70,-206) scale(1,1)"><path fill="none" stroke="#000000" d="M 376 361 L 590.91796875 361" stroke-miterlimit="10"/></g><g transform="translate(-70,-206) scale(1,1)"><g><path fill="none" stroke="none"/><text fill="#000000" stroke="none" font-family="Arial" font-size="13px" font-style="normal" font-weight="bold" text-decoration="none" x="380.5" y="354">Seleciona jogadores de interesse</text></g></g><g transform="translate(-70,-206) scale(1,1)"><g><path fill="none" stroke="none"/><text fill="#000000" stroke="none" font-family="Arial" font-size="13px" font-style="normal" font-weight="normal" text-decoration="none" x="381" y="377">do/SelecionaJogador</text></g></g><g transform="translate(-70,-206) scale(1,1)"><path fill="#C0C0C0" stroke="none" d="M 97 239 L 273.12255859375 239 Q 283.12255859375 239 283.12255859375 249 L 283.12255859375 276 Q 283.12255859375 286 273.12255859375 286 L 97 286 Q 87 286 87 276 L 87 249 Q 87 239 97 239 Z" opacity="0.2"/></g><g transform="translate(-70,-206) scale(1,1)"><path fill="#ffffff" stroke="none" d="M 90 232 L 266.12255859375 232 Q 276.12255859375 232 276.12255859375 242 L 276.12255859375 269 Q 276.12255859375 279 266.12255859375 279 L 90 279 Q 80 279 80 269 L 80 242 Q 80 232 90 232 Z"/></g><g transform="translate(-70,-206) scale(1,1)"><path fill="none" stroke="#000000" d="M 90 232 L 266.12255859375 232 Q 276.12255859375 232 276.12255859375 242 L 276.12255859375 269 Q 276.12255859375 279 266.12255859375 279 L 90 279 Q 80 279 80 269 L 80 242 Q 80 232 90 232 Z" stroke-miterlimit="10"/></g><g transform="translate(-70,-206) scale(1,1)"><path fill="none" stroke="#000000" d="M 80 257 L 276.12255859375 257" stroke-miterlimit="10"/></g><g transform="translate(-70,-206) scale(1,1)"><g><path fill="none" stroke="none"/><text fill="#000000" stroke="none" font-family="Arial" font-size="13px" font-style="normal" font-weight="bold" text-decoration="none" x="84.5" y="250">Preenche dados da campanha</text></g></g><g transform="translate(-70,-206) scale(1,1)"><g><path fill="none" stroke="none"/><text fill="#000000" stroke="none" font-family="Arial" font-size="13px" font-style="normal" font-weight="normal" text-decoration="none" x="85" y="273">do/DadosCampanha</text></g></g><g transform="translate(-70,-206) scale(1,1)"><path fill="none" stroke="#000000" d="M 184 351 L 180 280" stroke-miterlimit="10"/></g><g transform="translate(-70,-206) scale(1,1)"><path fill="none" stroke="#000000" d="M 184.77449176626226 289.9098046587152 L 180 280 L 176.3687854302318 290.38336557905495" stroke-miterlimit="10"/></g><g transform="translate(-70,-206) scale(1,1)"><path fill="#C0C0C0" stroke="none" d="M 513 239 L 692.72802734375 239 Q 702.72802734375 239 702.72802734375 249 L 702.72802734375 276 Q 702.72802734375 286 692.72802734375 286 L 513 286 Q 503 286 503 276 L 503 249 Q 503 239 513 239 Z" opacity="0.2"/></g><g transform="translate(-70,-206) scale(1,1)"><path fill="#ffffff" stroke="none" d="M 506 232 L 685.72802734375 232 Q 695.72802734375 232 695.72802734375 242 L 695.72802734375 269 Q 695.72802734375 279 685.72802734375 279 L 506 279 Q 496 279 496 269 L 496 242 Q 496 232 506 232 Z"/></g><g transform="translate(-70,-206) scale(1,1)"><path fill="none" stroke="#000000" d="M 506 232 L 685.72802734375 232 Q 695.72802734375 232 695.72802734375 242 L 695.72802734375 269 Q 695.72802734375 279 685.72802734375 279 L 506 279 Q 496 279 496 269 L 496 242 Q 496 232 506 232 Z" stroke-miterlimit="10"/></g><g transform="translate(-70,-206) scale(1,1)"><path fill="none" stroke="#000000" d="M 496 257 L 695.72802734375 257" stroke-miterlimit="10"/></g><g transform="translate(-70,-206) scale(1,1)"><g><path fill="none" stroke="none"/><text fill="#000000" stroke="none" font-family="Arial" font-size="13px" font-style="normal" font-weight="bold" text-decoration="none" x="500.5" y="250">Armazena dados da campanha</text></g></g><g transform="translate(-70,-206) scale(1,1)"><g><path fill="none" stroke="none"/><text fill="#000000" stroke="none" font-family="Arial" font-size="13px" font-style="normal" font-weight="normal" text-decoration="none" x="501" y="273">do/ArmazenaDadosCampanha</text></g></g><g transform="translate(-70,-206) scale(1,1)"><path fill="none" stroke="#000000" d="M 277 255 L 495 255" stroke-miterlimit="10"/></g><g transform="translate(-70,-206) scale(1,1)"><path fill="none" stroke="#000000" d="M 484.83732514237585 259.209517756016 L 495 255 L 484.83732514237585 250.790482243984" stroke-miterlimit="10"/></g><g transform="translate(-70,-206) scale(1,1)"><g><path fill="none" stroke="none"/><text fill="#000000" stroke="none" font-family="Arial" font-size="13px" font-style="normal" font-weight="normal" text-decoration="none" x="337.5" y="245">armazena dados</text></g></g><g transform="translate(-70,-206) scale(1,1)"><path fill="#C0C0C0" stroke="none" d="M 1057 223 L 1176.7490234375 223 Q 1186.7490234375 223 1186.7490234375 233 L 1186.7490234375 287 Q 1186.7490234375 297 1176.7490234375 297 L 1057 297 Q 1047 297 1047 287 L 1047 233 Q 1047 223 1057 223 Z" opacity="0.2"/></g><g transform="translate(-70,-206) scale(1,1)"><path fill="#ffffff" stroke="none" d="M 1050 216 L 1169.7490234375 216 Q 1179.7490234375 216 1179.7490234375 226 L 1179.7490234375 280 Q 1179.7490234375 290 1169.7490234375 290 L 1050 290 Q 1040 290 1040 280 L 1040 226 Q 1040 216 1050 216 Z"/></g><g transform="translate(-70,-206) scale(1,1)"><path fill="none" stroke="#000000" d="M 1050 216 L 1169.7490234375 216 Q 1179.7490234375 216 1179.7490234375 226 L 1179.7490234375 280 Q 1179.7490234375 290 1169.7490234375 290 L 1050 290 Q 1040 290 1040 280 L 1040 226 Q 1040 216 1050 216 Z" stroke-miterlimit="10"/></g><g transform="translate(-70,-206) scale(1,1)"><path fill="none" stroke="#000000" d="M 1040 241 L 1179.7490234375 241" stroke-miterlimit="10"/></g><g transform="translate(-70,-206) scale(1,1)"><g><path fill="none" stroke="none"/><text fill="#000000" stroke="none" font-family="Arial" font-size="13px" font-style="normal" font-weight="bold" text-decoration="none" x="1044.5" y="234">Campanha publicada</text></g></g><g transform="translate(-70,-206) scale(1,1)"><path fill="none" stroke="#000000" d="M 697 255 L 1039 253" stroke-miterlimit="10"/></g><g transform="translate(-70,-206) scale(1,1)"><path fill="none" stroke="#000000" d="M 1028.862115554303 257.2688756090681 L 1039 253 L 1028.8128822703482 248.84998405277602" stroke-miterlimit="10"/></g><g transform="translate(-70,-206) scale(1,1)"><g><path fill="none" stroke="none"/><text fill="#000000" stroke="none" font-family="Arial" font-size="13px" font-style="normal" font-weight="normal" text-decoration="none" x="814.5" y="244">publica campanha</text></g></g><g transform="translate(-70,-206) scale(1,1)"><path fill="none" stroke="#000000" d="M 196 361 L 375 360" stroke-miterlimit="10"/></g><g transform="translate(-70,-206) scale(1,1)"><path fill="none" stroke="#000000" d="M 364.86100021926677 364.26622590192926 L 375 360 L 364.8139672352668 355.8473217659225" stroke-miterlimit="10"/></g><g transform="translate(-70,-206) scale(1,1)"><path fill="#C0C0C0" stroke="none" d="M 801 343 L 974.95166015625 343 Q 984.95166015625 343 984.95166015625 353 L 984.95166015625 380 Q 984.95166015625 390 974.95166015625 390 L 801 390 Q 791 390 791 380 L 791 353 Q 791 343 801 343 Z" opacity="0.2"/></g><g transform="translate(-70,-206) scale(1,1)"><path fill="#ffffff" stroke="none" d="M 794 336 L 967.95166015625 336 Q 977.95166015625 336 977.95166015625 346 L 977.95166015625 373 Q 977.95166015625 383 967.95166015625 383 L 794 383 Q 784 383 784 373 L 784 346 Q 784 336 794 336 Z"/></g><g transform="translate(-70,-206) scale(1,1)"><path fill="none" stroke="#000000" d="M 794 336 L 967.95166015625 336 Q 977.95166015625 336 977.95166015625 346 L 977.95166015625 373 Q 977.95166015625 383 967.95166015625 383 L 794 383 Q 784 383 784 373 L 784 346 Q 784 336 794 336 Z" stroke-miterlimit="10"/></g><g transform="translate(-70,-206) scale(1,1)"><path fill="none" stroke="#000000" d="M 784 361 L 977.95166015625 361" stroke-miterlimit="10"/></g><g transform="translate(-70,-206) scale(1,1)"><g><path fill="none" stroke="none"/><text fill="#000000" stroke="none" font-family="Arial" font-size="13px" font-style="normal" font-weight="bold" text-decoration="none" x="788.5" y="354">Compara escolha de usuários</text></g></g><g transform="translate(-70,-206) scale(1,1)"><g><path fill="none" stroke="none"/><text fill="#000000" stroke="none" font-family="Arial" font-size="13px" font-style="normal" font-weight="normal" text-decoration="none" x="789" y="377">do/CompEscolhas</text></g></g><g transform="translate(-70,-206) scale(1,1)"><path fill="none" stroke="#000000" d="M 592 359 L 783 359" stroke-miterlimit="10"/></g><g transform="translate(-70,-206) scale(1,1)"><path fill="none" stroke="#000000" d="M 772.8373251423759 363.209517756016 L 783 359 L 772.8373251423758 354.790482243984" stroke-miterlimit="10"/></g><g transform="translate(-70,-206) scale(1,1)"><g><path fill="none" stroke="none"/><text fill="#000000" stroke="none" font-family="Arial" font-size="13px" font-style="normal" font-weight="normal" text-decoration="none" x="563.5" y="403">compara escolha do mestre e do jogador</text></g></g><g transform="translate(-70,-206) scale(1,1)"><path fill="#C0C0C0" stroke="none" d="M 849 519 L 934.814453125 519 Q 944.814453125 519 944.814453125 529 L 944.814453125 556 Q 944.814453125 566 934.814453125 566 L 849 566 Q 839 566 839 556 L 839 529 Q 839 519 849 519 Z" opacity="0.2"/></g><g transform="translate(-70,-206) scale(1,1)"><path fill="#ffffff" stroke="none" d="M 842 512 L 927.814453125 512 Q 937.814453125 512 937.814453125 522 L 937.814453125 549 Q 937.814453125 559 927.814453125 559 L 842 559 Q 832 559 832 549 L 832 522 Q 832 512 842 512 Z"/></g><g transform="translate(-70,-206) scale(1,1)"><path fill="none" stroke="#000000" d="M 842 512 L 927.814453125 512 Q 937.814453125 512 937.814453125 522 L 937.814453125 549 Q 937.814453125 559 927.814453125 559 L 842 559 Q 832 559 832 549 L 832 522 Q 832 512 842 512 Z" stroke-miterlimit="10"/></g><g transform="translate(-70,-206) scale(1,1)"><path fill="none" stroke="#000000" d="M 832 537 L 937.814453125 537" stroke-miterlimit="10"/></g><g transform="translate(-70,-206) scale(1,1)"><g><path fill="none" stroke="none"/><text fill="#000000" stroke="none" font-family="Arial" font-size="13px" font-style="normal" font-weight="bold" text-decoration="none" x="836.5" y="530">Criação de chat</text></g></g><g transform="translate(-70,-206) scale(1,1)"><g><path fill="none" stroke="none"/><text fill="#000000" stroke="none" font-family="Arial" font-size="13px" font-style="normal" font-weight="normal" text-decoration="none" x="837" y="553">do/CriaChat</text></g></g><g transform="translate(-70,-206) scale(1,1)"><path fill="none" stroke="#000000" d="M 881 384 L 883 511" stroke-miterlimit="10"/></g><g transform="translate(-70,-206) scale(1,1)"><path fill="none" stroke="#000000" d="M 878.6309818459915 500.90486848179063 L 883 511 L 887.0489735896693 500.7723016826776" stroke-miterlimit="10"/></g><g transform="translate(-70,-206) scale(1,1)"><g><path fill="none" stroke="none"/><text fill="#000000" stroke="none" font-family="Arial" font-size="13px" font-style="normal" font-weight="normal" text-decoration="none" x="799.5" y="451">se compatível / seleção concluída</text></g></g><g transform="translate(-70,-206) scale(1,1)"><path fill="none" stroke="#000000" d="M 880 335 L 880 304 L 480 304 L 482 335" stroke-miterlimit="10"/></g><g transform="translate(-70,-206) scale(1,1)"><path fill="none" stroke="#000000" d="M 477.14491953483304 325.1294278951646 L 482 335 L 485.54648814939395 324.5873912103542" stroke-miterlimit="10"/></g><g transform="translate(-70,-206) scale(1,1)"><g><path fill="none" stroke="none"/><text fill="#000000" stroke="none" font-family="Arial" font-size="13px" font-style="normal" font-weight="normal" text-decoration="none" x="566.5" y="322">se incompatível / seleciona novo jogador</text></g></g><g transform="translate(-70,-206) scale(1,1)"><path fill="#C0C0C0" stroke="none" d="M 1143 459.5 C 1143 452.59644 1148.59644 447 1155.5 447 C 1162.40356 447 1168 452.59644 1168 459.5 C 1168 466.40356 1162.40356 472 1155.5 472 C 1148.59644 472 1143 466.40356 1143 459.5 Z" opacity="0.2"/></g><g transform="translate(-70,-206) scale(1,1)"><path fill="none" stroke="#000000" d="M 1136 452.5 C 1136 445.59644 1141.59644 440 1148.5 440 C 1155.40356 440 1161 445.59644 1161 452.5 C 1161 459.40356 1155.40356 465 1148.5 465 C 1141.59644 465 1136 459.40356 1136 452.5 Z" stroke-miterlimit="10"/></g><g transform="translate(-70,-206) scale(1,1)"><path fill="#000000" stroke="none" d="M 1141 452.5 C 1141 448.357864 1144.357864 445 1148.5 445 C 1152.642136 445 1156 448.357864 1156 452.5 C 1156 456.642136 1152.642136 460 1148.5 460 C 1144.357864 460 1141 456.642136 1141 452.5 Z"/></g><g transform="translate(-70,-206) scale(1,1)"><path fill="none" stroke="#000000" d="M 939 518 L 1135 456" stroke-miterlimit="10"/></g><g transform="translate(-70,-206) scale(1,1)"><path fill="none" stroke="#000000" d="M 1126.5801225766 463.0785354540976 L 1135 456 L 1124.0409671566924 455.05152799761606" stroke-miterlimit="10"/></g><g transform="translate(-70,-206) scale(1,1)"><path fill="none" stroke="#000000" d="M 1116 291 L 1145 439" stroke-miterlimit="10"/></g><g transform="translate(-70,-206) scale(1,1)"><path fill="none" stroke="#000000" d="M 1138.9148658165957 429.83642307993415 L 1145 439 L 1147.1767877345878 428.2175329743816" stroke-miterlimit="10"/></g></g></svg>