<svg version="1.1" xmlns="http://www.w3.org/2000/svg" xmlns:xlink="http://www.w3.org/1999/xlink" width="1156.6376953125" height="611"><defs/><g><text fill="#eeeeee" stroke="none" font-family="Arial" font-size="24px" font-style="normal" font-weight="normal" text-decoration="none" x="0" y="0">UNREGISTERED</text><text fill="#eeeeee" stroke="none" font-family="Arial" font-size="24px" font-style="normal" font-weight="normal" text-decoration="none" x="0" y="30">UNREGISTERED</text><text fill="#eeeeee" stroke="none" font-family="Arial" font-size="24px" font-style="normal" font-weight="normal" text-decoration="none" x="0" y="60">UNREGISTERED</text><text fill="#eeeeee" stroke="none" font-family="Arial" font-size="24px" font-style="normal" font-weight="normal" text-decoration="none" x="0" y="90">UNREGISTERED</text><text fill="#eeeeee" stroke="none" font-family="Arial" font-size="24px" font-style="normal" font-weight="normal" text-decoration="none" x="0" y="120">UNREGISTERED</text><text fill="#eeeeee" stroke="none" font-family="Arial" font-size="24px" font-style="normal" font-weight="normal" text-decoration="none" x="0" y="150">UNREGISTERED</text><text fill="#eeeeee" stroke="none" font-family="Arial" font-size="24px" font-style="normal" font-weight="normal" text-decoration="none" x="0" y="180">UNREGISTERED</text><text fill="#eeeeee" stroke="none" font-family="Arial" font-size="24px" font-style="normal" font-weight="normal" text-decoration="none" x="0" y="210">UNREGISTERED</text><text fill="#eeeeee" stroke="none" font-family="Arial" font-size="24px" font-style="normal" font-weight="normal" text-decoration="none" x="0" y="240">UNREGISTERED</text><text fill="#eeeeee" stroke="none" font-family="Arial" font-size="24px" font-style="normal" font-weight="normal" text-decoration="none" x="0" y="270">UNREGISTERED</text><text fill="#eeeeee" stroke="none" font-family="Arial" font-size="24px" font-style="normal" font-weight="normal" text-decoration="none" x="0" y="300">UNREGISTERED</text><text fill="#eeeeee" stroke="none" font-family="Arial" font-size="24px" font-style="normal" font-weight="normal" text-decoration="none" x="0" y="330">UNREGISTERED</text><text fill="#eeeeee" stroke="none" font-family="Arial" font-size="24px" font-style="normal" font-weight="normal" text-decoration="none" x="0" y="360">UNREGISTERED</text><text fill="#eeeeee" stroke="none" font-family="Arial" font-size="24px" font-style="normal" font-weight="normal" text-decoration="none" x="0" y="390">UNREGISTERED</text><text fill="#eeeeee" stroke="none" font-family="Arial" font-size="24px" font-style="normal" font-weight="normal" text-decoration="none" x="0" y="420">UNREGISTERED</text><text fill="#eeeeee" stroke="none" font-family="Arial" font-size="24px" font-style="normal" font-weight="normal" text-decoration="none" x="0" y="450">UNREGISTERED</text><text fill="#eeeeee" stroke="none" font-family="Arial" font-size="24px" font-style="normal" font-weight="normal" text-decoration="none" x="0" y="480">UNREGISTERED</text><text fill="#eeeeee" stroke="none" font-family="Arial" font-size="24px" font-style="normal" font-weight="normal" text-decoration="none" x="0" y="510">UNREGISTERED</text><text fill="#eeeeee" stroke="none" font-family="Arial" font-size="24px" font-style="normal" font-weight="normal" text-decoration="none" x="0" y="540">UNREGISTERED</text><text fill="#eeeeee" stroke="none" font-family="Arial" font-size="24px" font-style="normal" font-weight="normal" text-decoration="none" x="0" y="570">UNREGISTERED</text><text fill="#eeeeee" stroke="none" font-family="Arial" font-size="24px" font-style="normal" font-weight="normal" text-decoration="none" x="0" y="600">UNREGISTERED</text><text fill="#eeeeee" stroke="none" font-family="Arial" font-size="24px" font-style="normal" font-weight="normal" text-decoration="none" x="200" y="0">UNREGISTERED</text><text fill="#eeeeee" stroke="none" font-family="Arial" font-size="24px" font-style="normal" font-weight="normal" text-decoration="none" x="200" y="30">UNREGISTERED</text><text fill="#eeeeee" stroke="none" font-family="Arial" font-size="24px" font-style="normal" font-weight="normal" text-decoration="none" x="200" y="60">UNREGISTERED</text><text fill="#eeeeee" stroke="none" font-family="Arial" font-size="24px" font-style="normal" font-weight="normal" text-decoration="none" x="200" y="90">UNREGISTERED</text><text fill="#eeeeee" stroke="none" font-family="Arial" font-size="24px" font-style="normal" font-weight="normal" text-decoration="none" x="200" y="120">UNREGISTERED</text><text fill="#eeeeee" stroke="none" font-family="Arial" font-size="24px" font-style="normal" font-weight="normal" text-decoration="none" x="200" y="150">UNREGISTERED</text><text fill="#eeeeee" stroke="none" font-family="Arial" font-size="24px" font-style="normal" font-weight="normal" text-decoration="none" x="200" y="180">UNREGISTERED</text><text fill="#eeeeee" stroke="none" font-family="Arial" font-size="24px" font-style="normal" font-weight="normal" text-decoration="none" x="200" y="210">UNREGISTERED</text><text fill="#eeeeee" stroke="none" font-family="Arial" font-size="24px" font-style="normal" font-weight="normal" text-decoration="none" x="200" y="240">UNREGISTERED</text><text fill="#eeeeee" stroke="none" font-family="Arial" font-size="24px" font-style="normal" font-weight="normal" text-decoration="none" x="200" y="270">UNREGISTERED</text><text fill="#eeeeee" stroke="none" font-family="Arial" font-size="24px" font-style="normal" font-weight="normal" text-decoration="none" x="200" y="300">UNREGISTERED</text><text fill="#eeeeee" stroke="none" font-family="Arial" font-size="24px" font-style="normal" font-weight="normal" text-decoration="none" x="200" y="330">UNREGISTERED</text><text fill="#eeeeee" stroke="none" font-family="Arial" font-size="24px" font-style="normal" font-weight="normal" text-decoration="none" x="200" y="360">UNREGISTERED</text><text fill="#eeeeee" stroke="none" font-family="Arial" font-size="24px" font-style="normal" font-weight="normal" text-decoration="none" x="200" y="390">UNREGISTERED</text><text fill="#eeeeee" stroke="none" font-family="Arial" font-size="24px" font-style="normal" font-weight="normal" text-decoration="none" x="200" y="420">UNREGISTERED</text><text fill="#eeeeee" stroke="none" font-family="Arial" font-size="24px" font-style="normal" font-weight="normal" text-decoration="none" x="200" y="450">UNREGISTERED</text><text fill="#eeeeee" stroke="none" font-family="Arial" font-size="24px" font-style="normal" font-weight="normal" text-decoration="none" x="200" y="480">UNREGISTERED</text><text fill="#eeeeee" stroke="none" font-family="Arial" font-size="24px" font-style="normal" font-weight="normal" text-decoration="none" x="200" y="510">UNREGISTERED</text><text fill="#eeeeee" stroke="none" font-family="Arial" font-size="24px" font-style="normal" font-weight="normal" text-decoration="none" x="200" y="540">UNREGISTERED</text><text fill="#eeeeee" stroke="none" font-family="Arial" font-size="24px" font-style="normal" font-weight="normal" text-decoration="none" x="200" y="570">UNREGISTERED</text><text fill="#eeeeee" stroke="none" font-family="Arial" font-size="24px" font-style="normal" font-weight="normal" text-decoration="none" x="200" y="600">UNREGISTERED</text><text fill="#eeeeee" stroke="none" font-family="Arial" font-size="24px" font-style="normal" font-weight="normal" text-decoration="none" x="400" y="0">UNREGISTERED</text><text fill="#eeeeee" stroke="none" font-family="Arial" font-size="24px" font-style="normal" font-weight="normal" text-decoration="none" x="400" y="30">UNREGISTERED</text><text fill="#eeeeee" stroke="none" font-family="Arial" font-size="24px" font-style="normal" font-weight="normal" text-decoration="none" x="400" y="60">UNREGISTERED</text><text fill="#eeeeee" stroke="none" font-family="Arial" font-size="24px" font-style="normal" font-weight="normal" text-decoration="none" x="400" y="90">UNREGISTERED</text><text fill="#eeeeee" stroke="none" font-family="Arial" font-size="24px" font-style="normal" font-weight="normal" text-decoration="none" x="400" y="120">UNREGISTERED</text><text fill="#eeeeee" stroke="none" font-family="Arial" font-size="24px" font-style="normal" font-weight="normal" text-decoration="none" x="400" y="150">UNREGISTERED</text><text fill="#eeeeee" stroke="none" font-family="Arial" font-size="24px" font-style="normal" font-weight="normal" text-decoration="none" x="400" y="180">UNREGISTERED</text><text fill="#eeeeee" stroke="none" font-family="Arial" font-size="24px" font-style="normal" font-weight="normal" text-decoration="none" x="400" y="210">UNREGISTERED</text><text fill="#eeeeee" stroke="none" font-family="Arial" font-size="24px" font-style="normal" font-weight="normal" text-decoration="none" x="400" y="240">UNREGISTERED</text><text fill="#eeeeee" stroke="none" font-family="Arial" font-size="24px" font-style="normal" font-weight="normal" text-decoration="none" x="400" y="270">UNREGISTERED</text><text fill="#eeeeee" stroke="none" font-family="Arial" font-size="24px" font-style="normal" font-weight="normal" text-decoration="none" x="400" y="300">UNREGISTERED</text><text fill="#eeeeee" stroke="none" font-family="Arial" font-size="24px" font-style="normal" font-weight="normal" text-decoration="none" x="400" y="330">UNREGISTERED</text><text fill="#eeeeee" stroke="none" font-family="Arial" font-size="24px" font-style="normal" font-weight="normal" text-decoration="none" x="400" y="360">UNREGISTERED</text><text fill="#eeeeee" stroke="none" font-family="Arial" font-size="24px" font-style="normal" font-weight="normal" text-decoration="none" x="400" y="390">UNREGISTERED</text><text fill="#eeeeee" stroke="none" font-family="Arial" font-size="24px" font-style="normal" font-weight="normal" text-decoration="none" x="400" y="420">UNREGISTERED</text><text fill="#eeeeee" stroke="none" font-family="Arial" font-size="24px" font-style="normal" font-weight="normal" text-decoration="none" x="400" y="450">UNREGISTERED</text><text fill="#eeeeee" stroke="none" font-family="Arial" font-size="24px" font-style="normal" font-weight="normal" text-decoration="none" x="400" y="480">UNREGISTERED</text><text fill="#eeeeee" stroke="none" font-family="Arial" font-size="24px" font-style="normal" font-weight="normal" text-decoration="none" x="400" y="510">UNREGISTERED</text><text fill="#eeeeee" stroke="none" font-family="Arial" font-size="24px" font-style="normal" font-weight="normal" text-decoration="none" x="400" y="540">UNREGISTERED</text><text fill="#eeeeee" stroke="none" font-family="Arial" font-size="24px" font-style="normal" font-weight="normal" text-decoration="none" x="400" y="570">UNREGISTERED</text><text fill="#eeeeee" stroke="none" font-family="Arial" font-size="24px" font-style="normal" font-weight="normal" text-decoration="none" x="400" y="600">UNREGISTERED</text><text fill="#eeeeee" stroke="none" font-family="Arial" font-size="24px" font-style="normal" font-weight="normal" text-decoration="none" x="600" y="0">UNREGISTERED</text><text fill="#eeeeee" stroke="none" font-family="Arial" font-size="24px" font-style="normal" font-weight="normal" text-decoration="none" x="600" y="30">UNREGISTERED</text><text fill="#eeeeee" stroke="none" font-family="Arial" font-size="24px" font-style="normal" font-weight="normal" text-decoration="none" x="600" y="60">UNREGISTERED</text><text fill="#eeeeee" stroke="none" font-family="Arial" font-size="24px" font-style="normal" font-weight="normal" text-decoration="none" x="600" y="90">UNREGISTERED</text><text fill="#eeeeee" stroke="none" font-family="Arial" font-size="24px" font-style="normal" font-weight="normal" text-decoration="none" x="600" y="120">UNREGISTERED</text><text fill="#eeeeee" stroke="none" font-family="Arial" font-size="24px" font-style="normal" font-weight="normal" text-decoration="none" x="600" y="150">UNREGISTERED</text><text fill="#eeeeee" stroke="none" font-family="Arial" font-size="24px" font-style="normal" font-weight="normal" text-decoration="none" x="600" y="180">UNREGISTERED</text><text fill="#eeeeee" stroke="none" font-family="Arial" font-size="24px" font-style="normal" font-weight="normal" text-decoration="none" x="600" y="210">UNREGISTERED</text><text fill="#eeeeee" stroke="none" font-family="Arial" font-size="24px" font-style="normal" font-weight="normal" text-decoration="none" x="600" y="240">UNREGISTERED</text><text fill="#eeeeee" stroke="none" font-family="Arial" font-size="24px" font-style="normal" font-weight="normal" text-decoration="none" x="600" y="270">UNREGISTERED</text><text fill="#eeeeee" stroke="none" font-family="Arial" font-size="24px" font-style="normal" font-weight="normal" text-decoration="none" x="600" y="300">UNREGISTERED</text><text fill="#eeeeee" stroke="none" font-family="Arial" font-size="24px" font-style="normal" font-weight="normal" text-decoration="none" x="600" y="330">UNREGISTERED</text><text fill="#eeeeee" stroke="none" font-family="Arial" font-size="24px" font-style="normal" font-weight="normal" text-decoration="none" x="600" y="360">UNREGISTERED</text><text fill="#eeeeee" stroke="none" font-family="Arial" font-size="24px" font-style="normal" font-weight="normal" text-decoration="none" x="600" y="390">UNREGISTERED</text><text fill="#eeeeee" stroke="none" font-family="Arial" font-size="24px" font-style="normal" font-weight="normal" text-decoration="none" x="600" y="420">UNREGISTERED</text><text fill="#eeeeee" stroke="none" font-family="Arial" font-size="24px" font-style="normal" font-weight="normal" text-decoration="none" x="600" y="450">UNREGISTERED</text><text fill="#eeeeee" stroke="none" font-family="Arial" font-size="24px" font-style="normal" font-weight="normal" text-decoration="none" x="600" y="480">UNREGISTERED</text><text fill="#eeeeee" stroke="none" font-family="Arial" font-size="24px" font-style="normal" font-weight="normal" text-decoration="none" x="600" y="510">UNREGISTERED</text><text fill="#eeeeee" stroke="none" font-family="Arial" font-size="24px" font-style="normal" font-weight="normal" text-decoration="none" x="600" y="540">UNREGISTERED</text><text fill="#eeeeee" stroke="none" font-family="Arial" font-size="24px" font-style="normal" font-weight="normal" text-decoration="none" x="600" y="570">UNREGISTERED</text><text fill="#eeeeee" stroke="none" font-family="Arial" font-size="24px" font-style="normal" font-weight="normal" text-decoration="none" x="600" y="600">UNREGISTERED</text><text fill="#eeeeee" stroke="none" font-family="Arial" font-size="24px" font-style="normal" font-weight="normal" text-decoration="none" x="800" y="0">UNREGISTERED</text><text fill="#eeeeee" stroke="none" font-family="Arial" font-size="24px" font-style="normal" font-weight="normal" text-decoration="none" x="800" y="30">UNREGISTERED</text><text fill="#eeeeee" stroke="none" font-family="Arial" font-size="24px" font-style="normal" font-weight="normal" text-decoration="none" x="800" y="60">UNREGISTERED</text><text fill="#eeeeee" stroke="none" font-family="Arial" font-size="24px" font-style="normal" font-weight="normal" text-decoration="none" x="800" y="90">UNREGISTERED</text><text fill="#eeeeee" stroke="none" font-family="Arial" font-size="24px" font-style="normal" font-weight="normal" text-decoration="none" x="800" y="120">UNREGISTERED</text><text fill="#eeeeee" stroke="none" font-family="Arial" font-size="24px" font-style="normal" font-weight="normal" text-decoration="none" x="800" y="150">UNREGISTERED</text><text fill="#eeeeee" stroke="none" font-family="Arial" font-size="24px" font-style="normal" font-weight="normal" text-decoration="none" x="800" y="180">UNREGISTERED</text><text fill="#eeeeee" stroke="none" font-family="Arial" font-size="24px" font-style="normal" font-weight="normal" text-decoration="none" x="800" y="210">UNREGISTERED</text><text fill="#eeeeee" stroke="none" font-family="Arial" font-size="24px" font-style="normal" font-weight="normal" text-decoration="none" x="800" y="240">UNREGISTERED</text><text fill="#eeeeee" stroke="none" font-family="Arial" font-size="24px" font-style="normal" font-weight="normal" text-decoration="none" x="800" y="270">UNREGISTERED</text><text fill="#eeeeee" stroke="none" font-family="Arial" font-size="24px" font-style="normal" font-weight="normal" text-decoration="none" x="800" y="300">UNREGISTERED</text><text fill="#eeeeee" stroke="none" font-family="Arial" font-size="24px" font-style="normal" font-weight="normal" text-decoration="none" x="800" y="330">UNREGISTERED</text><text fill="#eeeeee" stroke="none" font-family="Arial" font-size="24px" font-style="normal" font-weight="normal" text-decoration="none" x="800" y="360">UNREGISTERED</text><text fill="#eeeeee" stroke="none" font-family="Arial" font-size="24px" font-style="normal" font-weight="normal" text-decoration="none" x="800" y="390">UNREGISTERED</text><text fill="#eeeeee" stroke="none" font-family="Arial" font-size="24px" font-style="normal" font-weight="normal" text-decoration="none" x="800" y="420">UNREGISTERED</text><text fill="#eeeeee" stroke="none" font-family="Arial" font-size="24px" font-style="normal" font-weight="normal" text-decoration="none" x="800" y="450">UNREGISTERED</text><text fill="#eeeeee" stroke="none" font-family="Arial" font-size="24px" font-style="normal" font-weight="normal" text-decoration="none" x="800" y="480">UNREGISTERED</text><text fill="#eeeeee" stroke="none" font-family="Arial" font-size="24px" font-style="normal" font-weight="normal" text-decoration="none" x="800" y="510">UNREGISTERED</text><text fill="#eeeeee" stroke="none" font-family="Arial" font-size="24px" font-style="normal" font-weight="normal" text-decoration="none" x="800" y="540">UNREGISTERED</text><text fill="#eeeeee" stroke="none" font-family="Arial" font-size="24px" font-style="normal" font-weight="normal" text-decoration="none" x="800" y="570">UNREGISTERED</text><text fill="#eeeeee" stroke="none" font-family="Arial" font-size="24px" font-style="normal" font-weight="normal" text-decoration="none" x="800" y="600">UNREGISTERED</text><text fill="#eeeeee" stroke="none" font-family="Arial" font-size="24px" font-style="normal" font-weight="normal" text-decoration="none" x="1000" y="0">UNREGISTERED</text><text fill="#eeeeee" stroke="none" font-family="Arial" font-size="24px" font-style="normal" font-weight="normal" text-decoration="none" x="1000" y="30">UNREGISTERED</text><text fill="#eeeeee" stroke="none" font-family="Arial" font-size="24px" font-style="normal" font-weight="normal" text-decoration="none" x="1000" y="60">UNREGISTERED</text><text fill="#eeeeee" stroke="none" font-family="Arial" font-size="24px" font-style="normal" font-weight="normal" text-decoration="none" x="1000" y="90">UNREGISTERED</text><text fill="#eeeeee" stroke="none" font-family="Arial" font-size="24px" font-style="normal" font-weight="normal" text-decoration="none" x="1000" y="120">UNREGISTERED</text><text fill="#eeeeee" stroke="none" font-family="Arial" font-size="24px" font-style="normal" font-weight="normal" text-decoration="none" x="1000" y="150">UNREGISTERED</text><text fill="#eeeeee" stroke="none" font-family="Arial" font-size="24px" font-style="normal" font-weight="normal" text-decoration="none" x="1000" y="180">UNREGISTERED</text><text fill="#eeeeee" stroke="none" font-family="Arial" font-size="24px" font-style="normal" font-weight="normal" text-decoration="none" x="1000" y="210">UNREGISTERED</text><text fill="#eeeeee" stroke="none" font-family="Arial" font-size="24px" font-style="normal" font-weight="normal" text-decoration="none" x="1000" y="240">UNREGISTERED</text><text fill="#eeeeee" stroke="none" font-family="Arial" font-size="24px" font-style="normal" font-weight="normal" text-decoration="none" x="1000" y="270">UNREGISTERED</text><text fill="#eeeeee" stroke="none" font-family="Arial" font-size="24px" font-style="normal" font-weight="normal" text-decoration="none" x="1000" y="300">UNREGISTERED</text><text fill="#eeeeee" stroke="none" font-family="Arial" font-size="24px" font-style="normal" font-weight="normal" text-decoration="none" x="1000" y="330">UNREGISTERED</text><text fill="#eeeeee" stroke="none" font-family="Arial" font-size="24px" font-style="normal" font-weight="normal" text-decoration="none" x="1000" y="360">UNREGISTERED</text><text fill="#eeeeee" stroke="none" font-family="Arial" font-size="24px" font-style="normal" font-weight="normal" text-decoration="none" x="1000" y="390">UNREGISTERED</text><text fill="#eeeeee" stroke="none" font-family="Arial" font-size="24px" font-style="normal" font-weight="normal" text-decoration="none" x="1000" y="420">UNREGISTERED</text><text fill="#eeeeee" stroke="none" font-family="Arial" font-size="24px" font-style="normal" font-weight="normal" text-decoration="none" x="1000" y="450">UNREGISTERED</text><text fill="#eeeeee" stroke="none" font-family="Arial" font-size="24px" font-style="normal" font-weight="normal" text-decoration="none" x="1000" y="480">UNREGISTERED</text><text fill="#eeeeee" stroke="none" font-family="Arial" font-size="24px" font-style="normal" font-weight="normal" text-decoration="none" x="1000" y="510">UNREGISTERED</text><text fill="#eeeeee" stroke="none" font-family="Arial" font-size="24px" font-style="normal" font-weight="normal" text-decoration="none" x="1000" y="540">UNREGISTERED</text><text fill="#eeeeee" stroke="none" font-family="Arial" font-size="24px" font-style="normal" font-weight="normal" text-decoration="none" x="1000" y="570">UNREGISTERED</text><text fill="#eeeeee" stroke="none" font-family="Arial" font-size="24px" font-style="normal" font-weight="normal" text-decoration="none" x="1000" y="600">UNREGISTERED</text><g transform="translate(2,-102) scale(1,1)"><rect fill="#C0C0C0" stroke="none" x="385" y="263" width="112.412109375" height="44" opacity="0.2"/></g><g transform="translate(2,-102) scale(1,1)"><rect fill="#ffffff" stroke="none" x="378" y="256" width="112.412109375" height="44"/></g><g transform="translate(2,-102) scale(1,1)"><path fill="none" stroke="#000000" d="M 378 256 L 490.412109375 256 L 490.412109375 300 L 378 300 L 378 256 Z Z" stroke-miterlimit="10"/></g><g transform="translate(2,-102) scale(1,1)"><rect fill="#ffffff" stroke="none" x="368" y="263" width="20" height="10"/></g><g transform="translate(2,-102) scale(1,1)"><path fill="none" stroke="#000000" d="M 368 263 L 388 263 L 388 273 L 368 273 L 368 263 Z Z" stroke-miterlimit="10"/></g><g transform="translate(2,-102) scale(1,1)"><rect fill="#ffffff" stroke="none" x="368" y="283" width="20" height="10"/></g><g transform="translate(2,-102) scale(1,1)"><path fill="none" stroke="#000000" d="M 368 283 L 388 283 L 388 293 L 368 293 L 368 283 Z Z" stroke-miterlimit="10"/></g><g transform="translate(2,-102) scale(1,1)"><g><path fill="none" stroke="none"/><text fill="#000000" stroke="none" font-family="Arial" font-size="13px" font-style="normal" font-weight="bold" text-decoration="none" x="392.5" y="274">Roll Your Table</text></g></g><g transform="translate(2,-102) scale(1,1)"><rect fill="#C0C0C0" stroke="none" x="393" y="135" width="98.44091796875" height="44" opacity="0.2"/></g><g transform="translate(2,-102) scale(1,1)"><rect fill="#ffffff" stroke="none" x="386" y="128" width="98.44091796875" height="44"/></g><g transform="translate(2,-102) scale(1,1)"><path fill="none" stroke="#000000" d="M 386 128 L 484.44091796875 128 L 484.44091796875 172 L 386 172 L 386 128 Z Z" stroke-miterlimit="10"/></g><g transform="translate(2,-102) scale(1,1)"><rect fill="#ffffff" stroke="none" x="376" y="135" width="20" height="10"/></g><g transform="translate(2,-102) scale(1,1)"><path fill="none" stroke="#000000" d="M 376 135 L 396 135 L 396 145 L 376 145 L 376 135 Z Z" stroke-miterlimit="10"/></g><g transform="translate(2,-102) scale(1,1)"><rect fill="#ffffff" stroke="none" x="376" y="155" width="20" height="10"/></g><g transform="translate(2,-102) scale(1,1)"><path fill="none" stroke="#000000" d="M 376 155 L 396 155 L 396 165 L 376 165 L 376 155 Z Z" stroke-miterlimit="10"/></g><g transform="translate(2,-102) scale(1,1)"><g><path fill="none" stroke="none"/><text fill="#000000" stroke="none" font-family="Arial" font-size="13px" font-style="normal" font-weight="bold" text-decoration="none" x="412.04638671875" y="146">Cadastro</text></g></g><g transform="translate(2,-102) scale(1,1)"><rect fill="#C0C0C0" stroke="none" x="201" y="263" width="98.44091796875" height="44" opacity="0.2"/></g><g transform="translate(2,-102) scale(1,1)"><rect fill="#ffffff" stroke="none" x="194" y="256" width="98.44091796875" height="44"/></g><g transform="translate(2,-102) scale(1,1)"><path fill="none" stroke="#000000" d="M 194 256 L 292.44091796875 256 L 292.44091796875 300 L 194 300 L 194 256 Z Z" stroke-miterlimit="10"/></g><g transform="translate(2,-102) scale(1,1)"><rect fill="#ffffff" stroke="none" x="184" y="263" width="20" height="10"/></g><g transform="translate(2,-102) scale(1,1)"><path fill="none" stroke="#000000" d="M 184 263 L 204 263 L 204 273 L 184 273 L 184 263 Z Z" stroke-miterlimit="10"/></g><g transform="translate(2,-102) scale(1,1)"><rect fill="#ffffff" stroke="none" x="184" y="283" width="20" height="10"/></g><g transform="translate(2,-102) scale(1,1)"><path fill="none" stroke="#000000" d="M 184 283 L 204 283 L 204 293 L 184 293 L 184 283 Z Z" stroke-miterlimit="10"/></g><g transform="translate(2,-102) scale(1,1)"><g><path fill="none" stroke="none"/><text fill="#000000" stroke="none" font-family="Arial" font-size="13px" font-style="normal" font-weight="bold" text-decoration="none" x="230.53271484375" y="274">Login</text></g></g><g transform="translate(2,-102) scale(1,1)"><path fill="#ffffff" stroke="none" d="M 8 264 L 101 264 L 111 274 L 111 287 L 8 287 L 8 264"/></g><g transform="translate(2,-102) scale(1,1)"><path fill="none" stroke="#000000" d="M 8 264 L 101 264 L 111 274 L 111 287 L 8 287 L 8 264 L 8 264" stroke-miterlimit="10"/></g><g transform="translate(2,-102) scale(1,1)"><path fill="none" stroke="#000000" d="M 101 264 L 101 274 L 111 274 L 101 264" stroke-miterlimit="10"/></g><g transform="translate(2,-102) scale(1,1)"><g><path fill="none" stroke="none"/><text fill="#000000" stroke="none" font-family="Arial" font-size="13px" font-style="normal" font-weight="normal" text-decoration="none" x="13" y="279">{Usuário}</text></g></g><g transform="translate(2,-102) scale(1,1)"><path fill="#ffffff" stroke="none" d="M 536 136 L 629 136 L 639 146 L 639 159 L 536 159 L 536 136"/></g><g transform="translate(2,-102) scale(1,1)"><path fill="none" stroke="#000000" d="M 536 136 L 629 136 L 639 146 L 639 159 L 536 159 L 536 136 L 536 136" stroke-miterlimit="10"/></g><g transform="translate(2,-102) scale(1,1)"><path fill="none" stroke="#000000" d="M 629 136 L 629 146 L 639 146 L 629 136" stroke-miterlimit="10"/></g><g transform="translate(2,-102) scale(1,1)"><g><path fill="none" stroke="none"/><text fill="#000000" stroke="none" font-family="Arial" font-size="13px" font-style="normal" font-weight="normal" text-decoration="none" x="541" y="151">{Usuário}</text></g></g><g transform="translate(2,-102) scale(1,1)"><path fill="none" stroke="#000000" d="M 113 277 L 183 277" stroke-miterlimit="10" stroke-dasharray="3"/></g><g transform="translate(2,-102) scale(1,1)"><path fill="#C0C0C0" stroke="none" d="M 741.4126953125 247 L 768.8526953125 247 L 780.6126953125 258.76 L 780.6126953125 296 L 741.4126953125 296" opacity="0.2"/></g><g transform="translate(2,-102) scale(1,1)"><path fill="#ffffff" stroke="none" d="M 734.4126953125 240 L 761.8526953125 240 L 773.6126953125 251.76000000000002 L 773.6126953125 289 L 734.4126953125 289"/></g><g transform="translate(2,-102) scale(1,1)"><path fill="none" stroke="#000000" d="M 734.4126953125 240 L 761.8526953125 240 L 773.6126953125 251.76000000000002 L 773.6126953125 289 L 734.4126953125 289 L 734.4126953125 240" stroke-miterlimit="10"/></g><g transform="translate(2,-102) scale(1,1)"><path fill="none" stroke="#000000" d="M 761.8526953125 240 L 761.8526953125 251.76000000000002 L 773.6126953125 251.76000000000002 L 761.8526953125 240" stroke-miterlimit="10"/></g><g transform="translate(2,-102) scale(1,1)"><g><path fill="none" stroke="none"/><text fill="#000000" stroke="none" font-family="Arial" font-size="13px" font-style="normal" font-weight="bold" text-decoration="none" x="708.5" y="307">AluguelDeSala</text></g></g><g transform="translate(2,-102) scale(1,1)"><rect fill="#C0C0C0" stroke="none" x="545" y="255" width="98.44091796875" height="44" opacity="0.2"/></g><g transform="translate(2,-102) scale(1,1)"><rect fill="#ffffff" stroke="none" x="538" y="248" width="98.44091796875" height="44"/></g><g transform="translate(2,-102) scale(1,1)"><path fill="none" stroke="#000000" d="M 538 248 L 636.44091796875 248 L 636.44091796875 292 L 538 292 L 538 248 Z Z" stroke-miterlimit="10"/></g><g transform="translate(2,-102) scale(1,1)"><rect fill="#ffffff" stroke="none" x="528" y="255" width="20" height="10"/></g><g transform="translate(2,-102) scale(1,1)"><path fill="none" stroke="#000000" d="M 528 255 L 548 255 L 548 265 L 528 265 L 528 255 Z Z" stroke-miterlimit="10"/></g><g transform="translate(2,-102) scale(1,1)"><rect fill="#ffffff" stroke="none" x="528" y="275" width="20" height="10"/></g><g transform="translate(2,-102) scale(1,1)"><path fill="none" stroke="#000000" d="M 528 275 L 548 275 L 548 285 L 528 285 L 528 275 Z Z" stroke-miterlimit="10"/></g><g transform="translate(2,-102) scale(1,1)"><g><path fill="none" stroke="none"/><text fill="#000000" stroke="none" font-family="Arial" font-size="13px" font-style="normal" font-weight="bold" text-decoration="none" x="556.457763671875" y="266">Alugar Sala</text></g></g><g transform="translate(2,-102) scale(1,1)"><path fill="none" stroke="#000000" d="M 485 149 L 535 149" stroke-miterlimit="10" stroke-dasharray="3"/></g><g transform="translate(2,-102) scale(1,1)"><path fill="none" stroke="#000000" d="M 637 272 L 703 275" stroke-miterlimit="10" stroke-dasharray="3"/></g><g transform="translate(2,-102) scale(1,1)"><path fill="none" stroke="#000000" d="M 527 273 L 491 275" stroke-miterlimit="10" stroke-dasharray="3"/></g><g transform="translate(2,-102) scale(1,1)"><path fill="none" stroke="#000000" d="M 500.9135258953276 270.2332396407341 L 491 275 L 501.3805299603827 278.6393128117264" stroke-miterlimit="10"/></g><g transform="translate(2,-102) scale(1,1)"><path fill="none" stroke="#000000" d="M 430 173 L 429 255" stroke-miterlimit="10" stroke-dasharray="3"/></g><g transform="translate(2,-102) scale(1,1)"><path fill="none" stroke="#000000" d="M 424.9147210753117 244.7867489941989 L 429 255 L 433.3331306134767 244.88941252515212" stroke-miterlimit="10"/></g><g transform="translate(2,-102) scale(1,1)"><path fill="none" stroke="#000000" d="M 293 278 L 367 278" stroke-miterlimit="10" stroke-dasharray="3"/></g><g transform="translate(2,-102) scale(1,1)"><path fill="none" stroke="#000000" d="M 356.83732514237585 282.209517756016 L 367 278 L 356.83732514237585 273.790482243984" stroke-miterlimit="10"/></g><g transform="translate(2,-102) scale(1,1)"><path fill="#C0C0C0" stroke="none" d="M 220.074072265625 119 L 247.51407226562503 119 L 259.274072265625 130.76 L 259.274072265625 168 L 220.074072265625 168" opacity="0.2"/></g><g transform="translate(2,-102) scale(1,1)"><path fill="#ffffff" stroke="none" d="M 213.07407226562498 112 L 240.514072265625 112 L 252.27407226562502 123.76000000000002 L 252.27407226562502 161 L 213.07407226562498 161"/></g><g transform="translate(2,-102) scale(1,1)"><path fill="none" stroke="#000000" d="M 213.07407226562498 112 L 240.514072265625 112 L 252.27407226562502 123.76000000000002 L 252.27407226562502 161 L 213.07407226562498 161 L 213.07407226562498 112" stroke-miterlimit="10"/></g><g transform="translate(2,-102) scale(1,1)"><path fill="none" stroke="#000000" d="M 240.514072265625 112 L 240.514072265625 123.76000000000002 L 252.27407226562502 123.76000000000002 L 240.514072265625 112" stroke-miterlimit="10"/></g><g transform="translate(2,-102) scale(1,1)"><g><path fill="none" stroke="none"/><text fill="#000000" stroke="none" font-family="Arial" font-size="13px" font-style="normal" font-weight="bold" text-decoration="none" x="204.5" y="179">Cadastro</text></g></g><g transform="translate(2,-102) scale(1,1)"><path fill="none" stroke="#000000" d="M 266 149 L 375 150" stroke-miterlimit="10" stroke-dasharray="3"/></g><g transform="translate(2,-102) scale(1,1)"><path fill="none" stroke="#000000" d="M 364.7991349975881 154.11610898817898 L 375 150 L 364.87637060518176 145.69742776047028" stroke-miterlimit="10"/></g><g transform="translate(2,-102) scale(1,1)"><path fill="none" stroke="#000000" d="M 234 187 L 237 255" stroke-miterlimit="10" stroke-dasharray="3"/></g><g transform="translate(2,-102) scale(1,1)"><path fill="none" stroke="#000000" d="M 232.34665529780182 245.03273442299624 L 237 255 L 240.75750948526377 244.66166732649057" stroke-miterlimit="10"/></g><g transform="translate(2,-102) scale(1,1)"><rect fill="#C0C0C0" stroke="none" x="273" y="351" width="119.419921875" height="44" opacity="0.2"/></g><g transform="translate(2,-102) scale(1,1)"><rect fill="#ffffff" stroke="none" x="266" y="344" width="119.419921875" height="44"/></g><g transform="translate(2,-102) scale(1,1)"><path fill="none" stroke="#000000" d="M 266 344 L 385.419921875 344 L 385.419921875 388 L 266 388 L 266 344 Z Z" stroke-miterlimit="10"/></g><g transform="translate(2,-102) scale(1,1)"><rect fill="#ffffff" stroke="none" x="256" y="351" width="20" height="10"/></g><g transform="translate(2,-102) scale(1,1)"><path fill="none" stroke="#000000" d="M 256 351 L 276 351 L 276 361 L 256 361 L 256 351 Z Z" stroke-miterlimit="10"/></g><g transform="translate(2,-102) scale(1,1)"><rect fill="#ffffff" stroke="none" x="256" y="371" width="20" height="10"/></g><g transform="translate(2,-102) scale(1,1)"><path fill="none" stroke="#000000" d="M 256 371 L 276 371 L 276 381 L 256 381 L 256 371 Z Z" stroke-miterlimit="10"/></g><g transform="translate(2,-102) scale(1,1)"><g><path fill="none" stroke="none"/><text fill="#000000" stroke="none" font-family="Arial" font-size="13px" font-style="normal" font-weight="bold" text-decoration="none" x="280.5" y="362">Criar Campanha</text></g></g><g transform="translate(2,-102) scale(1,1)"><path fill="none" stroke="#000000" d="M 348 343 L 401 301" stroke-miterlimit="10" stroke-dasharray="3"/></g><g transform="translate(2,-102) scale(1,1)"><path fill="none" stroke="#000000" d="M 395.6494996690585 310.61104293032736 L 401 301 L 390.4205913029409 304.0126585635599" stroke-miterlimit="10"/></g><g transform="translate(2,-102) scale(1,1)"><path fill="#C0C0C0" stroke="none" d="M 297.12998046875 463 L 324.56998046875 463 L 336.32998046874997 474.76 L 336.32998046874997 512 L 297.12998046875 512" opacity="0.2"/></g><g transform="translate(2,-102) scale(1,1)"><path fill="#ffffff" stroke="none" d="M 290.12998046875 456 L 317.56998046875003 456 L 329.32998046875 467.76 L 329.32998046875 505 L 290.12998046875 505"/></g><g transform="translate(2,-102) scale(1,1)"><path fill="none" stroke="#000000" d="M 290.12998046875 456 L 317.56998046875003 456 L 329.32998046875 467.76 L 329.32998046875 505 L 290.12998046875 505 L 290.12998046875 456" stroke-miterlimit="10"/></g><g transform="translate(2,-102) scale(1,1)"><path fill="none" stroke="#000000" d="M 317.56998046875003 456 L 317.56998046875003 467.76 L 329.32998046875 467.76 L 317.56998046875003 456" stroke-miterlimit="10"/></g><g transform="translate(2,-102) scale(1,1)"><g><path fill="none" stroke="none"/><text fill="#000000" stroke="none" font-family="Arial" font-size="13px" font-style="normal" font-weight="bold" text-decoration="none" x="276.5" y="523">Campanha</text></g></g><g transform="translate(2,-102) scale(1,1)"><rect fill="#C0C0C0" stroke="none" x="249" y="583" width="133.14990234375" height="44" opacity="0.2"/></g><g transform="translate(2,-102) scale(1,1)"><rect fill="#ffffff" stroke="none" x="242" y="576" width="133.14990234375" height="44"/></g><g transform="translate(2,-102) scale(1,1)"><path fill="none" stroke="#000000" d="M 242 576 L 375.14990234375 576 L 375.14990234375 620 L 242 620 L 242 576 Z Z" stroke-miterlimit="10"/></g><g transform="translate(2,-102) scale(1,1)"><rect fill="#ffffff" stroke="none" x="232" y="583" width="20" height="10"/></g><g transform="translate(2,-102) scale(1,1)"><path fill="none" stroke="#000000" d="M 232 583 L 252 583 L 252 593 L 232 593 L 232 583 Z Z" stroke-miterlimit="10"/></g><g transform="translate(2,-102) scale(1,1)"><rect fill="#ffffff" stroke="none" x="232" y="603" width="20" height="10"/></g><g transform="translate(2,-102) scale(1,1)"><path fill="none" stroke="#000000" d="M 232 603 L 252 603 L 252 613 L 232 613 L 232 603 Z Z" stroke-miterlimit="10"/></g><g transform="translate(2,-102) scale(1,1)"><g><path fill="none" stroke="none"/><text fill="#000000" stroke="none" font-family="Arial" font-size="13px" font-style="normal" font-weight="bold" text-decoration="none" x="256.5" y="594">Buscar Campanha</text></g></g><g transform="translate(2,-102) scale(1,1)"><path fill="none" stroke="#000000" d="M 312 455 L 318 389" stroke-miterlimit="10" stroke-dasharray="3"/></g><g transform="translate(2,-102) scale(1,1)"><path fill="none" stroke="#000000" d="M 321.27214478569897 399.50205068076815 L 318 389 L 312.88768451425597 398.7398270197279" stroke-miterlimit="10"/></g><g transform="translate(2,-102) scale(1,1)"><path fill="none" stroke="#000000" d="M 304 575 L 307 531" stroke-miterlimit="10" stroke-dasharray="3"/></g><g transform="translate(2,-102) scale(1,1)"><path fill="none" stroke="#000000" d="M 310.508462561539 541.4254827444238 L 307 531 L 302.1089281230779 540.8527872145288" stroke-miterlimit="10"/></g><g transform="translate(2,-102) scale(1,1)"><rect fill="#C0C0C0" stroke="none" x="473" y="367" width="117.97265625" height="44" opacity="0.2"/></g><g transform="translate(2,-102) scale(1,1)"><rect fill="#ffffff" stroke="none" x="466" y="360" width="117.97265625" height="44"/></g><g transform="translate(2,-102) scale(1,1)"><path fill="none" stroke="#000000" d="M 466 360 L 583.97265625 360 L 583.97265625 404 L 466 404 L 466 360 Z Z" stroke-miterlimit="10"/></g><g transform="translate(2,-102) scale(1,1)"><rect fill="#ffffff" stroke="none" x="456" y="367" width="20" height="10"/></g><g transform="translate(2,-102) scale(1,1)"><path fill="none" stroke="#000000" d="M 456 367 L 476 367 L 476 377 L 456 377 L 456 367 Z Z" stroke-miterlimit="10"/></g><g transform="translate(2,-102) scale(1,1)"><rect fill="#ffffff" stroke="none" x="456" y="387" width="20" height="10"/></g><g transform="translate(2,-102) scale(1,1)"><path fill="none" stroke="#000000" d="M 456 387 L 476 387 L 476 397 L 456 397 L 456 387 Z Z" stroke-miterlimit="10"/></g><g transform="translate(2,-102) scale(1,1)"><g><path fill="none" stroke="none"/><text fill="#000000" stroke="none" font-family="Arial" font-size="13px" font-style="normal" font-weight="bold" text-decoration="none" x="480.5" y="378">Buscar Jogador</text></g></g><g transform="translate(2,-102) scale(1,1)"><path fill="none" stroke="#000000" d="M 499 359 L 449 301" stroke-miterlimit="10" stroke-dasharray="3"/></g><g transform="translate(2,-102) scale(1,1)"><path fill="none" stroke="#000000" d="M 458.823943762693 305.9487502409645 L 449 301 L 452.44728239881096 311.44587210638" stroke-miterlimit="10"/></g><g transform="translate(2,-102) scale(1,1)"><path fill="#C0C0C0" stroke="none" d="M 514.2681640625 447 L 541.7081640625 447 L 553.4681640625 458.76 L 553.4681640625 496 L 514.2681640625 496" opacity="0.2"/></g><g transform="translate(2,-102) scale(1,1)"><path fill="#ffffff" stroke="none" d="M 507.2681640625 440 L 534.7081640625 440 L 546.4681640625 451.76 L 546.4681640625 489 L 507.2681640625 489"/></g><g transform="translate(2,-102) scale(1,1)"><path fill="none" stroke="#000000" d="M 507.2681640625 440 L 534.7081640625 440 L 546.4681640625 451.76 L 546.4681640625 489 L 507.2681640625 489 L 507.2681640625 440" stroke-miterlimit="10"/></g><g transform="translate(2,-102) scale(1,1)"><path fill="none" stroke="#000000" d="M 534.7081640625 440 L 534.7081640625 451.76 L 546.4681640625 451.76 L 534.7081640625 440" stroke-miterlimit="10"/></g><g transform="translate(2,-102) scale(1,1)"><g><path fill="none" stroke="none"/><text fill="#000000" stroke="none" font-family="Arial" font-size="13px" font-style="normal" font-weight="bold" text-decoration="none" x="510.61181640625" y="507">Perfil</text></g></g><g transform="translate(2,-102) scale(1,1)"><path fill="none" stroke="#000000" d="M 523 439 L 521 405" stroke-miterlimit="10" stroke-dasharray="3"/></g><g transform="translate(2,-102) scale(1,1)"><path fill="none" stroke="#000000" d="M 525.799026515331 414.8979464792022 L 521 405 L 517.3945191168192 415.3923292673499" stroke-miterlimit="10"/></g><g transform="translate(2,-102) scale(1,1)"><rect fill="#C0C0C0" stroke="none" x="489" y="567" width="98.44091796875" height="44" opacity="0.2"/></g><g transform="translate(2,-102) scale(1,1)"><rect fill="#ffffff" stroke="none" x="482" y="560" width="98.44091796875" height="44"/></g><g transform="translate(2,-102) scale(1,1)"><path fill="none" stroke="#000000" d="M 482 560 L 580.44091796875 560 L 580.44091796875 604 L 482 604 L 482 560 Z Z" stroke-miterlimit="10"/></g><g transform="translate(2,-102) scale(1,1)"><rect fill="#ffffff" stroke="none" x="472" y="567" width="20" height="10"/></g><g transform="translate(2,-102) scale(1,1)"><path fill="none" stroke="#000000" d="M 472 567 L 492 567 L 492 577 L 472 577 L 472 567 Z Z" stroke-miterlimit="10"/></g><g transform="translate(2,-102) scale(1,1)"><rect fill="#ffffff" stroke="none" x="472" y="587" width="20" height="10"/></g><g transform="translate(2,-102) scale(1,1)"><path fill="none" stroke="#000000" d="M 472 587 L 492 587 L 492 597 L 472 597 L 472 587 Z Z" stroke-miterlimit="10"/></g><g transform="translate(2,-102) scale(1,1)"><g><path fill="none" stroke="none"/><text fill="#000000" stroke="none" font-family="Arial" font-size="13px" font-style="normal" font-weight="bold" text-decoration="none" x="502.984130859375" y="578">Criar Perfil</text></g></g><g transform="translate(2,-102) scale(1,1)"><path fill="none" stroke="#000000" d="M 526 559 L 526 515" stroke-miterlimit="10" stroke-dasharray="3"/></g><g transform="translate(2,-102) scale(1,1)"><path fill="none" stroke="#000000" d="M 530.209517756016 525.1626748576241 L 526 515 L 521.790482243984 525.1626748576241" stroke-miterlimit="10"/></g><g transform="translate(2,-102) scale(1,1)"><rect fill="#C0C0C0" stroke="none" x="937" y="263" width="98.44091796875" height="44" opacity="0.2"/></g><g transform="translate(2,-102) scale(1,1)"><rect fill="#ffffff" stroke="none" x="930" y="256" width="98.44091796875" height="44"/></g><g transform="translate(2,-102) scale(1,1)"><path fill="none" stroke="#000000" d="M 930 256 L 1028.44091796875 256 L 1028.44091796875 300 L 930 300 L 930 256 Z Z" stroke-miterlimit="10"/></g><g transform="translate(2,-102) scale(1,1)"><rect fill="#ffffff" stroke="none" x="920" y="263" width="20" height="10"/></g><g transform="translate(2,-102) scale(1,1)"><path fill="none" stroke="#000000" d="M 920 263 L 940 263 L 940 273 L 920 273 L 920 263 Z Z" stroke-miterlimit="10"/></g><g transform="translate(2,-102) scale(1,1)"><rect fill="#ffffff" stroke="none" x="920" y="283" width="20" height="10"/></g><g transform="translate(2,-102) scale(1,1)"><path fill="none" stroke="#000000" d="M 920 283 L 940 283 L 940 293 L 920 293 L 920 283 Z Z" stroke-miterlimit="10"/></g><g transform="translate(2,-102) scale(1,1)"><g><path fill="none" stroke="none"/><text fill="#000000" stroke="none" font-family="Arial" font-size="13px" font-style="normal" font-weight="bold" text-decoration="none" x="949.1845703125" y="274">Pagamento</text></g></g><g transform="translate(2,-102) scale(1,1)"><path fill="none" stroke="#000000" d="M 919 278 L 805 277" stroke-miterlimit="10" stroke-dasharray="3"/></g><g transform="translate(2,-102) scale(1,1)"><path fill="none" stroke="#000000" d="M 815.1992080615523 272.8797870301202 L 805 277 L 815.125359713991 281.2984986521214" stroke-miterlimit="10"/></g><g transform="translate(2,-102) scale(1,1)"><path fill="#ffffff" stroke="none" d="M 496 664 L 559.66259765625 664 L 569.66259765625 674 L 569.66259765625 702 L 496 702 L 496 664"/></g><g transform="translate(2,-102) scale(1,1)"><path fill="none" stroke="#000000" d="M 496 664 L 559.66259765625 664 L 569.66259765625 674 L 569.66259765625 702 L 496 702 L 496 664 L 496 664" stroke-miterlimit="10"/></g><g transform="translate(2,-102) scale(1,1)"><path fill="none" stroke="#000000" d="M 559.66259765625 664 L 559.66259765625 674 L 569.66259765625 674 L 559.66259765625 664" stroke-miterlimit="10"/></g><g transform="translate(2,-102) scale(1,1)"><g><path fill="none" stroke="none"/><text fill="#000000" stroke="none" font-family="Arial" font-size="13px" font-style="normal" font-weight="normal" text-decoration="none" x="501" y="679">{Jogador}</text></g></g><g transform="translate(2,-102) scale(1,1)"><path fill="#ffffff" stroke="none" d="M 264 664 L 327.66259765625 664 L 337.66259765625 674 L 337.66259765625 702 L 264 702 L 264 664"/></g><g transform="translate(2,-102) scale(1,1)"><path fill="none" stroke="#000000" d="M 264 664 L 327.66259765625 664 L 337.66259765625 674 L 337.66259765625 702 L 264 702 L 264 664 L 264 664" stroke-miterlimit="10"/></g><g transform="translate(2,-102) scale(1,1)"><path fill="none" stroke="#000000" d="M 327.66259765625 664 L 327.66259765625 674 L 337.66259765625 674 L 327.66259765625 664" stroke-miterlimit="10"/></g><g transform="translate(2,-102) scale(1,1)"><g><path fill="none" stroke="none"/><text fill="#000000" stroke="none" font-family="Arial" font-size="13px" font-style="normal" font-weight="normal" text-decoration="none" x="269" y="679">{Jogador}</text></g></g><g transform="translate(2,-102) scale(1,1)"><path fill="none" stroke="#000000" d="M 301 663 L 302 621" stroke-miterlimit="10" stroke-dasharray="3"/></g><g transform="translate(2,-102) scale(1,1)"><path fill="none" stroke="#000000" d="M 532 663 L 528 605" stroke-miterlimit="10" stroke-dasharray="3"/></g><g transform="translate(2,-102) scale(1,1)"><path fill="#ffffff" stroke="none" d="M 1072 256 L 1133.6376953125 256 L 1143.6376953125 266 L 1143.6376953125 294 L 1072 294 L 1072 256"/></g><g transform="translate(2,-102) scale(1,1)"><path fill="none" stroke="#000000" d="M 1072 256 L 1133.6376953125 256 L 1143.6376953125 266 L 1143.6376953125 294 L 1072 294 L 1072 256 L 1072 256" stroke-miterlimit="10"/></g><g transform="translate(2,-102) scale(1,1)"><path fill="none" stroke="#000000" d="M 1133.6376953125 256 L 1133.6376953125 266 L 1143.6376953125 266 L 1133.6376953125 256" stroke-miterlimit="10"/></g><g transform="translate(2,-102) scale(1,1)"><g><path fill="none" stroke="none"/><text fill="#000000" stroke="none" font-family="Arial" font-size="13px" font-style="normal" font-weight="normal" text-decoration="none" x="1077" y="271">{Usuário}</text></g></g><g transform="translate(2,-102) scale(1,1)"><path fill="none" stroke="#000000" d="M 1071 276 L 1029 277" stroke-miterlimit="10" stroke-dasharray="3"/></g><g transform="translate(2,-102) scale(1,1)"><path fill="#ffffff" stroke="none" d="M 128 344 L 186 344 L 196 354 L 196 382 L 128 382 L 128 344"/></g><g transform="translate(2,-102) scale(1,1)"><path fill="none" stroke="#000000" d="M 128 344 L 186 344 L 196 354 L 196 382 L 128 382 L 128 344 L 128 344" stroke-miterlimit="10"/></g><g transform="translate(2,-102) scale(1,1)"><path fill="none" stroke="#000000" d="M 186 344 L 186 354 L 196 354 L 186 344" stroke-miterlimit="10"/></g><g transform="translate(2,-102) scale(1,1)"><g><path fill="none" stroke="none"/><text fill="#000000" stroke="none" font-family="Arial" font-size="13px" font-style="normal" font-weight="normal" text-decoration="none" x="133" y="359">{Mestre}</text></g></g><g transform="translate(2,-102) scale(1,1)"><path fill="none" stroke="#000000" d="M 198 364 L 255 365" stroke-miterlimit="10" stroke-dasharray="3"/></g><g transform="translate(2,-102) scale(1,1)"><path fill="#ffffff" stroke="none" d="M 624 360 L 682 360 L 692 370 L 692 398 L 624 398 L 624 360"/></g><g transform="translate(2,-102) scale(1,1)"><path fill="none" stroke="#000000" d="M 624 360 L 682 360 L 692 370 L 692 398 L 624 398 L 624 360 L 624 360" stroke-miterlimit="10"/></g><g transform="translate(2,-102) scale(1,1)"><path fill="none" stroke="#000000" d="M 682 360 L 682 370 L 692 370 L 682 360" stroke-miterlimit="10"/></g><g transform="translate(2,-102) scale(1,1)"><g><path fill="none" stroke="none"/><text fill="#000000" stroke="none" font-family="Arial" font-size="13px" font-style="normal" font-weight="normal" text-decoration="none" x="629" y="375">{Mestre}</text></g></g><g transform="translate(2,-102) scale(1,1)"><path fill="none" stroke="#000000" d="M 623 380 L 585 381" stroke-miterlimit="10" stroke-dasharray="3"/></g></g></svg>