<svg version="1.1" xmlns="http://www.w3.org/2000/svg" xmlns:xlink="http://www.w3.org/1999/xlink" width="836.810546875" height="709"><defs/><g><text fill="#eeeeee" stroke="none" font-family="Arial" font-size="24px" font-style="normal" font-weight="normal" text-decoration="none" x="0" y="0">UNREGISTERED</text><text fill="#eeeeee" stroke="none" font-family="Arial" font-size="24px" font-style="normal" font-weight="normal" text-decoration="none" x="0" y="30">UNREGISTERED</text><text fill="#eeeeee" stroke="none" font-family="Arial" font-size="24px" font-style="normal" font-weight="normal" text-decoration="none" x="0" y="60">UNREGISTERED</text><text fill="#eeeeee" stroke="none" font-family="Arial" font-size="24px" font-style="normal" font-weight="normal" text-decoration="none" x="0" y="90">UNREGISTERED</text><text fill="#eeeeee" stroke="none" font-family="Arial" font-size="24px" font-style="normal" font-weight="normal" text-decoration="none" x="0" y="120">UNREGISTERED</text><text fill="#eeeeee" stroke="none" font-family="Arial" font-size="24px" font-style="normal" font-weight="normal" text-decoration="none" x="0" y="150">UNREGISTERED</text><text fill="#eeeeee" stroke="none" font-family="Arial" font-size="24px" font-style="normal" font-weight="normal" text-decoration="none" x="0" y="180">UNREGISTERED</text><text fill="#eeeeee" stroke="none" font-family="Arial" font-size="24px" font-style="normal" font-weight="normal" text-decoration="none" x="0" y="210">UNREGISTERED</text><text fill="#eeeeee" stroke="none" font-family="Arial" font-size="24px" font-style="normal" font-weight="normal" text-decoration="none" x="0" y="240">UNREGISTERED</text><text fill="#eeeeee" stroke="none" font-family="Arial" font-size="24px" font-style="normal" font-weight="normal" text-decoration="none" x="0" y="270">UNREGISTERED</text><text fill="#eeeeee" stroke="none" font-family="Arial" font-size="24px" font-style="normal" font-weight="normal" text-decoration="none" x="0" y="300">UNREGISTERED</text><text fill="#eeeeee" stroke="none" font-family="Arial" font-size="24px" font-style="normal" font-weight="normal" text-decoration="none" x="0" y="330">UNREGISTERED</text><text fill="#eeeeee" stroke="none" font-family="Arial" font-size="24px" font-style="normal" font-weight="normal" text-decoration="none" x="0" y="360">UNREGISTERED</text><text fill="#eeeeee" stroke="none" font-family="Arial" font-size="24px" font-style="normal" font-weight="normal" text-decoration="none" x="0" y="390">UNREGISTERED</text><text fill="#eeeeee" stroke="none" font-family="Arial" font-size="24px" font-style="normal" font-weight="normal" text-decoration="none" x="0" y="420">UNREGISTERED</text><text fill="#eeeeee" stroke="none" font-family="Arial" font-size="24px" font-style="normal" font-weight="normal" text-decoration="none" x="0" y="450">UNREGISTERED</text><text fill="#eeeeee" stroke="none" font-family="Arial" font-size="24px" font-style="normal" font-weight="normal" text-decoration="none" x="0" y="480">UNREGISTERED</text><text fill="#eeeeee" stroke="none" font-family="Arial" font-size="24px" font-style="normal" font-weight="normal" text-decoration="none" x="0" y="510">UNREGISTERED</text><text fill="#eeeeee" stroke="none" font-family="Arial" font-size="24px" font-style="normal" font-weight="normal" text-decoration="none" x="0" y="540">UNREGISTERED</text><text fill="#eeeeee" stroke="none" font-family="Arial" font-size="24px" font-style="normal" font-weight="normal" text-decoration="none" x="0" y="570">UNREGISTERED</text><text fill="#eeeeee" stroke="none" font-family="Arial" font-size="24px" font-style="normal" font-weight="normal" text-decoration="none" x="0" y="600">UNREGISTERED</text><text fill="#eeeeee" stroke="none" font-family="Arial" font-size="24px" font-style="normal" font-weight="normal" text-decoration="none" x="0" y="630">UNREGISTERED</text><text fill="#eeeeee" stroke="none" font-family="Arial" font-size="24px" font-style="normal" font-weight="normal" text-decoration="none" x="0" y="660">UNREGISTERED</text><text fill="#eeeeee" stroke="none" font-family="Arial" font-size="24px" font-style="normal" font-weight="normal" text-decoration="none" x="0" y="690">UNREGISTERED</text><text fill="#eeeeee" stroke="none" font-family="Arial" font-size="24px" font-style="normal" font-weight="normal" text-decoration="none" x="200" y="0">UNREGISTERED</text><text fill="#eeeeee" stroke="none" font-family="Arial" font-size="24px" font-style="normal" font-weight="normal" text-decoration="none" x="200" y="30">UNREGISTERED</text><text fill="#eeeeee" stroke="none" font-family="Arial" font-size="24px" font-style="normal" font-weight="normal" text-decoration="none" x="200" y="60">UNREGISTERED</text><text fill="#eeeeee" stroke="none" font-family="Arial" font-size="24px" font-style="normal" font-weight="normal" text-decoration="none" x="200" y="90">UNREGISTERED</text><text fill="#eeeeee" stroke="none" font-family="Arial" font-size="24px" font-style="normal" font-weight="normal" text-decoration="none" x="200" y="120">UNREGISTERED</text><text fill="#eeeeee" stroke="none" font-family="Arial" font-size="24px" font-style="normal" font-weight="normal" text-decoration="none" x="200" y="150">UNREGISTERED</text><text fill="#eeeeee" stroke="none" font-family="Arial" font-size="24px" font-style="normal" font-weight="normal" text-decoration="none" x="200" y="180">UNREGISTERED</text><text fill="#eeeeee" stroke="none" font-family="Arial" font-size="24px" font-style="normal" font-weight="normal" text-decoration="none" x="200" y="210">UNREGISTERED</text><text fill="#eeeeee" stroke="none" font-family="Arial" font-size="24px" font-style="normal" font-weight="normal" text-decoration="none" x="200" y="240">UNREGISTERED</text><text fill="#eeeeee" stroke="none" font-family="Arial" font-size="24px" font-style="normal" font-weight="normal" text-decoration="none" x="200" y="270">UNREGISTERED</text><text fill="#eeeeee" stroke="none" font-family="Arial" font-size="24px" font-style="normal" font-weight="normal" text-decoration="none" x="200" y="300">UNREGISTERED</text><text fill="#eeeeee" stroke="none" font-family="Arial" font-size="24px" font-style="normal" font-weight="normal" text-decoration="none" x="200" y="330">UNREGISTERED</text><text fill="#eeeeee" stroke="none" font-family="Arial" font-size="24px" font-style="normal" font-weight="normal" text-decoration="none" x="200" y="360">UNREGISTERED</text><text fill="#eeeeee" stroke="none" font-family="Arial" font-size="24px" font-style="normal" font-weight="normal" text-decoration="none" x="200" y="390">UNREGISTERED</text><text fill="#eeeeee" stroke="none" font-family="Arial" font-size="24px" font-style="normal" font-weight="normal" text-decoration="none" x="200" y="420">UNREGISTERED</text><text fill="#eeeeee" stroke="none" font-family="Arial" font-size="24px" font-style="normal" font-weight="normal" text-decoration="none" x="200" y="450">UNREGISTERED</text><text fill="#eeeeee" stroke="none" font-family="Arial" font-size="24px" font-style="normal" font-weight="normal" text-decoration="none" x="200" y="480">UNREGISTERED</text><text fill="#eeeeee" stroke="none" font-family="Arial" font-size="24px" font-style="normal" font-weight="normal" text-decoration="none" x="200" y="510">UNREGISTERED</text><text fill="#eeeeee" stroke="none" font-family="Arial" font-size="24px" font-style="normal" font-weight="normal" text-decoration="none" x="200" y="540">UNREGISTERED</text><text fill="#eeeeee" stroke="none" font-family="Arial" font-size="24px" font-style="normal" font-weight="normal" text-decoration="none" x="200" y="570">UNREGISTERED</text><text fill="#eeeeee" stroke="none" font-family="Arial" font-size="24px" font-style="normal" font-weight="normal" text-decoration="none" x="200" y="600">UNREGISTERED</text><text fill="#eeeeee" stroke="none" font-family="Arial" font-size="24px" font-style="normal" font-weight="normal" text-decoration="none" x="200" y="630">UNREGISTERED</text><text fill="#eeeeee" stroke="none" font-family="Arial" font-size="24px" font-style="normal" font-weight="normal" text-decoration="none" x="200" y="660">UNREGISTERED</text><text fill="#eeeeee" stroke="none" font-family="Arial" font-size="24px" font-style="normal" font-weight="normal" text-decoration="none" x="200" y="690">UNREGISTERED</text><text fill="#eeeeee" stroke="none" font-family="Arial" font-size="24px" font-style="normal" font-weight="normal" text-decoration="none" x="400" y="0">UNREGISTERED</text><text fill="#eeeeee" stroke="none" font-family="Arial" font-size="24px" font-style="normal" font-weight="normal" text-decoration="none" x="400" y="30">UNREGISTERED</text><text fill="#eeeeee" stroke="none" font-family="Arial" font-size="24px" font-style="normal" font-weight="normal" text-decoration="none" x="400" y="60">UNREGISTERED</text><text fill="#eeeeee" stroke="none" font-family="Arial" font-size="24px" font-style="normal" font-weight="normal" text-decoration="none" x="400" y="90">UNREGISTERED</text><text fill="#eeeeee" stroke="none" font-family="Arial" font-size="24px" font-style="normal" font-weight="normal" text-decoration="none" x="400" y="120">UNREGISTERED</text><text fill="#eeeeee" stroke="none" font-family="Arial" font-size="24px" font-style="normal" font-weight="normal" text-decoration="none" x="400" y="150">UNREGISTERED</text><text fill="#eeeeee" stroke="none" font-family="Arial" font-size="24px" font-style="normal" font-weight="normal" text-decoration="none" x="400" y="180">UNREGISTERED</text><text fill="#eeeeee" stroke="none" font-family="Arial" font-size="24px" font-style="normal" font-weight="normal" text-decoration="none" x="400" y="210">UNREGISTERED</text><text fill="#eeeeee" stroke="none" font-family="Arial" font-size="24px" font-style="normal" font-weight="normal" text-decoration="none" x="400" y="240">UNREGISTERED</text><text fill="#eeeeee" stroke="none" font-family="Arial" font-size="24px" font-style="normal" font-weight="normal" text-decoration="none" x="400" y="270">UNREGISTERED</text><text fill="#eeeeee" stroke="none" font-family="Arial" font-size="24px" font-style="normal" font-weight="normal" text-decoration="none" x="400" y="300">UNREGISTERED</text><text fill="#eeeeee" stroke="none" font-family="Arial" font-size="24px" font-style="normal" font-weight="normal" text-decoration="none" x="400" y="330">UNREGISTERED</text><text fill="#eeeeee" stroke="none" font-family="Arial" font-size="24px" font-style="normal" font-weight="normal" text-decoration="none" x="400" y="360">UNREGISTERED</text><text fill="#eeeeee" stroke="none" font-family="Arial" font-size="24px" font-style="normal" font-weight="normal" text-decoration="none" x="400" y="390">UNREGISTERED</text><text fill="#eeeeee" stroke="none" font-family="Arial" font-size="24px" font-style="normal" font-weight="normal" text-decoration="none" x="400" y="420">UNREGISTERED</text><text fill="#eeeeee" stroke="none" font-family="Arial" font-size="24px" font-style="normal" font-weight="normal" text-decoration="none" x="400" y="450">UNREGISTERED</text><text fill="#eeeeee" stroke="none" font-family="Arial" font-size="24px" font-style="normal" font-weight="normal" text-decoration="none" x="400" y="480">UNREGISTERED</text><text fill="#eeeeee" stroke="none" font-family="Arial" font-size="24px" font-style="normal" font-weight="normal" text-decoration="none" x="400" y="510">UNREGISTERED</text><text fill="#eeeeee" stroke="none" font-family="Arial" font-size="24px" font-style="normal" font-weight="normal" text-decoration="none" x="400" y="540">UNREGISTERED</text><text fill="#eeeeee" stroke="none" font-family="Arial" font-size="24px" font-style="normal" font-weight="normal" text-decoration="none" x="400" y="570">UNREGISTERED</text><text fill="#eeeeee" stroke="none" font-family="Arial" font-size="24px" font-style="normal" font-weight="normal" text-decoration="none" x="400" y="600">UNREGISTERED</text><text fill="#eeeeee" stroke="none" font-family="Arial" font-size="24px" font-style="normal" font-weight="normal" text-decoration="none" x="400" y="630">UNREGISTERED</text><text fill="#eeeeee" stroke="none" font-family="Arial" font-size="24px" font-style="normal" font-weight="normal" text-decoration="none" x="400" y="660">UNREGISTERED</text><text fill="#eeeeee" stroke="none" font-family="Arial" font-size="24px" font-style="normal" font-weight="normal" text-decoration="none" x="400" y="690">UNREGISTERED</text><text fill="#eeeeee" stroke="none" font-family="Arial" font-size="24px" font-style="normal" font-weight="normal" text-decoration="none" x="600" y="0">UNREGISTERED</text><text fill="#eeeeee" stroke="none" font-family="Arial" font-size="24px" font-style="normal" font-weight="normal" text-decoration="none" x="600" y="30">UNREGISTERED</text><text fill="#eeeeee" stroke="none" font-family="Arial" font-size="24px" font-style="normal" font-weight="normal" text-decoration="none" x="600" y="60">UNREGISTERED</text><text fill="#eeeeee" stroke="none" font-family="Arial" font-size="24px" font-style="normal" font-weight="normal" text-decoration="none" x="600" y="90">UNREGISTERED</text><text fill="#eeeeee" stroke="none" font-family="Arial" font-size="24px" font-style="normal" font-weight="normal" text-decoration="none" x="600" y="120">UNREGISTERED</text><text fill="#eeeeee" stroke="none" font-family="Arial" font-size="24px" font-style="normal" font-weight="normal" text-decoration="none" x="600" y="150">UNREGISTERED</text><text fill="#eeeeee" stroke="none" font-family="Arial" font-size="24px" font-style="normal" font-weight="normal" text-decoration="none" x="600" y="180">UNREGISTERED</text><text fill="#eeeeee" stroke="none" font-family="Arial" font-size="24px" font-style="normal" font-weight="normal" text-decoration="none" x="600" y="210">UNREGISTERED</text><text fill="#eeeeee" stroke="none" font-family="Arial" font-size="24px" font-style="normal" font-weight="normal" text-decoration="none" x="600" y="240">UNREGISTERED</text><text fill="#eeeeee" stroke="none" font-family="Arial" font-size="24px" font-style="normal" font-weight="normal" text-decoration="none" x="600" y="270">UNREGISTERED</text><text fill="#eeeeee" stroke="none" font-family="Arial" font-size="24px" font-style="normal" font-weight="normal" text-decoration="none" x="600" y="300">UNREGISTERED</text><text fill="#eeeeee" stroke="none" font-family="Arial" font-size="24px" font-style="normal" font-weight="normal" text-decoration="none" x="600" y="330">UNREGISTERED</text><text fill="#eeeeee" stroke="none" font-family="Arial" font-size="24px" font-style="normal" font-weight="normal" text-decoration="none" x="600" y="360">UNREGISTERED</text><text fill="#eeeeee" stroke="none" font-family="Arial" font-size="24px" font-style="normal" font-weight="normal" text-decoration="none" x="600" y="390">UNREGISTERED</text><text fill="#eeeeee" stroke="none" font-family="Arial" font-size="24px" font-style="normal" font-weight="normal" text-decoration="none" x="600" y="420">UNREGISTERED</text><text fill="#eeeeee" stroke="none" font-family="Arial" font-size="24px" font-style="normal" font-weight="normal" text-decoration="none" x="600" y="450">UNREGISTERED</text><text fill="#eeeeee" stroke="none" font-family="Arial" font-size="24px" font-style="normal" font-weight="normal" text-decoration="none" x="600" y="480">UNREGISTERED</text><text fill="#eeeeee" stroke="none" font-family="Arial" font-size="24px" font-style="normal" font-weight="normal" text-decoration="none" x="600" y="510">UNREGISTERED</text><text fill="#eeeeee" stroke="none" font-family="Arial" font-size="24px" font-style="normal" font-weight="normal" text-decoration="none" x="600" y="540">UNREGISTERED</text><text fill="#eeeeee" stroke="none" font-family="Arial" font-size="24px" font-style="normal" font-weight="normal" text-decoration="none" x="600" y="570">UNREGISTERED</text><text fill="#eeeeee" stroke="none" font-family="Arial" font-size="24px" font-style="normal" font-weight="normal" text-decoration="none" x="600" y="600">UNREGISTERED</text><text fill="#eeeeee" stroke="none" font-family="Arial" font-size="24px" font-style="normal" font-weight="normal" text-decoration="none" x="600" y="630">UNREGISTERED</text><text fill="#eeeeee" stroke="none" font-family="Arial" font-size="24px" font-style="normal" font-weight="normal" text-decoration="none" x="600" y="660">UNREGISTERED</text><text fill="#eeeeee" stroke="none" font-family="Arial" font-size="24px" font-style="normal" font-weight="normal" text-decoration="none" x="600" y="690">UNREGISTERED</text><text fill="#eeeeee" stroke="none" font-family="Arial" font-size="24px" font-style="normal" font-weight="normal" text-decoration="none" x="800" y="0">UNREGISTERED</text><text fill="#eeeeee" stroke="none" font-family="Arial" font-size="24px" font-style="normal" font-weight="normal" text-decoration="none" x="800" y="30">UNREGISTERED</text><text fill="#eeeeee" stroke="none" font-family="Arial" font-size="24px" font-style="normal" font-weight="normal" text-decoration="none" x="800" y="60">UNREGISTERED</text><text fill="#eeeeee" stroke="none" font-family="Arial" font-size="24px" font-style="normal" font-weight="normal" text-decoration="none" x="800" y="90">UNREGISTERED</text><text fill="#eeeeee" stroke="none" font-family="Arial" font-size="24px" font-style="normal" font-weight="normal" text-decoration="none" x="800" y="120">UNREGISTERED</text><text fill="#eeeeee" stroke="none" font-family="Arial" font-size="24px" font-style="normal" font-weight="normal" text-decoration="none" x="800" y="150">UNREGISTERED</text><text fill="#eeeeee" stroke="none" font-family="Arial" font-size="24px" font-style="normal" font-weight="normal" text-decoration="none" x="800" y="180">UNREGISTERED</text><text fill="#eeeeee" stroke="none" font-family="Arial" font-size="24px" font-style="normal" font-weight="normal" text-decoration="none" x="800" y="210">UNREGISTERED</text><text fill="#eeeeee" stroke="none" font-family="Arial" font-size="24px" font-style="normal" font-weight="normal" text-decoration="none" x="800" y="240">UNREGISTERED</text><text fill="#eeeeee" stroke="none" font-family="Arial" font-size="24px" font-style="normal" font-weight="normal" text-decoration="none" x="800" y="270">UNREGISTERED</text><text fill="#eeeeee" stroke="none" font-family="Arial" font-size="24px" font-style="normal" font-weight="normal" text-decoration="none" x="800" y="300">UNREGISTERED</text><text fill="#eeeeee" stroke="none" font-family="Arial" font-size="24px" font-style="normal" font-weight="normal" text-decoration="none" x="800" y="330">UNREGISTERED</text><text fill="#eeeeee" stroke="none" font-family="Arial" font-size="24px" font-style="normal" font-weight="normal" text-decoration="none" x="800" y="360">UNREGISTERED</text><text fill="#eeeeee" stroke="none" font-family="Arial" font-size="24px" font-style="normal" font-weight="normal" text-decoration="none" x="800" y="390">UNREGISTERED</text><text fill="#eeeeee" stroke="none" font-family="Arial" font-size="24px" font-style="normal" font-weight="normal" text-decoration="none" x="800" y="420">UNREGISTERED</text><text fill="#eeeeee" stroke="none" font-family="Arial" font-size="24px" font-style="normal" font-weight="normal" text-decoration="none" x="800" y="450">UNREGISTERED</text><text fill="#eeeeee" stroke="none" font-family="Arial" font-size="24px" font-style="normal" font-weight="normal" text-decoration="none" x="800" y="480">UNREGISTERED</text><text fill="#eeeeee" stroke="none" font-family="Arial" font-size="24px" font-style="normal" font-weight="normal" text-decoration="none" x="800" y="510">UNREGISTERED</text><text fill="#eeeeee" stroke="none" font-family="Arial" font-size="24px" font-style="normal" font-weight="normal" text-decoration="none" x="800" y="540">UNREGISTERED</text><text fill="#eeeeee" stroke="none" font-family="Arial" font-size="24px" font-style="normal" font-weight="normal" text-decoration="none" x="800" y="570">UNREGISTERED</text><text fill="#eeeeee" stroke="none" font-family="Arial" font-size="24px" font-style="normal" font-weight="normal" text-decoration="none" x="800" y="600">UNREGISTERED</text><text fill="#eeeeee" stroke="none" font-family="Arial" font-size="24px" font-style="normal" font-weight="normal" text-decoration="none" x="800" y="630">UNREGISTERED</text><text fill="#eeeeee" stroke="none" font-family="Arial" font-size="24px" font-style="normal" font-weight="normal" text-decoration="none" x="800" y="660">UNREGISTERED</text><text fill="#eeeeee" stroke="none" font-family="Arial" font-size="24px" font-style="normal" font-weight="normal" text-decoration="none" x="800" y="690">UNREGISTERED</text><g transform="translate(-166,-94) scale(1,1)"><path fill="#C0C0C0" stroke="none" d="M 183 144.5 C 183 139.2532944 187.2532944 135 192.5 135 C 197.7467056 135 202 139.2532944 202 144.5 C 202 149.7467056 197.7467056 154 192.5 154 C 187.2532944 154 183 149.7467056 183 144.5 Z" opacity="0.2"/></g><g transform="translate(-166,-94) scale(1,1)"><path fill="#000000" stroke="none" d="M 176 137.5 C 176 132.2532944 180.2532944 128 185.5 128 C 190.7467056 128 195 132.2532944 195 137.5 C 195 142.7467056 190.7467056 147 185.5 147 C 180.2532944 147 176 142.7467056 176 137.5 Z"/></g><g transform="translate(-166,-94) scale(1,1)"><path fill="#C0C0C0" stroke="none" d="M 433 119 L 533.21728515625 119 Q 543.21728515625 119 543.21728515625 129 L 543.21728515625 156 Q 543.21728515625 166 533.21728515625 166 L 433 166 Q 423 166 423 156 L 423 129 Q 423 119 433 119 Z" opacity="0.2"/></g><g transform="translate(-166,-94) scale(1,1)"><path fill="#ffffff" stroke="none" d="M 426 112 L 526.21728515625 112 Q 536.21728515625 112 536.21728515625 122 L 536.21728515625 149 Q 536.21728515625 159 526.21728515625 159 L 426 159 Q 416 159 416 149 L 416 122 Q 416 112 426 112 Z"/></g><g transform="translate(-166,-94) scale(1,1)"><path fill="none" stroke="#000000" d="M 426 112 L 526.21728515625 112 Q 536.21728515625 112 536.21728515625 122 L 536.21728515625 149 Q 536.21728515625 159 526.21728515625 159 L 426 159 Q 416 159 416 149 L 416 122 Q 416 112 426 112 Z" stroke-miterlimit="10"/></g><g transform="translate(-166,-94) scale(1,1)"><path fill="none" stroke="#000000" d="M 416 137 L 536.21728515625 137" stroke-miterlimit="10"/></g><g transform="translate(-166,-94) scale(1,1)"><g><path fill="none" stroke="none"/><text fill="#000000" stroke="none" font-family="Arial" font-size="13px" font-style="normal" font-weight="bold" text-decoration="none" x="420.5" y="130">Conferindo dados</text></g></g><g transform="translate(-166,-94) scale(1,1)"><g><path fill="none" stroke="none"/><text fill="#000000" stroke="none" font-family="Arial" font-size="13px" font-style="normal" font-weight="normal" text-decoration="none" x="421" y="153">do/Conferir</text></g></g><g transform="translate(-166,-94) scale(1,1)"><path fill="none" stroke="#000000" d="M 196 137 L 415 135" stroke-miterlimit="10"/></g><g transform="translate(-166,-94) scale(1,1)"><path fill="none" stroke="#000000" d="M 404.8761903865161 139.3021481738698 L 415 135 L 404.79930742345135 130.88346371827663" stroke-miterlimit="10"/></g><g transform="translate(-166,-94) scale(1,1)"><g><path fill="none" stroke="none"/><text fill="#000000" stroke="none" font-family="Arial" font-size="13px" font-style="normal" font-weight="normal" text-decoration="none" x="224.5" y="126">Confere dados preenchidos</text></g></g><g transform="translate(-166,-94) scale(1,1)"><path fill="#C0C0C0" stroke="none" d="M 697 111 L 817.52978515625 111 Q 827.52978515625 111 827.52978515625 121 L 827.52978515625 157 Q 827.52978515625 167 817.52978515625 167 L 697 167 Q 687 167 687 157 L 687 121 Q 687 111 697 111 Z" opacity="0.2"/></g><g transform="translate(-166,-94) scale(1,1)"><path fill="#ffffff" stroke="none" d="M 690 104 L 810.52978515625 104 Q 820.52978515625 104 820.52978515625 114 L 820.52978515625 150 Q 820.52978515625 160 810.52978515625 160 L 690 160 Q 680 160 680 150 L 680 114 Q 680 104 690 104 Z"/></g><g transform="translate(-166,-94) scale(1,1)"><path fill="none" stroke="#000000" d="M 690 104 L 810.52978515625 104 Q 820.52978515625 104 820.52978515625 114 L 820.52978515625 150 Q 820.52978515625 160 810.52978515625 160 L 690 160 Q 680 160 680 150 L 680 114 Q 680 104 690 104 Z" stroke-miterlimit="10"/></g><g transform="translate(-166,-94) scale(1,1)"><path fill="none" stroke="#000000" d="M 680 129 L 820.52978515625 129" stroke-miterlimit="10"/></g><g transform="translate(-166,-94) scale(1,1)"><g><path fill="none" stroke="none"/><text fill="#000000" stroke="none" font-family="Arial" font-size="13px" font-style="normal" font-weight="bold" text-decoration="none" x="686.337646484375" y="122">Armazenando dados</text></g></g><g transform="translate(-166,-94) scale(1,1)"><g><path fill="none" stroke="none"/><text fill="#000000" stroke="none" font-family="Arial" font-size="13px" font-style="normal" font-weight="normal" text-decoration="none" x="685" y="145">do/ArmazenaDados</text></g></g><g transform="translate(-166,-94) scale(1,1)"><path fill="none" stroke="#000000" d="M 537 134 L 679 133" stroke-miterlimit="10"/></g><g transform="translate(-166,-94) scale(1,1)"><path fill="none" stroke="#000000" d="M 668.867220889653 137.2809797361019 L 679 133 L 668.8079333772884 128.8621529803281" stroke-miterlimit="10"/></g><g transform="translate(-166,-94) scale(1,1)"><g><path fill="none" stroke="none"/><text fill="#000000" stroke="none" font-family="Arial" font-size="13px" font-style="normal" font-weight="normal" text-decoration="none" x="546.305908203125" y="123">Dados estão corretos</text></g></g><g transform="translate(-166,-94) scale(1,1)"><path fill="#C0C0C0" stroke="none" d="M 743 787.5 C 743 780.59644 748.59644 775 755.5 775 C 762.40356 775 768 780.59644 768 787.5 C 768 794.40356 762.40356 800 755.5 800 C 748.59644 800 743 794.40356 743 787.5 Z" opacity="0.2"/></g><g transform="translate(-166,-94) scale(1,1)"><path fill="none" stroke="#000000" d="M 736 780.5 C 736 773.59644 741.59644 768 748.5 768 C 755.40356 768 761 773.59644 761 780.5 C 761 787.40356 755.40356 793 748.5 793 C 741.59644 793 736 787.40356 736 780.5 Z" stroke-miterlimit="10"/></g><g transform="translate(-166,-94) scale(1,1)"><path fill="#000000" stroke="none" d="M 741 780.5 C 741 776.357864 744.357864 773 748.5 773 C 752.642136 773 756 776.357864 756 780.5 C 756 784.642136 752.642136 788 748.5 788 C 744.357864 788 741 784.642136 741 780.5 Z"/></g><g transform="translate(-166,-94) scale(1,1)"><path fill="#C0C0C0" stroke="none" d="M 689 271 L 821 271 Q 831 271 831 281 L 831 333 Q 831 343 821 343 L 689 343 Q 679 343 679 333 L 679 281 Q 679 271 689 271 Z" opacity="0.2"/></g><g transform="translate(-166,-94) scale(1,1)"><path fill="#ffffff" stroke="none" d="M 682 264 L 814 264 Q 824 264 824 274 L 824 326 Q 824 336 814 336 L 682 336 Q 672 336 672 326 L 672 274 Q 672 264 682 264 Z"/></g><g transform="translate(-166,-94) scale(1,1)"><path fill="none" stroke="#000000" d="M 682 264 L 814 264 Q 824 264 824 274 L 824 326 Q 824 336 814 336 L 682 336 Q 672 336 672 326 L 672 274 Q 672 264 682 264 Z" stroke-miterlimit="10"/></g><g transform="translate(-166,-94) scale(1,1)"><path fill="none" stroke="#000000" d="M 672 289 L 824 289" stroke-miterlimit="10"/></g><g transform="translate(-166,-94) scale(1,1)"><g><path fill="none" stroke="none"/><text fill="#000000" stroke="none" font-family="Arial" font-size="13px" font-style="normal" font-weight="bold" text-decoration="none" x="708.984130859375" y="282">Filtra mestre</text></g></g><g transform="translate(-166,-94) scale(1,1)"><g><path fill="none" stroke="none"/><text fill="#000000" stroke="none" font-family="Arial" font-size="13px" font-style="normal" font-weight="normal" text-decoration="none" x="677" y="305">do/FiltroMestre</text></g></g><g transform="translate(-166,-94) scale(1,1)"><path fill="none" stroke="#000000" d="M 750 161 L 748 263" stroke-miterlimit="10"/></g><g transform="translate(-166,-94) scale(1,1)"><path fill="none" stroke="#000000" d="M 743.9905210615756 252.7567544868664 L 748 263 L 752.407938617311 252.92180188992006" stroke-miterlimit="10"/></g><g transform="translate(-166,-94) scale(1,1)"><g><path fill="none" stroke="none"/><text fill="#000000" stroke="none" font-family="Arial" font-size="13px" font-style="normal" font-weight="normal" text-decoration="none" x="765.975830078125" y="207">dados armazenados</text></g></g><g transform="translate(-166,-94) scale(1,1)"><path fill="#C0C0C0" stroke="none" d="M 633 423 L 877.01708984375 423 Q 887.01708984375 423 887.01708984375 433 L 887.01708984375 487 Q 887.01708984375 497 877.01708984375 497 L 633 497 Q 623 497 623 487 L 623 433 Q 623 423 633 423 Z" opacity="0.2"/></g><g transform="translate(-166,-94) scale(1,1)"><path fill="#ffffff" stroke="none" d="M 626 416 L 870.01708984375 416 Q 880.01708984375 416 880.01708984375 426 L 880.01708984375 480 Q 880.01708984375 490 870.01708984375 490 L 626 490 Q 616 490 616 480 L 616 426 Q 616 416 626 416 Z"/></g><g transform="translate(-166,-94) scale(1,1)"><path fill="none" stroke="#000000" d="M 626 416 L 870.01708984375 416 Q 880.01708984375 416 880.01708984375 426 L 880.01708984375 480 Q 880.01708984375 490 870.01708984375 490 L 626 490 Q 616 490 616 480 L 616 426 Q 616 416 626 416 Z" stroke-miterlimit="10"/></g><g transform="translate(-166,-94) scale(1,1)"><path fill="none" stroke="#000000" d="M 616 441 L 880.01708984375 441" stroke-miterlimit="10"/></g><g transform="translate(-166,-94) scale(1,1)"><g><path fill="none" stroke="none"/><text fill="#000000" stroke="none" font-family="Arial" font-size="13px" font-style="normal" font-weight="bold" text-decoration="none" x="620.5" y="434">Exibindo página de criação de campanha</text></g></g><g transform="translate(-166,-94) scale(1,1)"><g><path fill="none" stroke="none"/><text fill="#000000" stroke="none" font-family="Arial" font-size="13px" font-style="normal" font-weight="normal" text-decoration="none" x="621" y="457">do/Campanha</text></g></g><g transform="translate(-166,-94) scale(1,1)"><path fill="none" stroke="#000000" d="M 748 337 L 748 415" stroke-miterlimit="10"/></g><g transform="translate(-166,-94) scale(1,1)"><path fill="none" stroke="#000000" d="M 743.790482243984 404.83732514237585 L 748 415 L 752.209517756016 404.83732514237585" stroke-miterlimit="10"/></g><g transform="translate(-166,-94) scale(1,1)"><g><path fill="none" stroke="none"/><text fill="#000000" stroke="none" font-family="Arial" font-size="13px" font-style="normal" font-weight="normal" text-decoration="none" x="750.5" y="375">se for mestre / exibe página da campanha</text></g></g><g transform="translate(-166,-94) scale(1,1)"><path fill="#C0C0C0" stroke="none" d="M 657 583 L 856.20263671875 583 Q 866.20263671875 583 866.20263671875 593 L 866.20263671875 647 Q 866.20263671875 657 856.20263671875 657 L 657 657 Q 647 657 647 647 L 647 593 Q 647 583 657 583 Z" opacity="0.2"/></g><g transform="translate(-166,-94) scale(1,1)"><path fill="#ffffff" stroke="none" d="M 650 576 L 849.20263671875 576 Q 859.20263671875 576 859.20263671875 586 L 859.20263671875 640 Q 859.20263671875 650 849.20263671875 650 L 650 650 Q 640 650 640 640 L 640 586 Q 640 576 650 576 Z"/></g><g transform="translate(-166,-94) scale(1,1)"><path fill="none" stroke="#000000" d="M 650 576 L 849.20263671875 576 Q 859.20263671875 576 859.20263671875 586 L 859.20263671875 640 Q 859.20263671875 650 849.20263671875 650 L 650 650 Q 640 650 640 640 L 640 586 Q 640 576 650 576 Z" stroke-miterlimit="10"/></g><g transform="translate(-166,-94) scale(1,1)"><path fill="none" stroke="#000000" d="M 640 601 L 859.20263671875 601" stroke-miterlimit="10"/></g><g transform="translate(-166,-94) scale(1,1)"><g><path fill="none" stroke="none"/><text fill="#000000" stroke="none" font-family="Arial" font-size="13px" font-style="normal" font-weight="bold" text-decoration="none" x="692.5263671875" y="594">Publica campanha</text></g></g><g transform="translate(-166,-94) scale(1,1)"><path fill="none" stroke="#000000" d="M 748 491 L 749 575" stroke-miterlimit="10"/></g><g transform="translate(-166,-94) scale(1,1)"><path fill="none" stroke="#000000" d="M 744.6698048535117 564.888154965916 L 749 575 L 753.0882438419653 564.7879354541487" stroke-miterlimit="10"/></g><g transform="translate(-166,-94) scale(1,1)"><g><path fill="none" stroke="none"/><text fill="#000000" stroke="none" font-family="Arial" font-size="13px" font-style="normal" font-weight="normal" text-decoration="none" x="758.5" y="532">dados preenchidos</text></g></g><g transform="translate(-166,-94) scale(1,1)"><path fill="none" stroke="#000000" d="M 749 651 L 748 767" stroke-miterlimit="10"/></g><g transform="translate(-166,-94) scale(1,1)"><path fill="none" stroke="#000000" d="M 743.8782446639353 756.8014151496582 L 748 767 L 752.2969673576599 756.8739903452937" stroke-miterlimit="10"/></g><g transform="translate(-166,-94) scale(1,1)"><g><path fill="none" stroke="none"/><text fill="#000000" stroke="none" font-family="Arial" font-size="13px" font-style="normal" font-weight="normal" text-decoration="none" x="662.5" y="713">campanha publicada com sucesso</text></g></g></g></svg>