<svg version="1.1" xmlns="http://www.w3.org/2000/svg" xmlns:xlink="http://www.w3.org/1999/xlink" width="829.6123046875" height="397"><defs/><g><text fill="#eeeeee" stroke="none" font-family="Arial" font-size="24px" font-style="normal" font-weight="normal" text-decoration="none" x="0" y="0">UNREGISTERED</text><text fill="#eeeeee" stroke="none" font-family="Arial" font-size="24px" font-style="normal" font-weight="normal" text-decoration="none" x="0" y="30">UNREGISTERED</text><text fill="#eeeeee" stroke="none" font-family="Arial" font-size="24px" font-style="normal" font-weight="normal" text-decoration="none" x="0" y="60">UNREGISTERED</text><text fill="#eeeeee" stroke="none" font-family="Arial" font-size="24px" font-style="normal" font-weight="normal" text-decoration="none" x="0" y="90">UNREGISTERED</text><text fill="#eeeeee" stroke="none" font-family="Arial" font-size="24px" font-style="normal" font-weight="normal" text-decoration="none" x="0" y="120">UNREGISTERED</text><text fill="#eeeeee" stroke="none" font-family="Arial" font-size="24px" font-style="normal" font-weight="normal" text-decoration="none" x="0" y="150">UNREGISTERED</text><text fill="#eeeeee" stroke="none" font-family="Arial" font-size="24px" font-style="normal" font-weight="normal" text-decoration="none" x="0" y="180">UNREGISTERED</text><text fill="#eeeeee" stroke="none" font-family="Arial" font-size="24px" font-style="normal" font-weight="normal" text-decoration="none" x="0" y="210">UNREGISTERED</text><text fill="#eeeeee" stroke="none" font-family="Arial" font-size="24px" font-style="normal" font-weight="normal" text-decoration="none" x="0" y="240">UNREGISTERED</text><text fill="#eeeeee" stroke="none" font-family="Arial" font-size="24px" font-style="normal" font-weight="normal" text-decoration="none" x="0" y="270">UNREGISTERED</text><text fill="#eeeeee" stroke="none" font-family="Arial" font-size="24px" font-style="normal" font-weight="normal" text-decoration="none" x="0" y="300">UNREGISTERED</text><text fill="#eeeeee" stroke="none" font-family="Arial" font-size="24px" font-style="normal" font-weight="normal" text-decoration="none" x="0" y="330">UNREGISTERED</text><text fill="#eeeeee" stroke="none" font-family="Arial" font-size="24px" font-style="normal" font-weight="normal" text-decoration="none" x="0" y="360">UNREGISTERED</text><text fill="#eeeeee" stroke="none" font-family="Arial" font-size="24px" font-style="normal" font-weight="normal" text-decoration="none" x="0" y="390">UNREGISTERED</text><text fill="#eeeeee" stroke="none" font-family="Arial" font-size="24px" font-style="normal" font-weight="normal" text-decoration="none" x="200" y="0">UNREGISTERED</text><text fill="#eeeeee" stroke="none" font-family="Arial" font-size="24px" font-style="normal" font-weight="normal" text-decoration="none" x="200" y="30">UNREGISTERED</text><text fill="#eeeeee" stroke="none" font-family="Arial" font-size="24px" font-style="normal" font-weight="normal" text-decoration="none" x="200" y="60">UNREGISTERED</text><text fill="#eeeeee" stroke="none" font-family="Arial" font-size="24px" font-style="normal" font-weight="normal" text-decoration="none" x="200" y="90">UNREGISTERED</text><text fill="#eeeeee" stroke="none" font-family="Arial" font-size="24px" font-style="normal" font-weight="normal" text-decoration="none" x="200" y="120">UNREGISTERED</text><text fill="#eeeeee" stroke="none" font-family="Arial" font-size="24px" font-style="normal" font-weight="normal" text-decoration="none" x="200" y="150">UNREGISTERED</text><text fill="#eeeeee" stroke="none" font-family="Arial" font-size="24px" font-style="normal" font-weight="normal" text-decoration="none" x="200" y="180">UNREGISTERED</text><text fill="#eeeeee" stroke="none" font-family="Arial" font-size="24px" font-style="normal" font-weight="normal" text-decoration="none" x="200" y="210">UNREGISTERED</text><text fill="#eeeeee" stroke="none" font-family="Arial" font-size="24px" font-style="normal" font-weight="normal" text-decoration="none" x="200" y="240">UNREGISTERED</text><text fill="#eeeeee" stroke="none" font-family="Arial" font-size="24px" font-style="normal" font-weight="normal" text-decoration="none" x="200" y="270">UNREGISTERED</text><text fill="#eeeeee" stroke="none" font-family="Arial" font-size="24px" font-style="normal" font-weight="normal" text-decoration="none" x="200" y="300">UNREGISTERED</text><text fill="#eeeeee" stroke="none" font-family="Arial" font-size="24px" font-style="normal" font-weight="normal" text-decoration="none" x="200" y="330">UNREGISTERED</text><text fill="#eeeeee" stroke="none" font-family="Arial" font-size="24px" font-style="normal" font-weight="normal" text-decoration="none" x="200" y="360">UNREGISTERED</text><text fill="#eeeeee" stroke="none" font-family="Arial" font-size="24px" font-style="normal" font-weight="normal" text-decoration="none" x="200" y="390">UNREGISTERED</text><text fill="#eeeeee" stroke="none" font-family="Arial" font-size="24px" font-style="normal" font-weight="normal" text-decoration="none" x="400" y="0">UNREGISTERED</text><text fill="#eeeeee" stroke="none" font-family="Arial" font-size="24px" font-style="normal" font-weight="normal" text-decoration="none" x="400" y="30">UNREGISTERED</text><text fill="#eeeeee" stroke="none" font-family="Arial" font-size="24px" font-style="normal" font-weight="normal" text-decoration="none" x="400" y="60">UNREGISTERED</text><text fill="#eeeeee" stroke="none" font-family="Arial" font-size="24px" font-style="normal" font-weight="normal" text-decoration="none" x="400" y="90">UNREGISTERED</text><text fill="#eeeeee" stroke="none" font-family="Arial" font-size="24px" font-style="normal" font-weight="normal" text-decoration="none" x="400" y="120">UNREGISTERED</text><text fill="#eeeeee" stroke="none" font-family="Arial" font-size="24px" font-style="normal" font-weight="normal" text-decoration="none" x="400" y="150">UNREGISTERED</text><text fill="#eeeeee" stroke="none" font-family="Arial" font-size="24px" font-style="normal" font-weight="normal" text-decoration="none" x="400" y="180">UNREGISTERED</text><text fill="#eeeeee" stroke="none" font-family="Arial" font-size="24px" font-style="normal" font-weight="normal" text-decoration="none" x="400" y="210">UNREGISTERED</text><text fill="#eeeeee" stroke="none" font-family="Arial" font-size="24px" font-style="normal" font-weight="normal" text-decoration="none" x="400" y="240">UNREGISTERED</text><text fill="#eeeeee" stroke="none" font-family="Arial" font-size="24px" font-style="normal" font-weight="normal" text-decoration="none" x="400" y="270">UNREGISTERED</text><text fill="#eeeeee" stroke="none" font-family="Arial" font-size="24px" font-style="normal" font-weight="normal" text-decoration="none" x="400" y="300">UNREGISTERED</text><text fill="#eeeeee" stroke="none" font-family="Arial" font-size="24px" font-style="normal" font-weight="normal" text-decoration="none" x="400" y="330">UNREGISTERED</text><text fill="#eeeeee" stroke="none" font-family="Arial" font-size="24px" font-style="normal" font-weight="normal" text-decoration="none" x="400" y="360">UNREGISTERED</text><text fill="#eeeeee" stroke="none" font-family="Arial" font-size="24px" font-style="normal" font-weight="normal" text-decoration="none" x="400" y="390">UNREGISTERED</text><text fill="#eeeeee" stroke="none" font-family="Arial" font-size="24px" font-style="normal" font-weight="normal" text-decoration="none" x="600" y="0">UNREGISTERED</text><text fill="#eeeeee" stroke="none" font-family="Arial" font-size="24px" font-style="normal" font-weight="normal" text-decoration="none" x="600" y="30">UNREGISTERED</text><text fill="#eeeeee" stroke="none" font-family="Arial" font-size="24px" font-style="normal" font-weight="normal" text-decoration="none" x="600" y="60">UNREGISTERED</text><text fill="#eeeeee" stroke="none" font-family="Arial" font-size="24px" font-style="normal" font-weight="normal" text-decoration="none" x="600" y="90">UNREGISTERED</text><text fill="#eeeeee" stroke="none" font-family="Arial" font-size="24px" font-style="normal" font-weight="normal" text-decoration="none" x="600" y="120">UNREGISTERED</text><text fill="#eeeeee" stroke="none" font-family="Arial" font-size="24px" font-style="normal" font-weight="normal" text-decoration="none" x="600" y="150">UNREGISTERED</text><text fill="#eeeeee" stroke="none" font-family="Arial" font-size="24px" font-style="normal" font-weight="normal" text-decoration="none" x="600" y="180">UNREGISTERED</text><text fill="#eeeeee" stroke="none" font-family="Arial" font-size="24px" font-style="normal" font-weight="normal" text-decoration="none" x="600" y="210">UNREGISTERED</text><text fill="#eeeeee" stroke="none" font-family="Arial" font-size="24px" font-style="normal" font-weight="normal" text-decoration="none" x="600" y="240">UNREGISTERED</text><text fill="#eeeeee" stroke="none" font-family="Arial" font-size="24px" font-style="normal" font-weight="normal" text-decoration="none" x="600" y="270">UNREGISTERED</text><text fill="#eeeeee" stroke="none" font-family="Arial" font-size="24px" font-style="normal" font-weight="normal" text-decoration="none" x="600" y="300">UNREGISTERED</text><text fill="#eeeeee" stroke="none" font-family="Arial" font-size="24px" font-style="normal" font-weight="normal" text-decoration="none" x="600" y="330">UNREGISTERED</text><text fill="#eeeeee" stroke="none" font-family="Arial" font-size="24px" font-style="normal" font-weight="normal" text-decoration="none" x="600" y="360">UNREGISTERED</text><text fill="#eeeeee" stroke="none" font-family="Arial" font-size="24px" font-style="normal" font-weight="normal" text-decoration="none" x="600" y="390">UNREGISTERED</text><text fill="#eeeeee" stroke="none" font-family="Arial" font-size="24px" font-style="normal" font-weight="normal" text-decoration="none" x="800" y="0">UNREGISTERED</text><text fill="#eeeeee" stroke="none" font-family="Arial" font-size="24px" font-style="normal" font-weight="normal" text-decoration="none" x="800" y="30">UNREGISTERED</text><text fill="#eeeeee" stroke="none" font-family="Arial" font-size="24px" font-style="normal" font-weight="normal" text-decoration="none" x="800" y="60">UNREGISTERED</text><text fill="#eeeeee" stroke="none" font-family="Arial" font-size="24px" font-style="normal" font-weight="normal" text-decoration="none" x="800" y="90">UNREGISTERED</text><text fill="#eeeeee" stroke="none" font-family="Arial" font-size="24px" font-style="normal" font-weight="normal" text-decoration="none" x="800" y="120">UNREGISTERED</text><text fill="#eeeeee" stroke="none" font-family="Arial" font-size="24px" font-style="normal" font-weight="normal" text-decoration="none" x="800" y="150">UNREGISTERED</text><text fill="#eeeeee" stroke="none" font-family="Arial" font-size="24px" font-style="normal" font-weight="normal" text-decoration="none" x="800" y="180">UNREGISTERED</text><text fill="#eeeeee" stroke="none" font-family="Arial" font-size="24px" font-style="normal" font-weight="normal" text-decoration="none" x="800" y="210">UNREGISTERED</text><text fill="#eeeeee" stroke="none" font-family="Arial" font-size="24px" font-style="normal" font-weight="normal" text-decoration="none" x="800" y="240">UNREGISTERED</text><text fill="#eeeeee" stroke="none" font-family="Arial" font-size="24px" font-style="normal" font-weight="normal" text-decoration="none" x="800" y="270">UNREGISTERED</text><text fill="#eeeeee" stroke="none" font-family="Arial" font-size="24px" font-style="normal" font-weight="normal" text-decoration="none" x="800" y="300">UNREGISTERED</text><text fill="#eeeeee" stroke="none" font-family="Arial" font-size="24px" font-style="normal" font-weight="normal" text-decoration="none" x="800" y="330">UNREGISTERED</text><text fill="#eeeeee" stroke="none" font-family="Arial" font-size="24px" font-style="normal" font-weight="normal" text-decoration="none" x="800" y="360">UNREGISTERED</text><text fill="#eeeeee" stroke="none" font-family="Arial" font-size="24px" font-style="normal" font-weight="normal" text-decoration="none" x="800" y="390">UNREGISTERED</text><g transform="translate(-118,-110) scale(1,1)"><path fill="#C0C0C0" stroke="none" d="M 807 491.5 C 807 484.59644 812.59644 479 819.5 479 C 826.40356 479 832 484.59644 832 491.5 C 832 498.40356 826.40356 504 819.5 504 C 812.59644 504 807 498.40356 807 491.5 Z" opacity="0.2"/></g><g transform="translate(-118,-110) scale(1,1)"><path fill="none" stroke="#000000" d="M 800 484.5 C 800 477.59644 805.59644 472 812.5 472 C 819.40356 472 825 477.59644 825 484.5 C 825 491.40356 819.40356 497 812.5 497 C 805.59644 497 800 491.40356 800 484.5 Z" stroke-miterlimit="10"/></g><g transform="translate(-118,-110) scale(1,1)"><path fill="#000000" stroke="none" d="M 805 484.5 C 805 480.357864 808.357864 477 812.5 477 C 816.642136 477 820 480.357864 820 484.5 C 820 488.642136 816.642136 492 812.5 492 C 808.357864 492 805 488.642136 805 484.5 Z"/></g><g transform="translate(-118,-110) scale(1,1)"><path fill="#C0C0C0" stroke="none" d="M 135 152.5 C 135 147.2532944 139.2532944 143 144.5 143 C 149.7467056 143 154 147.2532944 154 152.5 C 154 157.7467056 149.7467056 162 144.5 162 C 139.2532944 162 135 157.7467056 135 152.5 Z" opacity="0.2"/></g><g transform="translate(-118,-110) scale(1,1)"><path fill="#000000" stroke="none" d="M 128 145.5 C 128 140.2532944 132.2532944 136 137.5 136 C 142.7467056 136 147 140.2532944 147 145.5 C 147 150.7467056 142.7467056 155 137.5 155 C 132.2532944 155 128 150.7467056 128 145.5 Z"/></g><g transform="translate(-118,-110) scale(1,1)"><path fill="#C0C0C0" stroke="none" d="M 361 127 L 527.708984375 127 Q 537.708984375 127 537.708984375 137 L 537.708984375 164 Q 537.708984375 174 527.708984375 174 L 361 174 Q 351 174 351 164 L 351 137 Q 351 127 361 127 Z" opacity="0.2"/></g><g transform="translate(-118,-110) scale(1,1)"><path fill="#ffffff" stroke="none" d="M 354 120 L 520.708984375 120 Q 530.708984375 120 530.708984375 130 L 530.708984375 157 Q 530.708984375 167 520.708984375 167 L 354 167 Q 344 167 344 157 L 344 130 Q 344 120 354 120 Z"/></g><g transform="translate(-118,-110) scale(1,1)"><path fill="none" stroke="#000000" d="M 354 120 L 520.708984375 120 Q 530.708984375 120 530.708984375 130 L 530.708984375 157 Q 530.708984375 167 520.708984375 167 L 354 167 Q 344 167 344 157 L 344 130 Q 344 120 354 120 Z" stroke-miterlimit="10"/></g><g transform="translate(-118,-110) scale(1,1)"><path fill="none" stroke="#000000" d="M 344 145 L 530.708984375 145" stroke-miterlimit="10"/></g><g transform="translate(-118,-110) scale(1,1)"><g><path fill="none" stroke="none"/><text fill="#000000" stroke="none" font-family="Arial" font-size="13px" font-style="normal" font-weight="bold" text-decoration="none" x="348.5" y="138">Confere dados da campanha</text></g></g><g transform="translate(-118,-110) scale(1,1)"><g><path fill="none" stroke="none"/><text fill="#000000" stroke="none" font-family="Arial" font-size="13px" font-style="normal" font-weight="normal" text-decoration="none" x="349" y="161">do/ConfereDadosCampanha</text></g></g><g transform="translate(-118,-110) scale(1,1)"><path fill="none" stroke="#000000" d="M 148 145 L 343 144" stroke-miterlimit="10"/></g><g transform="translate(-118,-110) scale(1,1)"><path fill="none" stroke="#000000" d="M 332.85904575792375 148.26157800117693 L 343 144 L 332.81587178453776 139.842653190913" stroke-miterlimit="10"/></g><g transform="translate(-118,-110) scale(1,1)"><g><path fill="none" stroke="none"/><text fill="#000000" stroke="none" font-family="Arial" font-size="13px" font-style="normal" font-weight="normal" text-decoration="none" x="173.5" y="134">confere dados recebidos</text></g></g><g transform="translate(-118,-110) scale(1,1)"><path fill="#C0C0C0" stroke="none" d="M 737 127 L 904.49609375 127 Q 914.49609375 127 914.49609375 137 L 914.49609375 164 Q 914.49609375 174 904.49609375 174 L 737 174 Q 727 174 727 164 L 727 137 Q 727 127 737 127 Z" opacity="0.2"/></g><g transform="translate(-118,-110) scale(1,1)"><path fill="#ffffff" stroke="none" d="M 730 120 L 897.49609375 120 Q 907.49609375 120 907.49609375 130 L 907.49609375 157 Q 907.49609375 167 897.49609375 167 L 730 167 Q 720 167 720 157 L 720 130 Q 720 120 730 120 Z"/></g><g transform="translate(-118,-110) scale(1,1)"><path fill="none" stroke="#000000" d="M 730 120 L 897.49609375 120 Q 907.49609375 120 907.49609375 130 L 907.49609375 157 Q 907.49609375 167 897.49609375 167 L 730 167 Q 720 167 720 157 L 720 130 Q 720 120 730 120 Z" stroke-miterlimit="10"/></g><g transform="translate(-118,-110) scale(1,1)"><path fill="none" stroke="#000000" d="M 720 145 L 907.49609375 145" stroke-miterlimit="10"/></g><g transform="translate(-118,-110) scale(1,1)"><g><path fill="none" stroke="none"/><text fill="#000000" stroke="none" font-family="Arial" font-size="13px" font-style="normal" font-weight="bold" text-decoration="none" x="761.732177734375" y="138">Armazena dados</text></g></g><g transform="translate(-118,-110) scale(1,1)"><g><path fill="none" stroke="none"/><text fill="#000000" stroke="none" font-family="Arial" font-size="13px" font-style="normal" font-weight="normal" text-decoration="none" x="725" y="161">do/ArmazenaDadosCampanha</text></g></g><g transform="translate(-118,-110) scale(1,1)"><path fill="none" stroke="#000000" d="M 532 143 L 719 143" stroke-miterlimit="10"/></g><g transform="translate(-118,-110) scale(1,1)"><path fill="none" stroke="#000000" d="M 708.8373251423759 147.209517756016 L 719 143 L 708.8373251423758 138.790482243984" stroke-miterlimit="10"/></g><g transform="translate(-118,-110) scale(1,1)"><g><path fill="none" stroke="none"/><text fill="#000000" stroke="none" font-family="Arial" font-size="13px" font-style="normal" font-weight="normal" text-decoration="none" x="535.5" y="133">armazena dados da campanha</text></g></g><g transform="translate(-118,-110) scale(1,1)"><path fill="#C0C0C0" stroke="none" d="M 769 327 L 873.59716796875 327 Q 883.59716796875 327 883.59716796875 337 L 883.59716796875 364 Q 883.59716796875 374 873.59716796875 374 L 769 374 Q 759 374 759 364 L 759 337 Q 759 327 769 327 Z" opacity="0.2"/></g><g transform="translate(-118,-110) scale(1,1)"><path fill="#ffffff" stroke="none" d="M 762 320 L 866.59716796875 320 Q 876.59716796875 320 876.59716796875 330 L 876.59716796875 357 Q 876.59716796875 367 866.59716796875 367 L 762 367 Q 752 367 752 357 L 752 330 Q 752 320 762 320 Z"/></g><g transform="translate(-118,-110) scale(1,1)"><path fill="none" stroke="#000000" d="M 762 320 L 866.59716796875 320 Q 876.59716796875 320 876.59716796875 330 L 876.59716796875 357 Q 876.59716796875 367 866.59716796875 367 L 762 367 Q 752 367 752 357 L 752 330 Q 752 320 762 320 Z" stroke-miterlimit="10"/></g><g transform="translate(-118,-110) scale(1,1)"><path fill="none" stroke="#000000" d="M 752 345 L 876.59716796875 345" stroke-miterlimit="10"/></g><g transform="translate(-118,-110) scale(1,1)"><g><path fill="none" stroke="none"/><text fill="#000000" stroke="none" font-family="Arial" font-size="13px" font-style="normal" font-weight="bold" text-decoration="none" x="756.5" y="338">Exibe informações</text></g></g><g transform="translate(-118,-110) scale(1,1)"><g><path fill="none" stroke="none"/><text fill="#000000" stroke="none" font-family="Arial" font-size="13px" font-style="normal" font-weight="normal" text-decoration="none" x="757" y="361">do/ExibeCampanha</text></g></g><g transform="translate(-118,-110) scale(1,1)"><path fill="none" stroke="#000000" d="M 813 168 L 814 319" stroke-miterlimit="10"/></g><g transform="translate(-118,-110) scale(1,1)"><path fill="none" stroke="#000000" d="M 809.7232735442025 308.86542498067723 L 814 319 L 818.1421244424326 308.80967100121876" stroke-miterlimit="10"/></g><g transform="translate(-118,-110) scale(1,1)"><g><path fill="none" stroke="none"/><text fill="#000000" stroke="none" font-family="Arial" font-size="13px" font-style="normal" font-weight="normal" text-decoration="none" x="715.5" y="247">exibe campanha na página de seleção</text></g></g><g transform="translate(-118,-110) scale(1,1)"><path fill="none" stroke="#000000" d="M 814 368 L 812 471" stroke-miterlimit="10"/></g><g transform="translate(-118,-110) scale(1,1)"><path fill="none" stroke="#000000" d="M 807.9885718962405 460.7575176559406 L 812 471 L 816.4060207072573 460.9209632639215" stroke-miterlimit="10"/></g><g transform="translate(-118,-110) scale(1,1)"><g><path fill="none" stroke="none"/><text fill="#000000" stroke="none" font-family="Arial" font-size="13px" font-style="normal" font-weight="normal" text-decoration="none" x="767.5" y="424">campanha publicada</text></g></g></g></svg>