<svg version="1.1" xmlns="http://www.w3.org/2000/svg" xmlns:xlink="http://www.w3.org/1999/xlink" width="828.18603515625" height="613"><defs/><g><text fill="#eeeeee" stroke="none" font-family="Arial" font-size="24px" font-style="normal" font-weight="normal" text-decoration="none" x="0" y="0">UNREGISTERED</text><text fill="#eeeeee" stroke="none" font-family="Arial" font-size="24px" font-style="normal" font-weight="normal" text-decoration="none" x="0" y="30">UNREGISTERED</text><text fill="#eeeeee" stroke="none" font-family="Arial" font-size="24px" font-style="normal" font-weight="normal" text-decoration="none" x="0" y="60">UNREGISTERED</text><text fill="#eeeeee" stroke="none" font-family="Arial" font-size="24px" font-style="normal" font-weight="normal" text-decoration="none" x="0" y="90">UNREGISTERED</text><text fill="#eeeeee" stroke="none" font-family="Arial" font-size="24px" font-style="normal" font-weight="normal" text-decoration="none" x="0" y="120">UNREGISTERED</text><text fill="#eeeeee" stroke="none" font-family="Arial" font-size="24px" font-style="normal" font-weight="normal" text-decoration="none" x="0" y="150">UNREGISTERED</text><text fill="#eeeeee" stroke="none" font-family="Arial" font-size="24px" font-style="normal" font-weight="normal" text-decoration="none" x="0" y="180">UNREGISTERED</text><text fill="#eeeeee" stroke="none" font-family="Arial" font-size="24px" font-style="normal" font-weight="normal" text-decoration="none" x="0" y="210">UNREGISTERED</text><text fill="#eeeeee" stroke="none" font-family="Arial" font-size="24px" font-style="normal" font-weight="normal" text-decoration="none" x="0" y="240">UNREGISTERED</text><text fill="#eeeeee" stroke="none" font-family="Arial" font-size="24px" font-style="normal" font-weight="normal" text-decoration="none" x="0" y="270">UNREGISTERED</text><text fill="#eeeeee" stroke="none" font-family="Arial" font-size="24px" font-style="normal" font-weight="normal" text-decoration="none" x="0" y="300">UNREGISTERED</text><text fill="#eeeeee" stroke="none" font-family="Arial" font-size="24px" font-style="normal" font-weight="normal" text-decoration="none" x="0" y="330">UNREGISTERED</text><text fill="#eeeeee" stroke="none" font-family="Arial" font-size="24px" font-style="normal" font-weight="normal" text-decoration="none" x="0" y="360">UNREGISTERED</text><text fill="#eeeeee" stroke="none" font-family="Arial" font-size="24px" font-style="normal" font-weight="normal" text-decoration="none" x="0" y="390">UNREGISTERED</text><text fill="#eeeeee" stroke="none" font-family="Arial" font-size="24px" font-style="normal" font-weight="normal" text-decoration="none" x="0" y="420">UNREGISTERED</text><text fill="#eeeeee" stroke="none" font-family="Arial" font-size="24px" font-style="normal" font-weight="normal" text-decoration="none" x="0" y="450">UNREGISTERED</text><text fill="#eeeeee" stroke="none" font-family="Arial" font-size="24px" font-style="normal" font-weight="normal" text-decoration="none" x="0" y="480">UNREGISTERED</text><text fill="#eeeeee" stroke="none" font-family="Arial" font-size="24px" font-style="normal" font-weight="normal" text-decoration="none" x="0" y="510">UNREGISTERED</text><text fill="#eeeeee" stroke="none" font-family="Arial" font-size="24px" font-style="normal" font-weight="normal" text-decoration="none" x="0" y="540">UNREGISTERED</text><text fill="#eeeeee" stroke="none" font-family="Arial" font-size="24px" font-style="normal" font-weight="normal" text-decoration="none" x="0" y="570">UNREGISTERED</text><text fill="#eeeeee" stroke="none" font-family="Arial" font-size="24px" font-style="normal" font-weight="normal" text-decoration="none" x="0" y="600">UNREGISTERED</text><text fill="#eeeeee" stroke="none" font-family="Arial" font-size="24px" font-style="normal" font-weight="normal" text-decoration="none" x="200" y="0">UNREGISTERED</text><text fill="#eeeeee" stroke="none" font-family="Arial" font-size="24px" font-style="normal" font-weight="normal" text-decoration="none" x="200" y="30">UNREGISTERED</text><text fill="#eeeeee" stroke="none" font-family="Arial" font-size="24px" font-style="normal" font-weight="normal" text-decoration="none" x="200" y="60">UNREGISTERED</text><text fill="#eeeeee" stroke="none" font-family="Arial" font-size="24px" font-style="normal" font-weight="normal" text-decoration="none" x="200" y="90">UNREGISTERED</text><text fill="#eeeeee" stroke="none" font-family="Arial" font-size="24px" font-style="normal" font-weight="normal" text-decoration="none" x="200" y="120">UNREGISTERED</text><text fill="#eeeeee" stroke="none" font-family="Arial" font-size="24px" font-style="normal" font-weight="normal" text-decoration="none" x="200" y="150">UNREGISTERED</text><text fill="#eeeeee" stroke="none" font-family="Arial" font-size="24px" font-style="normal" font-weight="normal" text-decoration="none" x="200" y="180">UNREGISTERED</text><text fill="#eeeeee" stroke="none" font-family="Arial" font-size="24px" font-style="normal" font-weight="normal" text-decoration="none" x="200" y="210">UNREGISTERED</text><text fill="#eeeeee" stroke="none" font-family="Arial" font-size="24px" font-style="normal" font-weight="normal" text-decoration="none" x="200" y="240">UNREGISTERED</text><text fill="#eeeeee" stroke="none" font-family="Arial" font-size="24px" font-style="normal" font-weight="normal" text-decoration="none" x="200" y="270">UNREGISTERED</text><text fill="#eeeeee" stroke="none" font-family="Arial" font-size="24px" font-style="normal" font-weight="normal" text-decoration="none" x="200" y="300">UNREGISTERED</text><text fill="#eeeeee" stroke="none" font-family="Arial" font-size="24px" font-style="normal" font-weight="normal" text-decoration="none" x="200" y="330">UNREGISTERED</text><text fill="#eeeeee" stroke="none" font-family="Arial" font-size="24px" font-style="normal" font-weight="normal" text-decoration="none" x="200" y="360">UNREGISTERED</text><text fill="#eeeeee" stroke="none" font-family="Arial" font-size="24px" font-style="normal" font-weight="normal" text-decoration="none" x="200" y="390">UNREGISTERED</text><text fill="#eeeeee" stroke="none" font-family="Arial" font-size="24px" font-style="normal" font-weight="normal" text-decoration="none" x="200" y="420">UNREGISTERED</text><text fill="#eeeeee" stroke="none" font-family="Arial" font-size="24px" font-style="normal" font-weight="normal" text-decoration="none" x="200" y="450">UNREGISTERED</text><text fill="#eeeeee" stroke="none" font-family="Arial" font-size="24px" font-style="normal" font-weight="normal" text-decoration="none" x="200" y="480">UNREGISTERED</text><text fill="#eeeeee" stroke="none" font-family="Arial" font-size="24px" font-style="normal" font-weight="normal" text-decoration="none" x="200" y="510">UNREGISTERED</text><text fill="#eeeeee" stroke="none" font-family="Arial" font-size="24px" font-style="normal" font-weight="normal" text-decoration="none" x="200" y="540">UNREGISTERED</text><text fill="#eeeeee" stroke="none" font-family="Arial" font-size="24px" font-style="normal" font-weight="normal" text-decoration="none" x="200" y="570">UNREGISTERED</text><text fill="#eeeeee" stroke="none" font-family="Arial" font-size="24px" font-style="normal" font-weight="normal" text-decoration="none" x="200" y="600">UNREGISTERED</text><text fill="#eeeeee" stroke="none" font-family="Arial" font-size="24px" font-style="normal" font-weight="normal" text-decoration="none" x="400" y="0">UNREGISTERED</text><text fill="#eeeeee" stroke="none" font-family="Arial" font-size="24px" font-style="normal" font-weight="normal" text-decoration="none" x="400" y="30">UNREGISTERED</text><text fill="#eeeeee" stroke="none" font-family="Arial" font-size="24px" font-style="normal" font-weight="normal" text-decoration="none" x="400" y="60">UNREGISTERED</text><text fill="#eeeeee" stroke="none" font-family="Arial" font-size="24px" font-style="normal" font-weight="normal" text-decoration="none" x="400" y="90">UNREGISTERED</text><text fill="#eeeeee" stroke="none" font-family="Arial" font-size="24px" font-style="normal" font-weight="normal" text-decoration="none" x="400" y="120">UNREGISTERED</text><text fill="#eeeeee" stroke="none" font-family="Arial" font-size="24px" font-style="normal" font-weight="normal" text-decoration="none" x="400" y="150">UNREGISTERED</text><text fill="#eeeeee" stroke="none" font-family="Arial" font-size="24px" font-style="normal" font-weight="normal" text-decoration="none" x="400" y="180">UNREGISTERED</text><text fill="#eeeeee" stroke="none" font-family="Arial" font-size="24px" font-style="normal" font-weight="normal" text-decoration="none" x="400" y="210">UNREGISTERED</text><text fill="#eeeeee" stroke="none" font-family="Arial" font-size="24px" font-style="normal" font-weight="normal" text-decoration="none" x="400" y="240">UNREGISTERED</text><text fill="#eeeeee" stroke="none" font-family="Arial" font-size="24px" font-style="normal" font-weight="normal" text-decoration="none" x="400" y="270">UNREGISTERED</text><text fill="#eeeeee" stroke="none" font-family="Arial" font-size="24px" font-style="normal" font-weight="normal" text-decoration="none" x="400" y="300">UNREGISTERED</text><text fill="#eeeeee" stroke="none" font-family="Arial" font-size="24px" font-style="normal" font-weight="normal" text-decoration="none" x="400" y="330">UNREGISTERED</text><text fill="#eeeeee" stroke="none" font-family="Arial" font-size="24px" font-style="normal" font-weight="normal" text-decoration="none" x="400" y="360">UNREGISTERED</text><text fill="#eeeeee" stroke="none" font-family="Arial" font-size="24px" font-style="normal" font-weight="normal" text-decoration="none" x="400" y="390">UNREGISTERED</text><text fill="#eeeeee" stroke="none" font-family="Arial" font-size="24px" font-style="normal" font-weight="normal" text-decoration="none" x="400" y="420">UNREGISTERED</text><text fill="#eeeeee" stroke="none" font-family="Arial" font-size="24px" font-style="normal" font-weight="normal" text-decoration="none" x="400" y="450">UNREGISTERED</text><text fill="#eeeeee" stroke="none" font-family="Arial" font-size="24px" font-style="normal" font-weight="normal" text-decoration="none" x="400" y="480">UNREGISTERED</text><text fill="#eeeeee" stroke="none" font-family="Arial" font-size="24px" font-style="normal" font-weight="normal" text-decoration="none" x="400" y="510">UNREGISTERED</text><text fill="#eeeeee" stroke="none" font-family="Arial" font-size="24px" font-style="normal" font-weight="normal" text-decoration="none" x="400" y="540">UNREGISTERED</text><text fill="#eeeeee" stroke="none" font-family="Arial" font-size="24px" font-style="normal" font-weight="normal" text-decoration="none" x="400" y="570">UNREGISTERED</text><text fill="#eeeeee" stroke="none" font-family="Arial" font-size="24px" font-style="normal" font-weight="normal" text-decoration="none" x="400" y="600">UNREGISTERED</text><text fill="#eeeeee" stroke="none" font-family="Arial" font-size="24px" font-style="normal" font-weight="normal" text-decoration="none" x="600" y="0">UNREGISTERED</text><text fill="#eeeeee" stroke="none" font-family="Arial" font-size="24px" font-style="normal" font-weight="normal" text-decoration="none" x="600" y="30">UNREGISTERED</text><text fill="#eeeeee" stroke="none" font-family="Arial" font-size="24px" font-style="normal" font-weight="normal" text-decoration="none" x="600" y="60">UNREGISTERED</text><text fill="#eeeeee" stroke="none" font-family="Arial" font-size="24px" font-style="normal" font-weight="normal" text-decoration="none" x="600" y="90">UNREGISTERED</text><text fill="#eeeeee" stroke="none" font-family="Arial" font-size="24px" font-style="normal" font-weight="normal" text-decoration="none" x="600" y="120">UNREGISTERED</text><text fill="#eeeeee" stroke="none" font-family="Arial" font-size="24px" font-style="normal" font-weight="normal" text-decoration="none" x="600" y="150">UNREGISTERED</text><text fill="#eeeeee" stroke="none" font-family="Arial" font-size="24px" font-style="normal" font-weight="normal" text-decoration="none" x="600" y="180">UNREGISTERED</text><text fill="#eeeeee" stroke="none" font-family="Arial" font-size="24px" font-style="normal" font-weight="normal" text-decoration="none" x="600" y="210">UNREGISTERED</text><text fill="#eeeeee" stroke="none" font-family="Arial" font-size="24px" font-style="normal" font-weight="normal" text-decoration="none" x="600" y="240">UNREGISTERED</text><text fill="#eeeeee" stroke="none" font-family="Arial" font-size="24px" font-style="normal" font-weight="normal" text-decoration="none" x="600" y="270">UNREGISTERED</text><text fill="#eeeeee" stroke="none" font-family="Arial" font-size="24px" font-style="normal" font-weight="normal" text-decoration="none" x="600" y="300">UNREGISTERED</text><text fill="#eeeeee" stroke="none" font-family="Arial" font-size="24px" font-style="normal" font-weight="normal" text-decoration="none" x="600" y="330">UNREGISTERED</text><text fill="#eeeeee" stroke="none" font-family="Arial" font-size="24px" font-style="normal" font-weight="normal" text-decoration="none" x="600" y="360">UNREGISTERED</text><text fill="#eeeeee" stroke="none" font-family="Arial" font-size="24px" font-style="normal" font-weight="normal" text-decoration="none" x="600" y="390">UNREGISTERED</text><text fill="#eeeeee" stroke="none" font-family="Arial" font-size="24px" font-style="normal" font-weight="normal" text-decoration="none" x="600" y="420">UNREGISTERED</text><text fill="#eeeeee" stroke="none" font-family="Arial" font-size="24px" font-style="normal" font-weight="normal" text-decoration="none" x="600" y="450">UNREGISTERED</text><text fill="#eeeeee" stroke="none" font-family="Arial" font-size="24px" font-style="normal" font-weight="normal" text-decoration="none" x="600" y="480">UNREGISTERED</text><text fill="#eeeeee" stroke="none" font-family="Arial" font-size="24px" font-style="normal" font-weight="normal" text-decoration="none" x="600" y="510">UNREGISTERED</text><text fill="#eeeeee" stroke="none" font-family="Arial" font-size="24px" font-style="normal" font-weight="normal" text-decoration="none" x="600" y="540">UNREGISTERED</text><text fill="#eeeeee" stroke="none" font-family="Arial" font-size="24px" font-style="normal" font-weight="normal" text-decoration="none" x="600" y="570">UNREGISTERED</text><text fill="#eeeeee" stroke="none" font-family="Arial" font-size="24px" font-style="normal" font-weight="normal" text-decoration="none" x="600" y="600">UNREGISTERED</text><text fill="#eeeeee" stroke="none" font-family="Arial" font-size="24px" font-style="normal" font-weight="normal" text-decoration="none" x="800" y="0">UNREGISTERED</text><text fill="#eeeeee" stroke="none" font-family="Arial" font-size="24px" font-style="normal" font-weight="normal" text-decoration="none" x="800" y="30">UNREGISTERED</text><text fill="#eeeeee" stroke="none" font-family="Arial" font-size="24px" font-style="normal" font-weight="normal" text-decoration="none" x="800" y="60">UNREGISTERED</text><text fill="#eeeeee" stroke="none" font-family="Arial" font-size="24px" font-style="normal" font-weight="normal" text-decoration="none" x="800" y="90">UNREGISTERED</text><text fill="#eeeeee" stroke="none" font-family="Arial" font-size="24px" font-style="normal" font-weight="normal" text-decoration="none" x="800" y="120">UNREGISTERED</text><text fill="#eeeeee" stroke="none" font-family="Arial" font-size="24px" font-style="normal" font-weight="normal" text-decoration="none" x="800" y="150">UNREGISTERED</text><text fill="#eeeeee" stroke="none" font-family="Arial" font-size="24px" font-style="normal" font-weight="normal" text-decoration="none" x="800" y="180">UNREGISTERED</text><text fill="#eeeeee" stroke="none" font-family="Arial" font-size="24px" font-style="normal" font-weight="normal" text-decoration="none" x="800" y="210">UNREGISTERED</text><text fill="#eeeeee" stroke="none" font-family="Arial" font-size="24px" font-style="normal" font-weight="normal" text-decoration="none" x="800" y="240">UNREGISTERED</text><text fill="#eeeeee" stroke="none" font-family="Arial" font-size="24px" font-style="normal" font-weight="normal" text-decoration="none" x="800" y="270">UNREGISTERED</text><text fill="#eeeeee" stroke="none" font-family="Arial" font-size="24px" font-style="normal" font-weight="normal" text-decoration="none" x="800" y="300">UNREGISTERED</text><text fill="#eeeeee" stroke="none" font-family="Arial" font-size="24px" font-style="normal" font-weight="normal" text-decoration="none" x="800" y="330">UNREGISTERED</text><text fill="#eeeeee" stroke="none" font-family="Arial" font-size="24px" font-style="normal" font-weight="normal" text-decoration="none" x="800" y="360">UNREGISTERED</text><text fill="#eeeeee" stroke="none" font-family="Arial" font-size="24px" font-style="normal" font-weight="normal" text-decoration="none" x="800" y="390">UNREGISTERED</text><text fill="#eeeeee" stroke="none" font-family="Arial" font-size="24px" font-style="normal" font-weight="normal" text-decoration="none" x="800" y="420">UNREGISTERED</text><text fill="#eeeeee" stroke="none" font-family="Arial" font-size="24px" font-style="normal" font-weight="normal" text-decoration="none" x="800" y="450">UNREGISTERED</text><text fill="#eeeeee" stroke="none" font-family="Arial" font-size="24px" font-style="normal" font-weight="normal" text-decoration="none" x="800" y="480">UNREGISTERED</text><text fill="#eeeeee" stroke="none" font-family="Arial" font-size="24px" font-style="normal" font-weight="normal" text-decoration="none" x="800" y="510">UNREGISTERED</text><text fill="#eeeeee" stroke="none" font-family="Arial" font-size="24px" font-style="normal" font-weight="normal" text-decoration="none" x="800" y="540">UNREGISTERED</text><text fill="#eeeeee" stroke="none" font-family="Arial" font-size="24px" font-style="normal" font-weight="normal" text-decoration="none" x="800" y="570">UNREGISTERED</text><text fill="#eeeeee" stroke="none" font-family="Arial" font-size="24px" font-style="normal" font-weight="normal" text-decoration="none" x="800" y="600">UNREGISTERED</text><g transform="translate(-126,-142) scale(1,1)"><path fill="#C0C0C0" stroke="none" d="M 143 280.5 C 143 275.2532944 147.2532944 271 152.5 271 C 157.7467056 271 162 275.2532944 162 280.5 C 162 285.7467056 157.7467056 290 152.5 290 C 147.2532944 290 143 285.7467056 143 280.5 Z" opacity="0.2"/></g><g transform="translate(-126,-142) scale(1,1)"><path fill="#000000" stroke="none" d="M 136 273.5 C 136 268.2532944 140.2532944 264 145.5 264 C 150.7467056 264 155 268.2532944 155 273.5 C 155 278.7467056 150.7467056 283 145.5 283 C 140.2532944 283 136 278.7467056 136 273.5 Z"/></g><g transform="translate(-126,-142) scale(1,1)"><path fill="#C0C0C0" stroke="none" d="M 729 255 L 924.63525390625 255 Q 934.63525390625 255 934.63525390625 265 L 934.63525390625 292 Q 934.63525390625 302 924.63525390625 302 L 729 302 Q 719 302 719 292 L 719 265 Q 719 255 729 255 Z" opacity="0.2"/></g><g transform="translate(-126,-142) scale(1,1)"><path fill="#ffffff" stroke="none" d="M 722 248 L 917.63525390625 248 Q 927.63525390625 248 927.63525390625 258 L 927.63525390625 285 Q 927.63525390625 295 917.63525390625 295 L 722 295 Q 712 295 712 285 L 712 258 Q 712 248 722 248 Z"/></g><g transform="translate(-126,-142) scale(1,1)"><path fill="none" stroke="#000000" d="M 722 248 L 917.63525390625 248 Q 927.63525390625 248 927.63525390625 258 L 927.63525390625 285 Q 927.63525390625 295 917.63525390625 295 L 722 295 Q 712 295 712 285 L 712 258 Q 712 248 722 248 Z" stroke-miterlimit="10"/></g><g transform="translate(-126,-142) scale(1,1)"><path fill="none" stroke="#000000" d="M 712 273 L 927.63525390625 273" stroke-miterlimit="10"/></g><g transform="translate(-126,-142) scale(1,1)"><g><path fill="none" stroke="none"/><text fill="#000000" stroke="none" font-family="Arial" font-size="13px" font-style="normal" font-weight="bold" text-decoration="none" x="745.784912109375" y="266">Confere disponibilidade</text></g></g><g transform="translate(-126,-142) scale(1,1)"><g><path fill="none" stroke="none"/><text fill="#000000" stroke="none" font-family="Arial" font-size="13px" font-style="normal" font-weight="normal" text-decoration="none" x="717" y="289">do/DisponibilidadeSala</text></g></g><g transform="translate(-126,-142) scale(1,1)"><path fill="#C0C0C0" stroke="none" d="M 401 255 L 548.21533203125 255 Q 558.21533203125 255 558.21533203125 265 L 558.21533203125 292 Q 558.21533203125 302 548.21533203125 302 L 401 302 Q 391 302 391 292 L 391 265 Q 391 255 401 255 Z" opacity="0.2"/></g><g transform="translate(-126,-142) scale(1,1)"><path fill="#ffffff" stroke="none" d="M 394 248 L 541.21533203125 248 Q 551.21533203125 248 551.21533203125 258 L 551.21533203125 285 Q 551.21533203125 295 541.21533203125 295 L 394 295 Q 384 295 384 285 L 384 258 Q 384 248 394 248 Z"/></g><g transform="translate(-126,-142) scale(1,1)"><path fill="none" stroke="#000000" d="M 394 248 L 541.21533203125 248 Q 551.21533203125 248 551.21533203125 258 L 551.21533203125 285 Q 551.21533203125 295 541.21533203125 295 L 394 295 Q 384 295 384 285 L 384 258 Q 384 248 394 248 Z" stroke-miterlimit="10"/></g><g transform="translate(-126,-142) scale(1,1)"><path fill="none" stroke="#000000" d="M 384 273 L 551.21533203125 273" stroke-miterlimit="10"/></g><g transform="translate(-126,-142) scale(1,1)"><g><path fill="none" stroke="none"/><text fill="#000000" stroke="none" font-family="Arial" font-size="13px" font-style="normal" font-weight="bold" text-decoration="none" x="388.5" y="266">Escolha de data e horário</text></g></g><g transform="translate(-126,-142) scale(1,1)"><g><path fill="none" stroke="none"/><text fill="#000000" stroke="none" font-family="Arial" font-size="13px" font-style="normal" font-weight="normal" text-decoration="none" x="389" y="289">do/EscolhaDataHorario</text></g></g><g transform="translate(-126,-142) scale(1,1)"><path fill="none" stroke="#000000" d="M 552 271 L 711 271" stroke-miterlimit="10"/></g><g transform="translate(-126,-142) scale(1,1)"><path fill="none" stroke="#000000" d="M 700.8373251423759 275.209517756016 L 711 271 L 700.8373251423758 266.790482243984" stroke-miterlimit="10"/></g><g transform="translate(-126,-142) scale(1,1)"><g><path fill="none" stroke="none"/><text fill="#000000" stroke="none" font-family="Arial" font-size="13px" font-style="normal" font-weight="normal" text-decoration="none" x="564.5" y="261">confere sala disponível</text></g></g><g transform="translate(-126,-142) scale(1,1)"><path fill="none" stroke="#000000" d="M 156 273 L 383 272" stroke-miterlimit="10"/></g><g transform="translate(-126,-142) scale(1,1)"><path fill="none" stroke="#000000" d="M 372.85596770330574 276.25424596886734 L 383 272 L 372.81887980101055 267.83529214785375" stroke-miterlimit="10"/></g><g transform="translate(-126,-142) scale(1,1)"><g><path fill="none" stroke="none"/><text fill="#000000" stroke="none" font-family="Arial" font-size="13px" font-style="normal" font-weight="normal" text-decoration="none" x="173.5" y="262">recebe escolha de data e horário</text></g></g><g transform="translate(-126,-142) scale(1,1)"><path fill="#C0C0C0" stroke="none" d="M 713 415 L 936.076171875 415 Q 946.076171875 415 946.076171875 425 L 946.076171875 452 Q 946.076171875 462 936.076171875 462 L 713 462 Q 703 462 703 452 L 703 425 Q 703 415 713 415 Z" opacity="0.2"/></g><g transform="translate(-126,-142) scale(1,1)"><path fill="#ffffff" stroke="none" d="M 706 408 L 929.076171875 408 Q 939.076171875 408 939.076171875 418 L 939.076171875 445 Q 939.076171875 455 929.076171875 455 L 706 455 Q 696 455 696 445 L 696 418 Q 696 408 706 408 Z"/></g><g transform="translate(-126,-142) scale(1,1)"><path fill="none" stroke="#000000" d="M 706 408 L 929.076171875 408 Q 939.076171875 408 939.076171875 418 L 939.076171875 445 Q 939.076171875 455 929.076171875 455 L 706 455 Q 696 455 696 445 L 696 418 Q 696 408 706 408 Z" stroke-miterlimit="10"/></g><g transform="translate(-126,-142) scale(1,1)"><path fill="none" stroke="#000000" d="M 696 433 L 939.076171875 433" stroke-miterlimit="10"/></g><g transform="translate(-126,-142) scale(1,1)"><g><path fill="none" stroke="none"/><text fill="#000000" stroke="none" font-family="Arial" font-size="13px" font-style="normal" font-weight="bold" text-decoration="none" x="702.30908203125" y="426">Apresenta número da sala disponível</text></g></g><g transform="translate(-126,-142) scale(1,1)"><g><path fill="none" stroke="none"/><text fill="#000000" stroke="none" font-family="Arial" font-size="13px" font-style="normal" font-weight="normal" text-decoration="none" x="701" y="449">do/ApresentaNumero</text></g></g><g transform="translate(-126,-142) scale(1,1)"><path fill="none" stroke="#000000" d="M 819 296 L 817 407" stroke-miterlimit="10"/></g><g transform="translate(-126,-142) scale(1,1)"><path fill="none" stroke="#000000" d="M 812.9742469279515 396.763139533876 L 817 407 L 821.3919161570287 396.91480924971523" stroke-miterlimit="10"/></g><g transform="translate(-126,-142) scale(1,1)"><g><path fill="none" stroke="none"/><text fill="#000000" stroke="none" font-family="Arial" font-size="13px" font-style="normal" font-weight="normal" text-decoration="none" x="718.5" y="356">se disponível / confirma disponibilidade</text></g></g><g transform="translate(-126,-142) scale(1,1)"><path fill="none" stroke="#000000" d="M 818 247 L 816 152 L 464 152 L 466 247" stroke-miterlimit="10"/></g><g transform="translate(-126,-142) scale(1,1)"><path fill="none" stroke="#000000" d="M 461.577511138714 236.92817830420924 L 466 247 L 469.99468155645815 236.75097471646728" stroke-miterlimit="10"/></g><g transform="translate(-126,-142) scale(1,1)"><g><path fill="none" stroke="none"/><text fill="#000000" stroke="none" font-family="Arial" font-size="13px" font-style="normal" font-weight="normal" text-decoration="none" x="510.5" y="172">se indisponível / escolhe nova data e horário</text></g></g><g transform="translate(-126,-142) scale(1,1)"><path fill="#C0C0C0" stroke="none" d="M 769 567 L 888.75537109375 567 Q 898.75537109375 567 898.75537109375 577 L 898.75537109375 631 Q 898.75537109375 641 888.75537109375 641 L 769 641 Q 759 641 759 631 L 759 577 Q 759 567 769 567 Z" opacity="0.2"/></g><g transform="translate(-126,-142) scale(1,1)"><path fill="#ffffff" stroke="none" d="M 762 560 L 881.75537109375 560 Q 891.75537109375 560 891.75537109375 570 L 891.75537109375 624 Q 891.75537109375 634 881.75537109375 634 L 762 634 Q 752 634 752 624 L 752 570 Q 752 560 762 560 Z"/></g><g transform="translate(-126,-142) scale(1,1)"><path fill="none" stroke="#000000" d="M 762 560 L 881.75537109375 560 Q 891.75537109375 560 891.75537109375 570 L 891.75537109375 624 Q 891.75537109375 634 881.75537109375 634 L 762 634 Q 752 634 752 624 L 752 570 Q 752 560 762 560 Z" stroke-miterlimit="10"/></g><g transform="translate(-126,-142) scale(1,1)"><path fill="none" stroke="#000000" d="M 752 585 L 891.75537109375 585" stroke-miterlimit="10"/></g><g transform="translate(-126,-142) scale(1,1)"><g><path fill="none" stroke="none"/><text fill="#000000" stroke="none" font-family="Arial" font-size="13px" font-style="normal" font-weight="bold" text-decoration="none" x="765.54541015625" y="578">Aluguel concluído</text></g></g><g transform="translate(-126,-142) scale(1,1)"><path fill="none" stroke="#000000" d="M 818 456 L 820 559" stroke-miterlimit="10"/></g><g transform="translate(-126,-142) scale(1,1)"><path fill="none" stroke="#000000" d="M 815.5939792927427 548.9209632639215 L 820 559 L 824.0114281037595 548.7575176559405" stroke-miterlimit="10"/></g><g transform="translate(-126,-142) scale(1,1)"><g><path fill="none" stroke="none"/><text fill="#000000" stroke="none" font-family="Arial" font-size="13px" font-style="normal" font-weight="normal" text-decoration="none" x="778.5" y="511">recebe pagamento</text></g></g><g transform="translate(-126,-142) scale(1,1)"><path fill="#C0C0C0" stroke="none" d="M 815 739.5 C 815 732.59644 820.59644 727 827.5 727 C 834.40356 727 840 732.59644 840 739.5 C 840 746.40356 834.40356 752 827.5 752 C 820.59644 752 815 746.40356 815 739.5 Z" opacity="0.2"/></g><g transform="translate(-126,-142) scale(1,1)"><path fill="none" stroke="#000000" d="M 808 732.5 C 808 725.59644 813.59644 720 820.5 720 C 827.40356 720 833 725.59644 833 732.5 C 833 739.40356 827.40356 745 820.5 745 C 813.59644 745 808 739.40356 808 732.5 Z" stroke-miterlimit="10"/></g><g transform="translate(-126,-142) scale(1,1)"><path fill="#000000" stroke="none" d="M 813 732.5 C 813 728.357864 816.357864 725 820.5 725 C 824.642136 725 828 728.357864 828 732.5 C 828 736.642136 824.642136 740 820.5 740 C 816.357864 740 813 736.642136 813 732.5 Z"/></g><g transform="translate(-126,-142) scale(1,1)"><path fill="none" stroke="#000000" d="M 821 635 L 820 719" stroke-miterlimit="10"/></g><g transform="translate(-126,-142) scale(1,1)"><path fill="none" stroke="#000000" d="M 815.9117561580347 708.7879354541487 L 820 719 L 824.3301951464883 708.888154965916" stroke-miterlimit="10"/></g></g></svg>