<svg version="1.1" xmlns="http://www.w3.org/2000/svg" xmlns:xlink="http://www.w3.org/1999/xlink" width="1294.6142578125" height="533"><defs/><g><text fill="#eeeeee" stroke="none" font-family="Arial" font-size="24px" font-style="normal" font-weight="normal" text-decoration="none" x="0" y="0">UNREGISTERED</text><text fill="#eeeeee" stroke="none" font-family="Arial" font-size="24px" font-style="normal" font-weight="normal" text-decoration="none" x="0" y="30">UNREGISTERED</text><text fill="#eeeeee" stroke="none" font-family="Arial" font-size="24px" font-style="normal" font-weight="normal" text-decoration="none" x="0" y="60">UNREGISTERED</text><text fill="#eeeeee" stroke="none" font-family="Arial" font-size="24px" font-style="normal" font-weight="normal" text-decoration="none" x="0" y="90">UNREGISTERED</text><text fill="#eeeeee" stroke="none" font-family="Arial" font-size="24px" font-style="normal" font-weight="normal" text-decoration="none" x="0" y="120">UNREGISTERED</text><text fill="#eeeeee" stroke="none" font-family="Arial" font-size="24px" font-style="normal" font-weight="normal" text-decoration="none" x="0" y="150">UNREGISTERED</text><text fill="#eeeeee" stroke="none" font-family="Arial" font-size="24px" font-style="normal" font-weight="normal" text-decoration="none" x="0" y="180">UNREGISTERED</text><text fill="#eeeeee" stroke="none" font-family="Arial" font-size="24px" font-style="normal" font-weight="normal" text-decoration="none" x="0" y="210">UNREGISTERED</text><text fill="#eeeeee" stroke="none" font-family="Arial" font-size="24px" font-style="normal" font-weight="normal" text-decoration="none" x="0" y="240">UNREGISTERED</text><text fill="#eeeeee" stroke="none" font-family="Arial" font-size="24px" font-style="normal" font-weight="normal" text-decoration="none" x="0" y="270">UNREGISTERED</text><text fill="#eeeeee" stroke="none" font-family="Arial" font-size="24px" font-style="normal" font-weight="normal" text-decoration="none" x="0" y="300">UNREGISTERED</text><text fill="#eeeeee" stroke="none" font-family="Arial" font-size="24px" font-style="normal" font-weight="normal" text-decoration="none" x="0" y="330">UNREGISTERED</text><text fill="#eeeeee" stroke="none" font-family="Arial" font-size="24px" font-style="normal" font-weight="normal" text-decoration="none" x="0" y="360">UNREGISTERED</text><text fill="#eeeeee" stroke="none" font-family="Arial" font-size="24px" font-style="normal" font-weight="normal" text-decoration="none" x="0" y="390">UNREGISTERED</text><text fill="#eeeeee" stroke="none" font-family="Arial" font-size="24px" font-style="normal" font-weight="normal" text-decoration="none" x="0" y="420">UNREGISTERED</text><text fill="#eeeeee" stroke="none" font-family="Arial" font-size="24px" font-style="normal" font-weight="normal" text-decoration="none" x="0" y="450">UNREGISTERED</text><text fill="#eeeeee" stroke="none" font-family="Arial" font-size="24px" font-style="normal" font-weight="normal" text-decoration="none" x="0" y="480">UNREGISTERED</text><text fill="#eeeeee" stroke="none" font-family="Arial" font-size="24px" font-style="normal" font-weight="normal" text-decoration="none" x="0" y="510">UNREGISTERED</text><text fill="#eeeeee" stroke="none" font-family="Arial" font-size="24px" font-style="normal" font-weight="normal" text-decoration="none" x="200" y="0">UNREGISTERED</text><text fill="#eeeeee" stroke="none" font-family="Arial" font-size="24px" font-style="normal" font-weight="normal" text-decoration="none" x="200" y="30">UNREGISTERED</text><text fill="#eeeeee" stroke="none" font-family="Arial" font-size="24px" font-style="normal" font-weight="normal" text-decoration="none" x="200" y="60">UNREGISTERED</text><text fill="#eeeeee" stroke="none" font-family="Arial" font-size="24px" font-style="normal" font-weight="normal" text-decoration="none" x="200" y="90">UNREGISTERED</text><text fill="#eeeeee" stroke="none" font-family="Arial" font-size="24px" font-style="normal" font-weight="normal" text-decoration="none" x="200" y="120">UNREGISTERED</text><text fill="#eeeeee" stroke="none" font-family="Arial" font-size="24px" font-style="normal" font-weight="normal" text-decoration="none" x="200" y="150">UNREGISTERED</text><text fill="#eeeeee" stroke="none" font-family="Arial" font-size="24px" font-style="normal" font-weight="normal" text-decoration="none" x="200" y="180">UNREGISTERED</text><text fill="#eeeeee" stroke="none" font-family="Arial" font-size="24px" font-style="normal" font-weight="normal" text-decoration="none" x="200" y="210">UNREGISTERED</text><text fill="#eeeeee" stroke="none" font-family="Arial" font-size="24px" font-style="normal" font-weight="normal" text-decoration="none" x="200" y="240">UNREGISTERED</text><text fill="#eeeeee" stroke="none" font-family="Arial" font-size="24px" font-style="normal" font-weight="normal" text-decoration="none" x="200" y="270">UNREGISTERED</text><text fill="#eeeeee" stroke="none" font-family="Arial" font-size="24px" font-style="normal" font-weight="normal" text-decoration="none" x="200" y="300">UNREGISTERED</text><text fill="#eeeeee" stroke="none" font-family="Arial" font-size="24px" font-style="normal" font-weight="normal" text-decoration="none" x="200" y="330">UNREGISTERED</text><text fill="#eeeeee" stroke="none" font-family="Arial" font-size="24px" font-style="normal" font-weight="normal" text-decoration="none" x="200" y="360">UNREGISTERED</text><text fill="#eeeeee" stroke="none" font-family="Arial" font-size="24px" font-style="normal" font-weight="normal" text-decoration="none" x="200" y="390">UNREGISTERED</text><text fill="#eeeeee" stroke="none" font-family="Arial" font-size="24px" font-style="normal" font-weight="normal" text-decoration="none" x="200" y="420">UNREGISTERED</text><text fill="#eeeeee" stroke="none" font-family="Arial" font-size="24px" font-style="normal" font-weight="normal" text-decoration="none" x="200" y="450">UNREGISTERED</text><text fill="#eeeeee" stroke="none" font-family="Arial" font-size="24px" font-style="normal" font-weight="normal" text-decoration="none" x="200" y="480">UNREGISTERED</text><text fill="#eeeeee" stroke="none" font-family="Arial" font-size="24px" font-style="normal" font-weight="normal" text-decoration="none" x="200" y="510">UNREGISTERED</text><text fill="#eeeeee" stroke="none" font-family="Arial" font-size="24px" font-style="normal" font-weight="normal" text-decoration="none" x="400" y="0">UNREGISTERED</text><text fill="#eeeeee" stroke="none" font-family="Arial" font-size="24px" font-style="normal" font-weight="normal" text-decoration="none" x="400" y="30">UNREGISTERED</text><text fill="#eeeeee" stroke="none" font-family="Arial" font-size="24px" font-style="normal" font-weight="normal" text-decoration="none" x="400" y="60">UNREGISTERED</text><text fill="#eeeeee" stroke="none" font-family="Arial" font-size="24px" font-style="normal" font-weight="normal" text-decoration="none" x="400" y="90">UNREGISTERED</text><text fill="#eeeeee" stroke="none" font-family="Arial" font-size="24px" font-style="normal" font-weight="normal" text-decoration="none" x="400" y="120">UNREGISTERED</text><text fill="#eeeeee" stroke="none" font-family="Arial" font-size="24px" font-style="normal" font-weight="normal" text-decoration="none" x="400" y="150">UNREGISTERED</text><text fill="#eeeeee" stroke="none" font-family="Arial" font-size="24px" font-style="normal" font-weight="normal" text-decoration="none" x="400" y="180">UNREGISTERED</text><text fill="#eeeeee" stroke="none" font-family="Arial" font-size="24px" font-style="normal" font-weight="normal" text-decoration="none" x="400" y="210">UNREGISTERED</text><text fill="#eeeeee" stroke="none" font-family="Arial" font-size="24px" font-style="normal" font-weight="normal" text-decoration="none" x="400" y="240">UNREGISTERED</text><text fill="#eeeeee" stroke="none" font-family="Arial" font-size="24px" font-style="normal" font-weight="normal" text-decoration="none" x="400" y="270">UNREGISTERED</text><text fill="#eeeeee" stroke="none" font-family="Arial" font-size="24px" font-style="normal" font-weight="normal" text-decoration="none" x="400" y="300">UNREGISTERED</text><text fill="#eeeeee" stroke="none" font-family="Arial" font-size="24px" font-style="normal" font-weight="normal" text-decoration="none" x="400" y="330">UNREGISTERED</text><text fill="#eeeeee" stroke="none" font-family="Arial" font-size="24px" font-style="normal" font-weight="normal" text-decoration="none" x="400" y="360">UNREGISTERED</text><text fill="#eeeeee" stroke="none" font-family="Arial" font-size="24px" font-style="normal" font-weight="normal" text-decoration="none" x="400" y="390">UNREGISTERED</text><text fill="#eeeeee" stroke="none" font-family="Arial" font-size="24px" font-style="normal" font-weight="normal" text-decoration="none" x="400" y="420">UNREGISTERED</text><text fill="#eeeeee" stroke="none" font-family="Arial" font-size="24px" font-style="normal" font-weight="normal" text-decoration="none" x="400" y="450">UNREGISTERED</text><text fill="#eeeeee" stroke="none" font-family="Arial" font-size="24px" font-style="normal" font-weight="normal" text-decoration="none" x="400" y="480">UNREGISTERED</text><text fill="#eeeeee" stroke="none" font-family="Arial" font-size="24px" font-style="normal" font-weight="normal" text-decoration="none" x="400" y="510">UNREGISTERED</text><text fill="#eeeeee" stroke="none" font-family="Arial" font-size="24px" font-style="normal" font-weight="normal" text-decoration="none" x="600" y="0">UNREGISTERED</text><text fill="#eeeeee" stroke="none" font-family="Arial" font-size="24px" font-style="normal" font-weight="normal" text-decoration="none" x="600" y="30">UNREGISTERED</text><text fill="#eeeeee" stroke="none" font-family="Arial" font-size="24px" font-style="normal" font-weight="normal" text-decoration="none" x="600" y="60">UNREGISTERED</text><text fill="#eeeeee" stroke="none" font-family="Arial" font-size="24px" font-style="normal" font-weight="normal" text-decoration="none" x="600" y="90">UNREGISTERED</text><text fill="#eeeeee" stroke="none" font-family="Arial" font-size="24px" font-style="normal" font-weight="normal" text-decoration="none" x="600" y="120">UNREGISTERED</text><text fill="#eeeeee" stroke="none" font-family="Arial" font-size="24px" font-style="normal" font-weight="normal" text-decoration="none" x="600" y="150">UNREGISTERED</text><text fill="#eeeeee" stroke="none" font-family="Arial" font-size="24px" font-style="normal" font-weight="normal" text-decoration="none" x="600" y="180">UNREGISTERED</text><text fill="#eeeeee" stroke="none" font-family="Arial" font-size="24px" font-style="normal" font-weight="normal" text-decoration="none" x="600" y="210">UNREGISTERED</text><text fill="#eeeeee" stroke="none" font-family="Arial" font-size="24px" font-style="normal" font-weight="normal" text-decoration="none" x="600" y="240">UNREGISTERED</text><text fill="#eeeeee" stroke="none" font-family="Arial" font-size="24px" font-style="normal" font-weight="normal" text-decoration="none" x="600" y="270">UNREGISTERED</text><text fill="#eeeeee" stroke="none" font-family="Arial" font-size="24px" font-style="normal" font-weight="normal" text-decoration="none" x="600" y="300">UNREGISTERED</text><text fill="#eeeeee" stroke="none" font-family="Arial" font-size="24px" font-style="normal" font-weight="normal" text-decoration="none" x="600" y="330">UNREGISTERED</text><text fill="#eeeeee" stroke="none" font-family="Arial" font-size="24px" font-style="normal" font-weight="normal" text-decoration="none" x="600" y="360">UNREGISTERED</text><text fill="#eeeeee" stroke="none" font-family="Arial" font-size="24px" font-style="normal" font-weight="normal" text-decoration="none" x="600" y="390">UNREGISTERED</text><text fill="#eeeeee" stroke="none" font-family="Arial" font-size="24px" font-style="normal" font-weight="normal" text-decoration="none" x="600" y="420">UNREGISTERED</text><text fill="#eeeeee" stroke="none" font-family="Arial" font-size="24px" font-style="normal" font-weight="normal" text-decoration="none" x="600" y="450">UNREGISTERED</text><text fill="#eeeeee" stroke="none" font-family="Arial" font-size="24px" font-style="normal" font-weight="normal" text-decoration="none" x="600" y="480">UNREGISTERED</text><text fill="#eeeeee" stroke="none" font-family="Arial" font-size="24px" font-style="normal" font-weight="normal" text-decoration="none" x="600" y="510">UNREGISTERED</text><text fill="#eeeeee" stroke="none" font-family="Arial" font-size="24px" font-style="normal" font-weight="normal" text-decoration="none" x="800" y="0">UNREGISTERED</text><text fill="#eeeeee" stroke="none" font-family="Arial" font-size="24px" font-style="normal" font-weight="normal" text-decoration="none" x="800" y="30">UNREGISTERED</text><text fill="#eeeeee" stroke="none" font-family="Arial" font-size="24px" font-style="normal" font-weight="normal" text-decoration="none" x="800" y="60">UNREGISTERED</text><text fill="#eeeeee" stroke="none" font-family="Arial" font-size="24px" font-style="normal" font-weight="normal" text-decoration="none" x="800" y="90">UNREGISTERED</text><text fill="#eeeeee" stroke="none" font-family="Arial" font-size="24px" font-style="normal" font-weight="normal" text-decoration="none" x="800" y="120">UNREGISTERED</text><text fill="#eeeeee" stroke="none" font-family="Arial" font-size="24px" font-style="normal" font-weight="normal" text-decoration="none" x="800" y="150">UNREGISTERED</text><text fill="#eeeeee" stroke="none" font-family="Arial" font-size="24px" font-style="normal" font-weight="normal" text-decoration="none" x="800" y="180">UNREGISTERED</text><text fill="#eeeeee" stroke="none" font-family="Arial" font-size="24px" font-style="normal" font-weight="normal" text-decoration="none" x="800" y="210">UNREGISTERED</text><text fill="#eeeeee" stroke="none" font-family="Arial" font-size="24px" font-style="normal" font-weight="normal" text-decoration="none" x="800" y="240">UNREGISTERED</text><text fill="#eeeeee" stroke="none" font-family="Arial" font-size="24px" font-style="normal" font-weight="normal" text-decoration="none" x="800" y="270">UNREGISTERED</text><text fill="#eeeeee" stroke="none" font-family="Arial" font-size="24px" font-style="normal" font-weight="normal" text-decoration="none" x="800" y="300">UNREGISTERED</text><text fill="#eeeeee" stroke="none" font-family="Arial" font-size="24px" font-style="normal" font-weight="normal" text-decoration="none" x="800" y="330">UNREGISTERED</text><text fill="#eeeeee" stroke="none" font-family="Arial" font-size="24px" font-style="normal" font-weight="normal" text-decoration="none" x="800" y="360">UNREGISTERED</text><text fill="#eeeeee" stroke="none" font-family="Arial" font-size="24px" font-style="normal" font-weight="normal" text-decoration="none" x="800" y="390">UNREGISTERED</text><text fill="#eeeeee" stroke="none" font-family="Arial" font-size="24px" font-style="normal" font-weight="normal" text-decoration="none" x="800" y="420">UNREGISTERED</text><text fill="#eeeeee" stroke="none" font-family="Arial" font-size="24px" font-style="normal" font-weight="normal" text-decoration="none" x="800" y="450">UNREGISTERED</text><text fill="#eeeeee" stroke="none" font-family="Arial" font-size="24px" font-style="normal" font-weight="normal" text-decoration="none" x="800" y="480">UNREGISTERED</text><text fill="#eeeeee" stroke="none" font-family="Arial" font-size="24px" font-style="normal" font-weight="normal" text-decoration="none" x="800" y="510">UNREGISTERED</text><text fill="#eeeeee" stroke="none" font-family="Arial" font-size="24px" font-style="normal" font-weight="normal" text-decoration="none" x="1000" y="0">UNREGISTERED</text><text fill="#eeeeee" stroke="none" font-family="Arial" font-size="24px" font-style="normal" font-weight="normal" text-decoration="none" x="1000" y="30">UNREGISTERED</text><text fill="#eeeeee" stroke="none" font-family="Arial" font-size="24px" font-style="normal" font-weight="normal" text-decoration="none" x="1000" y="60">UNREGISTERED</text><text fill="#eeeeee" stroke="none" font-family="Arial" font-size="24px" font-style="normal" font-weight="normal" text-decoration="none" x="1000" y="90">UNREGISTERED</text><text fill="#eeeeee" stroke="none" font-family="Arial" font-size="24px" font-style="normal" font-weight="normal" text-decoration="none" x="1000" y="120">UNREGISTERED</text><text fill="#eeeeee" stroke="none" font-family="Arial" font-size="24px" font-style="normal" font-weight="normal" text-decoration="none" x="1000" y="150">UNREGISTERED</text><text fill="#eeeeee" stroke="none" font-family="Arial" font-size="24px" font-style="normal" font-weight="normal" text-decoration="none" x="1000" y="180">UNREGISTERED</text><text fill="#eeeeee" stroke="none" font-family="Arial" font-size="24px" font-style="normal" font-weight="normal" text-decoration="none" x="1000" y="210">UNREGISTERED</text><text fill="#eeeeee" stroke="none" font-family="Arial" font-size="24px" font-style="normal" font-weight="normal" text-decoration="none" x="1000" y="240">UNREGISTERED</text><text fill="#eeeeee" stroke="none" font-family="Arial" font-size="24px" font-style="normal" font-weight="normal" text-decoration="none" x="1000" y="270">UNREGISTERED</text><text fill="#eeeeee" stroke="none" font-family="Arial" font-size="24px" font-style="normal" font-weight="normal" text-decoration="none" x="1000" y="300">UNREGISTERED</text><text fill="#eeeeee" stroke="none" font-family="Arial" font-size="24px" font-style="normal" font-weight="normal" text-decoration="none" x="1000" y="330">UNREGISTERED</text><text fill="#eeeeee" stroke="none" font-family="Arial" font-size="24px" font-style="normal" font-weight="normal" text-decoration="none" x="1000" y="360">UNREGISTERED</text><text fill="#eeeeee" stroke="none" font-family="Arial" font-size="24px" font-style="normal" font-weight="normal" text-decoration="none" x="1000" y="390">UNREGISTERED</text><text fill="#eeeeee" stroke="none" font-family="Arial" font-size="24px" font-style="normal" font-weight="normal" text-decoration="none" x="1000" y="420">UNREGISTERED</text><text fill="#eeeeee" stroke="none" font-family="Arial" font-size="24px" font-style="normal" font-weight="normal" text-decoration="none" x="1000" y="450">UNREGISTERED</text><text fill="#eeeeee" stroke="none" font-family="Arial" font-size="24px" font-style="normal" font-weight="normal" text-decoration="none" x="1000" y="480">UNREGISTERED</text><text fill="#eeeeee" stroke="none" font-family="Arial" font-size="24px" font-style="normal" font-weight="normal" text-decoration="none" x="1000" y="510">UNREGISTERED</text><text fill="#eeeeee" stroke="none" font-family="Arial" font-size="24px" font-style="normal" font-weight="normal" text-decoration="none" x="1200" y="0">UNREGISTERED</text><text fill="#eeeeee" stroke="none" font-family="Arial" font-size="24px" font-style="normal" font-weight="normal" text-decoration="none" x="1200" y="30">UNREGISTERED</text><text fill="#eeeeee" stroke="none" font-family="Arial" font-size="24px" font-style="normal" font-weight="normal" text-decoration="none" x="1200" y="60">UNREGISTERED</text><text fill="#eeeeee" stroke="none" font-family="Arial" font-size="24px" font-style="normal" font-weight="normal" text-decoration="none" x="1200" y="90">UNREGISTERED</text><text fill="#eeeeee" stroke="none" font-family="Arial" font-size="24px" font-style="normal" font-weight="normal" text-decoration="none" x="1200" y="120">UNREGISTERED</text><text fill="#eeeeee" stroke="none" font-family="Arial" font-size="24px" font-style="normal" font-weight="normal" text-decoration="none" x="1200" y="150">UNREGISTERED</text><text fill="#eeeeee" stroke="none" font-family="Arial" font-size="24px" font-style="normal" font-weight="normal" text-decoration="none" x="1200" y="180">UNREGISTERED</text><text fill="#eeeeee" stroke="none" font-family="Arial" font-size="24px" font-style="normal" font-weight="normal" text-decoration="none" x="1200" y="210">UNREGISTERED</text><text fill="#eeeeee" stroke="none" font-family="Arial" font-size="24px" font-style="normal" font-weight="normal" text-decoration="none" x="1200" y="240">UNREGISTERED</text><text fill="#eeeeee" stroke="none" font-family="Arial" font-size="24px" font-style="normal" font-weight="normal" text-decoration="none" x="1200" y="270">UNREGISTERED</text><text fill="#eeeeee" stroke="none" font-family="Arial" font-size="24px" font-style="normal" font-weight="normal" text-decoration="none" x="1200" y="300">UNREGISTERED</text><text fill="#eeeeee" stroke="none" font-family="Arial" font-size="24px" font-style="normal" font-weight="normal" text-decoration="none" x="1200" y="330">UNREGISTERED</text><text fill="#eeeeee" stroke="none" font-family="Arial" font-size="24px" font-style="normal" font-weight="normal" text-decoration="none" x="1200" y="360">UNREGISTERED</text><text fill="#eeeeee" stroke="none" font-family="Arial" font-size="24px" font-style="normal" font-weight="normal" text-decoration="none" x="1200" y="390">UNREGISTERED</text><text fill="#eeeeee" stroke="none" font-family="Arial" font-size="24px" font-style="normal" font-weight="normal" text-decoration="none" x="1200" y="420">UNREGISTERED</text><text fill="#eeeeee" stroke="none" font-family="Arial" font-size="24px" font-style="normal" font-weight="normal" text-decoration="none" x="1200" y="450">UNREGISTERED</text><text fill="#eeeeee" stroke="none" font-family="Arial" font-size="24px" font-style="normal" font-weight="normal" text-decoration="none" x="1200" y="480">UNREGISTERED</text><text fill="#eeeeee" stroke="none" font-family="Arial" font-size="24px" font-style="normal" font-weight="normal" text-decoration="none" x="1200" y="510">UNREGISTERED</text><g transform="translate(-6,-166) scale(1,1)"><path fill="#C0C0C0" stroke="none" d="M 23 312.5 C 23 307.2532944 27.2532944 303 32.5 303 C 37.7467056 303 42 307.2532944 42 312.5 C 42 317.7467056 37.7467056 322 32.5 322 C 27.2532944 322 23 317.7467056 23 312.5 Z" opacity="0.2"/></g><g transform="translate(-6,-166) scale(1,1)"><path fill="#000000" stroke="none" d="M 16 305.5 C 16 300.2532944 20.2532944 296 25.5 296 C 30.7467056 296 35 300.2532944 35 305.5 C 35 310.7467056 30.7467056 315 25.5 315 C 20.2532944 315 16 310.7467056 16 305.5 Z"/></g><g transform="translate(-6,-166) scale(1,1)"><path fill="#C0C0C0" stroke="none" d="M 87 495 L 243 495 Q 253 495 253 505 L 253 533 Q 253 543 243 543 L 87 543 Q 77 543 77 533 L 77 505 Q 77 495 87 495 Z" opacity="0.2"/></g><g transform="translate(-6,-166) scale(1,1)"><path fill="#ffffff" stroke="none" d="M 80 488 L 236 488 Q 246 488 246 498 L 246 526 Q 246 536 236 536 L 80 536 Q 70 536 70 526 L 70 498 Q 70 488 80 488 Z"/></g><g transform="translate(-6,-166) scale(1,1)"><path fill="none" stroke="#000000" d="M 80 488 L 236 488 Q 246 488 246 498 L 246 526 Q 246 536 236 536 L 80 536 Q 70 536 70 526 L 70 498 Q 70 488 80 488 Z" stroke-miterlimit="10"/></g><g transform="translate(-6,-166) scale(1,1)"><path fill="none" stroke="#000000" d="M 70 513 L 246 513" stroke-miterlimit="10"/></g><g transform="translate(-6,-166) scale(1,1)"><g><path fill="none" stroke="none"/><text fill="#000000" stroke="none" font-family="Arial" font-size="13px" font-style="normal" font-weight="bold" text-decoration="none" x="91.168701171875" y="506">Seleciona data e hora</text></g></g><g transform="translate(-6,-166) scale(1,1)"><g><path fill="none" stroke="none"/><text fill="#000000" stroke="none" font-family="Arial" font-size="13px" font-style="normal" font-weight="normal" text-decoration="none" x="75" y="529">do/SelecionaDataHorario</text></g></g><g transform="translate(-6,-166) scale(1,1)"><path fill="none" stroke="#000000" d="M 32 316 L 142 487" stroke-miterlimit="10"/></g><g transform="translate(-6,-166) scale(1,1)"><path fill="none" stroke="#000000" d="M 132.96164757428005 480.7303759739134 L 142 487 L 140.04221337335548 476.1756260446836" stroke-miterlimit="10"/></g><g transform="translate(-6,-166) scale(1,1)"><g><path fill="none" stroke="none"/><text fill="#000000" stroke="none" font-family="Arial" font-size="13px" font-style="normal" font-weight="normal" text-decoration="none" x="77.5" y="415">Escolha de data e horário para agendar sala</text></g></g><g transform="translate(-6,-166) scale(1,1)"><path fill="#C0C0C0" stroke="none" d="M 273 199 L 449.10986328125 199 Q 459.10986328125 199 459.10986328125 209 L 459.10986328125 236 Q 459.10986328125 246 449.10986328125 246 L 273 246 Q 263 246 263 236 L 263 209 Q 263 199 273 199 Z" opacity="0.2"/></g><g transform="translate(-6,-166) scale(1,1)"><path fill="#ffffff" stroke="none" d="M 266 192 L 442.10986328125 192 Q 452.10986328125 192 452.10986328125 202 L 452.10986328125 229 Q 452.10986328125 239 442.10986328125 239 L 266 239 Q 256 239 256 229 L 256 202 Q 256 192 266 192 Z"/></g><g transform="translate(-6,-166) scale(1,1)"><path fill="none" stroke="#000000" d="M 266 192 L 442.10986328125 192 Q 452.10986328125 192 452.10986328125 202 L 452.10986328125 229 Q 452.10986328125 239 442.10986328125 239 L 266 239 Q 256 239 256 229 L 256 202 Q 256 192 266 192 Z" stroke-miterlimit="10"/></g><g transform="translate(-6,-166) scale(1,1)"><path fill="none" stroke="#000000" d="M 256 217 L 452.10986328125 217" stroke-miterlimit="10"/></g><g transform="translate(-6,-166) scale(1,1)"><g><path fill="none" stroke="none"/><text fill="#000000" stroke="none" font-family="Arial" font-size="13px" font-style="normal" font-weight="bold" text-decoration="none" x="275.3154296875" y="210">Seleciona tipo de usuário</text></g></g><g transform="translate(-6,-166) scale(1,1)"><g><path fill="none" stroke="none"/><text fill="#000000" stroke="none" font-family="Arial" font-size="13px" font-style="normal" font-weight="normal" text-decoration="none" x="261" y="233">do/TipoDeUsuário</text></g></g><g transform="translate(-6,-166) scale(1,1)"><path fill="none" stroke="#000000" d="M 36 302 L 263 240" stroke-miterlimit="10"/></g><g transform="translate(-6,-166) scale(1,1)"><path fill="none" stroke="#000000" d="M 254.30552727786434 246.73840812685302 L 263 240 L 252.0873052984361 238.61685346023674" stroke-miterlimit="10"/></g><g transform="translate(-6,-166) scale(1,1)"><g><path fill="none" stroke="none"/><text fill="#000000" stroke="none" font-family="Arial" font-size="13px" font-style="normal" font-weight="normal" text-decoration="none" x="47.5" y="275">Escolha entre ser mestre ou jogador</text></g></g><g transform="translate(-6,-166) scale(1,1)"><path fill="#C0C0C0" stroke="none" d="M 383 495 L 518.63720703125 495 Q 528.63720703125 495 528.63720703125 505 L 528.63720703125 532 Q 528.63720703125 542 518.63720703125 542 L 383 542 Q 373 542 373 532 L 373 505 Q 373 495 383 495 Z" opacity="0.2"/></g><g transform="translate(-6,-166) scale(1,1)"><path fill="#ffffff" stroke="none" d="M 376 488 L 511.63720703125 488 Q 521.63720703125 488 521.63720703125 498 L 521.63720703125 525 Q 521.63720703125 535 511.63720703125 535 L 376 535 Q 366 535 366 525 L 366 498 Q 366 488 376 488 Z"/></g><g transform="translate(-6,-166) scale(1,1)"><path fill="none" stroke="#000000" d="M 376 488 L 511.63720703125 488 Q 521.63720703125 488 521.63720703125 498 L 521.63720703125 525 Q 521.63720703125 535 511.63720703125 535 L 376 535 Q 366 535 366 525 L 366 498 Q 366 488 376 488 Z" stroke-miterlimit="10"/></g><g transform="translate(-6,-166) scale(1,1)"><path fill="none" stroke="#000000" d="M 366 513 L 521.63720703125 513" stroke-miterlimit="10"/></g><g transform="translate(-6,-166) scale(1,1)"><g><path fill="none" stroke="none"/><text fill="#000000" stroke="none" font-family="Arial" font-size="13px" font-style="normal" font-weight="bold" text-decoration="none" x="370.5" y="506">Confirma data e horário</text></g></g><g transform="translate(-6,-166) scale(1,1)"><g><path fill="none" stroke="none"/><text fill="#000000" stroke="none" font-family="Arial" font-size="13px" font-style="normal" font-weight="normal" text-decoration="none" x="371" y="529">do/ConfirmaDataHorario</text></g></g><g transform="translate(-6,-166) scale(1,1)"><path fill="none" stroke="#000000" d="M 247 512 L 365 511" stroke-miterlimit="10"/></g><g transform="translate(-6,-166) scale(1,1)"><path fill="none" stroke="#000000" d="M 354.8733626547987 515.2954878743601 L 365 511 L 354.8020174581266 506.8767546670558" stroke-miterlimit="10"/></g><g transform="translate(-6,-166) scale(1,1)"><g><path fill="none" stroke="none"/><text fill="#000000" stroke="none" font-family="Arial" font-size="13px" font-style="normal" font-weight="normal" text-decoration="none" x="255.5" y="501">Confirma seleção</text></g></g><g transform="translate(-6,-166) scale(1,1)"><path fill="#C0C0C0" stroke="none" d="M 759 503 L 940.16259765625 503 Q 950.16259765625 503 950.16259765625 513 L 950.16259765625 532 Q 950.16259765625 542 940.16259765625 542 L 759 542 Q 749 542 749 532 L 749 513 Q 749 503 759 503 Z" opacity="0.2"/></g><g transform="translate(-6,-166) scale(1,1)"><path fill="#ffffff" stroke="none" d="M 752 496 L 933.16259765625 496 Q 943.16259765625 496 943.16259765625 506 L 943.16259765625 525 Q 943.16259765625 535 933.16259765625 535 L 752 535 Q 742 535 742 525 L 742 506 Q 742 496 752 496 Z"/></g><g transform="translate(-6,-166) scale(1,1)"><path fill="none" stroke="#000000" d="M 752 496 L 933.16259765625 496 Q 943.16259765625 496 943.16259765625 506 L 943.16259765625 525 Q 943.16259765625 535 933.16259765625 535 L 752 535 Q 742 535 742 525 L 742 506 Q 742 496 752 496 Z" stroke-miterlimit="10"/></g><g transform="translate(-6,-166) scale(1,1)"><g><path fill="none" stroke="none"/><text fill="#000000" stroke="none" font-family="Arial" font-size="13px" font-style="normal" font-weight="bold" text-decoration="none" x="746.5" y="514">Seleciona forma de pagamento</text></g></g><g transform="translate(-6,-166) scale(1,1)"><path fill="none" stroke="#000000" d="M 523 512 L 741 514" stroke-miterlimit="10"/></g><g transform="translate(-6,-166) scale(1,1)"><path fill="none" stroke="#000000" d="M 730.7991349975881 518.116108988179 L 741 514 L 730.8763706051817 509.69742776047025" stroke-miterlimit="10"/></g><g transform="translate(-6,-166) scale(1,1)"><g><path fill="none" stroke="none"/><text fill="#000000" stroke="none" font-family="Arial" font-size="13px" font-style="normal" font-weight="normal" text-decoration="none" x="533.5" y="546">se disponível / exibe tela de pagamento</text></g></g><g transform="translate(-6,-166) scale(1,1)"><path fill="none" stroke="#000000" d="M 842 536 L 846 688 L 158 688 L 158 537" stroke-miterlimit="10"/></g><g transform="translate(-6,-166) scale(1,1)"><path fill="none" stroke="#000000" d="M 162.209517756016 547.1626748576241 L 158 537 L 153.790482243984 547.1626748576241" stroke-miterlimit="10"/></g><g transform="translate(-6,-166) scale(1,1)"><g><path fill="none" stroke="none"/><text fill="#000000" stroke="none" font-family="Arial" font-size="13px" font-style="normal" font-weight="normal" text-decoration="none" x="388.5" y="682">se indisponível / seleciona nova data</text></g></g><g transform="translate(-6,-166) scale(1,1)"><path fill="#C0C0C0" stroke="none" d="M 633 183 L 800.18505859375 183 Q 810.18505859375 183 810.18505859375 193 L 810.18505859375 247 Q 810.18505859375 257 800.18505859375 257 L 633 257 Q 623 257 623 247 L 623 193 Q 623 183 633 183 Z" opacity="0.2"/></g><g transform="translate(-6,-166) scale(1,1)"><path fill="#ffffff" stroke="none" d="M 626 176 L 793.18505859375 176 Q 803.18505859375 176 803.18505859375 186 L 803.18505859375 240 Q 803.18505859375 250 793.18505859375 250 L 626 250 Q 616 250 616 240 L 616 186 Q 616 176 626 176 Z"/></g><g transform="translate(-6,-166) scale(1,1)"><path fill="none" stroke="#000000" d="M 626 176 L 793.18505859375 176 Q 803.18505859375 176 803.18505859375 186 L 803.18505859375 240 Q 803.18505859375 250 793.18505859375 250 L 626 250 Q 616 250 616 240 L 616 186 Q 616 176 626 176 Z" stroke-miterlimit="10"/></g><g transform="translate(-6,-166) scale(1,1)"><path fill="none" stroke="#000000" d="M 616 201 L 803.18505859375 201" stroke-miterlimit="10"/></g><g transform="translate(-6,-166) scale(1,1)"><g><path fill="none" stroke="none"/><text fill="#000000" stroke="none" font-family="Arial" font-size="13px" font-style="normal" font-weight="bold" text-decoration="none" x="620.5" y="194">Tipo de Usuário Selecionado</text></g></g><g transform="translate(-6,-166) scale(1,1)"><path fill="none" stroke="#000000" d="M 453 214 L 615 214" stroke-miterlimit="10"/></g><g transform="translate(-6,-166) scale(1,1)"><path fill="none" stroke="#000000" d="M 604.8373251423759 218.209517756016 L 615 214 L 604.8373251423758 209.790482243984" stroke-miterlimit="10"/></g><g transform="translate(-6,-166) scale(1,1)"><g><path fill="none" stroke="none"/><text fill="#000000" stroke="none" font-family="Arial" font-size="13px" font-style="normal" font-weight="normal" text-decoration="none" x="483.5" y="204">seleção realizada</text></g></g><g transform="translate(-6,-166) scale(1,1)"><path fill="#C0C0C0" stroke="none" d="M 1183 331.5 C 1183 324.59644 1188.59644 319 1195.5 319 C 1202.40356 319 1208 324.59644 1208 331.5 C 1208 338.40356 1202.40356 344 1195.5 344 C 1188.59644 344 1183 338.40356 1183 331.5 Z" opacity="0.2"/></g><g transform="translate(-6,-166) scale(1,1)"><path fill="none" stroke="#000000" d="M 1176 324.5 C 1176 317.59644 1181.59644 312 1188.5 312 C 1195.40356 312 1201 317.59644 1201 324.5 C 1201 331.40356 1195.40356 337 1188.5 337 C 1181.59644 337 1176 331.40356 1176 324.5 Z" stroke-miterlimit="10"/></g><g transform="translate(-6,-166) scale(1,1)"><path fill="#000000" stroke="none" d="M 1181 324.5 C 1181 320.357864 1184.357864 317 1188.5 317 C 1192.642136 317 1196 320.357864 1196 324.5 C 1196 328.642136 1192.642136 332 1188.5 332 C 1184.357864 332 1181 328.642136 1181 324.5 Z"/></g><g transform="translate(-6,-166) scale(1,1)"><path fill="none" stroke="#000000" d="M 804 235 L 1175 321" stroke-miterlimit="10"/></g><g transform="translate(-6,-166) scale(1,1)"><path fill="none" stroke="#000000" d="M 1164.1492466776192 322.80586609050675 L 1175 321 L 1166.0504185862499 314.60429890327424" stroke-miterlimit="10"/></g><g transform="translate(-6,-166) scale(1,1)"><g><path fill="none" stroke="none"/><text fill="#000000" stroke="none" font-family="Arial" font-size="13px" font-style="normal" font-weight="normal" text-decoration="none" x="943.5" y="268">Tipo selecionado</text></g></g><g transform="translate(-6,-166) scale(1,1)"><path fill="#C0C0C0" stroke="none" d="M 1041 559 L 1160.8125 559 Q 1170.8125 559 1170.8125 569 L 1170.8125 596 Q 1170.8125 606 1160.8125 606 L 1041 606 Q 1031 606 1031 596 L 1031 569 Q 1031 559 1041 559 Z" opacity="0.2"/></g><g transform="translate(-6,-166) scale(1,1)"><path fill="#ffffff" stroke="none" d="M 1034 552 L 1153.8125 552 Q 1163.8125 552 1163.8125 562 L 1163.8125 589 Q 1163.8125 599 1153.8125 599 L 1034 599 Q 1024 599 1024 589 L 1024 562 Q 1024 552 1034 552 Z"/></g><g transform="translate(-6,-166) scale(1,1)"><path fill="none" stroke="#000000" d="M 1034 552 L 1153.8125 552 Q 1163.8125 552 1163.8125 562 L 1163.8125 589 Q 1163.8125 599 1153.8125 599 L 1034 599 Q 1024 599 1024 589 L 1024 562 Q 1024 552 1034 552 Z" stroke-miterlimit="10"/></g><g transform="translate(-6,-166) scale(1,1)"><path fill="none" stroke="#000000" d="M 1024 577 L 1163.8125 577" stroke-miterlimit="10"/></g><g transform="translate(-6,-166) scale(1,1)"><g><path fill="none" stroke="none"/><text fill="#000000" stroke="none" font-family="Arial" font-size="13px" font-style="normal" font-weight="bold" text-decoration="none" x="1029.252197265625" y="570">Realiza o pagamento</text></g></g><g transform="translate(-6,-166) scale(1,1)"><g><path fill="none" stroke="none"/><text fill="#000000" stroke="none" font-family="Arial" font-size="13px" font-style="normal" font-weight="normal" text-decoration="none" x="1029" y="593">do/ConferePagamento</text></g></g><g transform="translate(-6,-166) scale(1,1)"><path fill="none" stroke="#000000" d="M 930 536 L 1023 558" stroke-miterlimit="10"/></g><g transform="translate(-6,-166) scale(1,1)"><path fill="none" stroke="#000000" d="M 1012.141219483619 559.7569535272921 L 1023 558 L 1014.0793289080727 551.5640364148285" stroke-miterlimit="10"/></g><g transform="translate(-6,-166) scale(1,1)"><path fill="#C0C0C0" stroke="none" d="M 1145 407 L 1256.87158203125 407 Q 1266.87158203125 407 1266.87158203125 417 L 1266.87158203125 471 Q 1266.87158203125 481 1256.87158203125 481 L 1145 481 Q 1135 481 1135 471 L 1135 417 Q 1135 407 1145 407 Z" opacity="0.2"/></g><g transform="translate(-6,-166) scale(1,1)"><path fill="#ffffff" stroke="none" d="M 1138 400 L 1249.87158203125 400 Q 1259.87158203125 400 1259.87158203125 410 L 1259.87158203125 464 Q 1259.87158203125 474 1249.87158203125 474 L 1138 474 Q 1128 474 1128 464 L 1128 410 Q 1128 400 1138 400 Z"/></g><g transform="translate(-6,-166) scale(1,1)"><path fill="none" stroke="#000000" d="M 1138 400 L 1249.87158203125 400 Q 1259.87158203125 400 1259.87158203125 410 L 1259.87158203125 464 Q 1259.87158203125 474 1249.87158203125 474 L 1138 474 Q 1128 474 1128 464 L 1128 410 Q 1128 400 1138 400 Z" stroke-miterlimit="10"/></g><g transform="translate(-6,-166) scale(1,1)"><path fill="none" stroke="#000000" d="M 1128 425 L 1259.87158203125 425" stroke-miterlimit="10"/></g><g transform="translate(-6,-166) scale(1,1)"><g><path fill="none" stroke="none"/><text fill="#000000" stroke="none" font-family="Arial" font-size="13px" font-style="normal" font-weight="bold" text-decoration="none" x="1140.120361328125" y="418">Aluguel realizado</text></g></g><g transform="translate(-6,-166) scale(1,1)"><path fill="none" stroke="#000000" d="M 1191 399 L 1189 338" stroke-miterlimit="10"/></g><g transform="translate(-6,-166) scale(1,1)"><path fill="none" stroke="#000000" d="M 1193.5402805108272 348.01927406966206 L 1189 338 L 1185.1257665004705 348.2951597749196" stroke-miterlimit="10"/></g><g transform="translate(-6,-166) scale(1,1)"><path fill="none" stroke="#000000" d="M 1110 551 L 1165 475" stroke-miterlimit="10"/></g><g transform="translate(-6,-166) scale(1,1)"><path fill="none" stroke="#000000" d="M 1162.4521428353873 485.7008608938128 L 1165 475 L 1155.6317416188585 480.7650442239565" stroke-miterlimit="10"/></g><g transform="translate(-6,-166) scale(1,1)"><g><path fill="none" stroke="none"/><text fill="#000000" stroke="none" font-family="Arial" font-size="13px" font-style="normal" font-weight="normal" text-decoration="none" x="1108.2763671875" y="522">se aprovado / realiza o aluguel</text></g></g><g transform="translate(-6,-166) scale(1,1)"><path fill="none" stroke="#000000" d="M 1092 551 L 1088 400 L 832 392 L 840 495" stroke-miterlimit="10"/></g><g transform="translate(-6,-166) scale(1,1)"><path fill="none" stroke="#000000" d="M 835.0161584664775 485.19381197565866 L 840 495 L 843.4099139048891 484.54186980568494" stroke-miterlimit="10"/></g><g transform="translate(-6,-166) scale(1,1)"><g><path fill="none" stroke="none"/><text fill="#000000" stroke="none" font-family="Arial" font-size="13px" font-style="normal" font-weight="normal" text-decoration="none" x="799.5" y="386">se recusado / seleciona nova forma de pagamento</text></g></g></g></svg>