<svg version="1.1" xmlns="http://www.w3.org/2000/svg" xmlns:xlink="http://www.w3.org/1999/xlink" width="900" height="284"><defs/><g><text fill="#eeeeee" stroke="none" font-family="Arial" font-size="24px" font-style="normal" font-weight="normal" text-decoration="none" x="0" y="0">UNREGISTERED</text><text fill="#eeeeee" stroke="none" font-family="Arial" font-size="24px" font-style="normal" font-weight="normal" text-decoration="none" x="0" y="30">UNREGISTERED</text><text fill="#eeeeee" stroke="none" font-family="Arial" font-size="24px" font-style="normal" font-weight="normal" text-decoration="none" x="0" y="60">UNREGISTERED</text><text fill="#eeeeee" stroke="none" font-family="Arial" font-size="24px" font-style="normal" font-weight="normal" text-decoration="none" x="0" y="90">UNREGISTERED</text><text fill="#eeeeee" stroke="none" font-family="Arial" font-size="24px" font-style="normal" font-weight="normal" text-decoration="none" x="0" y="120">UNREGISTERED</text><text fill="#eeeeee" stroke="none" font-family="Arial" font-size="24px" font-style="normal" font-weight="normal" text-decoration="none" x="0" y="150">UNREGISTERED</text><text fill="#eeeeee" stroke="none" font-family="Arial" font-size="24px" font-style="normal" font-weight="normal" text-decoration="none" x="0" y="180">UNREGISTERED</text><text fill="#eeeeee" stroke="none" font-family="Arial" font-size="24px" font-style="normal" font-weight="normal" text-decoration="none" x="0" y="210">UNREGISTERED</text><text fill="#eeeeee" stroke="none" font-family="Arial" font-size="24px" font-style="normal" font-weight="normal" text-decoration="none" x="0" y="240">UNREGISTERED</text><text fill="#eeeeee" stroke="none" font-family="Arial" font-size="24px" font-style="normal" font-weight="normal" text-decoration="none" x="0" y="270">UNREGISTERED</text><text fill="#eeeeee" stroke="none" font-family="Arial" font-size="24px" font-style="normal" font-weight="normal" text-decoration="none" x="200" y="0">UNREGISTERED</text><text fill="#eeeeee" stroke="none" font-family="Arial" font-size="24px" font-style="normal" font-weight="normal" text-decoration="none" x="200" y="30">UNREGISTERED</text><text fill="#eeeeee" stroke="none" font-family="Arial" font-size="24px" font-style="normal" font-weight="normal" text-decoration="none" x="200" y="60">UNREGISTERED</text><text fill="#eeeeee" stroke="none" font-family="Arial" font-size="24px" font-style="normal" font-weight="normal" text-decoration="none" x="200" y="90">UNREGISTERED</text><text fill="#eeeeee" stroke="none" font-family="Arial" font-size="24px" font-style="normal" font-weight="normal" text-decoration="none" x="200" y="120">UNREGISTERED</text><text fill="#eeeeee" stroke="none" font-family="Arial" font-size="24px" font-style="normal" font-weight="normal" text-decoration="none" x="200" y="150">UNREGISTERED</text><text fill="#eeeeee" stroke="none" font-family="Arial" font-size="24px" font-style="normal" font-weight="normal" text-decoration="none" x="200" y="180">UNREGISTERED</text><text fill="#eeeeee" stroke="none" font-family="Arial" font-size="24px" font-style="normal" font-weight="normal" text-decoration="none" x="200" y="210">UNREGISTERED</text><text fill="#eeeeee" stroke="none" font-family="Arial" font-size="24px" font-style="normal" font-weight="normal" text-decoration="none" x="200" y="240">UNREGISTERED</text><text fill="#eeeeee" stroke="none" font-family="Arial" font-size="24px" font-style="normal" font-weight="normal" text-decoration="none" x="200" y="270">UNREGISTERED</text><text fill="#eeeeee" stroke="none" font-family="Arial" font-size="24px" font-style="normal" font-weight="normal" text-decoration="none" x="400" y="0">UNREGISTERED</text><text fill="#eeeeee" stroke="none" font-family="Arial" font-size="24px" font-style="normal" font-weight="normal" text-decoration="none" x="400" y="30">UNREGISTERED</text><text fill="#eeeeee" stroke="none" font-family="Arial" font-size="24px" font-style="normal" font-weight="normal" text-decoration="none" x="400" y="60">UNREGISTERED</text><text fill="#eeeeee" stroke="none" font-family="Arial" font-size="24px" font-style="normal" font-weight="normal" text-decoration="none" x="400" y="90">UNREGISTERED</text><text fill="#eeeeee" stroke="none" font-family="Arial" font-size="24px" font-style="normal" font-weight="normal" text-decoration="none" x="400" y="120">UNREGISTERED</text><text fill="#eeeeee" stroke="none" font-family="Arial" font-size="24px" font-style="normal" font-weight="normal" text-decoration="none" x="400" y="150">UNREGISTERED</text><text fill="#eeeeee" stroke="none" font-family="Arial" font-size="24px" font-style="normal" font-weight="normal" text-decoration="none" x="400" y="180">UNREGISTERED</text><text fill="#eeeeee" stroke="none" font-family="Arial" font-size="24px" font-style="normal" font-weight="normal" text-decoration="none" x="400" y="210">UNREGISTERED</text><text fill="#eeeeee" stroke="none" font-family="Arial" font-size="24px" font-style="normal" font-weight="normal" text-decoration="none" x="400" y="240">UNREGISTERED</text><text fill="#eeeeee" stroke="none" font-family="Arial" font-size="24px" font-style="normal" font-weight="normal" text-decoration="none" x="400" y="270">UNREGISTERED</text><text fill="#eeeeee" stroke="none" font-family="Arial" font-size="24px" font-style="normal" font-weight="normal" text-decoration="none" x="600" y="0">UNREGISTERED</text><text fill="#eeeeee" stroke="none" font-family="Arial" font-size="24px" font-style="normal" font-weight="normal" text-decoration="none" x="600" y="30">UNREGISTERED</text><text fill="#eeeeee" stroke="none" font-family="Arial" font-size="24px" font-style="normal" font-weight="normal" text-decoration="none" x="600" y="60">UNREGISTERED</text><text fill="#eeeeee" stroke="none" font-family="Arial" font-size="24px" font-style="normal" font-weight="normal" text-decoration="none" x="600" y="90">UNREGISTERED</text><text fill="#eeeeee" stroke="none" font-family="Arial" font-size="24px" font-style="normal" font-weight="normal" text-decoration="none" x="600" y="120">UNREGISTERED</text><text fill="#eeeeee" stroke="none" font-family="Arial" font-size="24px" font-style="normal" font-weight="normal" text-decoration="none" x="600" y="150">UNREGISTERED</text><text fill="#eeeeee" stroke="none" font-family="Arial" font-size="24px" font-style="normal" font-weight="normal" text-decoration="none" x="600" y="180">UNREGISTERED</text><text fill="#eeeeee" stroke="none" font-family="Arial" font-size="24px" font-style="normal" font-weight="normal" text-decoration="none" x="600" y="210">UNREGISTERED</text><text fill="#eeeeee" stroke="none" font-family="Arial" font-size="24px" font-style="normal" font-weight="normal" text-decoration="none" x="600" y="240">UNREGISTERED</text><text fill="#eeeeee" stroke="none" font-family="Arial" font-size="24px" font-style="normal" font-weight="normal" text-decoration="none" x="600" y="270">UNREGISTERED</text><text fill="#eeeeee" stroke="none" font-family="Arial" font-size="24px" font-style="normal" font-weight="normal" text-decoration="none" x="800" y="0">UNREGISTERED</text><text fill="#eeeeee" stroke="none" font-family="Arial" font-size="24px" font-style="normal" font-weight="normal" text-decoration="none" x="800" y="30">UNREGISTERED</text><text fill="#eeeeee" stroke="none" font-family="Arial" font-size="24px" font-style="normal" font-weight="normal" text-decoration="none" x="800" y="60">UNREGISTERED</text><text fill="#eeeeee" stroke="none" font-family="Arial" font-size="24px" font-style="normal" font-weight="normal" text-decoration="none" x="800" y="90">UNREGISTERED</text><text fill="#eeeeee" stroke="none" font-family="Arial" font-size="24px" font-style="normal" font-weight="normal" text-decoration="none" x="800" y="120">UNREGISTERED</text><text fill="#eeeeee" stroke="none" font-family="Arial" font-size="24px" font-style="normal" font-weight="normal" text-decoration="none" x="800" y="150">UNREGISTERED</text><text fill="#eeeeee" stroke="none" font-family="Arial" font-size="24px" font-style="normal" font-weight="normal" text-decoration="none" x="800" y="180">UNREGISTERED</text><text fill="#eeeeee" stroke="none" font-family="Arial" font-size="24px" font-style="normal" font-weight="normal" text-decoration="none" x="800" y="210">UNREGISTERED</text><text fill="#eeeeee" stroke="none" font-family="Arial" font-size="24px" font-style="normal" font-weight="normal" text-decoration="none" x="800" y="240">UNREGISTERED</text><text fill="#eeeeee" stroke="none" font-family="Arial" font-size="24px" font-style="normal" font-weight="normal" text-decoration="none" x="800" y="270">UNREGISTERED</text><g transform="translate(-142,-342) scale(1,1)"><path fill="#C0C0C0" stroke="none" d="M 159 377 L 332 377 L 332 518 L 159 518" opacity="0.2"/></g><g transform="translate(-142,-342) scale(1,1)"><path fill="#C0C0C0" stroke="none" d="M 159 377 L 169 367 L 342 367 L 332 377" opacity="0.2"/></g><g transform="translate(-142,-342) scale(1,1)"><path fill="#C0C0C0" stroke="none" d="M 342 367 L 332 377 L 332 518 L 342 508" opacity="0.2"/></g><g transform="translate(-142,-342) scale(1,1)"><path fill="#ffffff" stroke="none" d="M 152 370 L 325 370 L 325 511 L 152 511"/></g><g transform="translate(-142,-342) scale(1,1)"><path fill="#ffffff" stroke="none" d="M 152 370 L 162 360 L 335 360 L 325 370"/></g><g transform="translate(-142,-342) scale(1,1)"><path fill="#ffffff" stroke="none" d="M 335 360 L 325 370 L 325 511 L 335 501"/></g><g transform="translate(-142,-342) scale(1,1)"><path fill="none" stroke="#000000" d="M 152 370 L 325 370 L 325 511 L 152 511 L 152 370" stroke-miterlimit="10"/></g><g transform="translate(-142,-342) scale(1,1)"><path fill="none" stroke="#000000" d="M 152 370 L 162 360 L 335 360 L 325 370 L 152 370" stroke-miterlimit="10"/></g><g transform="translate(-142,-342) scale(1,1)"><path fill="none" stroke="#000000" d="M 335 360 L 325 370 L 325 511 L 335 501 L 335 360" stroke-miterlimit="10"/></g><g transform="translate(-142,-342) scale(1,1)"><g><path fill="none" stroke="none"/><text fill="#000000" stroke="none" font-family="Arial" font-size="13px" font-style="normal" font-weight="bold" text-decoration="none" x="217.3291015625" y="388">Cliente</text></g></g><g transform="translate(-142,-342) scale(1,1)"><path fill="#C0C0C0" stroke="none" d="M 455 369 L 668 369 L 668 526 L 455 526" opacity="0.2"/></g><g transform="translate(-142,-342) scale(1,1)"><path fill="#C0C0C0" stroke="none" d="M 455 369 L 465 359 L 678 359 L 668 369" opacity="0.2"/></g><g transform="translate(-142,-342) scale(1,1)"><path fill="#C0C0C0" stroke="none" d="M 678 359 L 668 369 L 668 526 L 678 516" opacity="0.2"/></g><g transform="translate(-142,-342) scale(1,1)"><path fill="#ffffff" stroke="none" d="M 448 362 L 661 362 L 661 519 L 448 519"/></g><g transform="translate(-142,-342) scale(1,1)"><path fill="#ffffff" stroke="none" d="M 448 362 L 458 352 L 671 352 L 661 362"/></g><g transform="translate(-142,-342) scale(1,1)"><path fill="#ffffff" stroke="none" d="M 671 352 L 661 362 L 661 519 L 671 509"/></g><g transform="translate(-142,-342) scale(1,1)"><path fill="none" stroke="#000000" d="M 448 362 L 661 362 L 661 519 L 448 519 L 448 362" stroke-miterlimit="10"/></g><g transform="translate(-142,-342) scale(1,1)"><path fill="none" stroke="#000000" d="M 448 362 L 458 352 L 671 352 L 661 362 L 448 362" stroke-miterlimit="10"/></g><g transform="translate(-142,-342) scale(1,1)"><path fill="none" stroke="#000000" d="M 671 352 L 661 362 L 661 519 L 671 509 L 671 352" stroke-miterlimit="10"/></g><g transform="translate(-142,-342) scale(1,1)"><g><path fill="none" stroke="none"/><text fill="#000000" stroke="none" font-family="Arial" font-size="13px" font-style="normal" font-weight="bold" text-decoration="none" x="460.7373046875" y="380">Servidor Web - Roll Your Table</text></g></g><g transform="translate(-142,-342) scale(1,1)"><path fill="#C0C0C0" stroke="none" d="M 479 585 L 660 585 L 660 622 L 479 622" opacity="0.2"/></g><g transform="translate(-142,-342) scale(1,1)"><path fill="#C0C0C0" stroke="none" d="M 479 585 L 489 575 L 670 575 L 660 585" opacity="0.2"/></g><g transform="translate(-142,-342) scale(1,1)"><path fill="#C0C0C0" stroke="none" d="M 670 575 L 660 585 L 660 622 L 670 612" opacity="0.2"/></g><g transform="translate(-142,-342) scale(1,1)"><path fill="#ffffff" stroke="none" d="M 472 578 L 653 578 L 653 615 L 472 615"/></g><g transform="translate(-142,-342) scale(1,1)"><path fill="#ffffff" stroke="none" d="M 472 578 L 482 568 L 663 568 L 653 578"/></g><g transform="translate(-142,-342) scale(1,1)"><path fill="#ffffff" stroke="none" d="M 663 568 L 653 578 L 653 615 L 663 605"/></g><g transform="translate(-142,-342) scale(1,1)"><path fill="none" stroke="#000000" d="M 472 578 L 653 578 L 653 615 L 472 615 L 472 578" stroke-miterlimit="10"/></g><g transform="translate(-142,-342) scale(1,1)"><path fill="none" stroke="#000000" d="M 472 578 L 482 568 L 663 568 L 653 578 L 472 578" stroke-miterlimit="10"/></g><g transform="translate(-142,-342) scale(1,1)"><path fill="none" stroke="#000000" d="M 663 568 L 653 578 L 653 615 L 663 605 L 663 568" stroke-miterlimit="10"/></g><g transform="translate(-142,-342) scale(1,1)"><g><path fill="none" stroke="none"/><text fill="#000000" stroke="none" font-family="Arial" font-size="13px" font-style="normal" font-weight="bold" text-decoration="none" x="512.07275390625" y="596">Banco de Dados</text></g></g><g transform="translate(-142,-342) scale(1,1)"><path fill="#C0C0C0" stroke="none" d="M 799 385 L 1028 385 L 1028 518 L 799 518" opacity="0.2"/></g><g transform="translate(-142,-342) scale(1,1)"><path fill="#C0C0C0" stroke="none" d="M 799 385 L 809 375 L 1038 375 L 1028 385" opacity="0.2"/></g><g transform="translate(-142,-342) scale(1,1)"><path fill="#C0C0C0" stroke="none" d="M 1038 375 L 1028 385 L 1028 518 L 1038 508" opacity="0.2"/></g><g transform="translate(-142,-342) scale(1,1)"><path fill="#ffffff" stroke="none" d="M 792 378 L 1021 378 L 1021 511 L 792 511"/></g><g transform="translate(-142,-342) scale(1,1)"><path fill="#ffffff" stroke="none" d="M 792 378 L 802 368 L 1031 368 L 1021 378"/></g><g transform="translate(-142,-342) scale(1,1)"><path fill="#ffffff" stroke="none" d="M 1031 368 L 1021 378 L 1021 511 L 1031 501"/></g><g transform="translate(-142,-342) scale(1,1)"><path fill="none" stroke="#000000" d="M 792 378 L 1021 378 L 1021 511 L 792 511 L 792 378" stroke-miterlimit="10"/></g><g transform="translate(-142,-342) scale(1,1)"><path fill="none" stroke="#000000" d="M 792 378 L 802 368 L 1031 368 L 1021 378 L 792 378" stroke-miterlimit="10"/></g><g transform="translate(-142,-342) scale(1,1)"><path fill="none" stroke="#000000" d="M 1031 368 L 1021 378 L 1021 511 L 1031 501 L 1031 368" stroke-miterlimit="10"/></g><g transform="translate(-142,-342) scale(1,1)"><g><path fill="none" stroke="none"/><text fill="#000000" stroke="none" font-family="Arial" font-size="13px" font-style="normal" font-weight="bold" text-decoration="none" x="856.063232421875" y="396">Sistema Externo</text></g></g><g transform="translate(-142,-342) scale(1,1)"><path fill="none" stroke="#000000" d="M 337 436 L 447 436" stroke-miterlimit="10"/></g><g transform="translate(-142,-342) scale(1,1)"><path fill="none" stroke="#000000" d="M 564 521 L 567 567" stroke-miterlimit="10"/></g><g transform="translate(-142,-342) scale(1,1)"><path fill="none" stroke="#000000" d="M 673 437 L 791 439" stroke-miterlimit="10"/></g><g transform="translate(-142,-342) scale(1,1)"><path fill="#C0C0C0" stroke="none" d="M 220.074072265625 423 L 247.51407226562503 423 L 259.274072265625 434.76 L 259.274072265625 472 L 220.074072265625 472" opacity="0.2"/></g><g transform="translate(-142,-342) scale(1,1)"><path fill="#ffffff" stroke="none" d="M 213.07407226562498 416 L 240.514072265625 416 L 252.27407226562502 427.76 L 252.27407226562502 465 L 213.07407226562498 465"/></g><g transform="translate(-142,-342) scale(1,1)"><path fill="none" stroke="#000000" d="M 213.07407226562498 416 L 240.514072265625 416 L 252.27407226562502 427.76 L 252.27407226562502 465 L 213.07407226562498 465 L 213.07407226562498 416" stroke-miterlimit="10"/></g><g transform="translate(-142,-342) scale(1,1)"><path fill="none" stroke="#000000" d="M 240.514072265625 416 L 240.514072265625 427.76 L 252.27407226562502 427.76 L 240.514072265625 416" stroke-miterlimit="10"/></g><g transform="translate(-142,-342) scale(1,1)"><g><path fill="none" stroke="none"/><text fill="#000000" stroke="none" font-family="Arial" font-size="13px" font-style="normal" font-weight="bold" text-decoration="none" x="204.5" y="483">Cadastro</text></g></g><g transform="translate(-142,-342) scale(1,1)"><path fill="#C0C0C0" stroke="none" d="M 542.962255859375 415 L 570.402255859375 415 L 582.162255859375 426.76 L 582.162255859375 464 L 542.962255859375 464" opacity="0.2"/></g><g transform="translate(-142,-342) scale(1,1)"><path fill="#ffffff" stroke="none" d="M 535.962255859375 408 L 563.402255859375 408 L 575.162255859375 419.76 L 575.162255859375 457 L 535.962255859375 457"/></g><g transform="translate(-142,-342) scale(1,1)"><path fill="none" stroke="#000000" d="M 535.962255859375 408 L 563.402255859375 408 L 575.162255859375 419.76 L 575.162255859375 457 L 535.962255859375 457 L 535.962255859375 408" stroke-miterlimit="10"/></g><g transform="translate(-142,-342) scale(1,1)"><path fill="none" stroke="#000000" d="M 563.402255859375 408 L 563.402255859375 419.76 L 575.162255859375 419.76 L 563.402255859375 408" stroke-miterlimit="10"/></g><g transform="translate(-142,-342) scale(1,1)"><g><path fill="none" stroke="none"/><text fill="#000000" stroke="none" font-family="Arial" font-size="13px" font-style="normal" font-weight="bold" text-decoration="none" x="524.5" y="475">Aplicativo</text></g></g><g transform="translate(-142,-342) scale(1,1)"><path fill="#C0C0C0" stroke="none" d="M 890.2681640625 423 L 917.7081640625 423 L 929.4681640625 434.76 L 929.4681640625 472 L 890.2681640625 472" opacity="0.2"/></g><g transform="translate(-142,-342) scale(1,1)"><path fill="#ffffff" stroke="none" d="M 883.2681640625 416 L 910.7081640625 416 L 922.4681640625 427.76 L 922.4681640625 465 L 883.2681640625 465"/></g><g transform="translate(-142,-342) scale(1,1)"><path fill="none" stroke="#000000" d="M 883.2681640625 416 L 910.7081640625 416 L 922.4681640625 427.76 L 922.4681640625 465 L 883.2681640625 465 L 883.2681640625 416" stroke-miterlimit="10"/></g><g transform="translate(-142,-342) scale(1,1)"><path fill="none" stroke="#000000" d="M 910.7081640625 416 L 910.7081640625 427.76 L 922.4681640625 427.76 L 910.7081640625 416" stroke-miterlimit="10"/></g><g transform="translate(-142,-342) scale(1,1)"><g><path fill="none" stroke="none"/><text fill="#000000" stroke="none" font-family="Arial" font-size="13px" font-style="normal" font-weight="bold" text-decoration="none" x="883.003173828125" y="483">Banco</text></g></g></g></svg>