<svg version="1.1" xmlns="http://www.w3.org/2000/svg" xmlns:xlink="http://www.w3.org/1999/xlink" width="750" height="267"><defs/><g><text fill="#eeeeee" stroke="none" font-family="Arial" font-size="24px" font-style="normal" font-weight="normal" text-decoration="none" x="0" y="0">UNREGISTERED</text><text fill="#eeeeee" stroke="none" font-family="Arial" font-size="24px" font-style="normal" font-weight="normal" text-decoration="none" x="0" y="30">UNREGISTERED</text><text fill="#eeeeee" stroke="none" font-family="Arial" font-size="24px" font-style="normal" font-weight="normal" text-decoration="none" x="0" y="60">UNREGISTERED</text><text fill="#eeeeee" stroke="none" font-family="Arial" font-size="24px" font-style="normal" font-weight="normal" text-decoration="none" x="0" y="90">UNREGISTERED</text><text fill="#eeeeee" stroke="none" font-family="Arial" font-size="24px" font-style="normal" font-weight="normal" text-decoration="none" x="0" y="120">UNREGISTERED</text><text fill="#eeeeee" stroke="none" font-family="Arial" font-size="24px" font-style="normal" font-weight="normal" text-decoration="none" x="0" y="150">UNREGISTERED</text><text fill="#eeeeee" stroke="none" font-family="Arial" font-size="24px" font-style="normal" font-weight="normal" text-decoration="none" x="0" y="180">UNREGISTERED</text><text fill="#eeeeee" stroke="none" font-family="Arial" font-size="24px" font-style="normal" font-weight="normal" text-decoration="none" x="0" y="210">UNREGISTERED</text><text fill="#eeeeee" stroke="none" font-family="Arial" font-size="24px" font-style="normal" font-weight="normal" text-decoration="none" x="0" y="240">UNREGISTERED</text><text fill="#eeeeee" stroke="none" font-family="Arial" font-size="24px" font-style="normal" font-weight="normal" text-decoration="none" x="200" y="0">UNREGISTERED</text><text fill="#eeeeee" stroke="none" font-family="Arial" font-size="24px" font-style="normal" font-weight="normal" text-decoration="none" x="200" y="30">UNREGISTERED</text><text fill="#eeeeee" stroke="none" font-family="Arial" font-size="24px" font-style="normal" font-weight="normal" text-decoration="none" x="200" y="60">UNREGISTERED</text><text fill="#eeeeee" stroke="none" font-family="Arial" font-size="24px" font-style="normal" font-weight="normal" text-decoration="none" x="200" y="90">UNREGISTERED</text><text fill="#eeeeee" stroke="none" font-family="Arial" font-size="24px" font-style="normal" font-weight="normal" text-decoration="none" x="200" y="120">UNREGISTERED</text><text fill="#eeeeee" stroke="none" font-family="Arial" font-size="24px" font-style="normal" font-weight="normal" text-decoration="none" x="200" y="150">UNREGISTERED</text><text fill="#eeeeee" stroke="none" font-family="Arial" font-size="24px" font-style="normal" font-weight="normal" text-decoration="none" x="200" y="180">UNREGISTERED</text><text fill="#eeeeee" stroke="none" font-family="Arial" font-size="24px" font-style="normal" font-weight="normal" text-decoration="none" x="200" y="210">UNREGISTERED</text><text fill="#eeeeee" stroke="none" font-family="Arial" font-size="24px" font-style="normal" font-weight="normal" text-decoration="none" x="200" y="240">UNREGISTERED</text><text fill="#eeeeee" stroke="none" font-family="Arial" font-size="24px" font-style="normal" font-weight="normal" text-decoration="none" x="400" y="0">UNREGISTERED</text><text fill="#eeeeee" stroke="none" font-family="Arial" font-size="24px" font-style="normal" font-weight="normal" text-decoration="none" x="400" y="30">UNREGISTERED</text><text fill="#eeeeee" stroke="none" font-family="Arial" font-size="24px" font-style="normal" font-weight="normal" text-decoration="none" x="400" y="60">UNREGISTERED</text><text fill="#eeeeee" stroke="none" font-family="Arial" font-size="24px" font-style="normal" font-weight="normal" text-decoration="none" x="400" y="90">UNREGISTERED</text><text fill="#eeeeee" stroke="none" font-family="Arial" font-size="24px" font-style="normal" font-weight="normal" text-decoration="none" x="400" y="120">UNREGISTERED</text><text fill="#eeeeee" stroke="none" font-family="Arial" font-size="24px" font-style="normal" font-weight="normal" text-decoration="none" x="400" y="150">UNREGISTERED</text><text fill="#eeeeee" stroke="none" font-family="Arial" font-size="24px" font-style="normal" font-weight="normal" text-decoration="none" x="400" y="180">UNREGISTERED</text><text fill="#eeeeee" stroke="none" font-family="Arial" font-size="24px" font-style="normal" font-weight="normal" text-decoration="none" x="400" y="210">UNREGISTERED</text><text fill="#eeeeee" stroke="none" font-family="Arial" font-size="24px" font-style="normal" font-weight="normal" text-decoration="none" x="400" y="240">UNREGISTERED</text><text fill="#eeeeee" stroke="none" font-family="Arial" font-size="24px" font-style="normal" font-weight="normal" text-decoration="none" x="600" y="0">UNREGISTERED</text><text fill="#eeeeee" stroke="none" font-family="Arial" font-size="24px" font-style="normal" font-weight="normal" text-decoration="none" x="600" y="30">UNREGISTERED</text><text fill="#eeeeee" stroke="none" font-family="Arial" font-size="24px" font-style="normal" font-weight="normal" text-decoration="none" x="600" y="60">UNREGISTERED</text><text fill="#eeeeee" stroke="none" font-family="Arial" font-size="24px" font-style="normal" font-weight="normal" text-decoration="none" x="600" y="90">UNREGISTERED</text><text fill="#eeeeee" stroke="none" font-family="Arial" font-size="24px" font-style="normal" font-weight="normal" text-decoration="none" x="600" y="120">UNREGISTERED</text><text fill="#eeeeee" stroke="none" font-family="Arial" font-size="24px" font-style="normal" font-weight="normal" text-decoration="none" x="600" y="150">UNREGISTERED</text><text fill="#eeeeee" stroke="none" font-family="Arial" font-size="24px" font-style="normal" font-weight="normal" text-decoration="none" x="600" y="180">UNREGISTERED</text><text fill="#eeeeee" stroke="none" font-family="Arial" font-size="24px" font-style="normal" font-weight="normal" text-decoration="none" x="600" y="210">UNREGISTERED</text><text fill="#eeeeee" stroke="none" font-family="Arial" font-size="24px" font-style="normal" font-weight="normal" text-decoration="none" x="600" y="240">UNREGISTERED</text><g transform="translate(-454,-262) scale(1,1)"><path fill="#C0C0C0" stroke="none" d="M 615 296 C 615 286.6111584 667.1588208000001 279 731.5 279 C 795.8411791999999 279 848 286.6111584 848 296 C 848 305.3888416 795.8411791999999 313 731.5 313 C 667.1588208000001 313 615 305.3888416 615 296 Z" opacity="0.2"/></g><g transform="translate(-454,-262) scale(1,1)"><path fill="#ffffff" stroke="none" d="M 608 289 C 608 279.6111584 660.1588208000001 272 724.5 272 C 788.8411791999999 272 841 279.6111584 841 289 C 841 298.3888416 788.8411791999999 306 724.5 306 C 660.1588208000001 306 608 298.3888416 608 289 Z"/></g><g transform="translate(-454,-262) scale(1,1)"><path fill="none" stroke="#000000" d="M 608 289 C 608 279.6111584 660.1588208000001 272 724.5 272 C 788.8411791999999 272 841 279.6111584 841 289 C 841 298.3888416 788.8411791999999 306 724.5 306 C 660.1588208000001 306 608 298.3888416 608 289 Z" stroke-miterlimit="10"/></g><g transform="translate(-454,-262) scale(1,1)"><g><path fill="none" stroke="none"/><text fill="#000000" stroke="none" font-family="Arial" font-size="13px" font-style="normal" font-weight="bold" text-decoration="none" x="646.471435546875" y="294.5">CSU01 - Criação de Perfil</text></g></g><g transform="translate(-454,-262) scale(1,1)"><path fill="#ffffff" stroke="none" d="M 480.77434055397725 321.68 C 480.77434055397725 316.886167936 484.66018287892274 313 489.45361328125 313 C 494.24704368357726 313 498.13288600852275 316.886167936 498.13288600852275 321.68 C 498.13288600852275 326.473832064 494.24704368357726 330.36 489.45361328125 330.36 C 484.66018287892274 330.36 480.77434055397725 326.473832064 480.77434055397725 321.68 Z"/></g><g transform="translate(-454,-262) scale(1,1)"><path fill="none" stroke="#000000" d="M 480.77434055397725 321.68 C 480.77434055397725 316.886167936 484.66018287892274 313 489.45361328125 313 C 494.24704368357726 313 498.13288600852275 316.886167936 498.13288600852275 321.68 C 498.13288600852275 326.473832064 494.24704368357726 330.36 489.45361328125 330.36 C 484.66018287892274 330.36 480.77434055397725 326.473832064 480.77434055397725 321.68 Z" stroke-miterlimit="10"/></g><g transform="translate(-454,-262) scale(1,1)"><path fill="none" stroke="#000000" d="M 489.45361328125 330.36 L 489.45361328125 347.64" stroke-miterlimit="10"/></g><g transform="translate(-454,-262) scale(1,1)"><path fill="none" stroke="#000000" d="M 480.26379509943183 336.84 L 498.64343146306817 336.84" stroke-miterlimit="10"/></g><g transform="translate(-454,-262) scale(1,1)"><path fill="none" stroke="#000000" d="M 489.45361328125 347.64 L 476.68997691761365 365" stroke-miterlimit="10"/></g><g transform="translate(-454,-262) scale(1,1)"><path fill="none" stroke="#000000" d="M 489.45361328125 347.64 L 502.21724964488635 365" stroke-miterlimit="10"/></g><g transform="translate(-454,-262) scale(1,1)"><g><path fill="none" stroke="none"/><text fill="#000000" stroke="none" font-family="Arial" font-size="13px" font-style="normal" font-weight="bold" text-decoration="none" x="468.5" y="384">Mestre</text></g></g><g transform="translate(-454,-262) scale(1,1)"><path fill="#ffffff" stroke="none" d="M 981.4620846946023 297.68 C 981.4620846946023 292.886167936 985.3479270195477 289 990.141357421875 289 C 994.9347878242023 289 998.8206301491477 292.886167936 998.8206301491477 297.68 C 998.8206301491477 302.473832064 994.9347878242023 306.36 990.141357421875 306.36 C 985.3479270195477 306.36 981.4620846946023 302.473832064 981.4620846946023 297.68 Z"/></g><g transform="translate(-454,-262) scale(1,1)"><path fill="none" stroke="#000000" d="M 981.4620846946023 297.68 C 981.4620846946023 292.886167936 985.3479270195477 289 990.141357421875 289 C 994.9347878242023 289 998.8206301491477 292.886167936 998.8206301491477 297.68 C 998.8206301491477 302.473832064 994.9347878242023 306.36 990.141357421875 306.36 C 985.3479270195477 306.36 981.4620846946023 302.473832064 981.4620846946023 297.68 Z" stroke-miterlimit="10"/></g><g transform="translate(-454,-262) scale(1,1)"><path fill="none" stroke="#000000" d="M 990.141357421875 306.36 L 990.141357421875 323.64" stroke-miterlimit="10"/></g><g transform="translate(-454,-262) scale(1,1)"><path fill="none" stroke="#000000" d="M 980.9515392400568 312.84 L 999.3311756036932 312.84" stroke-miterlimit="10"/></g><g transform="translate(-454,-262) scale(1,1)"><path fill="none" stroke="#000000" d="M 990.141357421875 323.64 L 977.3777210582386 341" stroke-miterlimit="10"/></g><g transform="translate(-454,-262) scale(1,1)"><path fill="none" stroke="#000000" d="M 990.141357421875 323.64 L 1002.9049937855114 341" stroke-miterlimit="10"/></g><g transform="translate(-454,-262) scale(1,1)"><g><path fill="none" stroke="none"/><text fill="#000000" stroke="none" font-family="Arial" font-size="13px" font-style="normal" font-weight="bold" text-decoration="none" x="964.5" y="360">Jogador</text></g></g><g transform="translate(-454,-262) scale(1,1)"><path fill="#ffffff" stroke="none" d="M 960.4093503196023 449.68 C 960.4093503196023 444.886167936 964.2951926445477 441 969.088623046875 441 C 973.8820534492023 441 977.7678957741477 444.886167936 977.7678957741477 449.68 C 977.7678957741477 454.473832064 973.8820534492023 458.36 969.088623046875 458.36 C 964.2951926445477 458.36 960.4093503196023 454.473832064 960.4093503196023 449.68 Z"/></g><g transform="translate(-454,-262) scale(1,1)"><path fill="none" stroke="#000000" d="M 960.4093503196023 449.68 C 960.4093503196023 444.886167936 964.2951926445477 441 969.088623046875 441 C 973.8820534492023 441 977.7678957741477 444.886167936 977.7678957741477 449.68 C 977.7678957741477 454.473832064 973.8820534492023 458.36 969.088623046875 458.36 C 964.2951926445477 458.36 960.4093503196023 454.473832064 960.4093503196023 449.68 Z" stroke-miterlimit="10"/></g><g transform="translate(-454,-262) scale(1,1)"><path fill="none" stroke="#000000" d="M 969.088623046875 458.36 L 969.088623046875 475.64" stroke-miterlimit="10"/></g><g transform="translate(-454,-262) scale(1,1)"><path fill="none" stroke="#000000" d="M 959.8988048650568 464.84 L 978.2784412286932 464.84" stroke-miterlimit="10"/></g><g transform="translate(-454,-262) scale(1,1)"><path fill="none" stroke="#000000" d="M 969.088623046875 475.64 L 956.3249866832386 493" stroke-miterlimit="10"/></g><g transform="translate(-454,-262) scale(1,1)"><path fill="none" stroke="#000000" d="M 969.088623046875 475.64 L 981.8522594105114 493" stroke-miterlimit="10"/></g><g transform="translate(-454,-262) scale(1,1)"><g><path fill="none" stroke="none"/><text fill="#000000" stroke="none" font-family="Arial" font-size="13px" font-style="normal" font-weight="bold" text-decoration="none" x="949.2236328125" y="512">Banco</text></g></g><g transform="translate(-454,-262) scale(1,1)"><path fill="#C0C0C0" stroke="none" d="M 591 368 C 591 358.6111584 653.9039855999999 351 731.5 351 C 809.0960144000001 351 872 358.6111584 872 368 C 872 377.3888416 809.0960144000001 385 731.5 385 C 653.9039855999999 385 591 377.3888416 591 368 Z" opacity="0.2"/></g><g transform="translate(-454,-262) scale(1,1)"><path fill="#ffffff" stroke="none" d="M 584 361 C 584 351.6111584 646.9039855999999 344 724.5 344 C 802.0960144000001 344 865 351.6111584 865 361 C 865 370.3888416 802.0960144000001 378 724.5 378 C 646.9039855999999 378 584 370.3888416 584 361 Z"/></g><g transform="translate(-454,-262) scale(1,1)"><path fill="none" stroke="#000000" d="M 584 361 C 584 351.6111584 646.9039855999999 344 724.5 344 C 802.0960144000001 344 865 351.6111584 865 361 C 865 370.3888416 802.0960144000001 378 724.5 378 C 646.9039855999999 378 584 370.3888416 584 361 Z" stroke-miterlimit="10"/></g><g transform="translate(-454,-262) scale(1,1)"><g><path fill="none" stroke="none"/><text fill="#000000" stroke="none" font-family="Arial" font-size="13px" font-style="normal" font-weight="bold" text-decoration="none" x="629.497802734375" y="366.5">CSU02 - Criação de Campanha</text></g></g><g transform="translate(-454,-262) scale(1,1)"><path fill="#C0C0C0" stroke="none" d="M 639 432 C 639 422.6111584 681.3090864 415 733.5 415 C 785.6909136 415 828 422.6111584 828 432 C 828 441.3888416 785.6909136 449 733.5 449 C 681.3090864 449 639 441.3888416 639 432 Z" opacity="0.2"/></g><g transform="translate(-454,-262) scale(1,1)"><path fill="#ffffff" stroke="none" d="M 632 425 C 632 415.6111584 674.3090864 408 726.5 408 C 778.6909136 408 821 415.6111584 821 425 C 821 434.3888416 778.6909136 442 726.5 442 C 674.3090864 442 632 434.3888416 632 425 Z"/></g><g transform="translate(-454,-262) scale(1,1)"><path fill="none" stroke="#000000" d="M 632 425 C 632 415.6111584 674.3090864 408 726.5 408 C 778.6909136 408 821 415.6111584 821 425 C 821 434.3888416 778.6909136 442 726.5 442 C 674.3090864 442 632 434.3888416 632 425 Z" stroke-miterlimit="10"/></g><g transform="translate(-454,-262) scale(1,1)"><g><path fill="none" stroke="none"/><text fill="#000000" stroke="none" font-family="Arial" font-size="13px" font-style="normal" font-weight="bold" text-decoration="none" x="664.00732421875" y="430.5">CSU03 - Alugar Sala</text></g></g><g transform="translate(-454,-262) scale(1,1)"><path fill="#C0C0C0" stroke="none" d="M 575 496 C 575 486.6111584 642.3811376 479 725.5 479 C 808.6188624 479 876 486.6111584 876 496 C 876 505.3888416 808.6188624 513 725.5 513 C 642.3811376 513 575 505.3888416 575 496 Z" opacity="0.2"/></g><g transform="translate(-454,-262) scale(1,1)"><path fill="#ffffff" stroke="none" d="M 568 489 C 568 479.6111584 635.3811376 472 718.5 472 C 801.6188624 472 869 479.6111584 869 489 C 869 498.3888416 801.6188624 506 718.5 506 C 635.3811376 506 568 498.3888416 568 489 Z"/></g><g transform="translate(-454,-262) scale(1,1)"><path fill="none" stroke="#000000" d="M 568 489 C 568 479.6111584 635.3811376 472 718.5 472 C 801.6188624 472 869 479.6111584 869 489 C 869 498.3888416 801.6188624 506 718.5 506 C 635.3811376 506 568 498.3888416 568 489 Z" stroke-miterlimit="10"/></g><g transform="translate(-454,-262) scale(1,1)"><g><path fill="none" stroke="none"/><text fill="#000000" stroke="none" font-family="Arial" font-size="13px" font-style="normal" font-weight="bold" text-decoration="none" x="616.6328125" y="494.5">CSU04 - Seleção Jogador-Mestre</text></g></g><g transform="translate(-454,-262) scale(1,1)"><path fill="none" stroke="#000000" d="M 516 344 L 656 307" stroke-miterlimit="10"/></g><g transform="translate(-454,-262) scale(1,1)"><path fill="none" stroke="#000000" d="M 516 352 L 583 355" stroke-miterlimit="10"/></g><g transform="translate(-454,-262) scale(1,1)"><path fill="none" stroke="#000000" d="M 516 359 L 668 407" stroke-miterlimit="10"/></g><g transform="translate(-454,-262) scale(1,1)"><path fill="none" stroke="#000000" d="M 516 367 L 688 471" stroke-miterlimit="10"/></g><g transform="translate(-454,-262) scale(1,1)"><path fill="none" stroke="#000000" d="M 943 473 L 807 443" stroke-miterlimit="10"/></g><g transform="translate(-454,-262) scale(1,1)"><path fill="none" stroke="#000000" d="M 959 323 L 842 306" stroke-miterlimit="10"/></g><g transform="translate(-454,-262) scale(1,1)"><path fill="none" stroke="#000000" d="M 959 339 L 774 407" stroke-miterlimit="10"/></g><g transform="translate(-454,-262) scale(1,1)"><path fill="none" stroke="#000000" d="M 959 345 L 748 471" stroke-miterlimit="10"/></g><g transform="translate(-454,-262) scale(1,1)"><path fill="#C0C0C0" stroke="none" d="M 935 408 C 935 398.6111584 994.5461216 391 1068 391 C 1141.4538784000001 391 1201 398.6111584 1201 408 C 1201 417.3888416 1141.4538784000001 425 1068 425 C 994.5461216 425 935 417.3888416 935 408 Z" opacity="0.2"/></g><g transform="translate(-454,-262) scale(1,1)"><path fill="#ffffff" stroke="none" d="M 928 401 C 928 391.6111584 987.5461216 384 1061 384 C 1134.4538784000001 384 1194 391.6111584 1194 401 C 1194 410.3888416 1134.4538784000001 418 1061 418 C 987.5461216 418 928 410.3888416 928 401 Z"/></g><g transform="translate(-454,-262) scale(1,1)"><path fill="none" stroke="#000000" d="M 928 401 C 928 391.6111584 987.5461216 384 1061 384 C 1134.4538784000001 384 1194 391.6111584 1194 401 C 1194 410.3888416 1134.4538784000001 418 1061 418 C 987.5461216 418 928 410.3888416 928 401 Z" stroke-miterlimit="10"/></g><g transform="translate(-454,-262) scale(1,1)"><g><path fill="none" stroke="none"/><text fill="#000000" stroke="none" font-family="Arial" font-size="13px" font-style="normal" font-weight="bold" text-decoration="none" x="971.418701171875" y="406.5">CSU02 - Sem data disponível</text></g></g><g transform="translate(-454,-262) scale(1,1)"><path fill="none" stroke="#000000" d="M 927 411 L 822 418" stroke-miterlimit="10" stroke-dasharray="3"/></g><g transform="translate(-454,-262) scale(1,1)"><path fill="none" stroke="#000000" d="M 831.8601531811474 413.1237945855094 L 822 418 L 832.4201790929724 421.5241832628826" stroke-miterlimit="10"/></g><g transform="translate(-454,-262) scale(1,1)"><g><path fill="none" stroke="none"/><text fill="#000000" stroke="none" font-family="Arial" font-size="13px" font-style="normal" font-weight="normal" text-decoration="none" x="848.5" y="448">«include»</text></g></g></g></svg>