<svg version="1.1" xmlns="http://www.w3.org/2000/svg" xmlns:xlink="http://www.w3.org/1999/xlink" width="961.10791015625" height="429"><defs/><g><text fill="#eeeeee" stroke="none" font-family="Arial" font-size="24px" font-style="normal" font-weight="normal" text-decoration="none" x="0" y="0">UNREGISTERED</text><text fill="#eeeeee" stroke="none" font-family="Arial" font-size="24px" font-style="normal" font-weight="normal" text-decoration="none" x="0" y="30">UNREGISTERED</text><text fill="#eeeeee" stroke="none" font-family="Arial" font-size="24px" font-style="normal" font-weight="normal" text-decoration="none" x="0" y="60">UNREGISTERED</text><text fill="#eeeeee" stroke="none" font-family="Arial" font-size="24px" font-style="normal" font-weight="normal" text-decoration="none" x="0" y="90">UNREGISTERED</text><text fill="#eeeeee" stroke="none" font-family="Arial" font-size="24px" font-style="normal" font-weight="normal" text-decoration="none" x="0" y="120">UNREGISTERED</text><text fill="#eeeeee" stroke="none" font-family="Arial" font-size="24px" font-style="normal" font-weight="normal" text-decoration="none" x="0" y="150">UNREGISTERED</text><text fill="#eeeeee" stroke="none" font-family="Arial" font-size="24px" font-style="normal" font-weight="normal" text-decoration="none" x="0" y="180">UNREGISTERED</text><text fill="#eeeeee" stroke="none" font-family="Arial" font-size="24px" font-style="normal" font-weight="normal" text-decoration="none" x="0" y="210">UNREGISTERED</text><text fill="#eeeeee" stroke="none" font-family="Arial" font-size="24px" font-style="normal" font-weight="normal" text-decoration="none" x="0" y="240">UNREGISTERED</text><text fill="#eeeeee" stroke="none" font-family="Arial" font-size="24px" font-style="normal" font-weight="normal" text-decoration="none" x="0" y="270">UNREGISTERED</text><text fill="#eeeeee" stroke="none" font-family="Arial" font-size="24px" font-style="normal" font-weight="normal" text-decoration="none" x="0" y="300">UNREGISTERED</text><text fill="#eeeeee" stroke="none" font-family="Arial" font-size="24px" font-style="normal" font-weight="normal" text-decoration="none" x="0" y="330">UNREGISTERED</text><text fill="#eeeeee" stroke="none" font-family="Arial" font-size="24px" font-style="normal" font-weight="normal" text-decoration="none" x="0" y="360">UNREGISTERED</text><text fill="#eeeeee" stroke="none" font-family="Arial" font-size="24px" font-style="normal" font-weight="normal" text-decoration="none" x="0" y="390">UNREGISTERED</text><text fill="#eeeeee" stroke="none" font-family="Arial" font-size="24px" font-style="normal" font-weight="normal" text-decoration="none" x="0" y="420">UNREGISTERED</text><text fill="#eeeeee" stroke="none" font-family="Arial" font-size="24px" font-style="normal" font-weight="normal" text-decoration="none" x="200" y="0">UNREGISTERED</text><text fill="#eeeeee" stroke="none" font-family="Arial" font-size="24px" font-style="normal" font-weight="normal" text-decoration="none" x="200" y="30">UNREGISTERED</text><text fill="#eeeeee" stroke="none" font-family="Arial" font-size="24px" font-style="normal" font-weight="normal" text-decoration="none" x="200" y="60">UNREGISTERED</text><text fill="#eeeeee" stroke="none" font-family="Arial" font-size="24px" font-style="normal" font-weight="normal" text-decoration="none" x="200" y="90">UNREGISTERED</text><text fill="#eeeeee" stroke="none" font-family="Arial" font-size="24px" font-style="normal" font-weight="normal" text-decoration="none" x="200" y="120">UNREGISTERED</text><text fill="#eeeeee" stroke="none" font-family="Arial" font-size="24px" font-style="normal" font-weight="normal" text-decoration="none" x="200" y="150">UNREGISTERED</text><text fill="#eeeeee" stroke="none" font-family="Arial" font-size="24px" font-style="normal" font-weight="normal" text-decoration="none" x="200" y="180">UNREGISTERED</text><text fill="#eeeeee" stroke="none" font-family="Arial" font-size="24px" font-style="normal" font-weight="normal" text-decoration="none" x="200" y="210">UNREGISTERED</text><text fill="#eeeeee" stroke="none" font-family="Arial" font-size="24px" font-style="normal" font-weight="normal" text-decoration="none" x="200" y="240">UNREGISTERED</text><text fill="#eeeeee" stroke="none" font-family="Arial" font-size="24px" font-style="normal" font-weight="normal" text-decoration="none" x="200" y="270">UNREGISTERED</text><text fill="#eeeeee" stroke="none" font-family="Arial" font-size="24px" font-style="normal" font-weight="normal" text-decoration="none" x="200" y="300">UNREGISTERED</text><text fill="#eeeeee" stroke="none" font-family="Arial" font-size="24px" font-style="normal" font-weight="normal" text-decoration="none" x="200" y="330">UNREGISTERED</text><text fill="#eeeeee" stroke="none" font-family="Arial" font-size="24px" font-style="normal" font-weight="normal" text-decoration="none" x="200" y="360">UNREGISTERED</text><text fill="#eeeeee" stroke="none" font-family="Arial" font-size="24px" font-style="normal" font-weight="normal" text-decoration="none" x="200" y="390">UNREGISTERED</text><text fill="#eeeeee" stroke="none" font-family="Arial" font-size="24px" font-style="normal" font-weight="normal" text-decoration="none" x="200" y="420">UNREGISTERED</text><text fill="#eeeeee" stroke="none" font-family="Arial" font-size="24px" font-style="normal" font-weight="normal" text-decoration="none" x="400" y="0">UNREGISTERED</text><text fill="#eeeeee" stroke="none" font-family="Arial" font-size="24px" font-style="normal" font-weight="normal" text-decoration="none" x="400" y="30">UNREGISTERED</text><text fill="#eeeeee" stroke="none" font-family="Arial" font-size="24px" font-style="normal" font-weight="normal" text-decoration="none" x="400" y="60">UNREGISTERED</text><text fill="#eeeeee" stroke="none" font-family="Arial" font-size="24px" font-style="normal" font-weight="normal" text-decoration="none" x="400" y="90">UNREGISTERED</text><text fill="#eeeeee" stroke="none" font-family="Arial" font-size="24px" font-style="normal" font-weight="normal" text-decoration="none" x="400" y="120">UNREGISTERED</text><text fill="#eeeeee" stroke="none" font-family="Arial" font-size="24px" font-style="normal" font-weight="normal" text-decoration="none" x="400" y="150">UNREGISTERED</text><text fill="#eeeeee" stroke="none" font-family="Arial" font-size="24px" font-style="normal" font-weight="normal" text-decoration="none" x="400" y="180">UNREGISTERED</text><text fill="#eeeeee" stroke="none" font-family="Arial" font-size="24px" font-style="normal" font-weight="normal" text-decoration="none" x="400" y="210">UNREGISTERED</text><text fill="#eeeeee" stroke="none" font-family="Arial" font-size="24px" font-style="normal" font-weight="normal" text-decoration="none" x="400" y="240">UNREGISTERED</text><text fill="#eeeeee" stroke="none" font-family="Arial" font-size="24px" font-style="normal" font-weight="normal" text-decoration="none" x="400" y="270">UNREGISTERED</text><text fill="#eeeeee" stroke="none" font-family="Arial" font-size="24px" font-style="normal" font-weight="normal" text-decoration="none" x="400" y="300">UNREGISTERED</text><text fill="#eeeeee" stroke="none" font-family="Arial" font-size="24px" font-style="normal" font-weight="normal" text-decoration="none" x="400" y="330">UNREGISTERED</text><text fill="#eeeeee" stroke="none" font-family="Arial" font-size="24px" font-style="normal" font-weight="normal" text-decoration="none" x="400" y="360">UNREGISTERED</text><text fill="#eeeeee" stroke="none" font-family="Arial" font-size="24px" font-style="normal" font-weight="normal" text-decoration="none" x="400" y="390">UNREGISTERED</text><text fill="#eeeeee" stroke="none" font-family="Arial" font-size="24px" font-style="normal" font-weight="normal" text-decoration="none" x="400" y="420">UNREGISTERED</text><text fill="#eeeeee" stroke="none" font-family="Arial" font-size="24px" font-style="normal" font-weight="normal" text-decoration="none" x="600" y="0">UNREGISTERED</text><text fill="#eeeeee" stroke="none" font-family="Arial" font-size="24px" font-style="normal" font-weight="normal" text-decoration="none" x="600" y="30">UNREGISTERED</text><text fill="#eeeeee" stroke="none" font-family="Arial" font-size="24px" font-style="normal" font-weight="normal" text-decoration="none" x="600" y="60">UNREGISTERED</text><text fill="#eeeeee" stroke="none" font-family="Arial" font-size="24px" font-style="normal" font-weight="normal" text-decoration="none" x="600" y="90">UNREGISTERED</text><text fill="#eeeeee" stroke="none" font-family="Arial" font-size="24px" font-style="normal" font-weight="normal" text-decoration="none" x="600" y="120">UNREGISTERED</text><text fill="#eeeeee" stroke="none" font-family="Arial" font-size="24px" font-style="normal" font-weight="normal" text-decoration="none" x="600" y="150">UNREGISTERED</text><text fill="#eeeeee" stroke="none" font-family="Arial" font-size="24px" font-style="normal" font-weight="normal" text-decoration="none" x="600" y="180">UNREGISTERED</text><text fill="#eeeeee" stroke="none" font-family="Arial" font-size="24px" font-style="normal" font-weight="normal" text-decoration="none" x="600" y="210">UNREGISTERED</text><text fill="#eeeeee" stroke="none" font-family="Arial" font-size="24px" font-style="normal" font-weight="normal" text-decoration="none" x="600" y="240">UNREGISTERED</text><text fill="#eeeeee" stroke="none" font-family="Arial" font-size="24px" font-style="normal" font-weight="normal" text-decoration="none" x="600" y="270">UNREGISTERED</text><text fill="#eeeeee" stroke="none" font-family="Arial" font-size="24px" font-style="normal" font-weight="normal" text-decoration="none" x="600" y="300">UNREGISTERED</text><text fill="#eeeeee" stroke="none" font-family="Arial" font-size="24px" font-style="normal" font-weight="normal" text-decoration="none" x="600" y="330">UNREGISTERED</text><text fill="#eeeeee" stroke="none" font-family="Arial" font-size="24px" font-style="normal" font-weight="normal" text-decoration="none" x="600" y="360">UNREGISTERED</text><text fill="#eeeeee" stroke="none" font-family="Arial" font-size="24px" font-style="normal" font-weight="normal" text-decoration="none" x="600" y="390">UNREGISTERED</text><text fill="#eeeeee" stroke="none" font-family="Arial" font-size="24px" font-style="normal" font-weight="normal" text-decoration="none" x="600" y="420">UNREGISTERED</text><text fill="#eeeeee" stroke="none" font-family="Arial" font-size="24px" font-style="normal" font-weight="normal" text-decoration="none" x="800" y="0">UNREGISTERED</text><text fill="#eeeeee" stroke="none" font-family="Arial" font-size="24px" font-style="normal" font-weight="normal" text-decoration="none" x="800" y="30">UNREGISTERED</text><text fill="#eeeeee" stroke="none" font-family="Arial" font-size="24px" font-style="normal" font-weight="normal" text-decoration="none" x="800" y="60">UNREGISTERED</text><text fill="#eeeeee" stroke="none" font-family="Arial" font-size="24px" font-style="normal" font-weight="normal" text-decoration="none" x="800" y="90">UNREGISTERED</text><text fill="#eeeeee" stroke="none" font-family="Arial" font-size="24px" font-style="normal" font-weight="normal" text-decoration="none" x="800" y="120">UNREGISTERED</text><text fill="#eeeeee" stroke="none" font-family="Arial" font-size="24px" font-style="normal" font-weight="normal" text-decoration="none" x="800" y="150">UNREGISTERED</text><text fill="#eeeeee" stroke="none" font-family="Arial" font-size="24px" font-style="normal" font-weight="normal" text-decoration="none" x="800" y="180">UNREGISTERED</text><text fill="#eeeeee" stroke="none" font-family="Arial" font-size="24px" font-style="normal" font-weight="normal" text-decoration="none" x="800" y="210">UNREGISTERED</text><text fill="#eeeeee" stroke="none" font-family="Arial" font-size="24px" font-style="normal" font-weight="normal" text-decoration="none" x="800" y="240">UNREGISTERED</text><text fill="#eeeeee" stroke="none" font-family="Arial" font-size="24px" font-style="normal" font-weight="normal" text-decoration="none" x="800" y="270">UNREGISTERED</text><text fill="#eeeeee" stroke="none" font-family="Arial" font-size="24px" font-style="normal" font-weight="normal" text-decoration="none" x="800" y="300">UNREGISTERED</text><text fill="#eeeeee" stroke="none" font-family="Arial" font-size="24px" font-style="normal" font-weight="normal" text-decoration="none" x="800" y="330">UNREGISTERED</text><text fill="#eeeeee" stroke="none" font-family="Arial" font-size="24px" font-style="normal" font-weight="normal" text-decoration="none" x="800" y="360">UNREGISTERED</text><text fill="#eeeeee" stroke="none" font-family="Arial" font-size="24px" font-style="normal" font-weight="normal" text-decoration="none" x="800" y="390">UNREGISTERED</text><text fill="#eeeeee" stroke="none" font-family="Arial" font-size="24px" font-style="normal" font-weight="normal" text-decoration="none" x="800" y="420">UNREGISTERED</text><g transform="translate(-182,-198) scale(1,1)"><path fill="#C0C0C0" stroke="none" d="M 199 248.5 C 199 243.2532944 203.2532944 239 208.5 239 C 213.7467056 239 218 243.2532944 218 248.5 C 218 253.7467056 213.7467056 258 208.5 258 C 203.2532944 258 199 253.7467056 199 248.5 Z" opacity="0.2"/></g><g transform="translate(-182,-198) scale(1,1)"><path fill="#000000" stroke="none" d="M 192 241.5 C 192 236.2532944 196.2532944 232 201.5 232 C 206.7467056 232 211 236.2532944 211 241.5 C 211 246.7467056 206.7467056 251 201.5 251 C 196.2532944 251 192 246.7467056 192 241.5 Z"/></g><g transform="translate(-182,-198) scale(1,1)"><path fill="#C0C0C0" stroke="none" d="M 441 215 L 598.33349609375 215 Q 608.33349609375 215 608.33349609375 225 L 608.33349609375 269 Q 608.33349609375 279 598.33349609375 279 L 441 279 Q 431 279 431 269 L 431 225 Q 431 215 441 215 Z" opacity="0.2"/></g><g transform="translate(-182,-198) scale(1,1)"><path fill="#ffffff" stroke="none" d="M 434 208 L 591.33349609375 208 Q 601.33349609375 208 601.33349609375 218 L 601.33349609375 262 Q 601.33349609375 272 591.33349609375 272 L 434 272 Q 424 272 424 262 L 424 218 Q 424 208 434 208 Z"/></g><g transform="translate(-182,-198) scale(1,1)"><path fill="none" stroke="#000000" d="M 434 208 L 591.33349609375 208 Q 601.33349609375 208 601.33349609375 218 L 601.33349609375 262 Q 601.33349609375 272 591.33349609375 272 L 434 272 Q 424 272 424 262 L 424 218 Q 424 208 434 208 Z" stroke-miterlimit="10"/></g><g transform="translate(-182,-198) scale(1,1)"><path fill="none" stroke="#000000" d="M 424 233 L 601.33349609375 233" stroke-miterlimit="10"/></g><g transform="translate(-182,-198) scale(1,1)"><g><path fill="none" stroke="none"/><text fill="#000000" stroke="none" font-family="Arial" font-size="13px" font-style="normal" font-weight="bold" text-decoration="none" x="428.5" y="226">Exibe campanhas ou perfis</text></g></g><g transform="translate(-182,-198) scale(1,1)"><g><path fill="none" stroke="none"/><text fill="#000000" stroke="none" font-family="Arial" font-size="13px" font-style="normal" font-weight="normal" text-decoration="none" x="429" y="249">do/ExibeUsuários</text></g></g><g transform="translate(-182,-198) scale(1,1)"><path fill="none" stroke="#000000" d="M 212 241 L 423 240" stroke-miterlimit="10"/></g><g transform="translate(-182,-198) scale(1,1)"><path fill="none" stroke="#000000" d="M 412.8573893710176 244.2576342760801 L 423 240 L 412.8174891768832 235.83869331374027" stroke-miterlimit="10"/></g><g transform="translate(-182,-198) scale(1,1)"><g><path fill="none" stroke="none"/><text fill="#000000" stroke="none" font-family="Arial" font-size="13px" font-style="normal" font-weight="normal" text-decoration="none" x="275.5" y="230">exibe usuários</text></g></g><g transform="translate(-182,-198) scale(1,1)"><path fill="#C0C0C0" stroke="none" d="M 881 223 L 1130.10791015625 223 Q 1140.10791015625 223 1140.10791015625 233 L 1140.10791015625 260 Q 1140.10791015625 270 1130.10791015625 270 L 881 270 Q 871 270 871 260 L 871 233 Q 871 223 881 223 Z" opacity="0.2"/></g><g transform="translate(-182,-198) scale(1,1)"><path fill="#ffffff" stroke="none" d="M 874 216 L 1123.10791015625 216 Q 1133.10791015625 216 1133.10791015625 226 L 1133.10791015625 253 Q 1133.10791015625 263 1123.10791015625 263 L 874 263 Q 864 263 864 253 L 864 226 Q 864 216 874 216 Z"/></g><g transform="translate(-182,-198) scale(1,1)"><path fill="none" stroke="#000000" d="M 874 216 L 1123.10791015625 216 Q 1133.10791015625 216 1133.10791015625 226 L 1133.10791015625 253 Q 1133.10791015625 263 1123.10791015625 263 L 874 263 Q 864 263 864 253 L 864 226 Q 864 216 874 216 Z" stroke-miterlimit="10"/></g><g transform="translate(-182,-198) scale(1,1)"><path fill="none" stroke="#000000" d="M 864 241 L 1133.10791015625 241" stroke-miterlimit="10"/></g><g transform="translate(-182,-198) scale(1,1)"><g><path fill="none" stroke="none"/><text fill="#000000" stroke="none" font-family="Arial" font-size="13px" font-style="normal" font-weight="bold" text-decoration="none" x="890.5517578125" y="234">Comparando escolhas de usúarios</text></g></g><g transform="translate(-182,-198) scale(1,1)"><g><path fill="none" stroke="none"/><text fill="#000000" stroke="none" font-family="Arial" font-size="13px" font-style="normal" font-weight="normal" text-decoration="none" x="869" y="257">do/CompEscolhas</text></g></g><g transform="translate(-182,-198) scale(1,1)"><path fill="none" stroke="#000000" d="M 602 240 L 863 239" stroke-miterlimit="10"/></g><g transform="translate(-182,-198) scale(1,1)"><path fill="none" stroke="#000000" d="M 852.8535280365154 243.24842402476753 L 863 239 L 852.8212714322319 234.82945030676984" stroke-miterlimit="10"/></g><g transform="translate(-182,-198) scale(1,1)"><g><path fill="none" stroke="none"/><text fill="#000000" stroke="none" font-family="Arial" font-size="13px" font-style="normal" font-weight="normal" text-decoration="none" x="610.5" y="229">Aguarda seleção de usuários de interesse</text></g></g><g transform="translate(-182,-198) scale(1,1)"><path fill="#C0C0C0" stroke="none" d="M 961 431 L 1048.97265625 431 Q 1058.97265625 431 1058.97265625 441 L 1058.97265625 468 Q 1058.97265625 478 1048.97265625 478 L 961 478 Q 951 478 951 468 L 951 441 Q 951 431 961 431 Z" opacity="0.2"/></g><g transform="translate(-182,-198) scale(1,1)"><path fill="#ffffff" stroke="none" d="M 954 424 L 1041.97265625 424 Q 1051.97265625 424 1051.97265625 434 L 1051.97265625 461 Q 1051.97265625 471 1041.97265625 471 L 954 471 Q 944 471 944 461 L 944 434 Q 944 424 954 424 Z"/></g><g transform="translate(-182,-198) scale(1,1)"><path fill="none" stroke="#000000" d="M 954 424 L 1041.97265625 424 Q 1051.97265625 424 1051.97265625 434 L 1051.97265625 461 Q 1051.97265625 471 1041.97265625 471 L 954 471 Q 944 471 944 461 L 944 434 Q 944 424 954 424 Z" stroke-miterlimit="10"/></g><g transform="translate(-182,-198) scale(1,1)"><path fill="none" stroke="#000000" d="M 944 449 L 1051.97265625 449" stroke-miterlimit="10"/></g><g transform="translate(-182,-198) scale(1,1)"><g><path fill="none" stroke="none"/><text fill="#000000" stroke="none" font-family="Arial" font-size="13px" font-style="normal" font-weight="bold" text-decoration="none" x="948.5" y="442">Criação de Chat</text></g></g><g transform="translate(-182,-198) scale(1,1)"><g><path fill="none" stroke="none"/><text fill="#000000" stroke="none" font-family="Arial" font-size="13px" font-style="normal" font-weight="normal" text-decoration="none" x="949" y="465">do/Cria chat</text></g></g><g transform="translate(-182,-198) scale(1,1)"><path fill="none" stroke="#000000" d="M 998 264 L 997 423" stroke-miterlimit="10"/></g><g transform="translate(-182,-198) scale(1,1)"><path fill="none" stroke="#000000" d="M 992.8544804260833 412.811051699892 L 997 423 L 1001.2733494339075 412.8640005615764" stroke-miterlimit="10"/></g><g transform="translate(-182,-198) scale(1,1)"><g><path fill="none" stroke="none"/><text fill="#000000" stroke="none" font-family="Arial" font-size="13px" font-style="normal" font-weight="normal" text-decoration="none" x="892.5" y="347">se escolhas forem compativeis / cria chat</text></g></g><g transform="translate(-182,-198) scale(1,1)"><path fill="#C0C0C0" stroke="none" d="M 991 611.5 C 991 604.59644 996.59644 599 1003.5 599 C 1010.40356 599 1016 604.59644 1016 611.5 C 1016 618.40356 1010.40356 624 1003.5 624 C 996.59644 624 991 618.40356 991 611.5 Z" opacity="0.2"/></g><g transform="translate(-182,-198) scale(1,1)"><path fill="none" stroke="#000000" d="M 984 604.5 C 984 597.59644 989.59644 592 996.5 592 C 1003.40356 592 1009 597.59644 1009 604.5 C 1009 611.40356 1003.40356 617 996.5 617 C 989.59644 617 984 611.40356 984 604.5 Z" stroke-miterlimit="10"/></g><g transform="translate(-182,-198) scale(1,1)"><path fill="#000000" stroke="none" d="M 989 604.5 C 989 600.357864 992.357864 597 996.5 597 C 1000.642136 597 1004 600.357864 1004 604.5 C 1004 608.642136 1000.642136 612 996.5 612 C 992.357864 612 989 608.642136 989 604.5 Z"/></g><g transform="translate(-182,-198) scale(1,1)"><path fill="none" stroke="#000000" d="M 997 472 L 996 591" stroke-miterlimit="10"/></g><g transform="translate(-182,-198) scale(1,1)"><path fill="none" stroke="#000000" d="M 991.8760284806492 580.8023110996862 L 996 591 L 1000.2947667470895 580.8730567994041" stroke-miterlimit="10"/></g><g transform="translate(-182,-198) scale(1,1)"><g><path fill="none" stroke="none"/><text fill="#000000" stroke="none" font-family="Arial" font-size="13px" font-style="normal" font-weight="normal" text-decoration="none" x="918.5" y="535">Seleção realizada com sucesso</text></g></g></g></svg>