<svg version="1.1" xmlns="http://www.w3.org/2000/svg" xmlns:xlink="http://www.w3.org/1999/xlink" width="1309.16259765625" height="388"><defs/><g><text fill="#eeeeee" stroke="none" font-family="Arial" font-size="24px" font-style="normal" font-weight="normal" text-decoration="none" x="0" y="0">UNREGISTERED</text><text fill="#eeeeee" stroke="none" font-family="Arial" font-size="24px" font-style="normal" font-weight="normal" text-decoration="none" x="0" y="30">UNREGISTERED</text><text fill="#eeeeee" stroke="none" font-family="Arial" font-size="24px" font-style="normal" font-weight="normal" text-decoration="none" x="0" y="60">UNREGISTERED</text><text fill="#eeeeee" stroke="none" font-family="Arial" font-size="24px" font-style="normal" font-weight="normal" text-decoration="none" x="0" y="90">UNREGISTERED</text><text fill="#eeeeee" stroke="none" font-family="Arial" font-size="24px" font-style="normal" font-weight="normal" text-decoration="none" x="0" y="120">UNREGISTERED</text><text fill="#eeeeee" stroke="none" font-family="Arial" font-size="24px" font-style="normal" font-weight="normal" text-decoration="none" x="0" y="150">UNREGISTERED</text><text fill="#eeeeee" stroke="none" font-family="Arial" font-size="24px" font-style="normal" font-weight="normal" text-decoration="none" x="0" y="180">UNREGISTERED</text><text fill="#eeeeee" stroke="none" font-family="Arial" font-size="24px" font-style="normal" font-weight="normal" text-decoration="none" x="0" y="210">UNREGISTERED</text><text fill="#eeeeee" stroke="none" font-family="Arial" font-size="24px" font-style="normal" font-weight="normal" text-decoration="none" x="0" y="240">UNREGISTERED</text><text fill="#eeeeee" stroke="none" font-family="Arial" font-size="24px" font-style="normal" font-weight="normal" text-decoration="none" x="0" y="270">UNREGISTERED</text><text fill="#eeeeee" stroke="none" font-family="Arial" font-size="24px" font-style="normal" font-weight="normal" text-decoration="none" x="0" y="300">UNREGISTERED</text><text fill="#eeeeee" stroke="none" font-family="Arial" font-size="24px" font-style="normal" font-weight="normal" text-decoration="none" x="0" y="330">UNREGISTERED</text><text fill="#eeeeee" stroke="none" font-family="Arial" font-size="24px" font-style="normal" font-weight="normal" text-decoration="none" x="0" y="360">UNREGISTERED</text><text fill="#eeeeee" stroke="none" font-family="Arial" font-size="24px" font-style="normal" font-weight="normal" text-decoration="none" x="200" y="0">UNREGISTERED</text><text fill="#eeeeee" stroke="none" font-family="Arial" font-size="24px" font-style="normal" font-weight="normal" text-decoration="none" x="200" y="30">UNREGISTERED</text><text fill="#eeeeee" stroke="none" font-family="Arial" font-size="24px" font-style="normal" font-weight="normal" text-decoration="none" x="200" y="60">UNREGISTERED</text><text fill="#eeeeee" stroke="none" font-family="Arial" font-size="24px" font-style="normal" font-weight="normal" text-decoration="none" x="200" y="90">UNREGISTERED</text><text fill="#eeeeee" stroke="none" font-family="Arial" font-size="24px" font-style="normal" font-weight="normal" text-decoration="none" x="200" y="120">UNREGISTERED</text><text fill="#eeeeee" stroke="none" font-family="Arial" font-size="24px" font-style="normal" font-weight="normal" text-decoration="none" x="200" y="150">UNREGISTERED</text><text fill="#eeeeee" stroke="none" font-family="Arial" font-size="24px" font-style="normal" font-weight="normal" text-decoration="none" x="200" y="180">UNREGISTERED</text><text fill="#eeeeee" stroke="none" font-family="Arial" font-size="24px" font-style="normal" font-weight="normal" text-decoration="none" x="200" y="210">UNREGISTERED</text><text fill="#eeeeee" stroke="none" font-family="Arial" font-size="24px" font-style="normal" font-weight="normal" text-decoration="none" x="200" y="240">UNREGISTERED</text><text fill="#eeeeee" stroke="none" font-family="Arial" font-size="24px" font-style="normal" font-weight="normal" text-decoration="none" x="200" y="270">UNREGISTERED</text><text fill="#eeeeee" stroke="none" font-family="Arial" font-size="24px" font-style="normal" font-weight="normal" text-decoration="none" x="200" y="300">UNREGISTERED</text><text fill="#eeeeee" stroke="none" font-family="Arial" font-size="24px" font-style="normal" font-weight="normal" text-decoration="none" x="200" y="330">UNREGISTERED</text><text fill="#eeeeee" stroke="none" font-family="Arial" font-size="24px" font-style="normal" font-weight="normal" text-decoration="none" x="200" y="360">UNREGISTERED</text><text fill="#eeeeee" stroke="none" font-family="Arial" font-size="24px" font-style="normal" font-weight="normal" text-decoration="none" x="400" y="0">UNREGISTERED</text><text fill="#eeeeee" stroke="none" font-family="Arial" font-size="24px" font-style="normal" font-weight="normal" text-decoration="none" x="400" y="30">UNREGISTERED</text><text fill="#eeeeee" stroke="none" font-family="Arial" font-size="24px" font-style="normal" font-weight="normal" text-decoration="none" x="400" y="60">UNREGISTERED</text><text fill="#eeeeee" stroke="none" font-family="Arial" font-size="24px" font-style="normal" font-weight="normal" text-decoration="none" x="400" y="90">UNREGISTERED</text><text fill="#eeeeee" stroke="none" font-family="Arial" font-size="24px" font-style="normal" font-weight="normal" text-decoration="none" x="400" y="120">UNREGISTERED</text><text fill="#eeeeee" stroke="none" font-family="Arial" font-size="24px" font-style="normal" font-weight="normal" text-decoration="none" x="400" y="150">UNREGISTERED</text><text fill="#eeeeee" stroke="none" font-family="Arial" font-size="24px" font-style="normal" font-weight="normal" text-decoration="none" x="400" y="180">UNREGISTERED</text><text fill="#eeeeee" stroke="none" font-family="Arial" font-size="24px" font-style="normal" font-weight="normal" text-decoration="none" x="400" y="210">UNREGISTERED</text><text fill="#eeeeee" stroke="none" font-family="Arial" font-size="24px" font-style="normal" font-weight="normal" text-decoration="none" x="400" y="240">UNREGISTERED</text><text fill="#eeeeee" stroke="none" font-family="Arial" font-size="24px" font-style="normal" font-weight="normal" text-decoration="none" x="400" y="270">UNREGISTERED</text><text fill="#eeeeee" stroke="none" font-family="Arial" font-size="24px" font-style="normal" font-weight="normal" text-decoration="none" x="400" y="300">UNREGISTERED</text><text fill="#eeeeee" stroke="none" font-family="Arial" font-size="24px" font-style="normal" font-weight="normal" text-decoration="none" x="400" y="330">UNREGISTERED</text><text fill="#eeeeee" stroke="none" font-family="Arial" font-size="24px" font-style="normal" font-weight="normal" text-decoration="none" x="400" y="360">UNREGISTERED</text><text fill="#eeeeee" stroke="none" font-family="Arial" font-size="24px" font-style="normal" font-weight="normal" text-decoration="none" x="600" y="0">UNREGISTERED</text><text fill="#eeeeee" stroke="none" font-family="Arial" font-size="24px" font-style="normal" font-weight="normal" text-decoration="none" x="600" y="30">UNREGISTERED</text><text fill="#eeeeee" stroke="none" font-family="Arial" font-size="24px" font-style="normal" font-weight="normal" text-decoration="none" x="600" y="60">UNREGISTERED</text><text fill="#eeeeee" stroke="none" font-family="Arial" font-size="24px" font-style="normal" font-weight="normal" text-decoration="none" x="600" y="90">UNREGISTERED</text><text fill="#eeeeee" stroke="none" font-family="Arial" font-size="24px" font-style="normal" font-weight="normal" text-decoration="none" x="600" y="120">UNREGISTERED</text><text fill="#eeeeee" stroke="none" font-family="Arial" font-size="24px" font-style="normal" font-weight="normal" text-decoration="none" x="600" y="150">UNREGISTERED</text><text fill="#eeeeee" stroke="none" font-family="Arial" font-size="24px" font-style="normal" font-weight="normal" text-decoration="none" x="600" y="180">UNREGISTERED</text><text fill="#eeeeee" stroke="none" font-family="Arial" font-size="24px" font-style="normal" font-weight="normal" text-decoration="none" x="600" y="210">UNREGISTERED</text><text fill="#eeeeee" stroke="none" font-family="Arial" font-size="24px" font-style="normal" font-weight="normal" text-decoration="none" x="600" y="240">UNREGISTERED</text><text fill="#eeeeee" stroke="none" font-family="Arial" font-size="24px" font-style="normal" font-weight="normal" text-decoration="none" x="600" y="270">UNREGISTERED</text><text fill="#eeeeee" stroke="none" font-family="Arial" font-size="24px" font-style="normal" font-weight="normal" text-decoration="none" x="600" y="300">UNREGISTERED</text><text fill="#eeeeee" stroke="none" font-family="Arial" font-size="24px" font-style="normal" font-weight="normal" text-decoration="none" x="600" y="330">UNREGISTERED</text><text fill="#eeeeee" stroke="none" font-family="Arial" font-size="24px" font-style="normal" font-weight="normal" text-decoration="none" x="600" y="360">UNREGISTERED</text><text fill="#eeeeee" stroke="none" font-family="Arial" font-size="24px" font-style="normal" font-weight="normal" text-decoration="none" x="800" y="0">UNREGISTERED</text><text fill="#eeeeee" stroke="none" font-family="Arial" font-size="24px" font-style="normal" font-weight="normal" text-decoration="none" x="800" y="30">UNREGISTERED</text><text fill="#eeeeee" stroke="none" font-family="Arial" font-size="24px" font-style="normal" font-weight="normal" text-decoration="none" x="800" y="60">UNREGISTERED</text><text fill="#eeeeee" stroke="none" font-family="Arial" font-size="24px" font-style="normal" font-weight="normal" text-decoration="none" x="800" y="90">UNREGISTERED</text><text fill="#eeeeee" stroke="none" font-family="Arial" font-size="24px" font-style="normal" font-weight="normal" text-decoration="none" x="800" y="120">UNREGISTERED</text><text fill="#eeeeee" stroke="none" font-family="Arial" font-size="24px" font-style="normal" font-weight="normal" text-decoration="none" x="800" y="150">UNREGISTERED</text><text fill="#eeeeee" stroke="none" font-family="Arial" font-size="24px" font-style="normal" font-weight="normal" text-decoration="none" x="800" y="180">UNREGISTERED</text><text fill="#eeeeee" stroke="none" font-family="Arial" font-size="24px" font-style="normal" font-weight="normal" text-decoration="none" x="800" y="210">UNREGISTERED</text><text fill="#eeeeee" stroke="none" font-family="Arial" font-size="24px" font-style="normal" font-weight="normal" text-decoration="none" x="800" y="240">UNREGISTERED</text><text fill="#eeeeee" stroke="none" font-family="Arial" font-size="24px" font-style="normal" font-weight="normal" text-decoration="none" x="800" y="270">UNREGISTERED</text><text fill="#eeeeee" stroke="none" font-family="Arial" font-size="24px" font-style="normal" font-weight="normal" text-decoration="none" x="800" y="300">UNREGISTERED</text><text fill="#eeeeee" stroke="none" font-family="Arial" font-size="24px" font-style="normal" font-weight="normal" text-decoration="none" x="800" y="330">UNREGISTERED</text><text fill="#eeeeee" stroke="none" font-family="Arial" font-size="24px" font-style="normal" font-weight="normal" text-decoration="none" x="800" y="360">UNREGISTERED</text><text fill="#eeeeee" stroke="none" font-family="Arial" font-size="24px" font-style="normal" font-weight="normal" text-decoration="none" x="1000" y="0">UNREGISTERED</text><text fill="#eeeeee" stroke="none" font-family="Arial" font-size="24px" font-style="normal" font-weight="normal" text-decoration="none" x="1000" y="30">UNREGISTERED</text><text fill="#eeeeee" stroke="none" font-family="Arial" font-size="24px" font-style="normal" font-weight="normal" text-decoration="none" x="1000" y="60">UNREGISTERED</text><text fill="#eeeeee" stroke="none" font-family="Arial" font-size="24px" font-style="normal" font-weight="normal" text-decoration="none" x="1000" y="90">UNREGISTERED</text><text fill="#eeeeee" stroke="none" font-family="Arial" font-size="24px" font-style="normal" font-weight="normal" text-decoration="none" x="1000" y="120">UNREGISTERED</text><text fill="#eeeeee" stroke="none" font-family="Arial" font-size="24px" font-style="normal" font-weight="normal" text-decoration="none" x="1000" y="150">UNREGISTERED</text><text fill="#eeeeee" stroke="none" font-family="Arial" font-size="24px" font-style="normal" font-weight="normal" text-decoration="none" x="1000" y="180">UNREGISTERED</text><text fill="#eeeeee" stroke="none" font-family="Arial" font-size="24px" font-style="normal" font-weight="normal" text-decoration="none" x="1000" y="210">UNREGISTERED</text><text fill="#eeeeee" stroke="none" font-family="Arial" font-size="24px" font-style="normal" font-weight="normal" text-decoration="none" x="1000" y="240">UNREGISTERED</text><text fill="#eeeeee" stroke="none" font-family="Arial" font-size="24px" font-style="normal" font-weight="normal" text-decoration="none" x="1000" y="270">UNREGISTERED</text><text fill="#eeeeee" stroke="none" font-family="Arial" font-size="24px" font-style="normal" font-weight="normal" text-decoration="none" x="1000" y="300">UNREGISTERED</text><text fill="#eeeeee" stroke="none" font-family="Arial" font-size="24px" font-style="normal" font-weight="normal" text-decoration="none" x="1000" y="330">UNREGISTERED</text><text fill="#eeeeee" stroke="none" font-family="Arial" font-size="24px" font-style="normal" font-weight="normal" text-decoration="none" x="1000" y="360">UNREGISTERED</text><text fill="#eeeeee" stroke="none" font-family="Arial" font-size="24px" font-style="normal" font-weight="normal" text-decoration="none" x="1200" y="0">UNREGISTERED</text><text fill="#eeeeee" stroke="none" font-family="Arial" font-size="24px" font-style="normal" font-weight="normal" text-decoration="none" x="1200" y="30">UNREGISTERED</text><text fill="#eeeeee" stroke="none" font-family="Arial" font-size="24px" font-style="normal" font-weight="normal" text-decoration="none" x="1200" y="60">UNREGISTERED</text><text fill="#eeeeee" stroke="none" font-family="Arial" font-size="24px" font-style="normal" font-weight="normal" text-decoration="none" x="1200" y="90">UNREGISTERED</text><text fill="#eeeeee" stroke="none" font-family="Arial" font-size="24px" font-style="normal" font-weight="normal" text-decoration="none" x="1200" y="120">UNREGISTERED</text><text fill="#eeeeee" stroke="none" font-family="Arial" font-size="24px" font-style="normal" font-weight="normal" text-decoration="none" x="1200" y="150">UNREGISTERED</text><text fill="#eeeeee" stroke="none" font-family="Arial" font-size="24px" font-style="normal" font-weight="normal" text-decoration="none" x="1200" y="180">UNREGISTERED</text><text fill="#eeeeee" stroke="none" font-family="Arial" font-size="24px" font-style="normal" font-weight="normal" text-decoration="none" x="1200" y="210">UNREGISTERED</text><text fill="#eeeeee" stroke="none" font-family="Arial" font-size="24px" font-style="normal" font-weight="normal" text-decoration="none" x="1200" y="240">UNREGISTERED</text><text fill="#eeeeee" stroke="none" font-family="Arial" font-size="24px" font-style="normal" font-weight="normal" text-decoration="none" x="1200" y="270">UNREGISTERED</text><text fill="#eeeeee" stroke="none" font-family="Arial" font-size="24px" font-style="normal" font-weight="normal" text-decoration="none" x="1200" y="300">UNREGISTERED</text><text fill="#eeeeee" stroke="none" font-family="Arial" font-size="24px" font-style="normal" font-weight="normal" text-decoration="none" x="1200" y="330">UNREGISTERED</text><text fill="#eeeeee" stroke="none" font-family="Arial" font-size="24px" font-style="normal" font-weight="normal" text-decoration="none" x="1200" y="360">UNREGISTERED</text><g transform="translate(-142,-254) scale(1,1)"><path fill="#C0C0C0" stroke="none" d="M 159 288.5 C 159 283.2532944 163.2532944 279 168.5 279 C 173.7467056 279 178 283.2532944 178 288.5 C 178 293.7467056 173.7467056 298 168.5 298 C 163.2532944 298 159 293.7467056 159 288.5 Z" opacity="0.2"/></g><g transform="translate(-142,-254) scale(1,1)"><path fill="#000000" stroke="none" d="M 152 281.5 C 152 276.2532944 156.2532944 272 161.5 272 C 166.7467056 272 171 276.2532944 171 281.5 C 171 286.7467056 166.7467056 291 161.5 291 C 156.2532944 291 152 286.7467056 152 281.5 Z"/></g><g transform="translate(-142,-254) scale(1,1)"><path fill="#C0C0C0" stroke="none" d="M 321 271 L 460.26171875 271 Q 470.26171875 271 470.26171875 281 L 470.26171875 301 Q 470.26171875 311 460.26171875 311 L 321 311 Q 311 311 311 301 L 311 281 Q 311 271 321 271 Z" opacity="0.2"/></g><g transform="translate(-142,-254) scale(1,1)"><path fill="#ffffff" stroke="none" d="M 314 264 L 453.26171875 264 Q 463.26171875 264 463.26171875 274 L 463.26171875 294 Q 463.26171875 304 453.26171875 304 L 314 304 Q 304 304 304 294 L 304 274 Q 304 264 314 264 Z"/></g><g transform="translate(-142,-254) scale(1,1)"><path fill="none" stroke="#000000" d="M 314 264 L 453.26171875 264 Q 463.26171875 264 463.26171875 274 L 463.26171875 294 Q 463.26171875 304 453.26171875 304 L 314 304 Q 304 304 304 294 L 304 274 Q 304 264 314 264 Z" stroke-miterlimit="10"/></g><g transform="translate(-142,-254) scale(1,1)"><g><path fill="none" stroke="none"/><text fill="#000000" stroke="none" font-family="Arial" font-size="13px" font-style="normal" font-weight="bold" text-decoration="none" x="308.5" y="282">Usuário loga no sistema</text></g></g><g transform="translate(-142,-254) scale(1,1)"><path fill="#C0C0C0" stroke="none" d="M 577 271 L 698.69140625 271 Q 708.69140625 271 708.69140625 281 L 708.69140625 301 Q 708.69140625 311 698.69140625 311 L 577 311 Q 567 311 567 301 L 567 281 Q 567 271 577 271 Z" opacity="0.2"/></g><g transform="translate(-142,-254) scale(1,1)"><path fill="#ffffff" stroke="none" d="M 570 264 L 691.69140625 264 Q 701.69140625 264 701.69140625 274 L 701.69140625 294 Q 701.69140625 304 691.69140625 304 L 570 304 Q 560 304 560 294 L 560 274 Q 560 264 570 264 Z"/></g><g transform="translate(-142,-254) scale(1,1)"><path fill="none" stroke="#000000" d="M 570 264 L 691.69140625 264 Q 701.69140625 264 701.69140625 274 L 701.69140625 294 Q 701.69140625 304 691.69140625 304 L 570 304 Q 560 304 560 294 L 560 274 Q 560 264 570 264 Z" stroke-miterlimit="10"/></g><g transform="translate(-142,-254) scale(1,1)"><g><path fill="none" stroke="none"/><text fill="#000000" stroke="none" font-family="Arial" font-size="13px" font-style="normal" font-weight="bold" text-decoration="none" x="564.5" y="282">Tela Aluguel de Salas</text></g></g><g transform="translate(-142,-254) scale(1,1)"><path fill="#C0C0C0" stroke="none" d="M 801 271 L 942.4453125 271 Q 952.4453125 271 952.4453125 281 L 952.4453125 301 Q 952.4453125 311 942.4453125 311 L 801 311 Q 791 311 791 301 L 791 281 Q 791 271 801 271 Z" opacity="0.2"/></g><g transform="translate(-142,-254) scale(1,1)"><path fill="#ffffff" stroke="none" d="M 794 264 L 935.4453125 264 Q 945.4453125 264 945.4453125 274 L 945.4453125 294 Q 945.4453125 304 935.4453125 304 L 794 304 Q 784 304 784 294 L 784 274 Q 784 264 794 264 Z"/></g><g transform="translate(-142,-254) scale(1,1)"><path fill="none" stroke="#000000" d="M 794 264 L 935.4453125 264 Q 945.4453125 264 945.4453125 274 L 945.4453125 294 Q 945.4453125 304 935.4453125 304 L 794 304 Q 784 304 784 294 L 784 274 Q 784 264 794 264 Z" stroke-miterlimit="10"/></g><g transform="translate(-142,-254) scale(1,1)"><g><path fill="none" stroke="none"/><text fill="#000000" stroke="none" font-family="Arial" font-size="13px" font-style="normal" font-weight="bold" text-decoration="none" x="788.5" y="282">Seleção de data e hoário</text></g></g><g transform="translate(-142,-254) scale(1,1)"><path fill="none" stroke="#000000" d="M 703 284 L 783 284" stroke-miterlimit="10"/></g><g transform="translate(-142,-254) scale(1,1)"><path fill="none" stroke="#000000" d="M 772.8373251423759 288.209517756016 L 783 284 L 772.8373251423758 279.790482243984" stroke-miterlimit="10"/></g><g transform="translate(-142,-254) scale(1,1)"><path fill="#C0C0C0" stroke="none" d="M 855 384.5 L 866.5 375 L 877 384.5 L 866.5 393 L 855 384.5" opacity="0.2"/></g><g transform="translate(-142,-254) scale(1,1)"><path fill="#ffffff" stroke="none" d="M 848 377 L 859 368 L 870 377 L 859 386 L 848 377"/></g><g transform="translate(-142,-254) scale(1,1)"><path fill="none" stroke="#000000" d="M 848 377 L 859 368 L 870 377 L 859 386 L 848 377 L 848 377" stroke-miterlimit="10"/></g><g transform="translate(-142,-254) scale(1,1)"><path fill="none" stroke="#000000" d="M 863 305 L 860 367" stroke-miterlimit="10"/></g><g transform="translate(-142,-254) scale(1,1)"><path fill="none" stroke="#000000" d="M 856.2865691827315 356.6457529696573 L 860 367 L 864.6957661768784 357.05264959840633" stroke-miterlimit="10"/></g><g transform="translate(-142,-254) scale(1,1)"><path fill="#C0C0C0" stroke="none" d="M 1065 367 L 1171.51416015625 367 Q 1181.51416015625 367 1181.51416015625 377 L 1181.51416015625 397 Q 1181.51416015625 407 1171.51416015625 407 L 1065 407 Q 1055 407 1055 397 L 1055 377 Q 1055 367 1065 367 Z" opacity="0.2"/></g><g transform="translate(-142,-254) scale(1,1)"><path fill="#ffffff" stroke="none" d="M 1058 360 L 1164.51416015625 360 Q 1174.51416015625 360 1174.51416015625 370 L 1174.51416015625 390 Q 1174.51416015625 400 1164.51416015625 400 L 1058 400 Q 1048 400 1048 390 L 1048 370 Q 1048 360 1058 360 Z"/></g><g transform="translate(-142,-254) scale(1,1)"><path fill="none" stroke="#000000" d="M 1058 360 L 1164.51416015625 360 Q 1174.51416015625 360 1174.51416015625 370 L 1174.51416015625 390 Q 1174.51416015625 400 1164.51416015625 400 L 1058 400 Q 1048 400 1048 390 L 1048 370 Q 1048 360 1058 360 Z" stroke-miterlimit="10"/></g><g transform="translate(-142,-254) scale(1,1)"><g><path fill="none" stroke="none"/><text fill="#000000" stroke="none" font-family="Arial" font-size="13px" font-style="normal" font-weight="bold" text-decoration="none" x="1052.5" y="378">Tela de Pagamento</text></g></g><g transform="translate(-142,-254) scale(1,1)"><path fill="none" stroke="#000000" d="M 871 377 L 1047 379" stroke-miterlimit="10"/></g><g transform="translate(-142,-254) scale(1,1)"><path fill="none" stroke="#000000" d="M 1036.7901489024775 383.09376850425366 L 1047 379 L 1036.8858135840712 374.6752765240026" stroke-miterlimit="10"/></g><g transform="translate(-142,-254) scale(1,1)"><g><path fill="none" stroke="none"/><text fill="#000000" stroke="none" font-family="Arial" font-size="13px" font-style="normal" font-weight="normal" text-decoration="none" x="884.5" y="368">Data e horário disponíves</text></g></g><g transform="translate(-142,-254) scale(1,1)"><path fill="none" stroke="#000000" d="M 172 281 L 303 283" stroke-miterlimit="10"/></g><g transform="translate(-142,-254) scale(1,1)"><path fill="none" stroke="#000000" d="M 292.77424936926127 287.0538899883873 L 303 283 L 292.9027692853091 278.63583548725495" stroke-miterlimit="10"/></g><g transform="translate(-142,-254) scale(1,1)"><path fill="none" stroke="#000000" d="M 464 284 L 559 284" stroke-miterlimit="10"/></g><g transform="translate(-142,-254) scale(1,1)"><path fill="none" stroke="#000000" d="M 548.8373251423759 288.209517756016 L 559 284 L 548.8373251423758 279.790482243984" stroke-miterlimit="10"/></g><g transform="translate(-142,-254) scale(1,1)"><path fill="none" stroke="#000000" d="M 847 372 L 682 305" stroke-miterlimit="10"/></g><g transform="translate(-142,-254) scale(1,1)"><path fill="none" stroke="#000000" d="M 692.9997321166221 304.92323176079327 L 682 305 L 689.8322685134218 312.72370182837614" stroke-miterlimit="10"/></g><g transform="translate(-142,-254) scale(1,1)"><g><path fill="none" stroke="none"/><text fill="#000000" stroke="none" font-family="Arial" font-size="13px" font-style="normal" font-weight="normal" text-decoration="none" x="677.5" y="356">Data e horário indisponíveis</text></g></g><g transform="translate(-142,-254) scale(1,1)"><path fill="#C0C0C0" stroke="none" d="M 1017 463 L 1220.5634765625 463 Q 1230.5634765625 463 1230.5634765625 473 L 1230.5634765625 493 Q 1230.5634765625 503 1220.5634765625 503 L 1017 503 Q 1007 503 1007 493 L 1007 473 Q 1007 463 1017 463 Z" opacity="0.2"/></g><g transform="translate(-142,-254) scale(1,1)"><path fill="#ffffff" stroke="none" d="M 1010 456 L 1213.5634765625 456 Q 1223.5634765625 456 1223.5634765625 466 L 1223.5634765625 486 Q 1223.5634765625 496 1213.5634765625 496 L 1010 496 Q 1000 496 1000 486 L 1000 466 Q 1000 456 1010 456 Z"/></g><g transform="translate(-142,-254) scale(1,1)"><path fill="none" stroke="#000000" d="M 1010 456 L 1213.5634765625 456 Q 1223.5634765625 456 1223.5634765625 466 L 1223.5634765625 486 Q 1223.5634765625 496 1213.5634765625 496 L 1010 496 Q 1000 496 1000 486 L 1000 466 Q 1000 456 1010 456 Z" stroke-miterlimit="10"/></g><g transform="translate(-142,-254) scale(1,1)"><g><path fill="none" stroke="none"/><text fill="#000000" stroke="none" font-family="Arial" font-size="13px" font-style="normal" font-weight="bold" text-decoration="none" x="1011.72998046875" y="474">Escolha da forma de pagamento</text></g></g><g transform="translate(-142,-254) scale(1,1)"><path fill="none" stroke="#000000" d="M 1111 401 L 1111 455" stroke-miterlimit="10"/></g><g transform="translate(-142,-254) scale(1,1)"><path fill="none" stroke="#000000" d="M 1106.7904822439841 444.83732514237585 L 1111 455 L 1115.2095177560159 444.83732514237585" stroke-miterlimit="10"/></g><g transform="translate(-142,-254) scale(1,1)"><path fill="#C0C0C0" stroke="none" d="M 1007 552.5 L 1018.5 543 L 1029 552.5 L 1018.5 561 L 1007 552.5" opacity="0.2"/></g><g transform="translate(-142,-254) scale(1,1)"><path fill="#ffffff" stroke="none" d="M 1000 545 L 1011 536 L 1022 545 L 1011 554 L 1000 545"/></g><g transform="translate(-142,-254) scale(1,1)"><path fill="none" stroke="#000000" d="M 1000 545 L 1011 536 L 1022 545 L 1011 554 L 1000 545 L 1000 545" stroke-miterlimit="10"/></g><g transform="translate(-142,-254) scale(1,1)"><path fill="none" stroke="#000000" d="M 1081 497 L 1023 537" stroke-miterlimit="10"/></g><g transform="translate(-142,-254) scale(1,1)"><path fill="none" stroke="#000000" d="M 1028.9761619237652 527.7649857249196 L 1023 537 L 1033.7559258400272 534.6956434034994" stroke-miterlimit="10"/></g><g transform="translate(-142,-254) scale(1,1)"><path fill="#C0C0C0" stroke="none" d="M 673 591 L 784.07177734375 591 Q 794.07177734375 591 794.07177734375 601 L 794.07177734375 621 Q 794.07177734375 631 784.07177734375 631 L 673 631 Q 663 631 663 621 L 663 601 Q 663 591 673 591 Z" opacity="0.2"/></g><g transform="translate(-142,-254) scale(1,1)"><path fill="#ffffff" stroke="none" d="M 666 584 L 777.07177734375 584 Q 787.07177734375 584 787.07177734375 594 L 787.07177734375 614 Q 787.07177734375 624 777.07177734375 624 L 666 624 Q 656 624 656 614 L 656 594 Q 656 584 666 584 Z"/></g><g transform="translate(-142,-254) scale(1,1)"><path fill="none" stroke="#000000" d="M 666 584 L 777.07177734375 584 Q 787.07177734375 584 787.07177734375 594 L 787.07177734375 614 Q 787.07177734375 624 777.07177734375 624 L 666 624 Q 656 624 656 614 L 656 594 Q 656 584 666 584 Z" stroke-miterlimit="10"/></g><g transform="translate(-142,-254) scale(1,1)"><g><path fill="none" stroke="none"/><text fill="#000000" stroke="none" font-family="Arial" font-size="13px" font-style="normal" font-weight="bold" text-decoration="none" x="660.5" y="602">Confere pagamento</text></g></g><g transform="translate(-142,-254) scale(1,1)"><path fill="none" stroke="#000000" d="M 999 547 L 788 590" stroke-miterlimit="10"/></g><g transform="translate(-142,-254) scale(1,1)"><path fill="none" stroke="#000000" d="M 797.1174095970875 583.8459084960544 L 788 590 L 798.7985819874384 592.0953823184735" stroke-miterlimit="10"/></g><g transform="translate(-142,-254) scale(1,1)"><g><path fill="none" stroke="none"/><text fill="#000000" stroke="none" font-family="Arial" font-size="13px" font-style="normal" font-weight="normal" text-decoration="none" x="766.5" y="554">Forma de pagamento cadastrada</text></g></g><g transform="translate(-142,-254) scale(1,1)"><path fill="#C0C0C0" stroke="none" d="M 1257 599 L 1438.16259765625 599 Q 1448.16259765625 599 1448.16259765625 609 L 1448.16259765625 629 Q 1448.16259765625 639 1438.16259765625 639 L 1257 639 Q 1247 639 1247 629 L 1247 609 Q 1247 599 1257 599 Z" opacity="0.2"/></g><g transform="translate(-142,-254) scale(1,1)"><path fill="#ffffff" stroke="none" d="M 1250 592 L 1431.16259765625 592 Q 1441.16259765625 592 1441.16259765625 602 L 1441.16259765625 622 Q 1441.16259765625 632 1431.16259765625 632 L 1250 632 Q 1240 632 1240 622 L 1240 602 Q 1240 592 1250 592 Z"/></g><g transform="translate(-142,-254) scale(1,1)"><path fill="none" stroke="#000000" d="M 1250 592 L 1431.16259765625 592 Q 1441.16259765625 592 1441.16259765625 602 L 1441.16259765625 622 Q 1441.16259765625 632 1431.16259765625 632 L 1250 632 Q 1240 632 1240 622 L 1240 602 Q 1240 592 1250 592 Z" stroke-miterlimit="10"/></g><g transform="translate(-142,-254) scale(1,1)"><g><path fill="none" stroke="none"/><text fill="#000000" stroke="none" font-family="Arial" font-size="13px" font-style="normal" font-weight="bold" text-decoration="none" x="1244.5" y="610">Cadastrar forma de pagamento</text></g></g><g transform="translate(-142,-254) scale(1,1)"><path fill="none" stroke="#000000" d="M 1023 547 L 1239 591" stroke-miterlimit="10"/></g><g transform="translate(-142,-254) scale(1,1)"><path fill="none" stroke="#000000" d="M 1228.2015946231031 593.0962922783339 L 1239 591 L 1229.882071846636 584.8466768173537" stroke-miterlimit="10"/></g><g transform="translate(-142,-254) scale(1,1)"><g><path fill="none" stroke="none"/><text fill="#000000" stroke="none" font-family="Arial" font-size="13px" font-style="normal" font-weight="normal" text-decoration="none" x="983.5" y="595">Forma de pagamento não cadastrada</text></g></g><g transform="translate(-142,-254) scale(1,1)"><path fill="#C0C0C0" stroke="none" d="M 719 528.5 L 730.5 519 L 741 528.5 L 730.5 537 L 719 528.5" opacity="0.2"/></g><g transform="translate(-142,-254) scale(1,1)"><path fill="#ffffff" stroke="none" d="M 712 521 L 723 512 L 734 521 L 723 530 L 712 521"/></g><g transform="translate(-142,-254) scale(1,1)"><path fill="none" stroke="#000000" d="M 712 521 L 723 512 L 734 521 L 723 530 L 712 521 L 712 521" stroke-miterlimit="10"/></g><g transform="translate(-142,-254) scale(1,1)"><path fill="none" stroke="#000000" d="M 722 583 L 723 531" stroke-miterlimit="10"/></g><g transform="translate(-142,-254) scale(1,1)"><path fill="none" stroke="#000000" d="M 727.0133396580383 541.2417334855588 L 723 531 L 718.5958604886597 541.0798588861477" stroke-miterlimit="10"/></g><g transform="translate(-142,-254) scale(1,1)"><path fill="#C0C0C0" stroke="none" d="M 433 511 L 530.33544921875 511 Q 540.33544921875 511 540.33544921875 521 L 540.33544921875 541 Q 540.33544921875 551 530.33544921875 551 L 433 551 Q 423 551 423 541 L 423 521 Q 423 511 433 511 Z" opacity="0.2"/></g><g transform="translate(-142,-254) scale(1,1)"><path fill="#ffffff" stroke="none" d="M 426 504 L 523.33544921875 504 Q 533.33544921875 504 533.33544921875 514 L 533.33544921875 534 Q 533.33544921875 544 523.33544921875 544 L 426 544 Q 416 544 416 534 L 416 514 Q 416 504 426 504 Z"/></g><g transform="translate(-142,-254) scale(1,1)"><path fill="none" stroke="#000000" d="M 426 504 L 523.33544921875 504 Q 533.33544921875 504 533.33544921875 514 L 533.33544921875 534 Q 533.33544921875 544 523.33544921875 544 L 426 544 Q 416 544 416 534 L 416 514 Q 416 504 426 504 Z" stroke-miterlimit="10"/></g><g transform="translate(-142,-254) scale(1,1)"><g><path fill="none" stroke="none"/><text fill="#000000" stroke="none" font-family="Arial" font-size="13px" font-style="normal" font-weight="bold" text-decoration="none" x="420.5" y="522">Confirma Aluguel</text></g></g><g transform="translate(-142,-254) scale(1,1)"><path fill="none" stroke="#000000" d="M 711 521 L 534 523" stroke-miterlimit="10"/></g><g transform="translate(-142,-254) scale(1,1)"><path fill="none" stroke="#000000" d="M 544.1144640124646 518.6759257938193 L 534 523 L 544.2095882848253 527.0944238977368" stroke-miterlimit="10"/></g><g transform="translate(-142,-254) scale(1,1)"><g><path fill="none" stroke="none"/><text fill="#000000" stroke="none" font-family="Arial" font-size="13px" font-style="normal" font-weight="normal" text-decoration="none" x="559.5" y="541">Pagamento aprovado</text></g></g><g transform="translate(-142,-254) scale(1,1)"><path fill="#C0C0C0" stroke="none" d="M 183 531.5 C 183 524.59644 188.59644 519 195.5 519 C 202.40356 519 208 524.59644 208 531.5 C 208 538.40356 202.40356 544 195.5 544 C 188.59644 544 183 538.40356 183 531.5 Z" opacity="0.2"/></g><g transform="translate(-142,-254) scale(1,1)"><path fill="none" stroke="#000000" d="M 176 524.5 C 176 517.59644 181.59644 512 188.5 512 C 195.40356 512 201 517.59644 201 524.5 C 201 531.40356 195.40356 537 188.5 537 C 181.59644 537 176 531.40356 176 524.5 Z" stroke-miterlimit="10"/></g><g transform="translate(-142,-254) scale(1,1)"><path fill="#000000" stroke="none" d="M 181 524.5 C 181 520.357864 184.357864 517 188.5 517 C 192.642136 517 196 520.357864 196 524.5 C 196 528.642136 192.642136 532 188.5 532 C 184.357864 532 181 528.642136 181 524.5 Z"/></g><g transform="translate(-142,-254) scale(1,1)"><path fill="none" stroke="#000000" d="M 415 524 L 202 524" stroke-miterlimit="10"/></g><g transform="translate(-142,-254) scale(1,1)"><path fill="none" stroke="#000000" d="M 212.16267485762415 519.790482243984 L 202 524 L 212.16267485762415 528.209517756016" stroke-miterlimit="10"/></g><g transform="translate(-142,-254) scale(1,1)"><path fill="none" stroke="#000000" d="M 735 520 L 999 489" stroke-miterlimit="10"/></g><g transform="translate(-142,-254) scale(1,1)"><path fill="none" stroke="#000000" d="M 989.3975990585643 494.36599442414115 L 999 489 L 988.4157461335193 486.0044082237581" stroke-miterlimit="10"/></g><g transform="translate(-142,-254) scale(1,1)"><g><path fill="none" stroke="none"/><text fill="#000000" stroke="none" font-family="Arial" font-size="13px" font-style="normal" font-weight="normal" text-decoration="none" x="803.5" y="494">Pagamento recusado</text></g></g><g transform="translate(-142,-254) scale(1,1)"><path fill="none" stroke="#000000" d="M 1305 591 L 1146 497" stroke-miterlimit="10"/></g><g transform="translate(-142,-254) scale(1,1)"><path fill="none" stroke="#000000" d="M 1156.8904936755548 498.5482724252211 L 1146 497 L 1152.605947997456 505.795535859452" stroke-miterlimit="10"/></g></g></svg>