<svg version="1.1" xmlns="http://www.w3.org/2000/svg" xmlns:xlink="http://www.w3.org/1999/xlink" width="826.18408203125" height="774"><defs/><g><text fill="#eeeeee" stroke="none" font-family="Arial" font-size="24px" font-style="normal" font-weight="normal" text-decoration="none" x="0" y="0">UNREGISTERED</text><text fill="#eeeeee" stroke="none" font-family="Arial" font-size="24px" font-style="normal" font-weight="normal" text-decoration="none" x="0" y="30">UNREGISTERED</text><text fill="#eeeeee" stroke="none" font-family="Arial" font-size="24px" font-style="normal" font-weight="normal" text-decoration="none" x="0" y="60">UNREGISTERED</text><text fill="#eeeeee" stroke="none" font-family="Arial" font-size="24px" font-style="normal" font-weight="normal" text-decoration="none" x="0" y="90">UNREGISTERED</text><text fill="#eeeeee" stroke="none" font-family="Arial" font-size="24px" font-style="normal" font-weight="normal" text-decoration="none" x="0" y="120">UNREGISTERED</text><text fill="#eeeeee" stroke="none" font-family="Arial" font-size="24px" font-style="normal" font-weight="normal" text-decoration="none" x="0" y="150">UNREGISTERED</text><text fill="#eeeeee" stroke="none" font-family="Arial" font-size="24px" font-style="normal" font-weight="normal" text-decoration="none" x="0" y="180">UNREGISTERED</text><text fill="#eeeeee" stroke="none" font-family="Arial" font-size="24px" font-style="normal" font-weight="normal" text-decoration="none" x="0" y="210">UNREGISTERED</text><text fill="#eeeeee" stroke="none" font-family="Arial" font-size="24px" font-style="normal" font-weight="normal" text-decoration="none" x="0" y="240">UNREGISTERED</text><text fill="#eeeeee" stroke="none" font-family="Arial" font-size="24px" font-style="normal" font-weight="normal" text-decoration="none" x="0" y="270">UNREGISTERED</text><text fill="#eeeeee" stroke="none" font-family="Arial" font-size="24px" font-style="normal" font-weight="normal" text-decoration="none" x="0" y="300">UNREGISTERED</text><text fill="#eeeeee" stroke="none" font-family="Arial" font-size="24px" font-style="normal" font-weight="normal" text-decoration="none" x="0" y="330">UNREGISTERED</text><text fill="#eeeeee" stroke="none" font-family="Arial" font-size="24px" font-style="normal" font-weight="normal" text-decoration="none" x="0" y="360">UNREGISTERED</text><text fill="#eeeeee" stroke="none" font-family="Arial" font-size="24px" font-style="normal" font-weight="normal" text-decoration="none" x="0" y="390">UNREGISTERED</text><text fill="#eeeeee" stroke="none" font-family="Arial" font-size="24px" font-style="normal" font-weight="normal" text-decoration="none" x="0" y="420">UNREGISTERED</text><text fill="#eeeeee" stroke="none" font-family="Arial" font-size="24px" font-style="normal" font-weight="normal" text-decoration="none" x="0" y="450">UNREGISTERED</text><text fill="#eeeeee" stroke="none" font-family="Arial" font-size="24px" font-style="normal" font-weight="normal" text-decoration="none" x="0" y="480">UNREGISTERED</text><text fill="#eeeeee" stroke="none" font-family="Arial" font-size="24px" font-style="normal" font-weight="normal" text-decoration="none" x="0" y="510">UNREGISTERED</text><text fill="#eeeeee" stroke="none" font-family="Arial" font-size="24px" font-style="normal" font-weight="normal" text-decoration="none" x="0" y="540">UNREGISTERED</text><text fill="#eeeeee" stroke="none" font-family="Arial" font-size="24px" font-style="normal" font-weight="normal" text-decoration="none" x="0" y="570">UNREGISTERED</text><text fill="#eeeeee" stroke="none" font-family="Arial" font-size="24px" font-style="normal" font-weight="normal" text-decoration="none" x="0" y="600">UNREGISTERED</text><text fill="#eeeeee" stroke="none" font-family="Arial" font-size="24px" font-style="normal" font-weight="normal" text-decoration="none" x="0" y="630">UNREGISTERED</text><text fill="#eeeeee" stroke="none" font-family="Arial" font-size="24px" font-style="normal" font-weight="normal" text-decoration="none" x="0" y="660">UNREGISTERED</text><text fill="#eeeeee" stroke="none" font-family="Arial" font-size="24px" font-style="normal" font-weight="normal" text-decoration="none" x="0" y="690">UNREGISTERED</text><text fill="#eeeeee" stroke="none" font-family="Arial" font-size="24px" font-style="normal" font-weight="normal" text-decoration="none" x="0" y="720">UNREGISTERED</text><text fill="#eeeeee" stroke="none" font-family="Arial" font-size="24px" font-style="normal" font-weight="normal" text-decoration="none" x="0" y="750">UNREGISTERED</text><text fill="#eeeeee" stroke="none" font-family="Arial" font-size="24px" font-style="normal" font-weight="normal" text-decoration="none" x="200" y="0">UNREGISTERED</text><text fill="#eeeeee" stroke="none" font-family="Arial" font-size="24px" font-style="normal" font-weight="normal" text-decoration="none" x="200" y="30">UNREGISTERED</text><text fill="#eeeeee" stroke="none" font-family="Arial" font-size="24px" font-style="normal" font-weight="normal" text-decoration="none" x="200" y="60">UNREGISTERED</text><text fill="#eeeeee" stroke="none" font-family="Arial" font-size="24px" font-style="normal" font-weight="normal" text-decoration="none" x="200" y="90">UNREGISTERED</text><text fill="#eeeeee" stroke="none" font-family="Arial" font-size="24px" font-style="normal" font-weight="normal" text-decoration="none" x="200" y="120">UNREGISTERED</text><text fill="#eeeeee" stroke="none" font-family="Arial" font-size="24px" font-style="normal" font-weight="normal" text-decoration="none" x="200" y="150">UNREGISTERED</text><text fill="#eeeeee" stroke="none" font-family="Arial" font-size="24px" font-style="normal" font-weight="normal" text-decoration="none" x="200" y="180">UNREGISTERED</text><text fill="#eeeeee" stroke="none" font-family="Arial" font-size="24px" font-style="normal" font-weight="normal" text-decoration="none" x="200" y="210">UNREGISTERED</text><text fill="#eeeeee" stroke="none" font-family="Arial" font-size="24px" font-style="normal" font-weight="normal" text-decoration="none" x="200" y="240">UNREGISTERED</text><text fill="#eeeeee" stroke="none" font-family="Arial" font-size="24px" font-style="normal" font-weight="normal" text-decoration="none" x="200" y="270">UNREGISTERED</text><text fill="#eeeeee" stroke="none" font-family="Arial" font-size="24px" font-style="normal" font-weight="normal" text-decoration="none" x="200" y="300">UNREGISTERED</text><text fill="#eeeeee" stroke="none" font-family="Arial" font-size="24px" font-style="normal" font-weight="normal" text-decoration="none" x="200" y="330">UNREGISTERED</text><text fill="#eeeeee" stroke="none" font-family="Arial" font-size="24px" font-style="normal" font-weight="normal" text-decoration="none" x="200" y="360">UNREGISTERED</text><text fill="#eeeeee" stroke="none" font-family="Arial" font-size="24px" font-style="normal" font-weight="normal" text-decoration="none" x="200" y="390">UNREGISTERED</text><text fill="#eeeeee" stroke="none" font-family="Arial" font-size="24px" font-style="normal" font-weight="normal" text-decoration="none" x="200" y="420">UNREGISTERED</text><text fill="#eeeeee" stroke="none" font-family="Arial" font-size="24px" font-style="normal" font-weight="normal" text-decoration="none" x="200" y="450">UNREGISTERED</text><text fill="#eeeeee" stroke="none" font-family="Arial" font-size="24px" font-style="normal" font-weight="normal" text-decoration="none" x="200" y="480">UNREGISTERED</text><text fill="#eeeeee" stroke="none" font-family="Arial" font-size="24px" font-style="normal" font-weight="normal" text-decoration="none" x="200" y="510">UNREGISTERED</text><text fill="#eeeeee" stroke="none" font-family="Arial" font-size="24px" font-style="normal" font-weight="normal" text-decoration="none" x="200" y="540">UNREGISTERED</text><text fill="#eeeeee" stroke="none" font-family="Arial" font-size="24px" font-style="normal" font-weight="normal" text-decoration="none" x="200" y="570">UNREGISTERED</text><text fill="#eeeeee" stroke="none" font-family="Arial" font-size="24px" font-style="normal" font-weight="normal" text-decoration="none" x="200" y="600">UNREGISTERED</text><text fill="#eeeeee" stroke="none" font-family="Arial" font-size="24px" font-style="normal" font-weight="normal" text-decoration="none" x="200" y="630">UNREGISTERED</text><text fill="#eeeeee" stroke="none" font-family="Arial" font-size="24px" font-style="normal" font-weight="normal" text-decoration="none" x="200" y="660">UNREGISTERED</text><text fill="#eeeeee" stroke="none" font-family="Arial" font-size="24px" font-style="normal" font-weight="normal" text-decoration="none" x="200" y="690">UNREGISTERED</text><text fill="#eeeeee" stroke="none" font-family="Arial" font-size="24px" font-style="normal" font-weight="normal" text-decoration="none" x="200" y="720">UNREGISTERED</text><text fill="#eeeeee" stroke="none" font-family="Arial" font-size="24px" font-style="normal" font-weight="normal" text-decoration="none" x="200" y="750">UNREGISTERED</text><text fill="#eeeeee" stroke="none" font-family="Arial" font-size="24px" font-style="normal" font-weight="normal" text-decoration="none" x="400" y="0">UNREGISTERED</text><text fill="#eeeeee" stroke="none" font-family="Arial" font-size="24px" font-style="normal" font-weight="normal" text-decoration="none" x="400" y="30">UNREGISTERED</text><text fill="#eeeeee" stroke="none" font-family="Arial" font-size="24px" font-style="normal" font-weight="normal" text-decoration="none" x="400" y="60">UNREGISTERED</text><text fill="#eeeeee" stroke="none" font-family="Arial" font-size="24px" font-style="normal" font-weight="normal" text-decoration="none" x="400" y="90">UNREGISTERED</text><text fill="#eeeeee" stroke="none" font-family="Arial" font-size="24px" font-style="normal" font-weight="normal" text-decoration="none" x="400" y="120">UNREGISTERED</text><text fill="#eeeeee" stroke="none" font-family="Arial" font-size="24px" font-style="normal" font-weight="normal" text-decoration="none" x="400" y="150">UNREGISTERED</text><text fill="#eeeeee" stroke="none" font-family="Arial" font-size="24px" font-style="normal" font-weight="normal" text-decoration="none" x="400" y="180">UNREGISTERED</text><text fill="#eeeeee" stroke="none" font-family="Arial" font-size="24px" font-style="normal" font-weight="normal" text-decoration="none" x="400" y="210">UNREGISTERED</text><text fill="#eeeeee" stroke="none" font-family="Arial" font-size="24px" font-style="normal" font-weight="normal" text-decoration="none" x="400" y="240">UNREGISTERED</text><text fill="#eeeeee" stroke="none" font-family="Arial" font-size="24px" font-style="normal" font-weight="normal" text-decoration="none" x="400" y="270">UNREGISTERED</text><text fill="#eeeeee" stroke="none" font-family="Arial" font-size="24px" font-style="normal" font-weight="normal" text-decoration="none" x="400" y="300">UNREGISTERED</text><text fill="#eeeeee" stroke="none" font-family="Arial" font-size="24px" font-style="normal" font-weight="normal" text-decoration="none" x="400" y="330">UNREGISTERED</text><text fill="#eeeeee" stroke="none" font-family="Arial" font-size="24px" font-style="normal" font-weight="normal" text-decoration="none" x="400" y="360">UNREGISTERED</text><text fill="#eeeeee" stroke="none" font-family="Arial" font-size="24px" font-style="normal" font-weight="normal" text-decoration="none" x="400" y="390">UNREGISTERED</text><text fill="#eeeeee" stroke="none" font-family="Arial" font-size="24px" font-style="normal" font-weight="normal" text-decoration="none" x="400" y="420">UNREGISTERED</text><text fill="#eeeeee" stroke="none" font-family="Arial" font-size="24px" font-style="normal" font-weight="normal" text-decoration="none" x="400" y="450">UNREGISTERED</text><text fill="#eeeeee" stroke="none" font-family="Arial" font-size="24px" font-style="normal" font-weight="normal" text-decoration="none" x="400" y="480">UNREGISTERED</text><text fill="#eeeeee" stroke="none" font-family="Arial" font-size="24px" font-style="normal" font-weight="normal" text-decoration="none" x="400" y="510">UNREGISTERED</text><text fill="#eeeeee" stroke="none" font-family="Arial" font-size="24px" font-style="normal" font-weight="normal" text-decoration="none" x="400" y="540">UNREGISTERED</text><text fill="#eeeeee" stroke="none" font-family="Arial" font-size="24px" font-style="normal" font-weight="normal" text-decoration="none" x="400" y="570">UNREGISTERED</text><text fill="#eeeeee" stroke="none" font-family="Arial" font-size="24px" font-style="normal" font-weight="normal" text-decoration="none" x="400" y="600">UNREGISTERED</text><text fill="#eeeeee" stroke="none" font-family="Arial" font-size="24px" font-style="normal" font-weight="normal" text-decoration="none" x="400" y="630">UNREGISTERED</text><text fill="#eeeeee" stroke="none" font-family="Arial" font-size="24px" font-style="normal" font-weight="normal" text-decoration="none" x="400" y="660">UNREGISTERED</text><text fill="#eeeeee" stroke="none" font-family="Arial" font-size="24px" font-style="normal" font-weight="normal" text-decoration="none" x="400" y="690">UNREGISTERED</text><text fill="#eeeeee" stroke="none" font-family="Arial" font-size="24px" font-style="normal" font-weight="normal" text-decoration="none" x="400" y="720">UNREGISTERED</text><text fill="#eeeeee" stroke="none" font-family="Arial" font-size="24px" font-style="normal" font-weight="normal" text-decoration="none" x="400" y="750">UNREGISTERED</text><text fill="#eeeeee" stroke="none" font-family="Arial" font-size="24px" font-style="normal" font-weight="normal" text-decoration="none" x="600" y="0">UNREGISTERED</text><text fill="#eeeeee" stroke="none" font-family="Arial" font-size="24px" font-style="normal" font-weight="normal" text-decoration="none" x="600" y="30">UNREGISTERED</text><text fill="#eeeeee" stroke="none" font-family="Arial" font-size="24px" font-style="normal" font-weight="normal" text-decoration="none" x="600" y="60">UNREGISTERED</text><text fill="#eeeeee" stroke="none" font-family="Arial" font-size="24px" font-style="normal" font-weight="normal" text-decoration="none" x="600" y="90">UNREGISTERED</text><text fill="#eeeeee" stroke="none" font-family="Arial" font-size="24px" font-style="normal" font-weight="normal" text-decoration="none" x="600" y="120">UNREGISTERED</text><text fill="#eeeeee" stroke="none" font-family="Arial" font-size="24px" font-style="normal" font-weight="normal" text-decoration="none" x="600" y="150">UNREGISTERED</text><text fill="#eeeeee" stroke="none" font-family="Arial" font-size="24px" font-style="normal" font-weight="normal" text-decoration="none" x="600" y="180">UNREGISTERED</text><text fill="#eeeeee" stroke="none" font-family="Arial" font-size="24px" font-style="normal" font-weight="normal" text-decoration="none" x="600" y="210">UNREGISTERED</text><text fill="#eeeeee" stroke="none" font-family="Arial" font-size="24px" font-style="normal" font-weight="normal" text-decoration="none" x="600" y="240">UNREGISTERED</text><text fill="#eeeeee" stroke="none" font-family="Arial" font-size="24px" font-style="normal" font-weight="normal" text-decoration="none" x="600" y="270">UNREGISTERED</text><text fill="#eeeeee" stroke="none" font-family="Arial" font-size="24px" font-style="normal" font-weight="normal" text-decoration="none" x="600" y="300">UNREGISTERED</text><text fill="#eeeeee" stroke="none" font-family="Arial" font-size="24px" font-style="normal" font-weight="normal" text-decoration="none" x="600" y="330">UNREGISTERED</text><text fill="#eeeeee" stroke="none" font-family="Arial" font-size="24px" font-style="normal" font-weight="normal" text-decoration="none" x="600" y="360">UNREGISTERED</text><text fill="#eeeeee" stroke="none" font-family="Arial" font-size="24px" font-style="normal" font-weight="normal" text-decoration="none" x="600" y="390">UNREGISTERED</text><text fill="#eeeeee" stroke="none" font-family="Arial" font-size="24px" font-style="normal" font-weight="normal" text-decoration="none" x="600" y="420">UNREGISTERED</text><text fill="#eeeeee" stroke="none" font-family="Arial" font-size="24px" font-style="normal" font-weight="normal" text-decoration="none" x="600" y="450">UNREGISTERED</text><text fill="#eeeeee" stroke="none" font-family="Arial" font-size="24px" font-style="normal" font-weight="normal" text-decoration="none" x="600" y="480">UNREGISTERED</text><text fill="#eeeeee" stroke="none" font-family="Arial" font-size="24px" font-style="normal" font-weight="normal" text-decoration="none" x="600" y="510">UNREGISTERED</text><text fill="#eeeeee" stroke="none" font-family="Arial" font-size="24px" font-style="normal" font-weight="normal" text-decoration="none" x="600" y="540">UNREGISTERED</text><text fill="#eeeeee" stroke="none" font-family="Arial" font-size="24px" font-style="normal" font-weight="normal" text-decoration="none" x="600" y="570">UNREGISTERED</text><text fill="#eeeeee" stroke="none" font-family="Arial" font-size="24px" font-style="normal" font-weight="normal" text-decoration="none" x="600" y="600">UNREGISTERED</text><text fill="#eeeeee" stroke="none" font-family="Arial" font-size="24px" font-style="normal" font-weight="normal" text-decoration="none" x="600" y="630">UNREGISTERED</text><text fill="#eeeeee" stroke="none" font-family="Arial" font-size="24px" font-style="normal" font-weight="normal" text-decoration="none" x="600" y="660">UNREGISTERED</text><text fill="#eeeeee" stroke="none" font-family="Arial" font-size="24px" font-style="normal" font-weight="normal" text-decoration="none" x="600" y="690">UNREGISTERED</text><text fill="#eeeeee" stroke="none" font-family="Arial" font-size="24px" font-style="normal" font-weight="normal" text-decoration="none" x="600" y="720">UNREGISTERED</text><text fill="#eeeeee" stroke="none" font-family="Arial" font-size="24px" font-style="normal" font-weight="normal" text-decoration="none" x="600" y="750">UNREGISTERED</text><text fill="#eeeeee" stroke="none" font-family="Arial" font-size="24px" font-style="normal" font-weight="normal" text-decoration="none" x="800" y="0">UNREGISTERED</text><text fill="#eeeeee" stroke="none" font-family="Arial" font-size="24px" font-style="normal" font-weight="normal" text-decoration="none" x="800" y="30">UNREGISTERED</text><text fill="#eeeeee" stroke="none" font-family="Arial" font-size="24px" font-style="normal" font-weight="normal" text-decoration="none" x="800" y="60">UNREGISTERED</text><text fill="#eeeeee" stroke="none" font-family="Arial" font-size="24px" font-style="normal" font-weight="normal" text-decoration="none" x="800" y="90">UNREGISTERED</text><text fill="#eeeeee" stroke="none" font-family="Arial" font-size="24px" font-style="normal" font-weight="normal" text-decoration="none" x="800" y="120">UNREGISTERED</text><text fill="#eeeeee" stroke="none" font-family="Arial" font-size="24px" font-style="normal" font-weight="normal" text-decoration="none" x="800" y="150">UNREGISTERED</text><text fill="#eeeeee" stroke="none" font-family="Arial" font-size="24px" font-style="normal" font-weight="normal" text-decoration="none" x="800" y="180">UNREGISTERED</text><text fill="#eeeeee" stroke="none" font-family="Arial" font-size="24px" font-style="normal" font-weight="normal" text-decoration="none" x="800" y="210">UNREGISTERED</text><text fill="#eeeeee" stroke="none" font-family="Arial" font-size="24px" font-style="normal" font-weight="normal" text-decoration="none" x="800" y="240">UNREGISTERED</text><text fill="#eeeeee" stroke="none" font-family="Arial" font-size="24px" font-style="normal" font-weight="normal" text-decoration="none" x="800" y="270">UNREGISTERED</text><text fill="#eeeeee" stroke="none" font-family="Arial" font-size="24px" font-style="normal" font-weight="normal" text-decoration="none" x="800" y="300">UNREGISTERED</text><text fill="#eeeeee" stroke="none" font-family="Arial" font-size="24px" font-style="normal" font-weight="normal" text-decoration="none" x="800" y="330">UNREGISTERED</text><text fill="#eeeeee" stroke="none" font-family="Arial" font-size="24px" font-style="normal" font-weight="normal" text-decoration="none" x="800" y="360">UNREGISTERED</text><text fill="#eeeeee" stroke="none" font-family="Arial" font-size="24px" font-style="normal" font-weight="normal" text-decoration="none" x="800" y="390">UNREGISTERED</text><text fill="#eeeeee" stroke="none" font-family="Arial" font-size="24px" font-style="normal" font-weight="normal" text-decoration="none" x="800" y="420">UNREGISTERED</text><text fill="#eeeeee" stroke="none" font-family="Arial" font-size="24px" font-style="normal" font-weight="normal" text-decoration="none" x="800" y="450">UNREGISTERED</text><text fill="#eeeeee" stroke="none" font-family="Arial" font-size="24px" font-style="normal" font-weight="normal" text-decoration="none" x="800" y="480">UNREGISTERED</text><text fill="#eeeeee" stroke="none" font-family="Arial" font-size="24px" font-style="normal" font-weight="normal" text-decoration="none" x="800" y="510">UNREGISTERED</text><text fill="#eeeeee" stroke="none" font-family="Arial" font-size="24px" font-style="normal" font-weight="normal" text-decoration="none" x="800" y="540">UNREGISTERED</text><text fill="#eeeeee" stroke="none" font-family="Arial" font-size="24px" font-style="normal" font-weight="normal" text-decoration="none" x="800" y="570">UNREGISTERED</text><text fill="#eeeeee" stroke="none" font-family="Arial" font-size="24px" font-style="normal" font-weight="normal" text-decoration="none" x="800" y="600">UNREGISTERED</text><text fill="#eeeeee" stroke="none" font-family="Arial" font-size="24px" font-style="normal" font-weight="normal" text-decoration="none" x="800" y="630">UNREGISTERED</text><text fill="#eeeeee" stroke="none" font-family="Arial" font-size="24px" font-style="normal" font-weight="normal" text-decoration="none" x="800" y="660">UNREGISTERED</text><text fill="#eeeeee" stroke="none" font-family="Arial" font-size="24px" font-style="normal" font-weight="normal" text-decoration="none" x="800" y="690">UNREGISTERED</text><text fill="#eeeeee" stroke="none" font-family="Arial" font-size="24px" font-style="normal" font-weight="normal" text-decoration="none" x="800" y="720">UNREGISTERED</text><text fill="#eeeeee" stroke="none" font-family="Arial" font-size="24px" font-style="normal" font-weight="normal" text-decoration="none" x="800" y="750">UNREGISTERED</text><g transform="translate(-190,-222) scale(1,1)"><path fill="#C0C0C0" stroke="none" d="M 207 272.5 C 207 267.2532944 211.2532944 263 216.5 263 C 221.7467056 263 226 267.2532944 226 272.5 C 226 277.7467056 221.7467056 282 216.5 282 C 211.2532944 282 207 277.7467056 207 272.5 Z" opacity="0.2"/></g><g transform="translate(-190,-222) scale(1,1)"><path fill="#000000" stroke="none" d="M 200 265.5 C 200 260.2532944 204.2532944 256 209.5 256 C 214.7467056 256 219 260.2532944 219 265.5 C 219 270.7467056 214.7467056 275 209.5 275 C 204.2532944 275 200 270.7467056 200 265.5 Z"/></g><g transform="translate(-190,-222) scale(1,1)"><path fill="#C0C0C0" stroke="none" d="M 393 239 L 550.29541015625 239 Q 560.29541015625 239 560.29541015625 249 L 560.29541015625 303 Q 560.29541015625 313 550.29541015625 313 L 393 313 Q 383 313 383 303 L 383 249 Q 383 239 393 239 Z" opacity="0.2"/></g><g transform="translate(-190,-222) scale(1,1)"><path fill="#ffffff" stroke="none" d="M 386 232 L 543.29541015625 232 Q 553.29541015625 232 553.29541015625 242 L 553.29541015625 296 Q 553.29541015625 306 543.29541015625 306 L 386 306 Q 376 306 376 296 L 376 242 Q 376 232 386 232 Z"/></g><g transform="translate(-190,-222) scale(1,1)"><path fill="none" stroke="#000000" d="M 386 232 L 543.29541015625 232 Q 553.29541015625 232 553.29541015625 242 L 553.29541015625 296 Q 553.29541015625 306 543.29541015625 306 L 386 306 Q 376 306 376 296 L 376 242 Q 376 232 386 232 Z" stroke-miterlimit="10"/></g><g transform="translate(-190,-222) scale(1,1)"><path fill="none" stroke="#000000" d="M 376 257 L 553.29541015625 257" stroke-miterlimit="10"/></g><g transform="translate(-190,-222) scale(1,1)"><g><path fill="none" stroke="none"/><text fill="#000000" stroke="none" font-family="Arial" font-size="13px" font-style="normal" font-weight="bold" text-decoration="none" x="380.5" y="250">Exibindo página de aluguel</text></g></g><g transform="translate(-190,-222) scale(1,1)"><g><path fill="none" stroke="none"/><text fill="#000000" stroke="none" font-family="Arial" font-size="13px" font-style="normal" font-weight="normal" text-decoration="none" x="381" y="273">do/ExibeAluguel</text></g></g><g transform="translate(-190,-222) scale(1,1)"><path fill="none" stroke="#000000" d="M 220 265 L 375 268" stroke-miterlimit="10"/></g><g transform="translate(-190,-222) scale(1,1)"><path fill="none" stroke="#000000" d="M 364.75776884551885 272.01206941342946 L 375 268 L 364.9206874073592 263.59461038501337" stroke-miterlimit="10"/></g><g transform="translate(-190,-222) scale(1,1)"><g><path fill="none" stroke="none"/><text fill="#000000" stroke="none" font-family="Arial" font-size="13px" font-style="normal" font-weight="normal" text-decoration="none" x="229.5" y="256">exibe página de alugue</text></g></g><g transform="translate(-190,-222) scale(1,1)"><path fill="#C0C0C0" stroke="none" d="M 809 255 L 889.0126953125 255 Q 899.0126953125 255 899.0126953125 265 L 899.0126953125 292 Q 899.0126953125 302 889.0126953125 302 L 809 302 Q 799 302 799 292 L 799 265 Q 799 255 809 255 Z" opacity="0.2"/></g><g transform="translate(-190,-222) scale(1,1)"><path fill="#ffffff" stroke="none" d="M 802 248 L 882.0126953125 248 Q 892.0126953125 248 892.0126953125 258 L 892.0126953125 285 Q 892.0126953125 295 882.0126953125 295 L 802 295 Q 792 295 792 285 L 792 258 Q 792 248 802 248 Z"/></g><g transform="translate(-190,-222) scale(1,1)"><path fill="none" stroke="#000000" d="M 802 248 L 882.0126953125 248 Q 892.0126953125 248 892.0126953125 258 L 892.0126953125 285 Q 892.0126953125 295 882.0126953125 295 L 802 295 Q 792 295 792 285 L 792 258 Q 792 248 802 248 Z" stroke-miterlimit="10"/></g><g transform="translate(-190,-222) scale(1,1)"><path fill="none" stroke="#000000" d="M 792 273 L 892.0126953125 273" stroke-miterlimit="10"/></g><g transform="translate(-190,-222) scale(1,1)"><g><path fill="none" stroke="none"/><text fill="#000000" stroke="none" font-family="Arial" font-size="13px" font-style="normal" font-weight="bold" text-decoration="none" x="796.5" y="266">Confere dados</text></g></g><g transform="translate(-190,-222) scale(1,1)"><g><path fill="none" stroke="none"/><text fill="#000000" stroke="none" font-family="Arial" font-size="13px" font-style="normal" font-weight="normal" text-decoration="none" x="797" y="289">do/Conferir</text></g></g><g transform="translate(-190,-222) scale(1,1)"><path fill="none" stroke="#000000" d="M 554 269 L 791 271" stroke-miterlimit="10"/></g><g transform="translate(-190,-222) scale(1,1)"><path fill="none" stroke="#000000" d="M 780.8021648918955 275.12360996069094 L 791 271 L 780.873209075464 266.70487420780995" stroke-miterlimit="10"/></g><g transform="translate(-190,-222) scale(1,1)"><g><path fill="none" stroke="none"/><text fill="#000000" stroke="none" font-family="Arial" font-size="13px" font-style="normal" font-weight="normal" text-decoration="none" x="571.5" y="260">aguarda preenchimento dos dados</text></g></g><g transform="translate(-190,-222) scale(1,1)"><path fill="#C0C0C0" stroke="none" d="M 793 391 L 909.8544921875 391 Q 919.8544921875 391 919.8544921875 401 L 919.8544921875 428 Q 919.8544921875 438 909.8544921875 438 L 793 438 Q 783 438 783 428 L 783 401 Q 783 391 793 391 Z" opacity="0.2"/></g><g transform="translate(-190,-222) scale(1,1)"><path fill="#ffffff" stroke="none" d="M 786 384 L 902.8544921875 384 Q 912.8544921875 384 912.8544921875 394 L 912.8544921875 421 Q 912.8544921875 431 902.8544921875 431 L 786 431 Q 776 431 776 421 L 776 394 Q 776 384 786 384 Z"/></g><g transform="translate(-190,-222) scale(1,1)"><path fill="none" stroke="#000000" d="M 786 384 L 902.8544921875 384 Q 912.8544921875 384 912.8544921875 394 L 912.8544921875 421 Q 912.8544921875 431 902.8544921875 431 L 786 431 Q 776 431 776 421 L 776 394 Q 776 384 786 384 Z" stroke-miterlimit="10"/></g><g transform="translate(-190,-222) scale(1,1)"><path fill="none" stroke="#000000" d="M 776 409 L 912.8544921875 409" stroke-miterlimit="10"/></g><g transform="translate(-190,-222) scale(1,1)"><g><path fill="none" stroke="none"/><text fill="#000000" stroke="none" font-family="Arial" font-size="13px" font-style="normal" font-weight="bold" text-decoration="none" x="780.5" y="402">Armazenando dados</text></g></g><g transform="translate(-190,-222) scale(1,1)"><g><path fill="none" stroke="none"/><text fill="#000000" stroke="none" font-family="Arial" font-size="13px" font-style="normal" font-weight="normal" text-decoration="none" x="781" y="425">do/ArmazenaDados</text></g></g><g transform="translate(-190,-222) scale(1,1)"><path fill="none" stroke="#000000" d="M 842 296 L 844 383" stroke-miterlimit="10"/></g><g transform="translate(-190,-222) scale(1,1)"><path fill="none" stroke="#000000" d="M 839.5580311063362 372.9367543830172 L 844 383 L 847.974842889985 372.7432644569563" stroke-miterlimit="10"/></g><g transform="translate(-190,-222) scale(1,1)"><g><path fill="none" stroke="none"/><text fill="#000000" stroke="none" font-family="Arial" font-size="13px" font-style="normal" font-weight="normal" text-decoration="none" x="846.5" y="342">dados corretos</text></g></g><g transform="translate(-190,-222) scale(1,1)"><path fill="#C0C0C0" stroke="none" d="M 761 519 L 940.6708984375 519 Q 950.6708984375 519 950.6708984375 529 L 950.6708984375 565 Q 950.6708984375 575 940.6708984375 575 L 761 575 Q 751 575 751 565 L 751 529 Q 751 519 761 519 Z" opacity="0.2"/></g><g transform="translate(-190,-222) scale(1,1)"><path fill="#ffffff" stroke="none" d="M 754 512 L 933.6708984375 512 Q 943.6708984375 512 943.6708984375 522 L 943.6708984375 558 Q 943.6708984375 568 933.6708984375 568 L 754 568 Q 744 568 744 558 L 744 522 Q 744 512 754 512 Z"/></g><g transform="translate(-190,-222) scale(1,1)"><path fill="none" stroke="#000000" d="M 754 512 L 933.6708984375 512 Q 943.6708984375 512 943.6708984375 522 L 943.6708984375 558 Q 943.6708984375 568 933.6708984375 568 L 754 568 Q 744 568 744 558 L 744 522 Q 744 512 754 512 Z" stroke-miterlimit="10"/></g><g transform="translate(-190,-222) scale(1,1)"><path fill="none" stroke="#000000" d="M 744 537 L 943.6708984375 537" stroke-miterlimit="10"/></g><g transform="translate(-190,-222) scale(1,1)"><g><path fill="none" stroke="none"/><text fill="#000000" stroke="none" font-family="Arial" font-size="13px" font-style="normal" font-weight="bold" text-decoration="none" x="748.5" y="530">Confirmando a disponibilidade</text></g></g><g transform="translate(-190,-222) scale(1,1)"><g><path fill="none" stroke="none"/><text fill="#000000" stroke="none" font-family="Arial" font-size="13px" font-style="normal" font-weight="normal" text-decoration="none" x="749" y="553">do/Disponibilidade</text></g></g><g transform="translate(-190,-222) scale(1,1)"><path fill="none" stroke="#000000" d="M 743 539 L 464 536 L 464 307" stroke-miterlimit="10"/></g><g transform="translate(-190,-222) scale(1,1)"><path fill="none" stroke="#000000" d="M 468.209517756016 317.16267485762415 L 464 307 L 459.790482243984 317.16267485762415" stroke-miterlimit="10"/></g><g transform="translate(-190,-222) scale(1,1)"><g><path fill="none" stroke="none"/><text fill="#000000" stroke="none" font-family="Arial" font-size="13px" font-style="normal" font-weight="normal" text-decoration="none" x="358.5" y="554">se indisponível / exibe página de aluguel</text></g></g><g transform="translate(-190,-222) scale(1,1)"><path fill="none" stroke="#000000" d="M 844 432 L 843 511" stroke-miterlimit="10"/></g><g transform="translate(-190,-222) scale(1,1)"><path fill="none" stroke="#000000" d="M 838.9194505994928 500.78485846451355 L 843 511 L 847.3378116984575 500.89141999741184" stroke-miterlimit="10"/></g><g transform="translate(-190,-222) scale(1,1)"><g><path fill="none" stroke="none"/><text fill="#000000" stroke="none" font-family="Arial" font-size="13px" font-style="normal" font-weight="normal" text-decoration="none" x="798.5" y="475">dados armazenados</text></g></g><g transform="translate(-190,-222) scale(1,1)"><path fill="#C0C0C0" stroke="none" d="M 777 655 L 918.4326171875 655 Q 928.4326171875 655 928.4326171875 665 L 928.4326171875 692 Q 928.4326171875 702 918.4326171875 702 L 777 702 Q 767 702 767 692 L 767 665 Q 767 655 777 655 Z" opacity="0.2"/></g><g transform="translate(-190,-222) scale(1,1)"><path fill="#ffffff" stroke="none" d="M 770 648 L 911.4326171875 648 Q 921.4326171875 648 921.4326171875 658 L 921.4326171875 685 Q 921.4326171875 695 911.4326171875 695 L 770 695 Q 760 695 760 685 L 760 658 Q 760 648 770 648 Z"/></g><g transform="translate(-190,-222) scale(1,1)"><path fill="none" stroke="#000000" d="M 770 648 L 911.4326171875 648 Q 921.4326171875 648 921.4326171875 658 L 921.4326171875 685 Q 921.4326171875 695 911.4326171875 695 L 770 695 Q 760 695 760 685 L 760 658 Q 760 648 770 648 Z" stroke-miterlimit="10"/></g><g transform="translate(-190,-222) scale(1,1)"><path fill="none" stroke="#000000" d="M 760 673 L 921.4326171875 673" stroke-miterlimit="10"/></g><g transform="translate(-190,-222) scale(1,1)"><g><path fill="none" stroke="none"/><text fill="#000000" stroke="none" font-family="Arial" font-size="13px" font-style="normal" font-weight="bold" text-decoration="none" x="764.5" y="666">Exibe tela de pagamento</text></g></g><g transform="translate(-190,-222) scale(1,1)"><g><path fill="none" stroke="none"/><text fill="#000000" stroke="none" font-family="Arial" font-size="13px" font-style="normal" font-weight="normal" text-decoration="none" x="765" y="689">do/ExibePagamento</text></g></g><g transform="translate(-190,-222) scale(1,1)"><path fill="none" stroke="#000000" d="M 842 569 L 841 647" stroke-miterlimit="10"/></g><g transform="translate(-190,-222) scale(1,1)"><path fill="none" stroke="#000000" d="M 836.9211081481628 636.7841964945964 L 841 647 L 845.3394518457795 636.8921239778992" stroke-miterlimit="10"/></g><g transform="translate(-190,-222) scale(1,1)"><g><path fill="none" stroke="none"/><text fill="#000000" stroke="none" font-family="Arial" font-size="13px" font-style="normal" font-weight="normal" text-decoration="none" x="740.5" y="612">se disponível / exibe tela de pagamento</text></g></g><g transform="translate(-190,-222) scale(1,1)"><path fill="#C0C0C0" stroke="none" d="M 785 799 L 916.2763671875 799 Q 926.2763671875 799 926.2763671875 809 L 926.2763671875 836 Q 926.2763671875 846 916.2763671875 846 L 785 846 Q 775 846 775 836 L 775 809 Q 775 799 785 799 Z" opacity="0.2"/></g><g transform="translate(-190,-222) scale(1,1)"><path fill="#ffffff" stroke="none" d="M 778 792 L 909.2763671875 792 Q 919.2763671875 792 919.2763671875 802 L 919.2763671875 829 Q 919.2763671875 839 909.2763671875 839 L 778 839 Q 768 839 768 829 L 768 802 Q 768 792 778 792 Z"/></g><g transform="translate(-190,-222) scale(1,1)"><path fill="none" stroke="#000000" d="M 778 792 L 909.2763671875 792 Q 919.2763671875 792 919.2763671875 802 L 919.2763671875 829 Q 919.2763671875 839 909.2763671875 839 L 778 839 Q 768 839 768 829 L 768 802 Q 768 792 778 792 Z" stroke-miterlimit="10"/></g><g transform="translate(-190,-222) scale(1,1)"><path fill="none" stroke="#000000" d="M 768 817 L 919.2763671875 817" stroke-miterlimit="10"/></g><g transform="translate(-190,-222) scale(1,1)"><g><path fill="none" stroke="none"/><text fill="#000000" stroke="none" font-family="Arial" font-size="13px" font-style="normal" font-weight="bold" text-decoration="none" x="772.5" y="810">Conferindo pagamento</text></g></g><g transform="translate(-190,-222) scale(1,1)"><g><path fill="none" stroke="none"/><text fill="#000000" stroke="none" font-family="Arial" font-size="13px" font-style="normal" font-weight="normal" text-decoration="none" x="773" y="833">do/ConfPagamento</text></g></g><g transform="translate(-190,-222) scale(1,1)"><path fill="none" stroke="#000000" d="M 841 696 L 843 791" stroke-miterlimit="10"/></g><g transform="translate(-190,-222) scale(1,1)"><path fill="none" stroke="#000000" d="M 838.577511138714 780.9281783042093 L 843 791 L 846.9946815564581 780.7509747164672" stroke-miterlimit="10"/></g><g transform="translate(-190,-222) scale(1,1)"><g><path fill="none" stroke="none"/><text fill="#000000" stroke="none" font-family="Arial" font-size="13px" font-style="normal" font-weight="normal" text-decoration="none" x="755.5" y="747">aguarda preenchimento dos dados</text></g></g><g transform="translate(-190,-222) scale(1,1)"><path fill="#C0C0C0" stroke="none" d="M 793 919 L 912.0126953125 919 Q 922.0126953125 919 922.0126953125 929 L 922.0126953125 983 Q 922.0126953125 993 912.0126953125 993 L 793 993 Q 783 993 783 983 L 783 929 Q 783 919 793 919 Z" opacity="0.2"/></g><g transform="translate(-190,-222) scale(1,1)"><path fill="#ffffff" stroke="none" d="M 786 912 L 905.0126953125 912 Q 915.0126953125 912 915.0126953125 922 L 915.0126953125 976 Q 915.0126953125 986 905.0126953125 986 L 786 986 Q 776 986 776 976 L 776 922 Q 776 912 786 912 Z"/></g><g transform="translate(-190,-222) scale(1,1)"><path fill="none" stroke="#000000" d="M 786 912 L 905.0126953125 912 Q 915.0126953125 912 915.0126953125 922 L 915.0126953125 976 Q 915.0126953125 986 905.0126953125 986 L 786 986 Q 776 986 776 976 L 776 922 Q 776 912 786 912 Z" stroke-miterlimit="10"/></g><g transform="translate(-190,-222) scale(1,1)"><path fill="none" stroke="#000000" d="M 776 937 L 915.0126953125 937" stroke-miterlimit="10"/></g><g transform="translate(-190,-222) scale(1,1)"><g><path fill="none" stroke="none"/><text fill="#000000" stroke="none" font-family="Arial" font-size="13px" font-style="normal" font-weight="bold" text-decoration="none" x="780.5" y="930">Confirma pagamento</text></g></g><g transform="translate(-190,-222) scale(1,1)"><path fill="none" stroke="#000000" d="M 843 840 L 844 911" stroke-miterlimit="10"/></g><g transform="translate(-190,-222) scale(1,1)"><path fill="none" stroke="#000000" d="M 839.6477776394173 900.8976160969777 L 844 911 L 848.0659782195771 900.7790498916233" stroke-miterlimit="10"/></g><g transform="translate(-190,-222) scale(1,1)"><g><path fill="none" stroke="none"/><text fill="#000000" stroke="none" font-family="Arial" font-size="13px" font-style="normal" font-weight="normal" text-decoration="none" x="707.5" y="879">se pagamento for aprovado / confirma o pagamento</text></g></g><g transform="translate(-190,-222) scale(1,1)"><path fill="#C0C0C0" stroke="none" d="M 471 955.5 C 471 948.59644 476.59644 943 483.5 943 C 490.40356 943 496 948.59644 496 955.5 C 496 962.40356 490.40356 968 483.5 968 C 476.59644 968 471 962.40356 471 955.5 Z" opacity="0.2"/></g><g transform="translate(-190,-222) scale(1,1)"><path fill="none" stroke="#000000" d="M 464 948.5 C 464 941.59644 469.59644 936 476.5 936 C 483.40356 936 489 941.59644 489 948.5 C 489 955.40356 483.40356 961 476.5 961 C 469.59644 961 464 955.40356 464 948.5 Z" stroke-miterlimit="10"/></g><g transform="translate(-190,-222) scale(1,1)"><path fill="#000000" stroke="none" d="M 469 948.5 C 469 944.357864 472.357864 941 476.5 941 C 480.642136 941 484 944.357864 484 948.5 C 484 952.642136 480.642136 956 476.5 956 C 472.357864 956 469 952.642136 469 948.5 Z"/></g><g transform="translate(-190,-222) scale(1,1)"><path fill="none" stroke="#000000" d="M 775 949 L 490 948" stroke-miterlimit="10"/></g><g transform="translate(-190,-222) scale(1,1)"><path fill="none" stroke="#000000" d="M 500.17738244623484 943.8261664452124 L 490 948 L 500.14784215259584 952.2451501323274" stroke-miterlimit="10"/></g><g transform="translate(-190,-222) scale(1,1)"><g><path fill="none" stroke="none"/><text fill="#000000" stroke="none" font-family="Arial" font-size="13px" font-style="normal" font-weight="normal" text-decoration="none" x="542.5" y="968">aluguel realizado com sucesso</text></g></g><g transform="translate(-190,-222) scale(1,1)"><path fill="none" stroke="#000000" d="M 843 791 L 841 696" stroke-miterlimit="10"/></g><g transform="translate(-190,-222) scale(1,1)"><path fill="none" stroke="#000000" d="M 845.422488861286 706.0718216957907 L 841 696 L 837.0053184435419 706.2490252835328" stroke-miterlimit="10"/></g><g transform="translate(-190,-222) scale(1,1)"><path fill="none" stroke="#000000" d="M 843 791 L 841 696" stroke-miterlimit="10"/></g><g transform="translate(-190,-222) scale(1,1)"><path fill="none" stroke="#000000" d="M 845.422488861286 706.0718216957907 L 841 696 L 837.0053184435419 706.2490252835328" stroke-miterlimit="10"/></g></g></svg>