<svg version="1.1" xmlns="http://www.w3.org/2000/svg" xmlns:xlink="http://www.w3.org/1999/xlink" width="1349" height="565"><defs/><g><text fill="#eeeeee" stroke="none" font-family="Arial" font-size="24px" font-style="normal" font-weight="normal" text-decoration="none" x="0" y="0">UNREGISTERED</text><text fill="#eeeeee" stroke="none" font-family="Arial" font-size="24px" font-style="normal" font-weight="normal" text-decoration="none" x="0" y="30">UNREGISTERED</text><text fill="#eeeeee" stroke="none" font-family="Arial" font-size="24px" font-style="normal" font-weight="normal" text-decoration="none" x="0" y="60">UNREGISTERED</text><text fill="#eeeeee" stroke="none" font-family="Arial" font-size="24px" font-style="normal" font-weight="normal" text-decoration="none" x="0" y="90">UNREGISTERED</text><text fill="#eeeeee" stroke="none" font-family="Arial" font-size="24px" font-style="normal" font-weight="normal" text-decoration="none" x="0" y="120">UNREGISTERED</text><text fill="#eeeeee" stroke="none" font-family="Arial" font-size="24px" font-style="normal" font-weight="normal" text-decoration="none" x="0" y="150">UNREGISTERED</text><text fill="#eeeeee" stroke="none" font-family="Arial" font-size="24px" font-style="normal" font-weight="normal" text-decoration="none" x="0" y="180">UNREGISTERED</text><text fill="#eeeeee" stroke="none" font-family="Arial" font-size="24px" font-style="normal" font-weight="normal" text-decoration="none" x="0" y="210">UNREGISTERED</text><text fill="#eeeeee" stroke="none" font-family="Arial" font-size="24px" font-style="normal" font-weight="normal" text-decoration="none" x="0" y="240">UNREGISTERED</text><text fill="#eeeeee" stroke="none" font-family="Arial" font-size="24px" font-style="normal" font-weight="normal" text-decoration="none" x="0" y="270">UNREGISTERED</text><text fill="#eeeeee" stroke="none" font-family="Arial" font-size="24px" font-style="normal" font-weight="normal" text-decoration="none" x="0" y="300">UNREGISTERED</text><text fill="#eeeeee" stroke="none" font-family="Arial" font-size="24px" font-style="normal" font-weight="normal" text-decoration="none" x="0" y="330">UNREGISTERED</text><text fill="#eeeeee" stroke="none" font-family="Arial" font-size="24px" font-style="normal" font-weight="normal" text-decoration="none" x="0" y="360">UNREGISTERED</text><text fill="#eeeeee" stroke="none" font-family="Arial" font-size="24px" font-style="normal" font-weight="normal" text-decoration="none" x="0" y="390">UNREGISTERED</text><text fill="#eeeeee" stroke="none" font-family="Arial" font-size="24px" font-style="normal" font-weight="normal" text-decoration="none" x="0" y="420">UNREGISTERED</text><text fill="#eeeeee" stroke="none" font-family="Arial" font-size="24px" font-style="normal" font-weight="normal" text-decoration="none" x="0" y="450">UNREGISTERED</text><text fill="#eeeeee" stroke="none" font-family="Arial" font-size="24px" font-style="normal" font-weight="normal" text-decoration="none" x="0" y="480">UNREGISTERED</text><text fill="#eeeeee" stroke="none" font-family="Arial" font-size="24px" font-style="normal" font-weight="normal" text-decoration="none" x="0" y="510">UNREGISTERED</text><text fill="#eeeeee" stroke="none" font-family="Arial" font-size="24px" font-style="normal" font-weight="normal" text-decoration="none" x="0" y="540">UNREGISTERED</text><text fill="#eeeeee" stroke="none" font-family="Arial" font-size="24px" font-style="normal" font-weight="normal" text-decoration="none" x="200" y="0">UNREGISTERED</text><text fill="#eeeeee" stroke="none" font-family="Arial" font-size="24px" font-style="normal" font-weight="normal" text-decoration="none" x="200" y="30">UNREGISTERED</text><text fill="#eeeeee" stroke="none" font-family="Arial" font-size="24px" font-style="normal" font-weight="normal" text-decoration="none" x="200" y="60">UNREGISTERED</text><text fill="#eeeeee" stroke="none" font-family="Arial" font-size="24px" font-style="normal" font-weight="normal" text-decoration="none" x="200" y="90">UNREGISTERED</text><text fill="#eeeeee" stroke="none" font-family="Arial" font-size="24px" font-style="normal" font-weight="normal" text-decoration="none" x="200" y="120">UNREGISTERED</text><text fill="#eeeeee" stroke="none" font-family="Arial" font-size="24px" font-style="normal" font-weight="normal" text-decoration="none" x="200" y="150">UNREGISTERED</text><text fill="#eeeeee" stroke="none" font-family="Arial" font-size="24px" font-style="normal" font-weight="normal" text-decoration="none" x="200" y="180">UNREGISTERED</text><text fill="#eeeeee" stroke="none" font-family="Arial" font-size="24px" font-style="normal" font-weight="normal" text-decoration="none" x="200" y="210">UNREGISTERED</text><text fill="#eeeeee" stroke="none" font-family="Arial" font-size="24px" font-style="normal" font-weight="normal" text-decoration="none" x="200" y="240">UNREGISTERED</text><text fill="#eeeeee" stroke="none" font-family="Arial" font-size="24px" font-style="normal" font-weight="normal" text-decoration="none" x="200" y="270">UNREGISTERED</text><text fill="#eeeeee" stroke="none" font-family="Arial" font-size="24px" font-style="normal" font-weight="normal" text-decoration="none" x="200" y="300">UNREGISTERED</text><text fill="#eeeeee" stroke="none" font-family="Arial" font-size="24px" font-style="normal" font-weight="normal" text-decoration="none" x="200" y="330">UNREGISTERED</text><text fill="#eeeeee" stroke="none" font-family="Arial" font-size="24px" font-style="normal" font-weight="normal" text-decoration="none" x="200" y="360">UNREGISTERED</text><text fill="#eeeeee" stroke="none" font-family="Arial" font-size="24px" font-style="normal" font-weight="normal" text-decoration="none" x="200" y="390">UNREGISTERED</text><text fill="#eeeeee" stroke="none" font-family="Arial" font-size="24px" font-style="normal" font-weight="normal" text-decoration="none" x="200" y="420">UNREGISTERED</text><text fill="#eeeeee" stroke="none" font-family="Arial" font-size="24px" font-style="normal" font-weight="normal" text-decoration="none" x="200" y="450">UNREGISTERED</text><text fill="#eeeeee" stroke="none" font-family="Arial" font-size="24px" font-style="normal" font-weight="normal" text-decoration="none" x="200" y="480">UNREGISTERED</text><text fill="#eeeeee" stroke="none" font-family="Arial" font-size="24px" font-style="normal" font-weight="normal" text-decoration="none" x="200" y="510">UNREGISTERED</text><text fill="#eeeeee" stroke="none" font-family="Arial" font-size="24px" font-style="normal" font-weight="normal" text-decoration="none" x="200" y="540">UNREGISTERED</text><text fill="#eeeeee" stroke="none" font-family="Arial" font-size="24px" font-style="normal" font-weight="normal" text-decoration="none" x="400" y="0">UNREGISTERED</text><text fill="#eeeeee" stroke="none" font-family="Arial" font-size="24px" font-style="normal" font-weight="normal" text-decoration="none" x="400" y="30">UNREGISTERED</text><text fill="#eeeeee" stroke="none" font-family="Arial" font-size="24px" font-style="normal" font-weight="normal" text-decoration="none" x="400" y="60">UNREGISTERED</text><text fill="#eeeeee" stroke="none" font-family="Arial" font-size="24px" font-style="normal" font-weight="normal" text-decoration="none" x="400" y="90">UNREGISTERED</text><text fill="#eeeeee" stroke="none" font-family="Arial" font-size="24px" font-style="normal" font-weight="normal" text-decoration="none" x="400" y="120">UNREGISTERED</text><text fill="#eeeeee" stroke="none" font-family="Arial" font-size="24px" font-style="normal" font-weight="normal" text-decoration="none" x="400" y="150">UNREGISTERED</text><text fill="#eeeeee" stroke="none" font-family="Arial" font-size="24px" font-style="normal" font-weight="normal" text-decoration="none" x="400" y="180">UNREGISTERED</text><text fill="#eeeeee" stroke="none" font-family="Arial" font-size="24px" font-style="normal" font-weight="normal" text-decoration="none" x="400" y="210">UNREGISTERED</text><text fill="#eeeeee" stroke="none" font-family="Arial" font-size="24px" font-style="normal" font-weight="normal" text-decoration="none" x="400" y="240">UNREGISTERED</text><text fill="#eeeeee" stroke="none" font-family="Arial" font-size="24px" font-style="normal" font-weight="normal" text-decoration="none" x="400" y="270">UNREGISTERED</text><text fill="#eeeeee" stroke="none" font-family="Arial" font-size="24px" font-style="normal" font-weight="normal" text-decoration="none" x="400" y="300">UNREGISTERED</text><text fill="#eeeeee" stroke="none" font-family="Arial" font-size="24px" font-style="normal" font-weight="normal" text-decoration="none" x="400" y="330">UNREGISTERED</text><text fill="#eeeeee" stroke="none" font-family="Arial" font-size="24px" font-style="normal" font-weight="normal" text-decoration="none" x="400" y="360">UNREGISTERED</text><text fill="#eeeeee" stroke="none" font-family="Arial" font-size="24px" font-style="normal" font-weight="normal" text-decoration="none" x="400" y="390">UNREGISTERED</text><text fill="#eeeeee" stroke="none" font-family="Arial" font-size="24px" font-style="normal" font-weight="normal" text-decoration="none" x="400" y="420">UNREGISTERED</text><text fill="#eeeeee" stroke="none" font-family="Arial" font-size="24px" font-style="normal" font-weight="normal" text-decoration="none" x="400" y="450">UNREGISTERED</text><text fill="#eeeeee" stroke="none" font-family="Arial" font-size="24px" font-style="normal" font-weight="normal" text-decoration="none" x="400" y="480">UNREGISTERED</text><text fill="#eeeeee" stroke="none" font-family="Arial" font-size="24px" font-style="normal" font-weight="normal" text-decoration="none" x="400" y="510">UNREGISTERED</text><text fill="#eeeeee" stroke="none" font-family="Arial" font-size="24px" font-style="normal" font-weight="normal" text-decoration="none" x="400" y="540">UNREGISTERED</text><text fill="#eeeeee" stroke="none" font-family="Arial" font-size="24px" font-style="normal" font-weight="normal" text-decoration="none" x="600" y="0">UNREGISTERED</text><text fill="#eeeeee" stroke="none" font-family="Arial" font-size="24px" font-style="normal" font-weight="normal" text-decoration="none" x="600" y="30">UNREGISTERED</text><text fill="#eeeeee" stroke="none" font-family="Arial" font-size="24px" font-style="normal" font-weight="normal" text-decoration="none" x="600" y="60">UNREGISTERED</text><text fill="#eeeeee" stroke="none" font-family="Arial" font-size="24px" font-style="normal" font-weight="normal" text-decoration="none" x="600" y="90">UNREGISTERED</text><text fill="#eeeeee" stroke="none" font-family="Arial" font-size="24px" font-style="normal" font-weight="normal" text-decoration="none" x="600" y="120">UNREGISTERED</text><text fill="#eeeeee" stroke="none" font-family="Arial" font-size="24px" font-style="normal" font-weight="normal" text-decoration="none" x="600" y="150">UNREGISTERED</text><text fill="#eeeeee" stroke="none" font-family="Arial" font-size="24px" font-style="normal" font-weight="normal" text-decoration="none" x="600" y="180">UNREGISTERED</text><text fill="#eeeeee" stroke="none" font-family="Arial" font-size="24px" font-style="normal" font-weight="normal" text-decoration="none" x="600" y="210">UNREGISTERED</text><text fill="#eeeeee" stroke="none" font-family="Arial" font-size="24px" font-style="normal" font-weight="normal" text-decoration="none" x="600" y="240">UNREGISTERED</text><text fill="#eeeeee" stroke="none" font-family="Arial" font-size="24px" font-style="normal" font-weight="normal" text-decoration="none" x="600" y="270">UNREGISTERED</text><text fill="#eeeeee" stroke="none" font-family="Arial" font-size="24px" font-style="normal" font-weight="normal" text-decoration="none" x="600" y="300">UNREGISTERED</text><text fill="#eeeeee" stroke="none" font-family="Arial" font-size="24px" font-style="normal" font-weight="normal" text-decoration="none" x="600" y="330">UNREGISTERED</text><text fill="#eeeeee" stroke="none" font-family="Arial" font-size="24px" font-style="normal" font-weight="normal" text-decoration="none" x="600" y="360">UNREGISTERED</text><text fill="#eeeeee" stroke="none" font-family="Arial" font-size="24px" font-style="normal" font-weight="normal" text-decoration="none" x="600" y="390">UNREGISTERED</text><text fill="#eeeeee" stroke="none" font-family="Arial" font-size="24px" font-style="normal" font-weight="normal" text-decoration="none" x="600" y="420">UNREGISTERED</text><text fill="#eeeeee" stroke="none" font-family="Arial" font-size="24px" font-style="normal" font-weight="normal" text-decoration="none" x="600" y="450">UNREGISTERED</text><text fill="#eeeeee" stroke="none" font-family="Arial" font-size="24px" font-style="normal" font-weight="normal" text-decoration="none" x="600" y="480">UNREGISTERED</text><text fill="#eeeeee" stroke="none" font-family="Arial" font-size="24px" font-style="normal" font-weight="normal" text-decoration="none" x="600" y="510">UNREGISTERED</text><text fill="#eeeeee" stroke="none" font-family="Arial" font-size="24px" font-style="normal" font-weight="normal" text-decoration="none" x="600" y="540">UNREGISTERED</text><text fill="#eeeeee" stroke="none" font-family="Arial" font-size="24px" font-style="normal" font-weight="normal" text-decoration="none" x="800" y="0">UNREGISTERED</text><text fill="#eeeeee" stroke="none" font-family="Arial" font-size="24px" font-style="normal" font-weight="normal" text-decoration="none" x="800" y="30">UNREGISTERED</text><text fill="#eeeeee" stroke="none" font-family="Arial" font-size="24px" font-style="normal" font-weight="normal" text-decoration="none" x="800" y="60">UNREGISTERED</text><text fill="#eeeeee" stroke="none" font-family="Arial" font-size="24px" font-style="normal" font-weight="normal" text-decoration="none" x="800" y="90">UNREGISTERED</text><text fill="#eeeeee" stroke="none" font-family="Arial" font-size="24px" font-style="normal" font-weight="normal" text-decoration="none" x="800" y="120">UNREGISTERED</text><text fill="#eeeeee" stroke="none" font-family="Arial" font-size="24px" font-style="normal" font-weight="normal" text-decoration="none" x="800" y="150">UNREGISTERED</text><text fill="#eeeeee" stroke="none" font-family="Arial" font-size="24px" font-style="normal" font-weight="normal" text-decoration="none" x="800" y="180">UNREGISTERED</text><text fill="#eeeeee" stroke="none" font-family="Arial" font-size="24px" font-style="normal" font-weight="normal" text-decoration="none" x="800" y="210">UNREGISTERED</text><text fill="#eeeeee" stroke="none" font-family="Arial" font-size="24px" font-style="normal" font-weight="normal" text-decoration="none" x="800" y="240">UNREGISTERED</text><text fill="#eeeeee" stroke="none" font-family="Arial" font-size="24px" font-style="normal" font-weight="normal" text-decoration="none" x="800" y="270">UNREGISTERED</text><text fill="#eeeeee" stroke="none" font-family="Arial" font-size="24px" font-style="normal" font-weight="normal" text-decoration="none" x="800" y="300">UNREGISTERED</text><text fill="#eeeeee" stroke="none" font-family="Arial" font-size="24px" font-style="normal" font-weight="normal" text-decoration="none" x="800" y="330">UNREGISTERED</text><text fill="#eeeeee" stroke="none" font-family="Arial" font-size="24px" font-style="normal" font-weight="normal" text-decoration="none" x="800" y="360">UNREGISTERED</text><text fill="#eeeeee" stroke="none" font-family="Arial" font-size="24px" font-style="normal" font-weight="normal" text-decoration="none" x="800" y="390">UNREGISTERED</text><text fill="#eeeeee" stroke="none" font-family="Arial" font-size="24px" font-style="normal" font-weight="normal" text-decoration="none" x="800" y="420">UNREGISTERED</text><text fill="#eeeeee" stroke="none" font-family="Arial" font-size="24px" font-style="normal" font-weight="normal" text-decoration="none" x="800" y="450">UNREGISTERED</text><text fill="#eeeeee" stroke="none" font-family="Arial" font-size="24px" font-style="normal" font-weight="normal" text-decoration="none" x="800" y="480">UNREGISTERED</text><text fill="#eeeeee" stroke="none" font-family="Arial" font-size="24px" font-style="normal" font-weight="normal" text-decoration="none" x="800" y="510">UNREGISTERED</text><text fill="#eeeeee" stroke="none" font-family="Arial" font-size="24px" font-style="normal" font-weight="normal" text-decoration="none" x="800" y="540">UNREGISTERED</text><text fill="#eeeeee" stroke="none" font-family="Arial" font-size="24px" font-style="normal" font-weight="normal" text-decoration="none" x="1000" y="0">UNREGISTERED</text><text fill="#eeeeee" stroke="none" font-family="Arial" font-size="24px" font-style="normal" font-weight="normal" text-decoration="none" x="1000" y="30">UNREGISTERED</text><text fill="#eeeeee" stroke="none" font-family="Arial" font-size="24px" font-style="normal" font-weight="normal" text-decoration="none" x="1000" y="60">UNREGISTERED</text><text fill="#eeeeee" stroke="none" font-family="Arial" font-size="24px" font-style="normal" font-weight="normal" text-decoration="none" x="1000" y="90">UNREGISTERED</text><text fill="#eeeeee" stroke="none" font-family="Arial" font-size="24px" font-style="normal" font-weight="normal" text-decoration="none" x="1000" y="120">UNREGISTERED</text><text fill="#eeeeee" stroke="none" font-family="Arial" font-size="24px" font-style="normal" font-weight="normal" text-decoration="none" x="1000" y="150">UNREGISTERED</text><text fill="#eeeeee" stroke="none" font-family="Arial" font-size="24px" font-style="normal" font-weight="normal" text-decoration="none" x="1000" y="180">UNREGISTERED</text><text fill="#eeeeee" stroke="none" font-family="Arial" font-size="24px" font-style="normal" font-weight="normal" text-decoration="none" x="1000" y="210">UNREGISTERED</text><text fill="#eeeeee" stroke="none" font-family="Arial" font-size="24px" font-style="normal" font-weight="normal" text-decoration="none" x="1000" y="240">UNREGISTERED</text><text fill="#eeeeee" stroke="none" font-family="Arial" font-size="24px" font-style="normal" font-weight="normal" text-decoration="none" x="1000" y="270">UNREGISTERED</text><text fill="#eeeeee" stroke="none" font-family="Arial" font-size="24px" font-style="normal" font-weight="normal" text-decoration="none" x="1000" y="300">UNREGISTERED</text><text fill="#eeeeee" stroke="none" font-family="Arial" font-size="24px" font-style="normal" font-weight="normal" text-decoration="none" x="1000" y="330">UNREGISTERED</text><text fill="#eeeeee" stroke="none" font-family="Arial" font-size="24px" font-style="normal" font-weight="normal" text-decoration="none" x="1000" y="360">UNREGISTERED</text><text fill="#eeeeee" stroke="none" font-family="Arial" font-size="24px" font-style="normal" font-weight="normal" text-decoration="none" x="1000" y="390">UNREGISTERED</text><text fill="#eeeeee" stroke="none" font-family="Arial" font-size="24px" font-style="normal" font-weight="normal" text-decoration="none" x="1000" y="420">UNREGISTERED</text><text fill="#eeeeee" stroke="none" font-family="Arial" font-size="24px" font-style="normal" font-weight="normal" text-decoration="none" x="1000" y="450">UNREGISTERED</text><text fill="#eeeeee" stroke="none" font-family="Arial" font-size="24px" font-style="normal" font-weight="normal" text-decoration="none" x="1000" y="480">UNREGISTERED</text><text fill="#eeeeee" stroke="none" font-family="Arial" font-size="24px" font-style="normal" font-weight="normal" text-decoration="none" x="1000" y="510">UNREGISTERED</text><text fill="#eeeeee" stroke="none" font-family="Arial" font-size="24px" font-style="normal" font-weight="normal" text-decoration="none" x="1000" y="540">UNREGISTERED</text><text fill="#eeeeee" stroke="none" font-family="Arial" font-size="24px" font-style="normal" font-weight="normal" text-decoration="none" x="1200" y="0">UNREGISTERED</text><text fill="#eeeeee" stroke="none" font-family="Arial" font-size="24px" font-style="normal" font-weight="normal" text-decoration="none" x="1200" y="30">UNREGISTERED</text><text fill="#eeeeee" stroke="none" font-family="Arial" font-size="24px" font-style="normal" font-weight="normal" text-decoration="none" x="1200" y="60">UNREGISTERED</text><text fill="#eeeeee" stroke="none" font-family="Arial" font-size="24px" font-style="normal" font-weight="normal" text-decoration="none" x="1200" y="90">UNREGISTERED</text><text fill="#eeeeee" stroke="none" font-family="Arial" font-size="24px" font-style="normal" font-weight="normal" text-decoration="none" x="1200" y="120">UNREGISTERED</text><text fill="#eeeeee" stroke="none" font-family="Arial" font-size="24px" font-style="normal" font-weight="normal" text-decoration="none" x="1200" y="150">UNREGISTERED</text><text fill="#eeeeee" stroke="none" font-family="Arial" font-size="24px" font-style="normal" font-weight="normal" text-decoration="none" x="1200" y="180">UNREGISTERED</text><text fill="#eeeeee" stroke="none" font-family="Arial" font-size="24px" font-style="normal" font-weight="normal" text-decoration="none" x="1200" y="210">UNREGISTERED</text><text fill="#eeeeee" stroke="none" font-family="Arial" font-size="24px" font-style="normal" font-weight="normal" text-decoration="none" x="1200" y="240">UNREGISTERED</text><text fill="#eeeeee" stroke="none" font-family="Arial" font-size="24px" font-style="normal" font-weight="normal" text-decoration="none" x="1200" y="270">UNREGISTERED</text><text fill="#eeeeee" stroke="none" font-family="Arial" font-size="24px" font-style="normal" font-weight="normal" text-decoration="none" x="1200" y="300">UNREGISTERED</text><text fill="#eeeeee" stroke="none" font-family="Arial" font-size="24px" font-style="normal" font-weight="normal" text-decoration="none" x="1200" y="330">UNREGISTERED</text><text fill="#eeeeee" stroke="none" font-family="Arial" font-size="24px" font-style="normal" font-weight="normal" text-decoration="none" x="1200" y="360">UNREGISTERED</text><text fill="#eeeeee" stroke="none" font-family="Arial" font-size="24px" font-style="normal" font-weight="normal" text-decoration="none" x="1200" y="390">UNREGISTERED</text><text fill="#eeeeee" stroke="none" font-family="Arial" font-size="24px" font-style="normal" font-weight="normal" text-decoration="none" x="1200" y="420">UNREGISTERED</text><text fill="#eeeeee" stroke="none" font-family="Arial" font-size="24px" font-style="normal" font-weight="normal" text-decoration="none" x="1200" y="450">UNREGISTERED</text><text fill="#eeeeee" stroke="none" font-family="Arial" font-size="24px" font-style="normal" font-weight="normal" text-decoration="none" x="1200" y="480">UNREGISTERED</text><text fill="#eeeeee" stroke="none" font-family="Arial" font-size="24px" font-style="normal" font-weight="normal" text-decoration="none" x="1200" y="510">UNREGISTERED</text><text fill="#eeeeee" stroke="none" font-family="Arial" font-size="24px" font-style="normal" font-weight="normal" text-decoration="none" x="1200" y="540">UNREGISTERED</text><g transform="translate(-182,-166) scale(1,1)"><path fill="#C0C0C0" stroke="none" d="M 199 208.5 C 199 203.2532944 203.2532944 199 208.5 199 C 213.7467056 199 218 203.2532944 218 208.5 C 218 213.7467056 213.7467056 218 208.5 218 C 203.2532944 218 199 213.7467056 199 208.5 Z" opacity="0.2"/></g><g transform="translate(-182,-166) scale(1,1)"><path fill="#000000" stroke="none" d="M 192 201.5 C 192 196.2532944 196.2532944 192 201.5 192 C 206.7467056 192 211 196.2532944 211 201.5 C 211 206.7467056 206.7467056 211 201.5 211 C 196.2532944 211 192 206.7467056 192 201.5 Z"/></g><g transform="translate(-182,-166) scale(1,1)"><path fill="#C0C0C0" stroke="none" d="M 385 183 L 636.95166015625 183 Q 646.95166015625 183 646.95166015625 193 L 646.95166015625 213 Q 646.95166015625 223 636.95166015625 223 L 385 223 Q 375 223 375 213 L 375 193 Q 375 183 385 183 Z" opacity="0.2"/></g><g transform="translate(-182,-166) scale(1,1)"><path fill="#ffffff" stroke="none" d="M 378 176 L 629.95166015625 176 Q 639.95166015625 176 639.95166015625 186 L 639.95166015625 206 Q 639.95166015625 216 629.95166015625 216 L 378 216 Q 368 216 368 206 L 368 186 Q 368 176 378 176 Z"/></g><g transform="translate(-182,-166) scale(1,1)"><path fill="none" stroke="#000000" d="M 378 176 L 629.95166015625 176 Q 639.95166015625 176 639.95166015625 186 L 639.95166015625 206 Q 639.95166015625 216 629.95166015625 216 L 378 216 Q 368 216 368 206 L 368 186 Q 368 176 378 176 Z" stroke-miterlimit="10"/></g><g transform="translate(-182,-166) scale(1,1)"><g><path fill="none" stroke="none"/><text fill="#000000" stroke="none" font-family="Arial" font-size="13px" font-style="normal" font-weight="bold" text-decoration="none" x="385.864990234375" y="194">Chama o método SelecionaCampanha</text></g></g><g transform="translate(-182,-166) scale(1,1)"><path fill="none" stroke="#000000" d="M 212 201 L 367 198" stroke-miterlimit="10"/></g><g transform="translate(-182,-166) scale(1,1)"><path fill="none" stroke="#000000" d="M 356.9206874073592 202.40538961498663 L 367 198 L 356.75776884551885 193.98793058657057" stroke-miterlimit="10"/></g><g transform="translate(-182,-166) scale(1,1)"><path fill="#C0C0C0" stroke="none" d="M 777 183 L 926.341796875 183 Q 936.341796875 183 936.341796875 193 L 936.341796875 213 Q 936.341796875 223 926.341796875 223 L 777 223 Q 767 223 767 213 L 767 193 Q 767 183 777 183 Z" opacity="0.2"/></g><g transform="translate(-182,-166) scale(1,1)"><path fill="#ffffff" stroke="none" d="M 770 176 L 919.341796875 176 Q 929.341796875 176 929.341796875 186 L 929.341796875 206 Q 929.341796875 216 919.341796875 216 L 770 216 Q 760 216 760 206 L 760 186 Q 760 176 770 176 Z"/></g><g transform="translate(-182,-166) scale(1,1)"><path fill="none" stroke="#000000" d="M 770 176 L 919.341796875 176 Q 929.341796875 176 929.341796875 186 L 929.341796875 206 Q 929.341796875 216 919.341796875 216 L 770 216 Q 760 216 760 206 L 760 186 Q 760 176 770 176 Z" stroke-miterlimit="10"/></g><g transform="translate(-182,-166) scale(1,1)"><g><path fill="none" stroke="none"/><text fill="#000000" stroke="none" font-family="Arial" font-size="13px" font-style="normal" font-weight="bold" text-decoration="none" x="764.5" y="194">Cria objeto do tipo Mestre</text></g></g><g transform="translate(-182,-166) scale(1,1)"><path fill="#C0C0C0" stroke="none" d="M 1129 183 L 1507.3271484375 183 Q 1517.3271484375 183 1517.3271484375 193 L 1517.3271484375 213 Q 1517.3271484375 223 1507.3271484375 223 L 1129 223 Q 1119 223 1119 213 L 1119 193 Q 1119 183 1129 183 Z" opacity="0.2"/></g><g transform="translate(-182,-166) scale(1,1)"><path fill="#ffffff" stroke="none" d="M 1122 176 L 1500.3271484375 176 Q 1510.3271484375 176 1510.3271484375 186 L 1510.3271484375 206 Q 1510.3271484375 216 1500.3271484375 216 L 1122 216 Q 1112 216 1112 206 L 1112 186 Q 1112 176 1122 176 Z"/></g><g transform="translate(-182,-166) scale(1,1)"><path fill="none" stroke="#000000" d="M 1122 176 L 1500.3271484375 176 Q 1510.3271484375 176 1510.3271484375 186 L 1510.3271484375 206 Q 1510.3271484375 216 1500.3271484375 216 L 1122 216 Q 1112 216 1112 206 L 1112 186 Q 1112 176 1122 176 Z" stroke-miterlimit="10"/></g><g transform="translate(-182,-166) scale(1,1)"><g><path fill="none" stroke="none"/><text fill="#000000" stroke="none" font-family="Arial" font-size="13px" font-style="normal" font-weight="bold" text-decoration="none" x="1116.5" y="194">Consulta banco de dados de acordo com os dados do Jogador</text></g></g><g transform="translate(-182,-166) scale(1,1)"><path fill="none" stroke="#000000" d="M 930 196 L 1111 196" stroke-miterlimit="10"/></g><g transform="translate(-182,-166) scale(1,1)"><path fill="none" stroke="#000000" d="M 1100.837325142376 200.209517756016 L 1111 196 L 1100.837325142376 191.790482243984" stroke-miterlimit="10"/></g><g transform="translate(-182,-166) scale(1,1)"><path fill="none" stroke="#000000" d="M 641 196 L 759 196" stroke-miterlimit="10"/></g><g transform="translate(-182,-166) scale(1,1)"><path fill="none" stroke="#000000" d="M 748.8373251423759 200.209517756016 L 759 196 L 748.8373251423758 191.790482243984" stroke-miterlimit="10"/></g><g transform="translate(-182,-166) scale(1,1)"><path fill="#C0C0C0" stroke="none" d="M 1177 343 L 1297.4599609375 343 Q 1307.4599609375 343 1307.4599609375 353 L 1307.4599609375 373 Q 1307.4599609375 383 1297.4599609375 383 L 1177 383 Q 1167 383 1167 373 L 1167 353 Q 1167 343 1177 343 Z" opacity="0.2"/></g><g transform="translate(-182,-166) scale(1,1)"><path fill="#ffffff" stroke="none" d="M 1170 336 L 1290.4599609375 336 Q 1300.4599609375 336 1300.4599609375 346 L 1300.4599609375 366 Q 1300.4599609375 376 1290.4599609375 376 L 1170 376 Q 1160 376 1160 366 L 1160 346 Q 1160 336 1170 336 Z"/></g><g transform="translate(-182,-166) scale(1,1)"><path fill="none" stroke="#000000" d="M 1170 336 L 1290.4599609375 336 Q 1300.4599609375 336 1300.4599609375 346 L 1300.4599609375 366 Q 1300.4599609375 376 1290.4599609375 376 L 1170 376 Q 1160 376 1160 366 L 1160 346 Q 1160 336 1170 336 Z" stroke-miterlimit="10"/></g><g transform="translate(-182,-166) scale(1,1)"><g><path fill="none" stroke="none"/><text fill="#000000" stroke="none" font-family="Arial" font-size="13px" font-style="normal" font-weight="bold" text-decoration="none" x="1164.5" y="354">Popula objeto Mestre</text></g></g><g transform="translate(-182,-166) scale(1,1)"><path fill="#C0C0C0" stroke="none" d="M 809 343 L 1034.9072265625 343 Q 1044.9072265625 343 1044.9072265625 353 L 1044.9072265625 373 Q 1044.9072265625 383 1034.9072265625 383 L 809 383 Q 799 383 799 373 L 799 353 Q 799 343 809 343 Z" opacity="0.2"/></g><g transform="translate(-182,-166) scale(1,1)"><path fill="#ffffff" stroke="none" d="M 802 336 L 1027.9072265625 336 Q 1037.9072265625 336 1037.9072265625 346 L 1037.9072265625 366 Q 1037.9072265625 376 1027.9072265625 376 L 802 376 Q 792 376 792 366 L 792 346 Q 792 336 802 336 Z"/></g><g transform="translate(-182,-166) scale(1,1)"><path fill="none" stroke="#000000" d="M 802 336 L 1027.9072265625 336 Q 1037.9072265625 336 1037.9072265625 346 L 1037.9072265625 366 Q 1037.9072265625 376 1027.9072265625 376 L 802 376 Q 792 376 792 366 L 792 346 Q 792 336 802 336 Z" stroke-miterlimit="10"/></g><g transform="translate(-182,-166) scale(1,1)"><g><path fill="none" stroke="none"/><text fill="#000000" stroke="none" font-family="Arial" font-size="13px" font-style="normal" font-weight="bold" text-decoration="none" x="796.5" y="354">Retorna função com os dados obtidos</text></g></g><g transform="translate(-182,-166) scale(1,1)"><path fill="none" stroke="#000000" d="M 1300 217 L 1241 335" stroke-miterlimit="10"/></g><g transform="translate(-182,-166) scale(1,1)"><path fill="none" stroke="#000000" d="M 1241.7797792209974 324.02767370306094 L 1241 335 L 1249.3099935049527 327.7927808450386" stroke-miterlimit="10"/></g><g transform="translate(-182,-166) scale(1,1)"><path fill="none" stroke="#000000" d="M 1159 356 L 1039 356" stroke-miterlimit="10"/></g><g transform="translate(-182,-166) scale(1,1)"><path fill="none" stroke="#000000" d="M 1049.162674857624 351.790482243984 L 1039 356 L 1049.162674857624 360.209517756016" stroke-miterlimit="10"/></g><g transform="translate(-182,-166) scale(1,1)"><path fill="#C0C0C0" stroke="none" d="M 841 487 L 1002.6689453125 487 Q 1012.6689453125 487 1012.6689453125 497 L 1012.6689453125 517 Q 1012.6689453125 527 1002.6689453125 527 L 841 527 Q 831 527 831 517 L 831 497 Q 831 487 841 487 Z" opacity="0.2"/></g><g transform="translate(-182,-166) scale(1,1)"><path fill="#ffffff" stroke="none" d="M 834 480 L 995.6689453125 480 Q 1005.6689453125 480 1005.6689453125 490 L 1005.6689453125 510 Q 1005.6689453125 520 995.6689453125 520 L 834 520 Q 824 520 824 510 L 824 490 Q 824 480 834 480 Z"/></g><g transform="translate(-182,-166) scale(1,1)"><path fill="none" stroke="#000000" d="M 834 480 L 995.6689453125 480 Q 1005.6689453125 480 1005.6689453125 490 L 1005.6689453125 510 Q 1005.6689453125 520 995.6689453125 520 L 834 520 Q 824 520 824 510 L 824 490 Q 824 480 834 480 Z" stroke-miterlimit="10"/></g><g transform="translate(-182,-166) scale(1,1)"><g><path fill="none" stroke="none"/><text fill="#000000" stroke="none" font-family="Arial" font-size="13px" font-style="normal" font-weight="bold" text-decoration="none" x="828.5" y="498">Verifica escolha do Jogador</text></g></g><g transform="translate(-182,-166) scale(1,1)"><path fill="none" stroke="#000000" d="M 914 377 L 914 479" stroke-miterlimit="10"/></g><g transform="translate(-182,-166) scale(1,1)"><path fill="none" stroke="#000000" d="M 909.790482243984 468.83732514237585 L 914 479 L 918.209517756016 468.83732514237585" stroke-miterlimit="10"/></g><g transform="translate(-182,-166) scale(1,1)"><path fill="#C0C0C0" stroke="none" d="M 911 584.5 L 922.5 575 L 933 584.5 L 922.5 593 L 911 584.5" opacity="0.2"/></g><g transform="translate(-182,-166) scale(1,1)"><path fill="#ffffff" stroke="none" d="M 904 577 L 915 568 L 926 577 L 915 586 L 904 577"/></g><g transform="translate(-182,-166) scale(1,1)"><path fill="none" stroke="#000000" d="M 904 577 L 915 568 L 926 577 L 915 586 L 904 577 L 904 577" stroke-miterlimit="10"/></g><g transform="translate(-182,-166) scale(1,1)"><path fill="none" stroke="#000000" d="M 914 521 L 915 567" stroke-miterlimit="10"/></g><g transform="translate(-182,-166) scale(1,1)"><path fill="none" stroke="#000000" d="M 910.570601050423 556.9312153193404 L 915 567 L 918.9876478921751 556.7482360401718" stroke-miterlimit="10"/></g><g transform="translate(-182,-166) scale(1,1)"><path fill="none" stroke="#000000" d="M 927 577 L 1520 576 L 1323 217" stroke-miterlimit="10"/></g><g transform="translate(-182,-166) scale(1,1)"><path fill="none" stroke="#000000" d="M 1331.579405226444 223.88431593990782 L 1323 217 L 1324.1986091292263 227.93450209910517" stroke-miterlimit="10"/></g><g transform="translate(-182,-166) scale(1,1)"><g><path fill="none" stroke="none"/><text fill="#000000" stroke="none" font-family="Arial" font-size="13px" font-style="normal" font-weight="normal" text-decoration="none" x="1182.5" y="571">Não gostou da campanha</text></g></g><g transform="translate(-182,-166) scale(1,1)"><path fill="#C0C0C0" stroke="none" d="M 457 567 L 711.1162109375 567 Q 721.1162109375 567 721.1162109375 577 L 721.1162109375 597 Q 721.1162109375 607 711.1162109375 607 L 457 607 Q 447 607 447 597 L 447 577 Q 447 567 457 567 Z" opacity="0.2"/></g><g transform="translate(-182,-166) scale(1,1)"><path fill="#ffffff" stroke="none" d="M 450 560 L 704.1162109375 560 Q 714.1162109375 560 714.1162109375 570 L 714.1162109375 590 Q 714.1162109375 600 704.1162109375 600 L 450 600 Q 440 600 440 590 L 440 570 Q 440 560 450 560 Z"/></g><g transform="translate(-182,-166) scale(1,1)"><path fill="none" stroke="#000000" d="M 450 560 L 704.1162109375 560 Q 714.1162109375 560 714.1162109375 570 L 714.1162109375 590 Q 714.1162109375 600 704.1162109375 600 L 450 600 Q 440 600 440 590 L 440 570 Q 440 560 450 560 Z" stroke-miterlimit="10"/></g><g transform="translate(-182,-166) scale(1,1)"><g><path fill="none" stroke="none"/><text fill="#000000" stroke="none" font-family="Arial" font-size="13px" font-style="normal" font-weight="bold" text-decoration="none" x="444.5" y="578">Armazena informações no banco de dados</text></g></g><g transform="translate(-182,-166) scale(1,1)"><path fill="none" stroke="#000000" d="M 903 577 L 715 579" stroke-miterlimit="10"/></g><g transform="translate(-182,-166) scale(1,1)"><path fill="none" stroke="#000000" d="M 725.1173202643603 574.6826129814013 L 715 579 L 725.2068794042232 583.1011721285073" stroke-miterlimit="10"/></g><g transform="translate(-182,-166) scale(1,1)"><g><path fill="none" stroke="none"/><text fill="#000000" stroke="none" font-family="Arial" font-size="13px" font-style="normal" font-weight="normal" text-decoration="none" x="750.5" y="574">Gostou da campanha</text></g></g><g transform="translate(-182,-166) scale(1,1)"><path fill="#C0C0C0" stroke="none" d="M 567 715.5 C 567 708.59644 572.59644 703 579.5 703 C 586.40356 703 592 708.59644 592 715.5 C 592 722.40356 586.40356 728 579.5 728 C 572.59644 728 567 722.40356 567 715.5 Z" opacity="0.2"/></g><g transform="translate(-182,-166) scale(1,1)"><path fill="none" stroke="#000000" d="M 560 708.5 C 560 701.59644 565.59644 696 572.5 696 C 579.40356 696 585 701.59644 585 708.5 C 585 715.40356 579.40356 721 572.5 721 C 565.59644 721 560 715.40356 560 708.5 Z" stroke-miterlimit="10"/></g><g transform="translate(-182,-166) scale(1,1)"><path fill="#000000" stroke="none" d="M 565 708.5 C 565 704.357864 568.357864 701 572.5 701 C 576.642136 701 580 704.357864 580 708.5 C 580 712.642136 576.642136 716 572.5 716 C 568.357864 716 565 712.642136 565 708.5 Z"/></g><g transform="translate(-182,-166) scale(1,1)"><path fill="none" stroke="#000000" d="M 576 601 L 573 695" stroke-miterlimit="10"/></g><g transform="translate(-182,-166) scale(1,1)"><path fill="none" stroke="#000000" d="M 569.1168000645071 684.7082188975384 L 573 695 L 577.531551200948 684.9767747848715" stroke-miterlimit="10"/></g></g></svg>